<svg width="24" height="24" viewBox="0 0 24 24" fill="none" xmlns="http://www.w3.org/2000/svg">
<rect width="24" height="24" rx="12" fill="#E5F0FF"/>
<path d="M19.3327 17.3337V18.667H14.666V17.3337H16.306L11.9993 7.07366C11.8727 6.76033 11.666 6.50699 11.3727 6.30699C11.0793 6.10699 10.7593 6.00033 10.406 6.00033C9.93268 6.00033 9.51935 6.18033 9.17268 6.52699C8.82602 6.87366 8.66602 7.28033 8.66602 7.76033V10.0003H9.33268C10.806 10.0003 11.9993 11.1937 11.9993 12.667V18.667H9.33268C9.73935 18.107 9.99935 17.4203 9.99935 16.667C9.99935 14.827 8.50602 13.3337 6.66602 13.3337C6.19268 13.3337 5.73935 13.4337 5.33268 13.6137V10.0003H7.33268V7.76033C7.33268 7.20033 7.48602 6.66699 7.75268 6.21366C8.02602 5.74699 8.39268 5.37366 8.86602 5.08699C9.33268 4.80699 9.84602 4.66699 10.406 4.66699C11.0327 4.66699 11.5993 4.84033 12.106 5.18033C12.6127 5.52033 12.9993 5.98033 13.246 6.54033L17.7727 17.3337H19.3327ZM8.66602 16.667C8.66602 17.7737 7.77268 18.667 6.66602 18.667C5.55935 18.667 4.66602 17.7737 4.66602 16.667C4.66602 15.5603 5.55935 14.667 6.66602 14.667C7.77268 14.667 8.66602 15.5603 8.66602 16.667ZM7.33268 16.667C7.33268 16.3003 7.03268 16.0003 6.66602 16.0003C6.29935 16.0003 5.99935 16.3003 5.99935 16.667C5.99935 17.0337 6.29935 17.3337 6.66602 17.3337C7.03268 17.3337 7.33268 17.0337 7.33268 16.667Z" fill="#68A4FF"/>
</svg>
