<svg width="24" height="24" viewBox="0 0 24 24" fill="none" xmlns="http://www.w3.org/2000/svg">
<rect width="24" height="24" rx="12" fill="#E5F0FF"/>
<path fill-rule="evenodd" clip-rule="evenodd" d="M13.1811 5.35332C13.0456 5.3294 12.9061 5.34288 12.7776 5.39228C12.6492 5.44169 12.5366 5.52516 12.452 5.63374C12.3674 5.74231 12.314 5.87188 12.2975 6.00853C12.281 6.14517 12.3021 6.28373 12.3584 6.40932C12.7321 7.24174 12.8439 8.16809 12.679 9.06552C12.5141 9.96294 12.0803 10.789 11.4351 11.4342C10.7899 12.0794 9.96376 12.5133 9.06633 12.6782C8.1689 12.8431 7.24255 12.7313 6.41013 12.3576C6.28452 12.301 6.14587 12.2798 6.0091 12.2962C5.87234 12.3126 5.74263 12.366 5.63394 12.4506C5.52526 12.5353 5.4417 12.6479 5.39226 12.7765C5.34283 12.9051 5.32938 13.0447 5.35338 13.1803C5.64694 14.8435 6.55331 16.3362 7.89361 17.3638C9.23391 18.3914 10.9107 18.8793 12.5931 18.731C14.2755 18.5828 15.8412 17.8092 16.9811 16.5631C18.1211 15.3169 18.7524 13.6887 18.7506 11.9998C18.7508 10.4142 18.1927 8.87923 17.1743 7.66393C16.156 6.44863 14.7423 5.63061 13.1811 5.35332Z" fill="#68A4FF"/>
</svg>
