<svg width="348" height="225" viewBox="0 0 348 225" fill="none" xmlns="http://www.w3.org/2000/svg">
<circle cx="173.559" cy="179.118" r="170.882" fill="#8EB4ED"/>
<circle cx="118.495" cy="116.752" r="49.8925" fill="white"/>
<circle cx="123.484" cy="116.752" r="27.4409" fill="#3F3F3F"/>
<circle cx="49.8925" cy="49.8925" r="49.8925" transform="matrix(-1 0 0 1 273.161 66.8593)" fill="white"/>
<circle cx="27.4409" cy="27.4409" r="27.4409" transform="matrix(-1 0 0 1 245.72 89.3108)" fill="#3F3F3F"/>
<path d="M137.204 10.3154L139.855 7.71936C143.044 4.59631 148.189 4.74766 151.189 8.05277L151.356 8.23656C154.39 11.579 159.644 11.579 162.678 8.23656V8.23656C165.712 4.89416 170.966 4.89417 174 8.23656V8.23656C177.034 11.579 182.288 11.579 185.322 8.23656V8.23656C188.355 4.89417 193.609 4.89417 196.643 8.23656L196.81 8.42035C199.81 11.7255 204.955 11.8768 208.145 8.75376L210.795 6.15771" stroke="#3F3F3F" stroke-width="9.97849" stroke-linecap="round"/>
</svg>
