<svg width="40" height="41" viewBox="0 0 40 41" fill="none" xmlns="http://www.w3.org/2000/svg">
<path d="M37.7639 22.9688C38.9444 22.9688 39.9861 21.875 39.9861 20.4609C40.0556 19.7578 39.7778 19.1328 39.2222 18.5859L35.5556 14.9531V5.5C35.5556 4.11719 34.5625 3 33.3333 3H31.1111C29.8819 3 28.8889 4.11719 28.8889 5.5V8.36719L21.4931 1.04688C21.0764 0.65625 20.5208 0.5 20.0347 0.5C19.5486 0.5 18.9931 0.578125 18.5069 1.125L0.694444 18.5859C0.208333 19.1328 0 19.7578 0 20.4609C0 21.8672 0.972222 22.9688 2.22222 22.9688H4.44444V28.4141C4.4375 28.4844 4.4375 28.5547 4.4375 28.6328V37.375C4.4375 39.1016 5.68056 40.5 7.21528 40.5H8.32639C8.40972 40.5 8.49306 40.4922 8.57639 40.4844C8.68056 40.4922 8.78472 40.5 8.88889 40.5H12.7778C14.3125 40.5 15.5556 39.1016 15.5556 37.375V30.5C15.5556 29.1172 16.5486 28 17.7778 28H22.2222C23.4514 28 24.4444 29.1172 24.4444 30.5V37.375C24.4444 39.1016 25.6875 40.5 27.2222 40.5H31.1458C31.2431 40.5 31.3403 40.5 31.4375 40.4922C31.5139 40.5 31.5903 40.5 31.6667 40.5H32.7778C34.3125 40.5 35.5556 39.1016 35.5556 37.375V36.1094C35.5764 35.9062 35.5903 35.6953 35.5903 35.4766L35.5417 22.9609H37.7639V22.9688Z" fill="#68A4FF"/>
</svg>
