<svg width="14" height="14" viewBox="0 0 14 14" fill="none" xmlns="http://www.w3.org/2000/svg">
<circle cx="7" cy="7" r="7" fill="white"/>
<path d="M7 0C5.61553 0 4.26216 0.410543 3.11101 1.17971C1.95987 1.94888 1.06266 3.04213 0.532846 4.32122C0.00303299 5.6003 -0.13559 7.00776 0.134506 8.36563C0.404603 9.7235 1.07129 10.9708 2.05026 11.9497C3.02922 12.9287 4.2765 13.5954 5.63437 13.8655C6.99224 14.1356 8.3997 13.997 9.67879 13.4672C10.9579 12.9373 12.0511 12.0401 12.8203 10.889C13.5895 9.73785 14 8.38447 14 7C13.998 5.14409 13.2599 3.36475 11.9476 2.05242C10.6353 0.740087 8.85592 0.00195988 7 0ZM9.69231 7.53846H4.30769C4.16489 7.53846 4.02793 7.48173 3.92694 7.38075C3.82596 7.27977 3.76923 7.14281 3.76923 7C3.76923 6.85719 3.82596 6.72023 3.92694 6.61925C4.02793 6.51827 4.16489 6.46154 4.30769 6.46154H9.69231C9.83512 6.46154 9.97208 6.51827 10.0731 6.61925C10.174 6.72023 10.2308 6.85719 10.2308 7C10.2308 7.14281 10.174 7.27977 10.0731 7.38075C9.97208 7.48173 9.83512 7.53846 9.69231 7.53846Z" fill="#6C6C77"/>
</svg>
