<svg width="40" height="40" viewBox="0 0 40 40" fill="none" xmlns="http://www.w3.org/2000/svg">
<circle cx="33" cy="20" r="7" fill="white"/>
<path d="M33 13C31.6155 13 30.2622 13.4105 29.111 14.1797C27.9599 14.9489 27.0627 16.0421 26.5328 17.3212C26.003 18.6003 25.8644 20.0078 26.1345 21.3656C26.4046 22.7235 27.0713 23.9708 28.0503 24.9497C29.0292 25.9287 30.2765 26.5954 31.6344 26.8655C32.9922 27.1356 34.3997 26.997 35.6788 26.4672C36.9579 25.9373 38.0511 25.0401 38.8203 23.889C39.5895 22.7378 40 21.3845 40 20C39.998 18.1441 39.2599 16.3647 37.9476 15.0524C36.6353 13.7401 34.8559 13.002 33 13ZM35.6923 20.5385H30.3077C30.1649 20.5385 30.0279 20.4817 29.9269 20.3807C29.826 20.2798 29.7692 20.1428 29.7692 20C29.7692 19.8572 29.826 19.7202 29.9269 19.6192C30.0279 19.5183 30.1649 19.4615 30.3077 19.4615H35.6923C35.8351 19.4615 35.9721 19.5183 36.0731 19.6192C36.174 19.7202 36.2308 19.8572 36.2308 20C36.2308 20.1428 36.174 20.2798 36.0731 20.3807C35.9721 20.4817 35.8351 20.5385 35.6923 20.5385Z" fill="#6C6C77"/>
</svg>
