<svg width="89" height="91" viewBox="0 0 89 91" fill="none" xmlns="http://www.w3.org/2000/svg">
<circle cx="44.5" cy="46.299" r="43.7847" fill="#BABABA"/>
<circle cx="31.0768" cy="30.3192" r="12.7839" fill="white"/>
<circle cx="32.3553" cy="30.3191" r="7.03112" fill="#757575"/>
<circle cx="12.7839" cy="12.7839" r="12.7839" transform="matrix(-1 0 0 1 70.707 17.5353)" fill="white"/>
<circle cx="7.03112" cy="7.03112" r="7.03112" transform="matrix(-1 0 0 1 63.6758 23.288)" fill="#757575"/>
<path d="M35.8706 3.04696L36.5499 2.38178C37.367 1.58157 38.6854 1.62035 39.454 2.46721L39.4968 2.5143C40.2742 3.37072 41.6204 3.37072 42.3977 2.5143V2.5143C43.1751 1.65789 44.5213 1.65789 45.2987 2.5143V2.5143C46.0761 3.37072 47.4223 3.37072 48.1996 2.5143V2.5143C48.977 1.65789 50.3232 1.65789 51.1006 2.5143L51.1433 2.5614C51.912 3.40826 53.2304 3.44704 54.0475 2.64682L54.7268 1.98164" stroke="#757575" stroke-width="2.55677" stroke-linecap="round"/>
</svg>
