<svg width="269" height="310" viewBox="0 0 269 310" fill="none" xmlns="http://www.w3.org/2000/svg">
<path d="M137.076 45.3958L127.428 21.8711C125.511 17.1991 120.628 14.4645 115.643 15.2725V15.2725C106.339 16.7807 103.242 28.6137 110.615 34.4859L121.551 43.1953" stroke="#3F3F3F" stroke-width="7.85401" stroke-linecap="round"/>
<path d="M140.047 45.3958L149.695 21.8711C151.611 17.1991 156.495 14.4645 161.479 15.2725V15.2725C170.784 16.7807 173.88 28.6137 166.507 34.4859L155.572 43.1953" stroke="#3F3F3F" stroke-width="7.85401" stroke-linecap="round"/>
<circle cx="134.5" cy="174.752" r="134.5" fill="#FF9DA2"/>
<path d="M79.64 103.084L71.786 95.2301" stroke="#3F3F3F" stroke-width="3.92701"/>
<path d="M114.983 101.121L122.837 93.2665" stroke="#3F3F3F" stroke-width="3.92701"/>
<path d="M97.1312 98.4819L97.3116 87.3761" stroke="#3F3F3F" stroke-width="3.92701"/>
<circle cx="99.275" cy="135.482" r="39.2701" fill="white"/>
<circle cx="99.2752" cy="135.482" r="31.4161" fill="#3F3F3F"/>
<path d="M87.4939 113.883L89.0849 118.183L93.3844 119.774L89.0849 121.365L87.4939 125.664L85.9029 121.365L81.6034 119.774L85.9029 118.183L87.4939 113.883Z" fill="#D9D9D9"/>
<path d="M158.18 103.084L150.326 95.2302" stroke="#3F3F3F" stroke-width="3.92701"/>
<path d="M193.523 101.121L201.377 93.2667" stroke="#3F3F3F" stroke-width="3.92701"/>
<path d="M175.671 98.482L175.852 87.3762" stroke="#3F3F3F" stroke-width="3.92701"/>
<circle cx="177.815" cy="135.482" r="39.2701" fill="white"/>
<circle cx="177.815" cy="135.482" r="31.4161" fill="#3F3F3F"/>
<path d="M166.034 113.884L167.625 118.183L171.925 119.774L167.625 121.365L166.034 125.665L164.443 121.365L160.144 119.774L164.443 118.183L166.034 113.884Z" fill="#D9D9D9"/>
</svg>
