<svg width="89" height="101" viewBox="0 0 89 101" fill="none" xmlns="http://www.w3.org/2000/svg">
<path d="M44.0218 14.9416L40.8809 7.28344C40.2571 5.76255 38.6673 4.87234 37.0446 5.13536V5.13536C34.0157 5.62633 33.0078 9.47841 35.408 11.39L38.9678 14.2252" stroke="#757575" stroke-width="2.55677" stroke-linecap="round"/>
<path d="M44.9889 14.9416L48.1298 7.28344C48.7536 5.76255 50.3434 4.87234 51.9661 5.13536V5.13536C54.995 5.62633 56.003 9.47841 53.6028 11.39L50.0429 14.2252" stroke="#757575" stroke-width="2.55677" stroke-linecap="round"/>
<circle cx="44.5" cy="57.0517" r="43.7847" fill="#BABABA"/>
<path d="M25.3243 33.7212L22.7676 31.1644" stroke="#757575" stroke-width="1.27839"/>
<path d="M36.8295 33.082L39.3862 30.5252" stroke="#757575" stroke-width="1.27839"/>
<path d="M31.0179 32.223L31.0767 28.6077" stroke="#757575" stroke-width="1.27839"/>
<circle cx="31.716" cy="44.2679" r="12.7839" fill="white"/>
<circle cx="31.7159" cy="44.2679" r="10.2271" fill="#757575"/>
<path d="M27.881 37.2368L28.3989 38.6364L29.7985 39.1543L28.3989 39.6723L27.881 41.0719L27.363 39.6723L25.9634 39.1543L27.363 38.6364L27.881 37.2368Z" fill="#D9D9D9"/>
<path d="M50.8917 33.7212L48.335 31.1644" stroke="#757575" stroke-width="1.27839"/>
<path d="M62.3973 33.082L64.9541 30.5252" stroke="#757575" stroke-width="1.27839"/>
<path d="M56.5858 32.223L56.6445 28.6077" stroke="#757575" stroke-width="1.27839"/>
<circle cx="57.2839" cy="44.2679" r="12.7839" fill="white"/>
<circle cx="57.2837" cy="44.2679" r="10.2271" fill="#757575"/>
<path d="M53.4488 37.2368L53.9667 38.6364L55.3664 39.1543L53.9667 39.6723L53.4488 41.0719L52.9309 39.6723L51.5312 39.1543L52.9309 38.6364L53.4488 37.2368Z" fill="#D9D9D9"/>
</svg>
