<svg width="193" height="240" viewBox="0 0 193 240" fill="none" xmlns="http://www.w3.org/2000/svg">
<path fill-rule="evenodd" clip-rule="evenodd" d="M225.919 146.702C213.959 134.905 182.967 110.77 153.264 107.322C128.238 104.417 142.279 125.674 157.238 141.972L148.399 137.687C134.823 131.107 119.091 141.406 119.396 156.675L119.69 171.394C98.8461 162.9 71.8924 156.334 84.3012 179.655C90.6089 191.51 100.74 202.087 111.389 210.786C111.089 213.558 110.936 216.372 110.936 219.222C110.936 263.128 147.439 298.72 192.468 298.72C237.497 298.72 274 263.128 274 219.222C274 186.94 254.266 159.152 225.919 146.702Z" fill="#FFE28B"/>
<ellipse cx="3.73743" cy="7.00328" rx="3.73743" ry="7.00328" transform="matrix(-0.890523 0.454938 0.444171 0.895942 145.926 176.945)" fill="#3A3A3A"/>
<ellipse cx="0.889864" cy="1.43657" rx="0.889864" ry="1.43657" transform="matrix(-0.890523 0.454938 0.444171 0.895942 144.663 179.203)" fill="white"/>
<ellipse cx="3.73743" cy="7.00328" rx="3.73743" ry="7.00328" transform="matrix(-0.890523 0.454938 0.444171 0.895942 163.36 168.038)" fill="#3A3A3A"/>
<ellipse cx="0.889864" cy="1.43657" rx="0.889864" ry="1.43657" transform="matrix(-0.890523 0.454938 0.444171 0.895942 162.096 170.297)" fill="white"/>
<rect width="114.863" height="97.6509" rx="15.2462" transform="matrix(-0.86378 0.503869 0.492626 0.870241 123.893 38.5828)" fill="#CADFFF"/>
<mask id="mask0_3591_21054" style="mask-type:alpha" maskUnits="userSpaceOnUse" x="30" y="44" width="137" height="132">
<rect width="114.863" height="97.6509" rx="15.2462" transform="matrix(-0.86378 0.503869 0.492626 0.870241 123.893 38.5828)" fill="#CADFFF"/>
</mask>
<g mask="url(#mask0_3591_21054)">
<ellipse cx="22.9726" cy="23.1469" rx="22.9726" ry="23.1469" transform="matrix(-0.86378 0.503869 0.492626 0.870241 156.685 62.9961)" fill="#E0ECFF" fill-opacity="0.8"/>
<ellipse cx="22.9726" cy="23.1469" rx="22.9726" ry="23.1469" transform="matrix(-0.86378 0.503869 0.492626 0.870241 80.7356 57.0591)" fill="#E0ECFF" fill-opacity="0.8"/>
<ellipse cx="22.9726" cy="23.1469" rx="22.9726" ry="23.1469" transform="matrix(-0.86378 0.503869 0.492626 0.870241 81.2087 143.867)" fill="#E0ECFF" fill-opacity="0.8"/>
</g>
<path d="M72.002 58.9046C72.3778 60.614 71.4819 62.5323 68.5748 63.9698C65.749 65.3671 61.4272 66.0581 56.2655 65.5829C51.1038 65.1077 46.2933 63.576 42.7236 61.5899C39.0513 59.5468 37.2574 57.3808 36.8816 55.6714C36.5057 53.9619 37.4017 52.0436 40.3087 50.6061C43.1346 49.2089 47.4563 48.5178 52.618 48.993C57.7797 49.4682 62.5902 51 66.1599 52.986C69.8322 55.0292 71.6261 57.1951 72.002 58.9046Z" stroke="#FFE28B" stroke-width="4.35606"/>
<path d="M68.6795 60.8428C69.9452 62.0332 72.0291 62.2133 74.7162 60.3875C77.3284 58.6127 80.0926 55.1702 82.2872 50.4039C84.4818 45.6376 85.6003 40.6473 85.7073 36.5164C85.8175 32.2669 84.8773 29.6029 83.6116 28.4125C82.3459 27.2222 80.2621 27.042 77.5749 28.8679C74.9628 30.6427 72.1985 34.0852 70.0039 38.8515C67.8094 43.6178 66.6909 48.6081 66.5838 52.739C66.4737 56.9885 67.4139 59.6525 68.6795 60.8428Z" stroke="#FFE28B" stroke-width="4.35606"/>
<rect width="124.914" height="33.997" rx="16.9985" transform="matrix(-0.86378 0.503869 0.492626 0.870241 119.682 20.9426)" fill="#90B5EC"/>
<rect width="4.30737" height="115.011" transform="matrix(-0.86378 0.503869 0.492626 0.870241 67.5933 51.3279)" fill="#FFE28B"/>
<path d="M66.6199 50.2205L64.1739 53.7996L95.915 76.1517C96.884 76.8341 98.217 76.5861 98.8924 75.5977C99.5679 74.6093 99.3299 73.2549 98.3609 72.5726L66.6199 50.2205Z" fill="#FFE28B"/>
<path d="M63.4587 52.0649L67.7366 51.7219L70.7785 90.8151C70.8713 92.0086 69.989 93.0528 68.8077 93.1475C67.6264 93.2422 66.5935 92.3516 66.5006 91.1581L63.4587 52.0649Z" fill="#FFE28B"/>
<ellipse cx="5.56331" cy="8.12048" rx="5.56331" ry="8.12048" transform="matrix(-0.845522 0.533941 -0.52251 -0.852633 171.727 199.31)" fill="#3A3A3A"/>
<path d="M153.264 107.322C183.102 110.785 214.241 135.125 226.082 146.862L165.697 150.614C149.12 134.74 123.427 103.858 153.264 107.322Z" fill="url(#paint0_linear_3591_21054)"/>
<defs>
<linearGradient id="paint0_linear_3591_21054" x1="147.417" y1="108.834" x2="157.257" y2="123.186" gradientUnits="userSpaceOnUse">
<stop stop-color="#FFDD79"/>
<stop offset="1" stop-color="#FFE28B"/>
</linearGradient>
</defs>
</svg>
