<svg width="40" height="40" viewBox="0 0 40 40" fill="none" xmlns="http://www.w3.org/2000/svg">
<path d="M29.2215 16.125C28.7196 14.9298 27.9895 13.8434 27.0719 12.9264C26.157 12.0078 25.0702 11.2774 23.8732 10.7768C22.647 10.2615 21.3295 9.99731 19.999 10H19.9542C18.6009 10.0067 17.2924 10.2746 16.0598 10.8014C14.8731 11.3071 13.7965 12.0388 12.8902 12.9554C11.9815 13.8703 11.2597 14.9529 10.7652 16.1429C10.2519 17.3803 9.99178 18.7077 10.0002 20.0469C10.0069 21.596 10.3782 23.1339 11.0717 24.5089V27.9018C11.0717 28.4688 11.5324 28.9286 12.0984 28.9286H15.4939C16.8782 29.6257 18.4059 29.9924 19.9565 30H20.0034C21.3411 30 22.6362 29.7411 23.8575 29.2344C25.0485 28.7397 26.1312 28.0179 27.0451 27.1094C27.9666 26.1964 28.6914 25.1295 29.1991 23.9397C29.7248 22.7076 29.9932 21.3973 29.9999 20.0447C30.0044 18.6853 29.7405 17.3661 29.2215 16.125ZM15.5342 21.0714C14.9437 21.0714 14.4627 20.5915 14.4627 20C14.4627 19.4085 14.9437 18.9286 15.5342 18.9286C16.1247 18.9286 16.6056 19.4085 16.6056 20C16.6056 20.5915 16.127 21.0714 15.5342 21.0714ZM19.999 21.0714C19.4084 21.0714 18.9275 20.5915 18.9275 20C18.9275 19.4085 19.4084 18.9286 19.999 18.9286C20.5895 18.9286 21.0704 19.4085 21.0704 20C21.0704 20.5915 20.5895 21.0714 19.999 21.0714ZM24.4637 21.0714C23.8732 21.0714 23.3923 20.5915 23.3923 20C23.3923 19.4085 23.8732 18.9286 24.4637 18.9286C25.0543 18.9286 25.5352 19.4085 25.5352 20C25.5352 20.5915 25.0543 21.0714 24.4637 21.0714Z" fill="#6C6C77"/>
</svg>
