<svg width="24" height="24" viewBox="0 0 24 24" fill="none" xmlns="http://www.w3.org/2000/svg">
<circle cx="12" cy="12" r="12" fill="#6C6C77"/>
<g clip-path="url(#clip0_5333_82598)">
<path d="M12 5.25H14.625C14.8313 5.25 15 5.43984 15 5.67188V7.35938C15 7.59141 14.8313 7.78125 14.625 7.78125H12.7664L14.8664 9.46875H17.25C18.0773 9.46875 18.75 10.2255 18.75 11.1562V17.0625C18.75 17.9933 18.0773 18.75 17.25 18.75H13.125V15.7969C13.125 15.0981 12.6211 14.5312 12 14.5312C11.3789 14.5312 10.875 15.0981 10.875 15.7969V18.75H6.75C5.92266 18.75 5.25 17.9933 5.25 17.0625V11.1562C5.25 10.2255 5.92266 9.46875 6.75 9.46875H9.13359L11.25 7.76807V6.09375C11.25 5.62705 11.5852 5.25 12 5.25ZM13.125 11.5781C13.125 11.2425 13.0065 10.9205 12.7955 10.6832C12.5845 10.4458 12.2984 10.3125 12 10.3125C11.7016 10.3125 11.4155 10.4458 11.2045 10.6832C10.9935 10.9205 10.875 11.2425 10.875 11.5781C10.875 11.9138 10.9935 12.2357 11.2045 12.4731C11.4155 12.7104 11.7016 12.8437 12 12.8438C12.2984 12.8437 12.5845 12.7104 12.7955 12.4731C13.0065 12.2357 13.125 11.9138 13.125 11.5781ZM7.125 11.1562C6.91875 11.1562 6.75 11.3461 6.75 11.5781V13.2656C6.75 13.4977 6.91875 13.6875 7.125 13.6875H7.875C8.08125 13.6875 8.25 13.4977 8.25 13.2656V11.5781C8.25 11.3461 8.08125 11.1562 7.875 11.1562H7.125ZM15.75 11.5781V13.2656C15.75 13.4977 15.9187 13.6875 16.125 13.6875H16.875C17.0813 13.6875 17.25 13.4977 17.25 13.2656V11.5781C17.25 11.3461 17.0813 11.1562 16.875 11.1562H16.125C15.9187 11.1562 15.75 11.3461 15.75 11.5781ZM7.125 14.5312C6.91875 14.5312 6.75 14.7211 6.75 14.9531V16.6406C6.75 16.8727 6.91875 17.0625 7.125 17.0625H7.875C8.08125 17.0625 8.25 16.8727 8.25 16.6406V14.9531C8.25 14.7211 8.08125 14.5312 7.875 14.5312H7.125ZM16.125 14.5312C15.9187 14.5312 15.75 14.7211 15.75 14.9531V16.6406C15.75 16.8727 15.9187 17.0625 16.125 17.0625H16.875C17.0813 17.0625 17.25 16.8727 17.25 16.6406V14.9531C17.25 14.7211 17.0813 14.5312 16.875 14.5312H16.125Z" fill="#ACADB4"/>
</g>
<defs>
<clipPath id="clip0_5333_82598">
<rect width="13.5" height="13.5" fill="white" transform="translate(5.25 5.25)"/>
</clipPath>
</defs>
</svg>
