<svg width="375" height="200" viewBox="0 0 375 200" fill="none" xmlns="http://www.w3.org/2000/svg">
<g filter="url(#filter0_i_5277_23940)">
<path d="M344.405 6.22651C344.503 0.190985 352.449 -1.9381 355.551 3.23993L362.773 15.2932C364.437 18.0709 368.005 19.0269 370.835 17.4535L383.116 10.6259C388.392 7.69283 394.209 13.5096 391.276 18.7854L384.448 31.0663C382.875 33.8964 383.831 37.4644 386.609 39.1286L398.662 46.3504C403.84 49.4528 401.711 57.3987 395.675 57.4965L381.626 57.724C378.388 57.7765 375.776 60.3884 375.724 63.6261L375.496 77.6754C375.399 83.7109 367.453 85.84 364.35 80.662L357.128 68.6087C355.464 65.8311 351.896 64.875 349.066 66.4484L336.785 73.276C331.509 76.2091 325.693 70.3923 328.626 65.1165L335.453 52.8356C337.027 50.0055 336.071 46.4375 333.293 44.7733L321.24 37.5515C316.062 34.4491 318.191 26.5032 324.226 26.4054L338.276 26.1779C341.513 26.1254 344.125 23.5135 344.178 20.2758L344.405 6.22651Z" fill="white" fill-opacity="0.3"/>
</g>
<g filter="url(#filter1_i_5277_23940)">
<path d="M294.278 56.7114C294.157 54.8587 296.407 53.8558 297.704 55.1838L300.387 57.9294C300.795 58.3469 301.365 58.5653 301.947 58.5274L305.778 58.2781C307.631 58.1574 308.634 60.4068 307.306 61.7043L304.56 64.3871C304.143 64.7951 303.924 65.365 303.962 65.9475L304.211 69.7782C304.332 71.6309 302.083 72.6338 300.785 71.3058L298.102 68.5602C297.694 68.1427 297.124 67.9242 296.542 67.9622L292.711 68.2115C290.859 68.3321 289.856 66.0828 291.184 64.7853L293.929 62.1025C294.347 61.6945 294.565 61.1245 294.527 60.542L294.278 56.7114Z" fill="white" fill-opacity="0.2"/>
</g>
<g filter="url(#filter2_i_5277_23940)">
<path d="M-119.815 72.1411C-114.429 54.7695 -104.342 39.2268 -90.6696 27.2333C-76.9973 15.2398 -60.2731 7.26323 -42.348 4.18638C-24.4229 1.10953 -5.99604 3.05243 10.8932 9.80004C27.7824 16.5477 42.4752 27.8368 53.3455 42.4181C64.2158 56.9993 70.8396 74.3039 72.4837 92.4167C74.1279 110.529 70.7283 128.744 62.6612 145.044C54.5942 161.344 42.1742 175.095 26.7761 184.773C11.3779 194.452 -6.39793 199.681 -24.5841 199.882L-25.6738 101.327L-119.815 72.1411Z" fill="white" fill-opacity="0.3"/>
</g>
<g filter="url(#filter3_i_5277_23940)">
<path d="M12.3229 50.3913C12.3985 49.733 13.2894 49.5858 13.5727 50.1849C13.7246 50.5062 14.1041 50.649 14.4302 50.5076C15.0381 50.2439 15.611 50.9419 15.2338 51.4867C15.0315 51.779 15.0976 52.1791 15.3831 52.3908C15.9154 52.7854 15.5974 53.6305 14.937 53.5763C14.5827 53.5472 14.2693 53.8045 14.2287 54.1576C14.1531 54.8159 13.2622 54.963 12.9789 54.364C12.827 54.0426 12.4475 53.8998 12.1214 54.0413C11.5135 54.305 10.9406 53.6069 11.3178 53.0621C11.5201 52.7699 11.454 52.3698 11.1685 52.1581C10.6362 51.7635 10.9542 50.9183 11.6146 50.9726C11.9689 51.0017 12.2823 50.7444 12.3229 50.3913Z" fill="white" fill-opacity="0.2"/>
</g>
<defs>
<filter id="filter0_i_5277_23940" x="318.312" y="0.314453" width="83.2734" height="83.2734" filterUnits="userSpaceOnUse" color-interpolation-filters="sRGB">
<feFlood flood-opacity="0" result="BackgroundImageFix"/>
<feBlend mode="normal" in="SourceGraphic" in2="BackgroundImageFix" result="shape"/>
<feColorMatrix in="SourceAlpha" type="matrix" values="0 0 0 0 0 0 0 0 0 0 0 0 0 0 0 0 0 0 127 0" result="hardAlpha"/>
<feOffset/>
<feGaussianBlur stdDeviation="5"/>
<feComposite in2="hardAlpha" operator="arithmetic" k2="-1" k3="1"/>
<feColorMatrix type="matrix" values="0 0 0 0 1 0 0 0 0 1 0 0 0 0 1 0 0 0 0.25 0"/>
<feBlend mode="normal" in2="shape" result="effect1_innerShadow_5277_23940"/>
</filter>
<filter id="filter1_i_5277_23940" x="290.578" y="54.5762" width="17.3359" height="17.3369" filterUnits="userSpaceOnUse" color-interpolation-filters="sRGB">
<feFlood flood-opacity="0" result="BackgroundImageFix"/>
<feBlend mode="normal" in="SourceGraphic" in2="BackgroundImageFix" result="shape"/>
<feColorMatrix in="SourceAlpha" type="matrix" values="0 0 0 0 0 0 0 0 0 0 0 0 0 0 0 0 0 0 127 0" result="hardAlpha"/>
<feOffset/>
<feGaussianBlur stdDeviation="5"/>
<feComposite in2="hardAlpha" operator="arithmetic" k2="-1" k3="1"/>
<feColorMatrix type="matrix" values="0 0 0 0 1 0 0 0 0 1 0 0 0 0 1 0 0 0 0.25 0"/>
<feBlend mode="normal" in2="shape" result="effect1_innerShadow_5277_23940"/>
</filter>
<filter id="filter2_i_5277_23940" x="-119.816" y="2.76562" width="192.703" height="197.116" filterUnits="userSpaceOnUse" color-interpolation-filters="sRGB">
<feFlood flood-opacity="0" result="BackgroundImageFix"/>
<feBlend mode="normal" in="SourceGraphic" in2="BackgroundImageFix" result="shape"/>
<feColorMatrix in="SourceAlpha" type="matrix" values="0 0 0 0 0 0 0 0 0 0 0 0 0 0 0 0 0 0 127 0" result="hardAlpha"/>
<feOffset/>
<feGaussianBlur stdDeviation="5"/>
<feComposite in2="hardAlpha" operator="arithmetic" k2="-1" k3="1"/>
<feColorMatrix type="matrix" values="0 0 0 0 1 0 0 0 0 1 0 0 0 0 1 0 0 0 0.25 0"/>
<feBlend mode="normal" in2="shape" result="effect1_innerShadow_5277_23940"/>
</filter>
<filter id="filter3_i_5277_23940" x="10.8984" y="49.8076" width="4.75391" height="4.93359" filterUnits="userSpaceOnUse" color-interpolation-filters="sRGB">
<feFlood flood-opacity="0" result="BackgroundImageFix"/>
<feBlend mode="normal" in="SourceGraphic" in2="BackgroundImageFix" result="shape"/>
<feColorMatrix in="SourceAlpha" type="matrix" values="0 0 0 0 0 0 0 0 0 0 0 0 0 0 0 0 0 0 127 0" result="hardAlpha"/>
<feOffset/>
<feGaussianBlur stdDeviation="5"/>
<feComposite in2="hardAlpha" operator="arithmetic" k2="-1" k3="1"/>
<feColorMatrix type="matrix" values="0 0 0 0 1 0 0 0 0 1 0 0 0 0 1 0 0 0 0.25 0"/>
<feBlend mode="normal" in2="shape" result="effect1_innerShadow_5277_23940"/>
</filter>
</defs>
</svg>
