<svg width="375" height="380" viewBox="0 0 375 380" fill="none" xmlns="http://www.w3.org/2000/svg">
<path d="M0.941803 4.09087C4.80761 -13.0231 29.1926 -13.0231 33.0584 4.09087C35.5639 15.1829 48.2922 20.4549 57.9068 14.3829C72.7418 5.01486 89.9847 22.2579 80.6167 37.0929C74.5453 46.7079 79.8176 59.4359 90.9092 61.9419C108.023 65.8069 108.023 90.1929 90.9092 94.0579C79.8176 96.5639 74.5453 109.292 80.6167 118.907C89.9847 133.742 72.7418 150.985 57.9068 141.617C48.2922 135.545 35.5639 140.817 33.0584 151.909C29.1926 169.023 4.80762 169.023 0.941803 151.909C-1.56364 140.817 -14.292 135.545 -23.9066 141.617C-38.7417 150.985 -55.9845 133.742 -46.6165 118.907C-40.5451 109.292 -45.8174 96.5639 -56.909 94.0579C-74.0232 90.1929 -74.0232 65.8069 -56.9091 61.9419C-45.8174 59.4359 -40.5451 46.7079 -46.6165 37.0929C-55.9845 22.2579 -38.7416 5.01486 -23.9066 14.3829C-14.292 20.4549 -1.56364 15.1829 0.941803 4.09087Z" fill="white" fill-opacity="0.25"/>
<path d="M286.519 46.497C286.327 45.477 287.624 44.875 288.278 45.682L288.689 46.187C289.081 46.671 289.816 46.682 290.223 46.21L290.648 45.717C291.326 44.93 292.605 45.57 292.382 46.584L292.243 47.22C292.109 47.829 292.559 48.41 293.182 48.434L293.832 48.458C294.87 48.498 295.167 49.897 294.236 50.355L293.651 50.642C293.092 50.917 292.918 51.631 293.288 52.133L293.674 52.657C294.291 53.493 293.382 54.598 292.443 54.155L291.854 53.877C291.29 53.612 290.624 53.921 290.462 54.523L290.293 55.152C290.024 56.154 288.594 56.133 288.354 55.123L288.204 54.489C288.06 53.883 287.403 53.554 286.832 53.803L286.235 54.063C285.283 54.478 284.408 53.347 285.048 52.53L285.45 52.017C285.834 51.527 285.681 50.808 285.131 50.516L284.555 50.212C283.637 49.726 283.976 48.336 285.014 48.328L285.666 48.322C286.289 48.317 286.755 47.749 286.64 47.137L286.519 46.497Z" fill="white" fill-opacity="0.1"/>
<path d="M195.519 230.497C195.327 229.477 196.624 228.875 197.278 229.682L197.689 230.187C198.081 230.671 198.816 230.682 199.223 230.21L199.648 229.717C200.326 228.93 201.605 229.57 201.382 230.584L201.243 231.22C201.109 231.829 201.559 232.41 202.182 232.434L202.832 232.458C203.87 232.498 204.167 233.897 203.236 234.355L202.651 234.642C202.092 234.917 201.918 235.631 202.288 236.133L202.674 236.657C203.291 237.493 202.382 238.598 201.443 238.155L200.854 237.877C200.29 237.612 199.624 237.921 199.462 238.523L199.293 239.152C199.024 240.154 197.594 240.133 197.354 239.123L197.204 238.489C197.06 237.883 196.403 237.554 195.832 237.803L195.235 238.063C194.283 238.478 193.408 237.347 194.048 236.53L194.45 236.017C194.834 235.527 194.681 234.808 194.131 234.516L193.555 234.212C192.637 233.726 192.976 232.336 194.014 232.328L194.666 232.322C195.289 232.317 195.755 231.749 195.64 231.137L195.519 230.497Z" fill="white" fill-opacity="0.1"/>
<path d="M199.519 366.497C199.327 365.477 200.624 364.875 201.278 365.682L201.689 366.187C202.081 366.671 202.816 366.682 203.223 366.21L203.648 365.717C204.326 364.93 205.605 365.57 205.382 366.584L205.243 367.22C205.109 367.829 205.559 368.41 206.182 368.434L206.832 368.458C207.87 368.498 208.167 369.897 207.236 370.355L206.651 370.642C206.092 370.917 205.918 371.631 206.288 372.133L206.674 372.657C207.291 373.493 206.382 374.598 205.443 374.155L204.854 373.877C204.29 373.612 203.624 373.921 203.462 374.523L203.293 375.152C203.024 376.154 201.594 376.133 201.354 375.123L201.204 374.489C201.06 373.883 200.403 373.554 199.832 373.803L199.235 374.063C198.283 374.478 197.408 373.347 198.048 372.53L198.45 372.017C198.834 371.527 198.681 370.808 198.131 370.516L197.555 370.212C196.637 369.726 196.976 368.336 198.014 368.328L198.666 368.322C199.289 368.317 199.755 367.749 199.64 367.137L199.519 366.497Z" fill="white" fill-opacity="0.1"/>
<path d="M337.867 105.378C338.427 104.638 339.606 104.993 339.663 105.92L339.671 106.052C339.689 106.343 339.833 106.612 340.066 106.788L340.171 106.867C340.912 107.427 340.556 108.606 339.63 108.663L339.498 108.671C339.207 108.689 338.938 108.833 338.762 109.066L338.682 109.171C338.122 109.912 336.943 109.556 336.886 108.63L336.878 108.498C336.86 108.207 336.716 107.938 336.483 107.762L336.378 107.682C335.638 107.122 335.994 105.943 336.92 105.886L337.052 105.878C337.343 105.86 337.612 105.716 337.788 105.483L337.867 105.378Z" fill="white" fill-opacity="0.1"/>
<path d="M41.8676 226.378C42.4275 225.638 43.6064 225.993 43.6633 226.92L43.6714 227.052C43.6893 227.343 43.8336 227.612 44.0663 227.788L44.1715 227.867C44.9119 228.427 44.5562 229.606 43.6297 229.663L43.4981 229.671C43.2068 229.689 42.9378 229.833 42.7618 230.066L42.6823 230.171C42.1224 230.912 40.9435 230.556 40.8866 229.63L40.8785 229.498C40.8606 229.207 40.7163 228.938 40.4835 228.762L40.3783 228.682C39.6379 228.122 39.9936 226.943 40.9202 226.886L41.0517 226.878C41.3431 226.86 41.612 226.716 41.788 226.483L41.8676 226.378Z" fill="white" fill-opacity="0.1"/>
<path d="M364.409 247.606C366.302 235.524 383.698 235.524 385.591 247.606C387.03 256.793 398.685 259.916 404.525 252.679C412.205 243.163 427.271 251.861 422.869 263.27C419.522 271.947 428.053 280.478 436.73 277.131C448.139 272.729 456.837 287.795 447.321 295.475C440.084 301.315 443.207 312.97 452.394 314.409C464.476 316.302 464.476 333.698 452.394 335.591C443.207 337.03 440.084 348.685 447.321 354.525C456.837 362.205 448.139 377.271 436.73 372.869C428.053 369.522 419.522 378.053 422.869 386.73C427.271 398.139 412.205 406.837 404.525 397.321C398.685 390.084 387.03 393.207 385.591 402.394C383.698 414.476 366.302 414.476 364.409 402.394C362.97 393.207 351.315 390.084 345.475 397.321C337.795 406.837 322.729 398.139 327.131 386.73C330.478 378.053 321.947 369.522 313.27 372.869C301.861 377.271 293.163 362.205 302.679 354.525C309.916 348.685 306.793 337.03 297.606 335.591C285.524 333.698 285.524 316.302 297.606 314.409C306.793 312.97 309.916 301.315 302.679 295.475C293.163 287.795 301.861 272.729 313.27 277.131C321.947 280.478 330.478 271.947 327.131 263.27C322.729 251.861 337.795 243.163 345.475 252.679C351.315 259.916 362.97 256.793 364.409 247.606Z" fill="white" fill-opacity="0.25"/>
</svg>
