<svg width="16" height="17" viewBox="0 0 16 17" fill="none" xmlns="http://www.w3.org/2000/svg">
<path fill-rule="evenodd" clip-rule="evenodd" d="M14.4 2.90016C14.3999 2.76385 14.365 2.62981 14.2986 2.51078C14.2322 2.39174 14.1364 2.29165 14.0205 2.22C13.9045 2.14836 13.7721 2.10753 13.636 2.1014C13.4998 2.09526 13.3643 2.12403 13.2424 2.18496L7.01038 5.30016H3.99998C3.36346 5.30016 2.75301 5.55302 2.30292 6.0031C1.85283 6.45319 1.59998 7.06364 1.59998 7.70016C1.59998 8.33668 1.85283 8.94713 2.30292 9.39722C2.75301 9.8473 3.36346 10.1002 3.99998 10.1002H4.22398L5.64078 14.353C5.69385 14.5123 5.79575 14.6509 5.93201 14.7492C6.06828 14.8474 6.232 14.9002 6.39998 14.9002H7.19998C7.41215 14.9002 7.61563 14.8159 7.76566 14.6658C7.91569 14.5158 7.99998 14.3123 7.99998 14.1002V10.5946L13.2424 13.2154C13.3643 13.2763 13.4998 13.3051 13.636 13.2989C13.7721 13.2928 13.9045 13.252 14.0205 13.1803C14.1364 13.1087 14.2322 13.0086 14.2986 12.8895C14.365 12.7705 14.3999 12.6365 14.4 12.5002V2.90016Z" fill="#808997"/>
</svg>
