<svg width="430" height="213" viewBox="0 0 430 213" fill="none" xmlns="http://www.w3.org/2000/svg">
<g filter="url(#filter0_i_1582_10803)">
<path d="M498.8 23.6051C498.8 23.6051 452.36 109.605 405.347 46.5382C370.441 -0.286024 202.633 98.5139 151.933 73.4849C106.64 51.1249 137.364 32.2758 85.4266 1.81819C37.9659 -26.0144 -55.04 35.9688 -55.04 35.9688" stroke="white" stroke-opacity="0.2" stroke-width="1.14667" stroke-dasharray="4.59 4.59"/>
</g>
<g filter="url(#filter1_i_1582_10803)">
<path d="M341.882 79.8817C341.75 78.7789 343.106 78.1504 343.861 78.9645L345.757 81.0069C346.095 81.371 346.629 81.4761 347.08 81.2672L349.608 80.0953C350.616 79.6282 351.632 80.7237 351.092 81.6939L349.735 84.128C349.493 84.5619 349.558 85.1022 349.896 85.4663L351.792 87.5087C352.548 88.3229 351.82 89.6284 350.73 89.4139L347.996 88.8759C347.509 88.7799 347.015 89.0088 346.773 89.4427L345.416 91.8768C344.876 92.8471 343.409 92.5585 343.276 91.4557L342.943 88.6891C342.884 88.1959 342.513 87.797 342.026 87.7011L339.292 87.163C338.202 86.9486 338.023 85.4647 339.031 84.9976L341.559 83.8258C342.01 83.6169 342.275 83.1415 342.216 82.6483L341.882 79.8817Z" fill="white" fill-opacity="0.1"/>
</g>
<g filter="url(#filter2_i_1582_10803)">
<path d="M274.712 132.058C274.549 131.196 275.645 130.688 276.198 131.369C276.529 131.778 277.15 131.787 277.494 131.389C278.066 130.724 279.147 131.264 278.959 132.121C278.846 132.635 279.226 133.126 279.752 133.146C280.628 133.179 280.88 134.361 280.093 134.748C279.62 134.981 279.473 135.584 279.786 136.008C280.306 136.714 279.539 137.647 278.746 137.273C278.269 137.049 277.706 137.31 277.57 137.818C277.342 138.665 276.134 138.647 275.932 137.794C275.81 137.282 275.255 137.004 274.772 137.214C273.968 137.565 273.229 136.609 273.77 135.919C274.095 135.504 273.966 134.897 273.5 134.651C272.725 134.241 273.011 133.067 273.889 133.06C274.415 133.055 274.809 132.576 274.712 132.058Z" fill="white" fill-opacity="0.1"/>
</g>
<g filter="url(#filter3_i_1582_10803)">
<path d="M107.635 101.34C108.277 100.491 109.629 100.899 109.694 101.962L109.703 102.113C109.724 102.447 109.889 102.755 110.156 102.957L110.277 103.048C111.126 103.69 110.718 105.042 109.655 105.107L109.505 105.116C109.17 105.137 108.862 105.302 108.66 105.569L108.569 105.69C107.927 106.539 106.575 106.131 106.51 105.069L106.501 104.918C106.48 104.584 106.315 104.275 106.048 104.073L105.927 103.982C105.078 103.34 105.486 101.988 106.548 101.923L106.699 101.914C107.033 101.893 107.342 101.728 107.544 101.461L107.635 101.34Z" fill="white" fill-opacity="0.1"/>
</g>
<g filter="url(#filter4_i_1582_10803)">
<path d="M428.452 111.858C430.946 107.975 436.967 109.792 436.897 114.406L436.517 139.654C436.48 142.129 438.414 144.187 440.886 144.304L466.109 145.502C470.718 145.72 472.155 151.842 468.124 154.089L446.069 166.384C443.907 167.59 443.091 170.293 444.226 172.493L455.8 194.935C457.915 199.036 453.332 203.342 449.371 200.975L427.696 188.022C425.571 186.752 422.822 187.397 421.484 189.48L407.836 210.724C405.342 214.607 399.321 212.79 399.391 208.176L399.77 182.928C399.807 180.453 397.874 178.395 395.402 178.278L370.179 177.081C365.57 176.862 364.133 170.74 368.163 168.493L390.219 156.198C392.381 154.992 393.196 152.289 392.062 150.089L380.487 127.647C378.372 123.546 382.956 119.241 386.917 121.608L408.592 134.56C410.717 135.83 413.466 135.185 414.804 133.102L428.452 111.858Z" fill="white" fill-opacity="0.1"/>
</g>
<g filter="url(#filter5_i_1582_10803)">
<path d="M26.7934 71.2169C27.1338 70.6498 28.0061 70.913 27.976 71.5738C27.958 71.9704 28.3032 72.2867 28.6967 72.2342C29.3524 72.1467 29.6905 72.9929 29.1551 73.3813C28.8337 73.6145 28.8016 74.0816 29.088 74.3566C29.5652 74.8146 29.1145 75.6065 28.477 75.4301C28.0943 75.3243 27.7091 75.5904 27.6727 75.9858C27.6121 76.6445 26.712 76.7858 26.4524 76.1774C26.2966 75.8122 25.8483 75.677 25.5165 75.895C24.9638 76.2583 24.292 75.6427 24.6058 75.0604C24.7942 74.7109 24.6205 74.2761 24.2431 74.1527C23.6144 73.947 23.6769 73.038 24.3278 72.9203C24.7185 72.8497 24.9501 72.4427 24.8114 72.0707C24.5802 71.451 25.3299 70.9331 25.8277 71.3686C26.1265 71.63 26.5891 71.5574 26.7934 71.2169Z" fill="white" fill-opacity="0.1"/>
</g>
<defs>
<filter id="filter0_i_1582_10803" x="-55.3584" y="-5.94043" width="554.663" height="84.1045" filterUnits="userSpaceOnUse" color-interpolation-filters="sRGB">
<feFlood flood-opacity="0" result="BackgroundImageFix"/>
<feBlend mode="normal" in="SourceGraphic" in2="BackgroundImageFix" result="shape"/>
<feColorMatrix in="SourceAlpha" type="matrix" values="0 0 0 0 0 0 0 0 0 0 0 0 0 0 0 0 0 0 127 0" result="hardAlpha"/>
<feOffset/>
<feGaussianBlur stdDeviation="5.73333"/>
<feComposite in2="hardAlpha" operator="arithmetic" k2="-1" k3="1"/>
<feColorMatrix type="matrix" values="0 0 0 0 1 0 0 0 0 1 0 0 0 0 1 0 0 0 0.25 0"/>
<feBlend mode="normal" in2="shape" result="effect1_innerShadow_1582_10803"/>
</filter>
<filter id="filter1_i_1582_10803" x="338.366" y="78.5947" width="13.7363" height="13.8711" filterUnits="userSpaceOnUse" color-interpolation-filters="sRGB">
<feFlood flood-opacity="0" result="BackgroundImageFix"/>
<feBlend mode="normal" in="SourceGraphic" in2="BackgroundImageFix" result="shape"/>
<feColorMatrix in="SourceAlpha" type="matrix" values="0 0 0 0 0 0 0 0 0 0 0 0 0 0 0 0 0 0 127 0" result="hardAlpha"/>
<feOffset/>
<feGaussianBlur stdDeviation="5.73333"/>
<feComposite in2="hardAlpha" operator="arithmetic" k2="-1" k3="1"/>
<feColorMatrix type="matrix" values="0 0 0 0 1 0 0 0 0 1 0 0 0 0 1 0 0 0 0.25 0"/>
<feBlend mode="normal" in2="shape" result="effect1_innerShadow_1582_10803"/>
</filter>
<filter id="filter2_i_1582_10803" x="273.05" y="131.054" width="7.51562" height="7.38965" filterUnits="userSpaceOnUse" color-interpolation-filters="sRGB">
<feFlood flood-opacity="0" result="BackgroundImageFix"/>
<feBlend mode="normal" in="SourceGraphic" in2="BackgroundImageFix" result="shape"/>
<feColorMatrix in="SourceAlpha" type="matrix" values="0 0 0 0 0 0 0 0 0 0 0 0 0 0 0 0 0 0 127 0" result="hardAlpha"/>
<feOffset/>
<feGaussianBlur stdDeviation="5.73333"/>
<feComposite in2="hardAlpha" operator="arithmetic" k2="-1" k3="1"/>
<feColorMatrix type="matrix" values="0 0 0 0 1 0 0 0 0 1 0 0 0 0 1 0 0 0 0.25 0"/>
<feBlend mode="normal" in2="shape" result="effect1_innerShadow_1582_10803"/>
</filter>
<filter id="filter3_i_1582_10803" x="105.471" y="100.884" width="5.2627" height="5.2627" filterUnits="userSpaceOnUse" color-interpolation-filters="sRGB">
<feFlood flood-opacity="0" result="BackgroundImageFix"/>
<feBlend mode="normal" in="SourceGraphic" in2="BackgroundImageFix" result="shape"/>
<feColorMatrix in="SourceAlpha" type="matrix" values="0 0 0 0 0 0 0 0 0 0 0 0 0 0 0 0 0 0 127 0" result="hardAlpha"/>
<feOffset/>
<feGaussianBlur stdDeviation="5.73333"/>
<feComposite in2="hardAlpha" operator="arithmetic" k2="-1" k3="1"/>
<feColorMatrix type="matrix" values="0 0 0 0 1 0 0 0 0 1 0 0 0 0 1 0 0 0 0.25 0"/>
<feBlend mode="normal" in2="shape" result="effect1_innerShadow_1582_10803"/>
</filter>
<filter id="filter4_i_1582_10803" x="365.804" y="109.741" width="104.68" height="103.1" filterUnits="userSpaceOnUse" color-interpolation-filters="sRGB">
<feFlood flood-opacity="0" result="BackgroundImageFix"/>
<feBlend mode="normal" in="SourceGraphic" in2="BackgroundImageFix" result="shape"/>
<feColorMatrix in="SourceAlpha" type="matrix" values="0 0 0 0 0 0 0 0 0 0 0 0 0 0 0 0 0 0 127 0" result="hardAlpha"/>
<feOffset/>
<feGaussianBlur stdDeviation="5.73333"/>
<feComposite in2="hardAlpha" operator="arithmetic" k2="-1" k3="1"/>
<feColorMatrix type="matrix" values="0 0 0 0 1 0 0 0 0 1 0 0 0 0 1 0 0 0 0.25 0"/>
<feBlend mode="normal" in2="shape" result="effect1_innerShadow_1582_10803"/>
</filter>
<filter id="filter5_i_1582_10803" x="23.8037" y="70.9062" width="5.61621" height="5.6582" filterUnits="userSpaceOnUse" color-interpolation-filters="sRGB">
<feFlood flood-opacity="0" result="BackgroundImageFix"/>
<feBlend mode="normal" in="SourceGraphic" in2="BackgroundImageFix" result="shape"/>
<feColorMatrix in="SourceAlpha" type="matrix" values="0 0 0 0 0 0 0 0 0 0 0 0 0 0 0 0 0 0 127 0" result="hardAlpha"/>
<feOffset/>
<feGaussianBlur stdDeviation="5.73333"/>
<feComposite in2="hardAlpha" operator="arithmetic" k2="-1" k3="1"/>
<feColorMatrix type="matrix" values="0 0 0 0 1 0 0 0 0 1 0 0 0 0 1 0 0 0 0.25 0"/>
<feBlend mode="normal" in2="shape" result="effect1_innerShadow_1582_10803"/>
</filter>
</defs>
</svg>
