<svg width="375" height="186" viewBox="0 0 375 186" fill="none" xmlns="http://www.w3.org/2000/svg">
<g filter="url(#filter0_i_5277_23940)">
<path d="M435 20.5856C435 20.5856 394.5 95.5854 353.5 40.5854C323.059 -0.249634 176.715 85.9131 132.5 64.0855C93 44.5855 119.794 28.1473 74.5 1.58545C33.1098 -22.6872 -48 31.3679 -48 31.3679" stroke="white" stroke-opacity="0.2" stroke-dasharray="4 4"/>
</g>
<g filter="url(#filter1_i_5277_23940)">
<path d="M298.153 69.664C298.038 68.7022 299.22 68.1541 299.879 68.8641L301.532 70.6452C301.827 70.9628 302.293 71.0544 302.686 70.8722L304.891 69.8503C305.77 69.4429 306.656 70.3982 306.185 71.2444L305.002 73.3671C304.791 73.7456 304.847 74.2168 305.142 74.5343L306.795 76.3154C307.454 77.0254 306.82 78.164 305.869 77.9769L303.485 77.5077C303.06 77.4241 302.629 77.6236 302.418 78.0021L301.235 80.1248C300.764 80.971 299.485 80.7193 299.369 79.7575L299.078 77.3448C299.027 76.9147 298.704 76.5668 298.279 76.4832L295.894 76.014C294.944 75.8269 294.788 74.5329 295.667 74.1255L297.872 73.1036C298.265 72.9214 298.496 72.5068 298.444 72.0767L298.153 69.664Z" fill="white" fill-opacity="0.1"/>
</g>
<g filter="url(#filter2_i_5277_23940)">
<path d="M239.574 115.167C239.432 114.415 240.388 113.972 240.87 114.566C241.159 114.922 241.701 114.93 242 114.583C242.499 114.003 243.442 114.474 243.278 115.221C243.18 115.67 243.511 116.098 243.97 116.115C244.734 116.144 244.953 117.175 244.267 117.513C243.855 117.715 243.727 118.241 243.999 118.611C244.453 119.227 243.784 120.041 243.092 119.714C242.677 119.519 242.185 119.746 242.066 120.19C241.868 120.928 240.815 120.913 240.638 120.169C240.532 119.722 240.048 119.48 239.627 119.663C238.926 119.969 238.281 119.135 238.753 118.533C239.036 118.172 238.924 117.642 238.518 117.428C237.842 117.07 238.091 116.046 238.856 116.04C239.315 116.036 239.659 115.618 239.574 115.167Z" fill="white" fill-opacity="0.1"/>
</g>
<g filter="url(#filter3_i_5277_23940)">
<path d="M93.8675 88.3782C94.4274 87.6377 95.6063 87.9934 95.6632 88.92L95.6713 89.0516C95.6892 89.3429 95.8335 89.6118 96.0662 89.7879L96.1714 89.8674C96.9118 90.4273 96.5561 91.6062 95.6296 91.6631L95.498 91.6712C95.2067 91.6891 94.9377 91.8334 94.7617 92.0662L94.6822 92.1713C94.1223 92.9118 92.9434 92.5561 92.8865 91.6295L92.8784 91.4979C92.8605 91.2066 92.7162 90.9377 92.4834 90.7616L92.3782 90.6821C91.6378 90.1222 91.9935 88.9433 92.9201 88.8864L93.0516 88.8783C93.343 88.8604 93.6119 88.7161 93.7879 88.4833L93.8675 88.3782Z" fill="white" fill-opacity="0.1"/>
</g>
<g filter="url(#filter4_i_5277_23940)">
<path d="M373.649 97.5501C375.824 94.1644 381.075 95.7485 381.014 99.7723L380.683 121.791C380.651 123.949 382.337 125.744 384.493 125.847L406.489 126.891C410.509 127.082 411.762 132.421 408.247 134.38L389.013 145.102C387.128 146.154 386.416 148.511 387.406 150.43L397.5 170.001C399.344 173.578 395.347 177.333 391.893 175.268L372.99 163.972C371.137 162.865 368.739 163.428 367.572 165.244L355.67 183.771C353.495 187.157 348.245 185.573 348.305 181.549L348.636 159.53C348.669 157.372 346.983 155.577 344.826 155.475L322.83 154.431C318.81 154.24 317.557 148.901 321.072 146.941L340.306 136.219C342.192 135.168 342.903 132.81 341.914 130.892L331.82 111.32C329.975 107.744 333.972 103.989 337.427 106.053L356.33 117.349C358.183 118.456 360.58 117.894 361.747 116.077L373.649 97.5501Z" fill="white" fill-opacity="0.1"/>
</g>
<g filter="url(#filter5_i_5277_23940)">
<path d="M23.366 62.1078C23.6629 61.6132 24.4236 61.8427 24.3974 62.419C24.3816 62.7649 24.6827 63.0408 25.0259 62.995C25.5977 62.9187 25.8925 63.6566 25.4256 63.9954C25.1454 64.1987 25.1174 64.6061 25.3671 64.8458C25.7833 65.2453 25.3902 65.9359 24.8343 65.7821C24.5005 65.6898 24.1646 65.9219 24.1329 66.2667C24.08 66.8411 23.295 66.9644 23.0686 66.4338C22.9327 66.1153 22.5418 65.9974 22.2525 66.1875C21.7704 66.5044 21.1846 65.9675 21.4583 65.4597C21.6225 65.1549 21.471 64.7757 21.1419 64.668C20.5936 64.4887 20.6481 63.6959 21.2158 63.5933C21.5565 63.5317 21.7585 63.1768 21.6375 62.8524C21.4359 62.3119 22.0897 61.8602 22.5238 62.2401C22.7844 62.468 23.1878 62.4047 23.366 62.1078Z" fill="white" fill-opacity="0.1"/>
</g>
<defs>
<filter id="filter0_i_5277_23940" x="-48.2773" y="-5.18115" width="483.717" height="73.3474" filterUnits="userSpaceOnUse" color-interpolation-filters="sRGB">
<feFlood flood-opacity="0" result="BackgroundImageFix"/>
<feBlend mode="normal" in="SourceGraphic" in2="BackgroundImageFix" result="shape"/>
<feColorMatrix in="SourceAlpha" type="matrix" values="0 0 0 0 0 0 0 0 0 0 0 0 0 0 0 0 0 0 127 0" result="hardAlpha"/>
<feOffset/>
<feGaussianBlur stdDeviation="5"/>
<feComposite in2="hardAlpha" operator="arithmetic" k2="-1" k3="1"/>
<feColorMatrix type="matrix" values="0 0 0 0 1 0 0 0 0 1 0 0 0 0 1 0 0 0 0.25 0"/>
<feBlend mode="normal" in2="shape" result="effect1_innerShadow_5277_23940"/>
</filter>
<filter id="filter1_i_5277_23940" x="295.088" y="68.5413" width="11.9785" height="12.0974" filterUnits="userSpaceOnUse" color-interpolation-filters="sRGB">
<feFlood flood-opacity="0" result="BackgroundImageFix"/>
<feBlend mode="normal" in="SourceGraphic" in2="BackgroundImageFix" result="shape"/>
<feColorMatrix in="SourceAlpha" type="matrix" values="0 0 0 0 0 0 0 0 0 0 0 0 0 0 0 0 0 0 127 0" result="hardAlpha"/>
<feOffset/>
<feGaussianBlur stdDeviation="5"/>
<feComposite in2="hardAlpha" operator="arithmetic" k2="-1" k3="1"/>
<feColorMatrix type="matrix" values="0 0 0 0 1 0 0 0 0 1 0 0 0 0 1 0 0 0 0.25 0"/>
<feBlend mode="normal" in2="shape" result="effect1_innerShadow_5277_23940"/>
</filter>
<filter id="filter2_i_5277_23940" x="238.125" y="114.291" width="6.55469" height="6.44507" filterUnits="userSpaceOnUse" color-interpolation-filters="sRGB">
<feFlood flood-opacity="0" result="BackgroundImageFix"/>
<feBlend mode="normal" in="SourceGraphic" in2="BackgroundImageFix" result="shape"/>
<feColorMatrix in="SourceAlpha" type="matrix" values="0 0 0 0 0 0 0 0 0 0 0 0 0 0 0 0 0 0 127 0" result="hardAlpha"/>
<feOffset/>
<feGaussianBlur stdDeviation="5"/>
<feComposite in2="hardAlpha" operator="arithmetic" k2="-1" k3="1"/>
<feColorMatrix type="matrix" values="0 0 0 0 1 0 0 0 0 1 0 0 0 0 1 0 0 0 0.25 0"/>
<feBlend mode="normal" in2="shape" result="effect1_innerShadow_5277_23940"/>
</filter>
<filter id="filter3_i_5277_23940" x="91.9805" y="87.9797" width="4.58984" height="4.58984" filterUnits="userSpaceOnUse" color-interpolation-filters="sRGB">
<feFlood flood-opacity="0" result="BackgroundImageFix"/>
<feBlend mode="normal" in="SourceGraphic" in2="BackgroundImageFix" result="shape"/>
<feColorMatrix in="SourceAlpha" type="matrix" values="0 0 0 0 0 0 0 0 0 0 0 0 0 0 0 0 0 0 127 0" result="hardAlpha"/>
<feOffset/>
<feGaussianBlur stdDeviation="5"/>
<feComposite in2="hardAlpha" operator="arithmetic" k2="-1" k3="1"/>
<feColorMatrix type="matrix" values="0 0 0 0 1 0 0 0 0 1 0 0 0 0 1 0 0 0 0.25 0"/>
<feBlend mode="normal" in2="shape" result="effect1_innerShadow_5277_23940"/>
</filter>
<filter id="filter4_i_5277_23940" x="319.014" y="95.7043" width="91.291" height="89.9126" filterUnits="userSpaceOnUse" color-interpolation-filters="sRGB">
<feFlood flood-opacity="0" result="BackgroundImageFix"/>
<feBlend mode="normal" in="SourceGraphic" in2="BackgroundImageFix" result="shape"/>
<feColorMatrix in="SourceAlpha" type="matrix" values="0 0 0 0 0 0 0 0 0 0 0 0 0 0 0 0 0 0 127 0" result="hardAlpha"/>
<feOffset/>
<feGaussianBlur stdDeviation="5"/>
<feComposite in2="hardAlpha" operator="arithmetic" k2="-1" k3="1"/>
<feColorMatrix type="matrix" values="0 0 0 0 1 0 0 0 0 1 0 0 0 0 1 0 0 0 0.25 0"/>
<feBlend mode="normal" in2="shape" result="effect1_innerShadow_5277_23940"/>
</filter>
<filter id="filter5_i_5277_23940" x="20.7598" y="61.8369" width="4.89648" height="4.93481" filterUnits="userSpaceOnUse" color-interpolation-filters="sRGB">
<feFlood flood-opacity="0" result="BackgroundImageFix"/>
<feBlend mode="normal" in="SourceGraphic" in2="BackgroundImageFix" result="shape"/>
<feColorMatrix in="SourceAlpha" type="matrix" values="0 0 0 0 0 0 0 0 0 0 0 0 0 0 0 0 0 0 127 0" result="hardAlpha"/>
<feOffset/>
<feGaussianBlur stdDeviation="5"/>
<feComposite in2="hardAlpha" operator="arithmetic" k2="-1" k3="1"/>
<feColorMatrix type="matrix" values="0 0 0 0 1 0 0 0 0 1 0 0 0 0 1 0 0 0 0.25 0"/>
<feBlend mode="normal" in2="shape" result="effect1_innerShadow_5277_23940"/>
</filter>
</defs>
</svg>
