<svg width="375" height="460" viewBox="0 0 375 460" fill="none" xmlns="http://www.w3.org/2000/svg">
<g filter="url(#filter0_d_1582_10803)">
<path d="M145.224 128.574C158.373 88.1043 215.627 88.1043 228.776 128.574C234.657 146.672 251.522 158.926 270.552 158.926C313.105 158.926 330.797 213.378 296.372 238.389C280.976 249.575 274.534 269.401 280.414 287.5C293.564 327.97 247.245 361.622 212.819 336.611C197.424 325.425 176.576 325.425 161.181 336.611C126.755 361.622 80.4362 327.97 93.5856 287.5C99.4662 269.401 93.024 249.575 77.6285 238.389C43.203 213.378 60.8954 158.926 103.448 158.926C122.478 158.926 139.343 146.672 145.224 128.574Z" fill="#FFE28B"/>
</g>
<ellipse cx="187" cy="228.17" rx="12.2016" ry="17.6923" fill="#3A3A3A"/>
<ellipse cx="170.224" cy="191.872" rx="6.40584" ry="11.8966" fill="#3A3A3A"/>
<ellipse cx="169.003" cy="184.856" rx="1.5252" ry="2.44032" fill="white"/>
<path d="M163.208 176.228C165.546 173.991 171.566 170.859 176.935 176.228" stroke="#3A3A3A" stroke-width="3.66048" stroke-linecap="round"/>
<ellipse cx="204.692" cy="191.872" rx="6.40584" ry="11.8966" fill="#3A3A3A"/>
<ellipse cx="203.471" cy="184.856" rx="1.5252" ry="2.44032" fill="white"/>
<path d="M197.677 176.228C200.015 173.991 206.035 170.859 211.403 176.228" stroke="#3A3A3A" stroke-width="3.66048" stroke-linecap="round"/>
<circle cx="150.68" cy="175.758" r="44.7729" transform="rotate(75.9484 150.68 175.758)" stroke="#ACADB4" stroke-width="2.51063"/>
<circle cx="150.68" cy="175.758" r="44.7729" transform="rotate(75.9484 150.68 175.758)" fill="#F1F7FF" fill-opacity="0.36" stroke="url(#paint0_linear_1582_10803)" stroke-width="2.51063"/>
<mask id="mask0_1582_10803" style="mask-type:alpha" maskUnits="userSpaceOnUse" x="107" y="132" width="88" height="88">
<circle cx="150.679" cy="175.759" r="43.5176" transform="rotate(75.9484 150.679 175.759)" fill="#F1F7FF"/>
</mask>
<g mask="url(#mask0_1582_10803)">
<circle cx="167.273" cy="155.701" r="30.4623" transform="rotate(75.9484 167.273 155.701)" fill="white" fill-opacity="0.2"/>
</g>
<path d="M97.2998 184.805C99.0932 184.356 100.911 185.446 101.36 187.24L102.477 191.705C102.926 193.498 101.836 195.316 100.043 195.765L63.7132 204.857C60.6867 205.615 57.6193 203.776 56.8618 200.749C56.1043 197.723 57.9437 194.655 60.9701 193.898L97.2998 184.805Z" fill="#5E5E5E"/>
<rect x="107.854" y="183.889" width="7.95033" height="10.461" rx="3.97517" transform="rotate(75.9484 107.854 183.889)" fill="#808082"/>
<defs>
<filter id="filter0_d_1582_10803" x="54.5566" y="93.341" width="264.887" height="256.739" filterUnits="userSpaceOnUse" color-interpolation-filters="sRGB">
<feFlood flood-opacity="0" result="BackgroundImageFix"/>
<feColorMatrix in="SourceAlpha" type="matrix" values="0 0 0 0 0 0 0 0 0 0 0 0 0 0 0 0 0 0 127 0" result="hardAlpha"/>
<feOffset/>
<feGaussianBlur stdDeviation="2.44032"/>
<feComposite in2="hardAlpha" operator="out"/>
<feColorMatrix type="matrix" values="0 0 0 0 1 0 0 0 0 0.943318 0 0 0 0 0.773275 0 0 0 1 0"/>
<feBlend mode="normal" in2="BackgroundImageFix" result="effect1_dropShadow_1582_10803"/>
<feBlend mode="normal" in="SourceGraphic" in2="effect1_dropShadow_1582_10803" result="shape"/>
</filter>
<linearGradient id="paint0_linear_1582_10803" x1="130.804" y1="129.73" x2="195.244" y2="231.829" gradientUnits="userSpaceOnUse">
<stop stop-color="#ACADB4"/>
<stop offset="1" stop-color="#727272"/>
</linearGradient>
</defs>
</svg>
