<svg width="278" height="269" viewBox="0 0 278 269" fill="none" xmlns="http://www.w3.org/2000/svg">
<g filter="url(#filter0_d_4017_34779)">
<path d="M95.1444 37.6919C108.875 -4.56397 168.655 -4.56397 182.385 37.6919C188.525 56.5897 206.135 69.3841 226.005 69.3841C270.435 69.3841 288.907 126.238 252.963 152.353C236.888 164.033 230.161 184.734 236.302 203.632C250.031 245.887 201.668 281.026 165.723 254.91C149.648 243.231 127.882 243.231 111.807 254.91C75.8621 281.026 27.4986 245.887 41.2281 203.632C47.3685 184.734 40.6418 164.033 24.5668 152.353C-11.378 126.238 7.09519 69.3841 51.5252 69.3841C71.3951 69.3841 89.0053 56.5897 95.1444 37.6919Z" fill="#FFE28B"/>
</g>
<path d="M138.765 160.158C145.801 160.158 151.506 151.887 151.506 141.684C151.506 131.483 145.801 123.212 138.765 123.212C131.729 123.212 126.025 131.483 126.025 141.684C126.025 151.887 131.729 160.158 138.765 160.158Z" fill="#3A3A3A"/>
<path d="M121.248 116.204C124.942 116.204 127.936 110.643 127.936 103.783C127.936 96.9221 124.942 91.3604 121.248 91.3604C117.554 91.3604 114.56 96.9221 114.56 103.783C114.56 110.643 117.554 116.204 121.248 116.204Z" fill="#3A3A3A"/>
<path d="M119.973 99.007C120.852 99.007 121.566 97.8663 121.566 96.4586C121.566 95.0522 120.852 93.9102 119.973 93.9102C119.093 93.9102 118.38 95.0522 118.38 96.4586C118.38 97.8663 119.093 99.007 119.973 99.007Z" fill="white"/>
<path d="M113.922 87.4493C116.364 85.1142 122.649 81.8441 128.256 87.4493" stroke="#3A3A3A" stroke-width="3.82202" stroke-linecap="round"/>
<path d="M157.238 116.204C160.932 116.204 163.926 110.643 163.926 103.783C163.926 96.9221 160.932 91.3604 157.238 91.3604C153.543 91.3604 150.549 96.9221 150.549 103.783C150.549 110.643 153.543 116.204 157.238 116.204Z" fill="#3A3A3A"/>
<path d="M155.964 99.007C156.843 99.007 157.557 97.8663 157.557 96.4586C157.557 95.0522 156.843 93.9102 155.964 93.9102C155.084 93.9102 154.371 95.0522 154.371 96.4586C154.371 97.8663 155.084 99.007 155.964 99.007Z" fill="white"/>
<path d="M149.913 87.4493C152.354 85.1142 158.64 81.8441 164.245 87.4493" stroke="#3A3A3A" stroke-width="3.82202" stroke-linecap="round"/>
<path d="M55.4913 98.3091C61.7595 123.355 87.1452 138.576 112.191 132.308C137.238 126.039 152.46 100.654 146.192 75.6072C139.922 50.5613 114.536 35.3398 89.4905 41.608C64.4446 47.8762 49.2231 73.2619 55.4913 98.3091Z" stroke="#ACADB4" stroke-width="2.62143"/>
<path d="M55.4913 98.3091C61.7595 123.355 87.1452 138.576 112.191 132.308C137.238 126.039 152.46 100.654 146.192 75.6072C139.922 50.5613 114.536 35.3398 89.4905 41.608C64.4446 47.8762 49.2231 73.2619 55.4913 98.3091Z" fill="#F1F7FF" fill-opacity="0.36" stroke="url(#paint0_linear_4017_34779)" stroke-width="2.62143"/>
<mask id="mask0_4017_34779" style="mask-type:alpha" maskUnits="userSpaceOnUse" x="55" y="41" width="92" height="92">
<path d="M56.7626 97.9919C62.8558 122.335 87.53 137.131 111.873 131.038C136.218 124.945 151.013 100.271 144.92 75.9274C138.828 51.5841 114.153 36.788 89.8088 42.8812C65.4655 48.9744 50.6707 73.6473 56.7626 97.9919Z" fill="#F1F7FF"/>
</mask>
<g mask="url(#mask0_4017_34779)">
<path d="M87.3128 73.7388C91.5781 90.7793 108.85 101.136 125.89 96.8712C142.932 92.606 153.288 75.3343 149.023 58.2938C144.759 41.2534 127.487 30.8962 110.445 35.1615C93.4047 39.4267 83.0476 56.6984 87.3128 73.7388Z" fill="white" fill-opacity="0.2"/>
</g>
<path d="M45.1061 96.4043C46.9788 95.9355 48.877 97.0736 49.3458 98.9463L50.512 103.609C50.9808 105.481 49.8427 107.378 47.97 107.847L10.0372 117.342C6.87721 118.133 3.6744 116.212 2.88343 113.053C2.0926 109.892 4.01303 106.689 7.17306 105.898L45.1061 96.4043Z" fill="#5E5E5E"/>
<path d="M54.1157 104.509C56.3383 103.952 57.6898 101.698 57.1342 99.4749C56.5772 97.2509 54.3239 95.8994 52.0999 96.4564L49.5567 97.0925C47.3327 97.6482 45.9812 99.9028 46.5382 102.127C47.0951 104.351 49.3484 105.702 51.5724 105.145L54.1157 104.509Z" fill="#808082"/>
<defs>
<filter id="filter0_d_4017_34779" x="0.476737" y="0.903983" width="276.576" height="268.07" filterUnits="userSpaceOnUse" color-interpolation-filters="sRGB">
<feFlood flood-opacity="0" result="BackgroundImageFix"/>
<feColorMatrix in="SourceAlpha" type="matrix" values="0 0 0 0 0 0 0 0 0 0 0 0 0 0 0 0 0 0 127 0" result="hardAlpha"/>
<feOffset/>
<feGaussianBlur stdDeviation="2.54801"/>
<feComposite in2="hardAlpha" operator="out"/>
<feColorMatrix type="matrix" values="0 0 0 0 1 0 0 0 0 0.943318 0 0 0 0 0.773275 0 0 0 1 0"/>
<feBlend mode="normal" in2="BackgroundImageFix" result="effect1_dropShadow_4017_34779"/>
<feBlend mode="normal" in="SourceGraphic" in2="effect1_dropShadow_4017_34779" result="shape"/>
</filter>
<linearGradient id="paint0_linear_4017_34779" x1="142.424" y1="55.1574" x2="55.3444" y2="146.311" gradientUnits="userSpaceOnUse">
<stop stop-color="#ACADB4"/>
<stop offset="1" stop-color="#727272"/>
</linearGradient>
</defs>
</svg>
