<svg width="16" height="17" viewBox="0 0 16 17" fill="none" xmlns="http://www.w3.org/2000/svg">
<g clip-path="url(#clip0_1590_24919)">
<path d="M15.715 8.4961C15.715 12.8626 12.156 16.4922 7.85749 16.4922C3.56668 16.4922 0 12.8626 0 8.4961C0 4.12176 3.55898 0.5 7.84978 0.5C12.1483 0.5 15.715 4.12176 15.715 8.4961ZM7.18729 5.36037V7.81408H4.77612C4.37555 7.81408 4.09822 8.09629 4.09822 8.50393C4.09822 8.90378 4.37555 9.17029 4.77612 9.17029H7.18729V11.6318C7.18729 12.0316 7.45691 12.3217 7.84978 12.3217C8.25038 12.3217 8.52765 12.0395 8.52765 11.6318V9.17029H10.9466C11.3394 9.17029 11.6244 8.90378 11.6244 8.50393C11.6244 8.09629 11.3394 7.81408 10.9466 7.81408H8.52765V5.36037C8.52765 4.95273 8.25038 4.66268 7.84978 4.66268C7.45691 4.66268 7.18729 4.95273 7.18729 5.36037Z" fill="#ACADB4"/>
</g>
<defs>
<clipPath id="clip0_1590_24919">
<rect width="16" height="16" fill="white" transform="translate(0 0.5)"/>
</clipPath>
</defs>
</svg>
