<svg width="40" height="40" viewBox="0 0 40 40" fill="none" xmlns="http://www.w3.org/2000/svg">
<circle cx="20" cy="20" r="20" fill="#68A4FF"/>
<path d="M18.31 14.71C18.2173 14.8025 18.1438 14.9124 18.0936 15.0334C18.0434 15.1544 18.0176 15.284 18.0176 15.415C18.0176 15.546 18.0434 15.6757 18.0936 15.7966C18.1438 15.9176 18.2173 16.0275 18.31 16.12L22.19 20L18.31 23.88C18.123 24.067 18.018 24.3206 18.018 24.585C18.018 24.8494 18.123 25.103 18.31 25.29C18.497 25.477 18.7506 25.582 19.015 25.582C19.2794 25.582 19.533 25.477 19.72 25.29L24.31 20.7C24.4027 20.6075 24.4763 20.4976 24.5265 20.3766C24.5766 20.2557 24.6025 20.126 24.6025 19.995C24.6025 19.864 24.5766 19.7344 24.5265 19.6134C24.4763 19.4924 24.4027 19.3825 24.31 19.29L19.72 14.7C19.34 14.32 18.7 14.32 18.31 14.71Z" fill="white"/>
</svg>
