<svg width="335" height="260" viewBox="0 0 335 260" fill="none" xmlns="http://www.w3.org/2000/svg">
<path d="M170.708 56.5338L158.692 27.2372C156.306 21.419 150.224 18.0135 144.017 19.0197V19.0197C132.429 20.8979 128.573 35.6342 137.755 42.9472L151.374 53.7934" stroke="#3F3F3F" stroke-width="9.78102" stroke-linecap="round"/>
<path d="M174.408 56.5338L186.423 27.2372C188.809 21.419 194.891 18.0135 201.099 19.0197V19.0197C212.686 20.8979 216.542 35.6342 207.36 42.9472L193.742 53.7934" stroke="#3F3F3F" stroke-width="9.78102" stroke-linecap="round"/>
<circle cx="167.5" cy="217.628" r="167.5" fill="#FF9DA2"/>
<path d="M99.1799 128.376L89.3989 118.595" stroke="#3F3F3F" stroke-width="4.89051"/>
<path d="M143.194 125.931L152.975 116.15" stroke="#3F3F3F" stroke-width="4.89051"/>
<path d="M120.963 122.645L121.187 108.814" stroke="#3F3F3F" stroke-width="4.89051"/>
<circle cx="123.632" cy="168.723" r="48.9051" fill="white"/>
<circle cx="123.633" cy="168.723" r="39.1241" fill="#3F3F3F"/>
<path d="M108.961 141.825L110.942 147.179L116.297 149.161L110.942 151.142L108.961 156.497L106.979 151.142L101.625 149.161L106.979 147.179L108.961 141.825Z" fill="#D9D9D9"/>
<path d="M196.99 128.376L187.209 118.595" stroke="#3F3F3F" stroke-width="4.89051"/>
<path d="M241.005 125.931L250.786 116.15" stroke="#3F3F3F" stroke-width="4.89051"/>
<path d="M218.773 122.645L218.998 108.814" stroke="#3F3F3F" stroke-width="4.89051"/>
<circle cx="221.443" cy="168.723" r="48.9051" fill="white"/>
<circle cx="221.443" cy="168.723" r="39.1241" fill="#3F3F3F"/>
<path d="M206.771 141.825L208.753 147.18L214.107 149.161L208.753 151.142L206.771 156.497L204.79 151.142L199.436 149.161L204.79 147.18L206.771 141.825Z" fill="#D9D9D9"/>
</svg>
