<svg width="40" height="41" viewBox="0 0 40 41" fill="none" xmlns="http://www.w3.org/2000/svg">
<g clip-path="url(#clip0_201_2097)">
<path d="M20 0.5H27.7778C28.3889 0.5 28.8889 1.0625 28.8889 1.75V6.75C28.8889 7.4375 28.3889 8 27.7778 8H22.2708L28.4931 13H35.5556C38.0069 13 40 15.2422 40 18V35.5C40 38.2578 38.0069 40.5 35.5556 40.5H23.3333V31.75C23.3333 29.6797 21.8403 28 20 28C18.1597 28 16.6667 29.6797 16.6667 31.75V40.5H4.44444C1.99306 40.5 0 38.2578 0 35.5V18C0 15.2422 1.99306 13 4.44444 13H11.5069L17.7778 7.96094V3C17.7778 1.61719 18.7708 0.5 20 0.5ZM23.3333 19.25C23.3333 18.2554 22.9821 17.3016 22.357 16.5983C21.7319 15.8951 20.8841 15.5 20 15.5C19.1159 15.5 18.2681 15.8951 17.643 16.5983C17.0179 17.3016 16.6667 18.2554 16.6667 19.25C16.6667 20.2446 17.0179 21.1984 17.643 21.9017C18.2681 22.6049 19.1159 23 20 23C20.8841 23 21.7319 22.6049 22.357 21.9017C22.9821 21.1984 23.3333 20.2446 23.3333 19.25ZM5.55556 18C4.94444 18 4.44444 18.5625 4.44444 19.25V24.25C4.44444 24.9375 4.94444 25.5 5.55556 25.5H7.77778C8.38889 25.5 8.88889 24.9375 8.88889 24.25V19.25C8.88889 18.5625 8.38889 18 7.77778 18H5.55556ZM31.1111 19.25V24.25C31.1111 24.9375 31.6111 25.5 32.2222 25.5H34.4444C35.0556 25.5 35.5556 24.9375 35.5556 24.25V19.25C35.5556 18.5625 35.0556 18 34.4444 18H32.2222C31.6111 18 31.1111 18.5625 31.1111 19.25ZM5.55556 28C4.94444 28 4.44444 28.5625 4.44444 29.25V34.25C4.44444 34.9375 4.94444 35.5 5.55556 35.5H7.77778C8.38889 35.5 8.88889 34.9375 8.88889 34.25V29.25C8.88889 28.5625 8.38889 28 7.77778 28H5.55556ZM32.2222 28C31.6111 28 31.1111 28.5625 31.1111 29.25V34.25C31.1111 34.9375 31.6111 35.5 32.2222 35.5H34.4444C35.0556 35.5 35.5556 34.9375 35.5556 34.25V29.25C35.5556 28.5625 35.0556 28 34.4444 28H32.2222Z" fill="#68A4FF"/>
</g>
<defs>
<clipPath id="clip0_201_2097">
<rect width="40" height="40" fill="white" transform="translate(0 0.5)"/>
</clipPath>
</defs>
</svg>
