<svg width="335" height="242" viewBox="0 0 335 242" fill="none" xmlns="http://www.w3.org/2000/svg">
<path d="M169.945 31.8978C170.964 25.9884 169.945 12.3358 157.719 4.99998" stroke="#3F3F3F" stroke-width="9.78102" stroke-linecap="round"/>
<ellipse cx="167.5" cy="199.398" rx="167.5" ry="167.5" fill="#FFDB6E"/>
<path d="M81.3047 93.0292V93.0292C98.9343 79.3573 123.584 79.3573 141.214 93.0292V93.0292" stroke="#3F3F3F" stroke-width="7.33577" stroke-linecap="round"/>
<circle cx="111.259" cy="150.492" r="48.9051" fill="white"/>
<path d="M147.938 150.492C147.938 159.639 144.52 168.457 138.355 175.214C132.189 181.971 123.722 186.181 114.613 187.017C105.504 187.854 96.4111 185.256 89.1184 179.735C81.8257 174.213 76.8593 166.166 75.1936 157.172C73.5278 148.177 75.2829 138.885 80.1146 131.118C84.9463 123.351 92.5058 117.67 101.31 115.189C110.114 112.707 119.528 113.606 127.704 117.707C135.881 121.808 142.229 128.816 145.505 137.357L111.259 150.492H147.938Z" fill="#3F3F3F"/>
<path d="M193.787 93.0289V93.0289C211.416 79.3571 236.066 79.3571 253.696 93.0289V93.0289" stroke="#3F3F3F" stroke-width="7.33577" stroke-linecap="round"/>
<circle cx="223.741" cy="150.492" r="48.9051" fill="white"/>
<path d="M260.42 150.492C260.42 159.639 257.002 168.456 250.837 175.214C244.671 181.971 236.204 186.181 227.095 187.017C217.986 187.854 208.893 185.256 201.6 179.735C194.308 174.213 189.341 166.166 187.676 157.171C186.01 148.177 187.765 138.885 192.597 131.118C197.428 123.351 204.988 117.669 213.792 115.188C222.596 112.707 232.01 113.605 240.186 117.706C248.363 121.808 254.711 128.816 257.987 137.357L223.741 150.492H260.42Z" fill="#3F3F3F"/>
</svg>
