<svg width="40" height="40" viewBox="0 0 40 40" fill="none" xmlns="http://www.w3.org/2000/svg">
<path fill-rule="evenodd" clip-rule="evenodd" d="M3.33325 10C3.33325 8.67392 3.86004 7.40215 4.79772 6.46447C5.7354 5.52678 7.00717 5 8.33325 5H31.6666C32.9927 5 34.2644 5.52678 35.2021 6.46447C36.1398 7.40215 36.6666 8.67392 36.6666 10V30C36.6666 31.3261 36.1398 32.5979 35.2021 33.5355C34.2644 34.4732 32.9927 35 31.6666 35H8.33325C7.00717 35 5.7354 34.4732 4.79772 33.5355C3.86004 32.5979 3.33325 31.3261 3.33325 30V10ZM11.6666 11.6667C11.2246 11.6667 10.8006 11.8423 10.4881 12.1548C10.1755 12.4674 9.99992 12.8913 9.99992 13.3333C9.99992 13.7754 10.1755 14.1993 10.4881 14.5118C10.8006 14.8244 11.2246 15 11.6666 15H19.9999C20.4419 15 20.8659 14.8244 21.1784 14.5118C21.491 14.1993 21.6666 13.7754 21.6666 13.3333C21.6666 12.8913 21.491 12.4674 21.1784 12.1548C20.8659 11.8423 20.4419 11.6667 19.9999 11.6667H11.6666ZM24.9999 11.6667C24.5579 11.6667 24.134 11.8423 23.8214 12.1548C23.5088 12.4674 23.3333 12.8913 23.3333 13.3333C23.3333 13.7754 23.5088 14.1993 23.8214 14.5118C24.134 14.8244 24.5579 15 24.9999 15H28.3333C28.7753 15 29.1992 14.8244 29.5118 14.5118C29.8243 14.1993 29.9999 13.7754 29.9999 13.3333C29.9999 12.8913 29.8243 12.4674 29.5118 12.1548C29.1992 11.8423 28.7753 11.6667 28.3333 11.6667H24.9999ZM11.6666 18.3333C11.2246 18.3333 10.8006 18.5089 10.4881 18.8215C10.1755 19.134 9.99992 19.558 9.99992 20C9.99992 20.442 10.1755 20.8659 10.4881 21.1785C10.8006 21.4911 11.2246 21.6667 11.6666 21.6667H13.3333C13.7753 21.6667 14.1992 21.4911 14.5118 21.1785C14.8243 20.8659 14.9999 20.442 14.9999 20C14.9999 19.558 14.8243 19.134 14.5118 18.8215C14.1992 18.5089 13.7753 18.3333 13.3333 18.3333H11.6666ZM18.3333 18.3333C17.8912 18.3333 17.4673 18.5089 17.1547 18.8215C16.8422 19.134 16.6666 19.558 16.6666 20C16.6666 20.442 16.8422 20.8659 17.1547 21.1785C17.4673 21.4911 17.8912 21.6667 18.3333 21.6667H28.3333C28.7753 21.6667 29.1992 21.4911 29.5118 21.1785C29.8243 20.8659 29.9999 20.442 29.9999 20C29.9999 19.558 29.8243 19.134 29.5118 18.8215C29.1992 18.5089 28.7753 18.3333 28.3333 18.3333H18.3333ZM11.6666 25C11.2246 25 10.8006 25.1756 10.4881 25.4882C10.1755 25.8007 9.99992 26.2246 9.99992 26.6667C9.99992 27.1087 10.1755 27.5326 10.4881 27.8452C10.8006 28.1577 11.2246 28.3333 11.6666 28.3333H19.9999C20.4419 28.3333 20.8659 28.1577 21.1784 27.8452C21.491 27.5326 21.6666 27.1087 21.6666 26.6667C21.6666 26.2246 21.491 25.8007 21.1784 25.4882C20.8659 25.1756 20.4419 25 19.9999 25H11.6666ZM24.9999 25C24.5579 25 24.134 25.1756 23.8214 25.4882C23.5088 25.8007 23.3333 26.2246 23.3333 26.6667C23.3333 27.1087 23.5088 27.5326 23.8214 27.8452C24.134 28.1577 24.5579 28.3333 24.9999 28.3333H28.3333C28.7753 28.3333 29.1992 28.1577 29.5118 27.8452C29.8243 27.5326 29.9999 27.1087 29.9999 26.6667C29.9999 26.2246 29.8243 25.8007 29.5118 25.4882C29.1992 25.1756 28.7753 25 28.3333 25H24.9999Z" fill="#E6E6E6"/>
</svg>
