<svg width="136" height="131" viewBox="0 0 136 131" fill="none" xmlns="http://www.w3.org/2000/svg">
<path d="M46.0221 16.6411C52.9398 -4.64946 83.0602 -4.64945 89.9779 16.6411C93.0716 26.1625 101.944 32.6089 111.956 32.6089C134.342 32.6089 143.65 61.2552 125.539 74.4134C117.44 80.298 114.05 90.7286 117.144 100.25C124.062 121.541 99.6939 139.245 81.5831 126.087C73.4837 120.202 62.5163 120.202 54.4169 126.087C36.3061 139.245 11.9382 121.541 18.8559 100.25C21.9496 90.7286 18.5605 80.298 10.4611 74.4134C-7.64971 61.2552 1.65801 32.6089 24.0442 32.6089C34.0556 32.6089 42.9284 26.1625 46.0221 16.6411Z" fill="#FFE28B"/>
<path d="M50.2617 36.1698V36.1698C54.3957 32.9638 60.1759 32.9638 64.3099 36.1698V36.1698" stroke="#3F3F3F" stroke-width="1.72018" stroke-linecap="round"/>
<ellipse cx="57.286" cy="51.6909" rx="6.33508" ry="11.0864" fill="#474747"/>
<path d="M71.2786 36.1699V36.1699C75.4126 32.9639 81.1927 32.9639 85.3267 36.1699V36.1699" stroke="#3F3F3F" stroke-width="1.72018" stroke-linecap="round"/>
<ellipse cx="78.3026" cy="51.691" rx="6.33508" ry="11.0864" fill="#474747"/>
</svg>
