<svg width="41" height="40" viewBox="0 0 41 40" fill="none" xmlns="http://www.w3.org/2000/svg">
<path d="M8.95581 11.0771C8.95581 10.2077 9.66061 9.50293 10.53 9.50293H25.2227C26.0922 9.50293 26.797 10.2077 26.797 11.0771V20.5225C26.797 21.3919 26.0922 22.0967 25.2227 22.0967H10.53C9.66061 22.0967 8.95581 21.3919 8.95581 20.5225V11.0771Z" fill="#ACADB4"/>
<path d="M14.2031 19.4775C14.2031 18.6081 14.9079 17.9033 15.7773 17.9033H30.4701C31.3395 17.9033 32.0443 18.6081 32.0443 19.4775V28.9229C32.0443 29.7923 31.3395 30.4971 30.4701 30.4971H15.7773C14.9079 30.4971 14.2031 29.7923 14.2031 28.9229V19.4775Z" fill="#ACADB4"/>
<path d="M11.5796 12.6538H22.5991" stroke="white" stroke-width="1.57422" stroke-linecap="round"/>
<path d="M11.5796 15.802H18.9259" stroke="white" stroke-width="1.57422" stroke-linecap="round"/>
</svg>
