<svg width="41" height="40" viewBox="0 0 41 40" fill="none" xmlns="http://www.w3.org/2000/svg">
<path d="M18.061 11.8585C18.8287 9.49579 22.1713 9.49579 22.939 11.8585C23.5795 13.8298 25.4166 15.1645 27.4893 15.1645C29.9737 15.1645 31.0066 18.3435 28.9967 19.8038C27.3198 21.0221 26.6181 23.1817 27.2587 25.153C28.0263 27.5157 25.3221 29.4805 23.3123 28.0202C21.6354 26.8019 19.3647 26.8019 17.6877 28.0202C15.6779 29.4805 12.9737 27.5157 13.7414 25.153C14.3819 23.1817 13.6802 21.0221 12.0033 19.8038C9.99344 18.3435 11.0264 15.1645 13.5107 15.1645C15.5834 15.1645 17.4205 13.8298 18.061 11.8585Z" fill="#68A4FF" stroke="#68A4FF" stroke-width="2.22"/>
</svg>
