<svg width="40" height="40" viewBox="0 0 40 40" fill="none" xmlns="http://www.w3.org/2000/svg">
<path d="M13.1811 15.1645C15.2032 15.1645 16.9955 13.8298 17.6204 11.8585C18.3694 9.49575 21.6305 9.49575 22.3794 11.8585C23.0043 13.8298 24.7966 15.1645 26.8188 15.1645C29.2426 15.1645 30.2503 18.3435 28.2894 19.8038C26.6534 21.0221 25.9688 23.1817 26.5938 25.153C27.3427 27.5157 24.7044 29.4805 22.7436 28.0202C21.1076 26.8019 18.8923 26.8019 17.2562 28.0202C15.2954 29.4805 12.6572 27.5157 13.4062 25.153C14.031 23.1817 13.3465 21.0221 11.7105 19.8038C9.74962 18.3435 10.7574 15.1645 13.1811 15.1645Z" fill="#68A4FF" stroke="#68A4FF" stroke-width="2.22"/>
</svg>
