<svg width="310" height="304" viewBox="0 0 310 304" fill="none" xmlns="http://www.w3.org/2000/svg">
<g filter="url(#filter0_d_5416_51200)">
<path d="M107.557 42.4937C123.051 -5.18994 190.51 -5.18994 206.004 42.4937C212.933 63.8185 232.805 78.2568 255.227 78.2568C305.365 78.2568 326.211 142.415 285.649 171.885C267.509 185.064 259.918 208.425 266.847 229.75C282.34 277.434 227.764 317.086 187.203 287.616C169.062 274.436 144.499 274.436 126.359 287.616C85.7972 317.086 31.2207 277.434 46.7141 229.75C53.6429 208.425 46.0524 185.064 27.9125 171.885C-12.6497 142.415 8.19646 78.2568 58.3341 78.2568C80.7563 78.2568 100.629 63.8185 107.557 42.4937Z" fill="#FFE28B"/>
</g>
<path d="M122.995 130.013C122.995 128.623 121.868 127.497 120.479 127.497C119.089 127.497 117.963 128.623 117.963 130.013V144.389C117.963 145.778 119.089 146.905 120.479 146.905C121.868 146.905 122.995 145.778 122.995 144.389V130.013Z" fill="white"/>
<path d="M195.597 130.013C195.597 128.623 194.47 127.497 193.081 127.497C191.691 127.497 190.564 128.623 190.564 130.013V181.049C190.564 182.439 191.691 183.565 193.081 183.565C194.47 183.565 195.597 182.439 195.597 181.049V130.013Z" fill="white"/>
<path d="M141.684 110.963H120.839C119.251 110.963 117.963 112.251 117.963 113.838V128.215C117.963 129.803 119.251 131.09 120.839 131.09H141.684C143.272 131.09 144.56 129.803 144.56 128.215V113.838C144.56 112.251 143.272 110.963 141.684 110.963Z" fill="#3A3A3A"/>
<path d="M142.403 103.056H120.119C118.928 103.056 117.963 104.021 117.963 105.213C117.963 106.404 118.928 107.369 120.119 107.369H142.403C143.595 107.369 144.56 106.404 144.56 105.213C144.56 104.021 143.595 103.056 142.403 103.056Z" fill="#3A3A3A"/>
<path d="M192.721 110.963H171.876C170.288 110.963 169 112.251 169 113.838V128.215C169 129.803 170.288 131.09 171.876 131.09H192.721C194.309 131.09 195.597 129.803 195.597 128.215V113.838C195.597 112.251 194.309 110.963 192.721 110.963Z" fill="#3A3A3A"/>
<path d="M193.44 103.056H171.156C169.965 103.056 169 104.021 169 105.213C169 106.404 169.965 107.369 171.156 107.369H193.44C194.632 107.369 195.597 106.404 195.597 105.213C195.597 104.021 194.632 103.056 193.44 103.056Z" fill="#3A3A3A"/>
<path d="M144.561 150.139L152.565 142.135C155.091 139.608 159.188 139.608 161.714 142.135L169.719 150.139" stroke="#3A3A3A" stroke-width="4.313" stroke-linecap="round"/>
<defs>
<filter id="filter0_d_5416_51200" x="0.72786" y="0.980302" width="312.105" height="302.505" filterUnits="userSpaceOnUse" color-interpolation-filters="sRGB">
<feFlood flood-opacity="0" result="BackgroundImageFix"/>
<feColorMatrix in="SourceAlpha" type="matrix" values="0 0 0 0 0 0 0 0 0 0 0 0 0 0 0 0 0 0 127 0" result="hardAlpha"/>
<feOffset/>
<feGaussianBlur stdDeviation="2.87533"/>
<feComposite in2="hardAlpha" operator="out"/>
<feColorMatrix type="matrix" values="0 0 0 0 1 0 0 0 0 0.943318 0 0 0 0 0.773275 0 0 0 1 0"/>
<feBlend mode="normal" in2="BackgroundImageFix" result="effect1_dropShadow_5416_51200"/>
<feBlend mode="normal" in="SourceGraphic" in2="effect1_dropShadow_5416_51200" result="shape"/>
</filter>
</defs>
</svg>
