<svg width="40" height="41" viewBox="0 0 40 41" fill="none" xmlns="http://www.w3.org/2000/svg">
<path d="M17 15.2108C16.9073 15.3033 16.8337 15.4132 16.7835 15.5341C16.7333 15.6551 16.7075 15.7848 16.7075 15.9158C16.7075 16.0467 16.7333 16.1764 16.7835 16.2974C16.8337 16.4184 16.9073 16.5282 17 16.6208L20.88 20.5008L17 24.3808C16.813 24.5677 16.7079 24.8213 16.7079 25.0858C16.7079 25.3502 16.813 25.6038 17 25.7908C17.1869 25.9777 17.4405 26.0828 17.705 26.0828C17.9694 26.0828 18.223 25.9777 18.41 25.7908L23 21.2008C23.0927 21.1082 23.1662 20.9984 23.2164 20.8774C23.2666 20.7564 23.2924 20.6267 23.2924 20.4958C23.2924 20.3648 23.2666 20.2351 23.2164 20.1141C23.1662 19.9932 23.0927 19.8833 23 19.7908L18.41 15.2008C18.03 14.8208 17.39 14.8208 17 15.2108Z" fill="#E6E6E6"/>
</svg>
