<svg width="16" height="17" viewBox="0 0 16 17" fill="none" xmlns="http://www.w3.org/2000/svg">
<path d="M12.2366 4.85992H10.9433V3.62659C10.9439 3.27314 10.8401 2.92739 10.6449 2.63276C10.4496 2.33813 10.1717 2.10776 9.84595 1.97059C9.6297 1.88014 9.39768 1.83346 9.16328 1.83325H3.79661C3.56199 1.83413 3.32983 1.88121 3.11339 1.9718C2.89696 2.0624 2.70049 2.19474 2.5352 2.36126C2.36991 2.52779 2.23904 2.72524 2.15006 2.94235C2.06108 3.15945 2.01574 3.39196 2.01661 3.62659V10.3533C2.01574 10.5879 2.06108 10.8204 2.15006 11.0375C2.23904 11.2546 2.36991 11.452 2.5352 11.6186C2.70049 11.7851 2.89696 11.9174 3.11339 12.008C3.32983 12.0986 3.56199 12.1457 3.79661 12.1466H5.08995V13.3799C5.08994 13.8526 5.27727 14.3061 5.61089 14.6409C5.94451 14.9758 6.39725 15.1648 6.86995 15.1666H12.2033C12.676 15.1648 13.1287 14.9758 13.4623 14.6409C13.796 14.3061 13.9833 13.8526 13.9833 13.3799V6.65325C13.9834 6.18561 13.8009 5.7364 13.4746 5.40139C13.1483 5.06639 12.7041 4.87209 12.2366 4.85992ZM5.08995 6.65325V11.1466H3.79661C3.69331 11.1457 3.59118 11.1245 3.49607 11.0842C3.40096 11.0438 3.31473 10.9851 3.2423 10.9115C3.16987 10.8378 3.11266 10.7506 3.07394 10.6548C3.03521 10.559 3.01573 10.4566 3.01661 10.3533V3.62659C3.01573 3.52328 3.03521 3.42081 3.07394 3.32503C3.11266 3.22925 3.16987 3.14204 3.2423 3.06837C3.31473 2.9947 3.40096 2.93602 3.49607 2.89568C3.59118 2.85534 3.69331 2.83412 3.79661 2.83325H9.16328C9.26659 2.83412 9.36871 2.85534 9.46382 2.89568C9.55893 2.93602 9.64516 2.9947 9.71759 3.06837C9.79002 3.14204 9.84723 3.22925 9.88596 3.32503C9.92468 3.42081 9.94416 3.52328 9.94328 3.62659V4.85992H6.86995C6.39664 4.86344 5.94392 5.05393 5.61048 5.38986C5.27704 5.7258 5.08993 6.17993 5.08995 6.65325Z" fill="#68A4FF"/>
</svg>
