<svg width="40" height="40" viewBox="0 0 40 40" fill="none" xmlns="http://www.w3.org/2000/svg">
<path d="M11.287 28.7064C11.6753 29.0922 12.3186 29.0922 12.6957 28.7064L19.7948 21.4463L26.8938 28.7064C27.271 29.0922 27.9254 29.1035 28.3026 28.7064C28.6797 28.3094 28.6797 27.6628 28.3026 27.2772L21.2035 20.0057L28.3026 12.7455C28.6797 12.3599 28.6908 11.7019 28.3026 11.3162C27.9144 10.9192 27.271 10.9192 26.8938 11.3162L19.7948 18.5763L12.6957 11.3162C12.3186 10.9192 11.6642 10.9078 11.287 11.3162C10.9099 11.7132 10.9099 12.3599 11.287 12.7455L18.3861 20.0057L11.287 27.2772C10.9099 27.6628 10.8988 28.3208 11.287 28.7064Z" fill="#6C6C77"/>
</svg>
