<svg width="60" height="60" viewBox="0 0 60 60" fill="none" xmlns="http://www.w3.org/2000/svg">
<rect x="7" y="22.7168" width="46" height="14.5667" rx="4.05929" fill="#B5D3FF"/>
<g filter="url(#filter0_d_5288_30654)">
<path d="M13.9761 27.3978C14.3434 26.2672 15.9429 26.2672 16.3103 27.3978C16.4746 27.9034 16.9458 28.2458 17.4774 28.2458C18.6662 28.2458 19.1605 29.767 18.1987 30.4658C17.7686 30.7782 17.5886 31.3322 17.7529 31.8378C18.1203 32.9684 16.8263 33.9086 15.8645 33.2098C15.4344 32.8973 14.852 32.8973 14.4219 33.2098C13.4601 33.9086 12.1661 32.9684 12.5334 31.8378C12.6977 31.3322 12.5177 30.7782 12.0876 30.4658C11.1259 29.767 11.6201 28.2458 12.8089 28.2458C13.3406 28.2458 13.8118 27.9034 13.9761 27.3978Z" fill="#FFDE7C"/>
<path d="M23.8806 27.3978C24.248 26.2672 25.8475 26.2672 26.2149 27.3978C26.3792 27.9034 26.8503 28.2458 27.382 28.2458C28.5708 28.2458 29.0651 29.767 28.1033 30.4658C27.6732 30.7782 27.4932 31.3322 27.6575 31.8378C28.0249 32.9684 26.7308 33.9086 25.7691 33.2098C25.339 32.8973 24.7565 32.8973 24.3264 33.2098C23.3647 33.9086 22.0706 32.9684 22.438 31.8378C22.6023 31.3322 22.4223 30.7782 21.9922 30.4658C21.0304 29.767 21.5247 28.2458 22.7135 28.2458C23.2452 28.2458 23.7163 27.9034 23.8806 27.3978Z" fill="#FFDE7C"/>
<path d="M33.785 27.3978C34.1523 26.2672 35.7519 26.2672 36.1192 27.3978C36.2835 27.9034 36.7547 28.2457 37.2863 28.2457C38.4751 28.2457 38.9694 29.767 38.0077 30.4657C37.5775 30.7782 37.3976 31.3321 37.5619 31.8377C37.9292 32.9684 36.6352 33.9085 35.6734 33.2098C35.2433 32.8973 34.6609 32.8973 34.2308 33.2098C33.269 33.9085 31.975 32.9684 32.3423 31.8377C32.5066 31.3321 32.3267 30.7782 31.8965 30.4657C30.9348 29.767 31.4291 28.2457 32.6179 28.2457C33.1495 28.2457 33.6207 27.9034 33.785 27.3978Z" fill="#FFDE7C"/>
<path d="M43.6896 27.3978C44.0569 26.2672 45.6564 26.2672 46.0238 27.3978C46.1881 27.9034 46.6593 28.2457 47.1909 28.2457C48.3797 28.2457 48.874 29.767 47.9122 30.4657C47.4821 30.7782 47.3021 31.3321 47.4664 31.8377C47.8338 32.9684 46.5397 33.9085 45.578 33.2098C45.1479 32.8973 44.5655 32.8973 44.1353 33.2098C43.1736 33.9085 41.8796 32.9684 42.2469 31.8377C42.4112 31.3321 42.2312 30.7782 41.8011 30.4657C40.8394 29.767 41.3336 28.2457 42.5224 28.2457C43.0541 28.2457 43.5253 27.9034 43.6896 27.3978Z" fill="#FFDE7C"/>
</g>
<defs>
<filter id="filter0_d_5288_30654" x="11.4431" y="26.4135" width="37.1137" height="7.17261" filterUnits="userSpaceOnUse" color-interpolation-filters="sRGB">
<feFlood flood-opacity="0" result="BackgroundImageFix"/>
<feColorMatrix in="SourceAlpha" type="matrix" values="0 0 0 0 0 0 0 0 0 0 0 0 0 0 0 0 0 0 127 0" result="hardAlpha"/>
<feOffset/>
<feGaussianBlur stdDeviation="0.0681762"/>
<feComposite in2="hardAlpha" operator="out"/>
<feColorMatrix type="matrix" values="0 0 0 0 1 0 0 0 0 0.943318 0 0 0 0 0.773275 0 0 0 1 0"/>
<feBlend mode="normal" in2="BackgroundImageFix" result="effect1_dropShadow_5288_30654"/>
<feBlend mode="normal" in="SourceGraphic" in2="effect1_dropShadow_5288_30654" result="shape"/>
</filter>
</defs>
</svg>
