<svg width="60" height="60" viewBox="0 0 60 60" fill="none" xmlns="http://www.w3.org/2000/svg">
<g filter="url(#filter0_d_5288_30643)">
<path d="M21.244 12.0316C20.3093 9.08646 16.1417 9.08646 15.2071 12.0316C14.7896 13.3469 13.5627 14.2405 12.1828 14.2405C9.09312 14.2405 7.76443 18.179 10.2434 20.023L10.3632 20.1121C11.4668 20.933 11.9281 22.3635 11.5121 23.6744L11.4487 23.8741C10.5215 26.7955 13.8823 29.1911 16.3415 27.3618C17.4598 26.53 18.9912 26.53 20.1095 27.3618C22.5688 29.1911 25.9295 26.7955 25.0023 23.8741L24.939 23.6744C24.5229 22.3635 24.9843 20.933 26.0878 20.1121L26.2076 20.023C28.6866 18.179 27.3579 14.2405 24.2683 14.2405C22.8883 14.2405 21.6614 13.3469 21.244 12.0316Z" fill="#FFDE7C"/>
</g>
<path d="M44.7929 12.0316C43.8582 9.08646 39.6907 9.08646 38.756 12.0316C38.3386 13.3469 37.1116 14.2405 35.7317 14.2405C32.6421 14.2405 31.3134 18.179 33.7924 20.023L33.9122 20.1121C35.0157 20.933 35.4771 22.3635 35.061 23.6744L34.9976 23.8741C34.0705 26.7955 37.4312 29.1911 39.8905 27.3618C41.0087 26.53 42.5402 26.53 43.6585 27.3618C46.1177 29.1911 49.4784 26.7955 48.5513 23.8741L48.4879 23.6744C48.0719 22.3635 48.5332 20.933 49.6368 20.1121L49.7565 20.023C52.2356 18.179 50.9069 14.2405 47.8172 14.2405C46.4373 14.2405 45.2104 13.3469 44.7929 12.0316Z" fill="#ACADB4"/>
<path d="M41.7946 21.4047C41.7732 21.4047 41.7625 21.4154 41.7304 21.4261C41.6877 21.4474 41.6129 21.4688 41.5594 21.4688C41.2708 21.4688 41.0142 21.255 41.0142 20.9557C41.0142 20.7847 41.0891 20.6137 41.228 20.464C41.228 20.3464 41.1211 20.2502 41.1211 20.122C41.1211 19.8334 41.2922 19.6623 41.5594 19.6089V19.5448C41.5594 19.5234 41.5487 19.4913 41.5487 19.4592C41.5487 19.1706 41.848 19.0317 42.0832 18.9782C42.0725 18.9675 42.0725 18.9568 42.0725 18.9461C42.019 18.8179 41.9656 18.6896 41.9656 18.54C41.9656 18.5293 41.9656 18.4758 41.9763 18.4438C41.9763 18.4331 41.987 18.401 41.987 18.401C41.7839 18.3796 41.6128 18.3048 41.4418 18.1979C41.3456 18.3903 41.228 18.5827 40.9715 18.5827C40.8325 18.5827 40.7256 18.5186 40.6401 18.4438C40.4905 18.5934 40.2339 18.6682 40.0095 18.6575C39.5819 18.6148 39.2184 18.1765 39.2184 17.7276C39.2184 17.5993 39.2291 17.4069 39.5605 17.0541C39.4109 16.8083 39.6995 16.3807 39.9881 16.3807C40.0415 16.3807 40.095 16.4021 40.2019 16.4021C40.2019 16.4021 40.2126 16.3807 40.2339 16.3486C40.4477 15.9211 41.0249 16.0387 41.3349 16.3273C41.506 16.2097 41.7625 16.1242 41.9763 16.1242C42.1259 16.1242 42.2756 16.1883 42.4039 16.2418C42.6283 16.338 42.7887 16.5731 42.8635 16.7869C42.9918 16.7228 43.1414 16.7014 43.3018 16.7014C43.74 16.7121 44.2103 17.0007 44.2103 17.5993C44.2103 17.9093 44.0821 18.1445 43.9217 18.3048C44.189 18.5506 44.2103 18.7217 44.2103 18.8927C44.2103 19.331 44.0286 19.5661 43.6224 19.7799C43.4407 19.8334 43.3552 19.8654 43.3552 19.8654C43.3552 19.983 43.3659 20.0044 43.3659 20.0365C43.3659 20.3999 43.0666 20.7526 42.607 20.7526C42.5963 21.0199 42.468 21.5009 42.1046 21.5009C42.0297 21.5009 41.9656 21.4688 41.9122 21.4474C41.8694 21.4261 41.8373 21.4047 41.7946 21.4047ZM41.2067 22.495C41.2067 22.0567 41.4953 21.8002 41.9335 21.8002C42.3504 21.8002 42.6604 22.014 42.6604 22.4522C42.6604 22.8691 42.3183 23.115 41.9335 23.115C41.5487 23.115 41.2067 22.9012 41.2067 22.495Z" fill="#E6E6E6"/>
<path d="M21.244 34.2089C20.3093 31.2637 16.1417 31.2637 15.2071 34.2089C14.7896 35.5242 13.5627 36.4177 12.1828 36.4177C9.09312 36.4177 7.76443 40.3563 10.2434 42.2003L10.3632 42.2893C11.4668 43.1102 11.9281 44.5407 11.5121 45.8517L11.4487 46.0513C10.5215 48.9728 13.8823 51.3683 16.3415 49.5391C17.4598 48.7072 18.9912 48.7072 20.1095 49.5391C22.5688 51.3683 25.9295 48.9728 25.0023 46.0513L24.939 45.8517C24.5229 44.5407 24.9843 43.1102 26.0878 42.2893L26.2076 42.2003C28.6866 40.3563 27.3579 36.4177 24.2683 36.4177C22.8883 36.4177 21.6614 35.5242 21.244 34.2089Z" fill="#ACADB4"/>
<path d="M18.2456 43.5819C18.2242 43.5819 18.2136 43.5926 18.1815 43.6033C18.1387 43.6247 18.0639 43.6461 18.0105 43.6461C17.7218 43.6461 17.4653 43.4323 17.4653 43.133C17.4653 42.962 17.5401 42.7909 17.6791 42.6413C17.6791 42.5237 17.5722 42.4275 17.5722 42.2992C17.5722 42.0106 17.7432 41.8396 18.0105 41.7861V41.722C18.0105 41.7006 17.9998 41.6686 17.9998 41.6365C17.9998 41.3479 18.2991 41.2089 18.5342 41.1555C18.5235 41.1448 18.5235 41.1341 18.5235 41.1234C18.4701 40.9951 18.4166 40.8669 18.4166 40.7172C18.4166 40.7065 18.4166 40.6531 18.4273 40.621C18.4273 40.6103 18.438 40.5782 18.438 40.5782C18.2349 40.5569 18.0639 40.482 17.8929 40.3751C17.7967 40.5676 17.6791 40.76 17.4225 40.76C17.2836 40.76 17.1767 40.6958 17.0912 40.621C16.9415 40.7706 16.685 40.8455 16.4605 40.8348C16.0329 40.792 15.6695 40.3538 15.6695 39.9048C15.6695 39.7765 15.6802 39.5841 16.0116 39.2314C15.8619 38.9855 16.1505 38.558 16.4391 38.558C16.4926 38.558 16.546 38.5793 16.6529 38.5793C16.6529 38.5793 16.6636 38.558 16.685 38.5259C16.8988 38.0983 17.476 38.2159 17.786 38.5045C17.957 38.3869 18.2135 38.3014 18.4273 38.3014C18.577 38.3014 18.7266 38.3656 18.8549 38.419C19.0794 38.5152 19.2397 38.7504 19.3145 38.9642C19.4428 38.9 19.5925 38.8786 19.7528 38.8786C20.1911 38.8893 20.6614 39.1779 20.6614 39.7765C20.6614 40.0865 20.5331 40.3217 20.3728 40.482C20.64 40.7279 20.6614 40.8989 20.6614 41.0699C20.6614 41.5082 20.4797 41.7434 20.0735 41.9572C19.8918 42.0106 19.8063 42.0427 19.8063 42.0427C19.8063 42.1603 19.8169 42.1816 19.8169 42.2137C19.8169 42.5771 19.5176 42.9299 19.058 42.9299C19.0473 43.1971 18.919 43.6781 18.5556 43.6781C18.4808 43.6781 18.4166 43.6461 18.3632 43.6247C18.3204 43.6033 18.2884 43.5819 18.2456 43.5819ZM17.6577 44.6722C17.6577 44.234 17.9463 43.9774 18.3846 43.9774C18.8015 43.9774 19.1115 44.1912 19.1115 44.6295C19.1115 45.0464 18.7694 45.2922 18.3846 45.2922C17.9998 45.2922 17.6577 45.0784 17.6577 44.6722Z" fill="#E6E6E6"/>
<path d="M44.7929 34.2089C43.8582 31.2637 39.6907 31.2637 38.756 34.2089C38.3386 35.5242 37.1116 36.4177 35.7317 36.4177C32.6421 36.4177 31.3134 40.3563 33.7924 42.2003L33.9122 42.2893C35.0157 43.1102 35.4771 44.5407 35.061 45.8517L34.9976 46.0513C34.0705 48.9728 37.4312 51.3683 39.8905 49.5391C41.0087 48.7072 42.5402 48.7072 43.6585 49.5391C46.1177 51.3683 49.4784 48.9728 48.5513 46.0513L48.4879 45.8517C48.0719 44.5407 48.5332 43.1102 49.6368 42.2893L49.7565 42.2003C52.2356 40.3563 50.9069 36.4177 47.8172 36.4177C46.4373 36.4177 45.2104 35.5242 44.7929 34.2089Z" fill="#ACADB4"/>
<path d="M41.7946 43.5819C41.7732 43.5819 41.7625 43.5926 41.7304 43.6033C41.6877 43.6247 41.6129 43.6461 41.5594 43.6461C41.2708 43.6461 41.0142 43.4323 41.0142 43.133C41.0142 42.962 41.0891 42.7909 41.228 42.6413C41.228 42.5237 41.1211 42.4275 41.1211 42.2992C41.1211 42.0106 41.2922 41.8396 41.5594 41.7861V41.722C41.5594 41.7006 41.5487 41.6686 41.5487 41.6365C41.5487 41.3479 41.848 41.2089 42.0832 41.1555C42.0725 41.1448 42.0725 41.1341 42.0725 41.1234C42.019 40.9951 41.9656 40.8669 41.9656 40.7172C41.9656 40.7065 41.9656 40.6531 41.9763 40.621C41.9763 40.6103 41.987 40.5782 41.987 40.5782C41.7839 40.5569 41.6128 40.482 41.4418 40.3751C41.3456 40.5676 41.228 40.76 40.9715 40.76C40.8325 40.76 40.7256 40.6958 40.6401 40.621C40.4905 40.7706 40.2339 40.8455 40.0095 40.8348C39.5819 40.792 39.2184 40.3538 39.2184 39.9048C39.2184 39.7765 39.2291 39.5841 39.5605 39.2314C39.4109 38.9855 39.6995 38.558 39.9881 38.558C40.0415 38.558 40.095 38.5793 40.2019 38.5793C40.2019 38.5793 40.2126 38.558 40.2339 38.5259C40.4477 38.0983 41.0249 38.2159 41.3349 38.5045C41.506 38.3869 41.7625 38.3014 41.9763 38.3014C42.1259 38.3014 42.2756 38.3656 42.4039 38.419C42.6283 38.5152 42.7887 38.7504 42.8635 38.9642C42.9918 38.9 43.1414 38.8786 43.3018 38.8786C43.74 38.8893 44.2103 39.1779 44.2103 39.7765C44.2103 40.0865 44.0821 40.3217 43.9217 40.482C44.189 40.7279 44.2103 40.8989 44.2103 41.0699C44.2103 41.5082 44.0286 41.7434 43.6224 41.9572C43.4407 42.0106 43.3552 42.0427 43.3552 42.0427C43.3552 42.1603 43.3659 42.1816 43.3659 42.2137C43.3659 42.5771 43.0666 42.9299 42.607 42.9299C42.5963 43.1971 42.468 43.6781 42.1046 43.6781C42.0297 43.6781 41.9656 43.6461 41.9122 43.6247C41.8694 43.6033 41.8373 43.5819 41.7946 43.5819ZM41.2067 44.6722C41.2067 44.234 41.4953 43.9774 41.9335 43.9774C42.3504 43.9774 42.6604 44.1912 42.6604 44.6295C42.6604 45.0464 42.3183 45.2922 41.9335 45.2922C41.5487 45.2922 41.2067 45.0784 41.2067 44.6722Z" fill="#E6E6E6"/>
<defs>
<filter id="filter0_d_5288_30643" x="8.30469" y="9.1764" width="19.8417" height="19.47" filterUnits="userSpaceOnUse" color-interpolation-filters="sRGB">
<feFlood flood-opacity="0" result="BackgroundImageFix"/>
<feColorMatrix in="SourceAlpha" type="matrix" values="0 0 0 0 0 0 0 0 0 0 0 0 0 0 0 0 0 0 127 0" result="hardAlpha"/>
<feOffset/>
<feGaussianBlur stdDeviation="0.323178"/>
<feComposite in2="hardAlpha" operator="out"/>
<feColorMatrix type="matrix" values="0 0 0 0 1 0 0 0 0 0.943318 0 0 0 0 0.773275 0 0 0 1 0"/>
<feBlend mode="normal" in2="BackgroundImageFix" result="effect1_dropShadow_5288_30643"/>
<feBlend mode="normal" in="SourceGraphic" in2="effect1_dropShadow_5288_30643" result="shape"/>
</filter>
</defs>
</svg>
