<svg width="29" height="29" viewBox="0 0 29 29" fill="none" xmlns="http://www.w3.org/2000/svg">
<circle cx="14.5" cy="14.5" r="14.5" fill="#E7E7E7"/>
<path d="M20.2075 11.5857L17.4144 8.79322C17.3215 8.70034 17.2113 8.62666 17.0899 8.57639C16.9686 8.52612 16.8385 8.50024 16.7072 8.50024C16.5759 8.50024 16.4458 8.52612 16.3245 8.57639C16.2031 8.62666 16.0929 8.70034 16 8.79322L8.29313 16.5001C8.19987 16.5926 8.12593 16.7028 8.0756 16.8241C8.02528 16.9455 7.99959 17.0756 8.00001 17.207V20.0001C8.00001 20.2653 8.10536 20.5197 8.2929 20.7072C8.48043 20.8947 8.73479 21.0001 9 21.0001H19.5C19.6326 21.0001 19.7598 20.9474 19.8536 20.8536C19.9473 20.7599 20 20.6327 20 20.5001C20 20.3675 19.9473 20.2403 19.8536 20.1465C19.7598 20.0528 19.6326 20.0001 19.5 20.0001H13.2075L20.2075 13.0001C20.3004 12.9072 20.3741 12.797 20.4243 12.6756C20.4746 12.5543 20.5005 12.4242 20.5005 12.2929C20.5005 12.1616 20.4746 12.0315 20.4243 11.9102C20.3741 11.7888 20.3004 11.6786 20.2075 11.5857ZM18 13.7932L15.2075 11.0001L16.7075 9.50009L19.5 12.2932L18 13.7932Z" fill="#ACADB4"/>
</svg>
