<svg width="41" height="41" viewBox="0 0 41 41" fill="none" xmlns="http://www.w3.org/2000/svg">
<rect width="41" height="41" rx="20.5" fill="white"/>
<circle cx="20.5" cy="20.5" r="14.5" fill="#E7E7E7"/>
<path d="M26.2075 17.5857L23.4144 14.7932C23.3215 14.7003 23.2113 14.6267 23.0899 14.5764C22.9686 14.5261 22.8385 14.5002 22.7072 14.5002C22.5759 14.5002 22.4458 14.5261 22.3245 14.5764C22.2031 14.6267 22.0929 14.7003 22 14.7932L14.2931 22.5001C14.1999 22.5926 14.1259 22.7028 14.0756 22.8241C14.0253 22.9455 13.9996 23.0756 14 23.207V26.0001C14 26.2653 14.1054 26.5197 14.2929 26.7072C14.4804 26.8947 14.7348 27.0001 15 27.0001H25.5C25.6326 27.0001 25.7598 26.9474 25.8536 26.8536C25.9473 26.7599 26 26.6327 26 26.5001C26 26.3675 25.9473 26.2403 25.8536 26.1465C25.7598 26.0528 25.6326 26.0001 25.5 26.0001H19.2075L26.2075 19.0001C26.3004 18.9072 26.3741 18.797 26.4243 18.6756C26.4746 18.5543 26.5005 18.4242 26.5005 18.2929C26.5005 18.1616 26.4746 18.0315 26.4243 17.9102C26.3741 17.7888 26.3004 17.6786 26.2075 17.5857ZM24 19.7932L21.2075 17.0001L22.7075 15.5001L25.5 18.2932L24 19.7932Z" fill="#ACADB4"/>
</svg>
