<svg width="24" height="24" viewBox="0 0 24 24" fill="none" xmlns="http://www.w3.org/2000/svg">
<path d="M8.12757 15.8696C8.30011 16.041 8.58605 16.041 8.75366 15.8696L11.9088 12.6429L15.0639 15.8696C15.2316 16.041 15.5224 16.046 15.69 15.8696C15.8576 15.6931 15.8576 15.4057 15.69 15.2343L12.5349 12.0026L15.69 8.77585C15.8576 8.60443 15.8626 8.31201 15.69 8.14059C15.5175 7.96413 15.2316 7.96413 15.0639 8.14059L11.9088 11.3673L8.75366 8.14059C8.58605 7.96413 8.29518 7.95909 8.12757 8.14059C7.95995 8.31705 7.95995 8.60443 8.12757 8.77585L11.2827 12.0026L8.12757 15.2343C7.95995 15.4057 7.95502 15.6982 8.12757 15.8696Z" fill="#ACADB4"/>
</svg>
