<svg width="25" height="24" viewBox="0 0 25 24" fill="none" xmlns="http://www.w3.org/2000/svg">
<rect x="0.5" width="24" height="24" rx="12" fill="#E5F0FF"/>
<g clip-path="url(#clip0_5707_29324)">
<path d="M14.5 7.5C14.5 6.63805 14.1576 5.8114 13.5481 5.2019C12.9386 4.59241 12.112 4.25 11.25 4.25C10.388 4.25 9.5614 4.59241 8.9519 5.2019C8.34241 5.8114 8 6.63805 8 7.5V13.4181C7.57114 14.0159 7.31542 14.7203 7.26097 15.4539C7.20652 16.1876 7.35546 16.922 7.69139 17.5765C8.02733 18.231 8.53725 18.7802 9.16508 19.1636C9.79291 19.5471 10.5143 19.75 11.25 19.75C11.9857 19.75 12.7071 19.5471 13.3349 19.1636C13.9628 18.7802 14.4727 18.231 14.8086 17.5765C15.1445 16.922 15.2935 16.1876 15.239 15.4539C15.1846 14.7203 14.9289 14.0159 14.5 13.4181V7.5ZM11.25 18.25C10.7763 18.25 10.3124 18.1155 9.91223 17.862C9.51207 17.6086 9.19215 17.2466 8.98972 16.8184C8.78729 16.3902 8.71068 15.9132 8.76883 15.4431C8.82697 14.973 9.01746 14.5291 9.31813 14.1631C9.4354 14.027 9.49994 13.8534 9.5 13.6737V7.5C9.5 7.03587 9.68438 6.59075 10.0126 6.26256C10.3408 5.93437 10.7859 5.75 11.25 5.75C11.7141 5.75 12.1592 5.93437 12.4874 6.26256C12.8156 6.59075 13 7.03587 13 7.5V13.6731C12.9998 13.8484 13.0611 14.0183 13.1731 14.1531C13.4764 14.5184 13.6693 14.9625 13.7295 15.4334C13.7896 15.9043 13.7144 16.3826 13.5127 16.8123C13.3109 17.2421 12.991 17.6055 12.5903 17.8601C12.1896 18.1147 11.7247 18.2499 11.25 18.25ZM12.75 15.75C12.7501 16.0133 12.6808 16.272 12.5492 16.5001C12.4175 16.7281 12.2282 16.9175 12.0002 17.0492C11.7722 17.1809 11.5135 17.2503 11.2502 17.2503C10.9869 17.2503 10.7282 17.181 10.5001 17.0494C10.2721 16.9178 10.0827 16.7284 9.95102 16.5004C9.81934 16.2724 9.75001 16.0137 9.75 15.7504C9.74999 15.487 9.81929 15.2284 9.95095 15.0003C10.0826 14.7723 10.272 14.5829 10.5 14.4513V7.5C10.5 7.30109 10.579 7.11032 10.7197 6.96967C10.8603 6.82902 11.0511 6.75 11.25 6.75C11.4489 6.75 11.6397 6.82902 11.7803 6.96967C11.921 7.11032 12 7.30109 12 7.5V14.4513C12.228 14.5829 12.4173 14.7722 12.549 15.0002C12.6806 15.2281 12.75 15.4867 12.75 15.75ZM15.3713 9.1875C15.2628 9.02082 15.225 8.81789 15.2661 8.62333C15.3073 8.42877 15.424 8.25852 15.5906 8.15C16.6419 7.4625 17.4856 7.825 18.0444 8.06313C18.55 8.27938 18.7275 8.33625 19.0906 8.09937C19.2573 7.9908 19.4603 7.95289 19.6549 7.99397C19.8495 8.03505 20.0199 8.15177 20.1284 8.31844C20.237 8.48511 20.2749 8.68809 20.2338 8.88271C20.1928 9.07734 20.076 9.24768 19.9094 9.35625C19.455 9.64875 19.04 9.75 18.6694 9.75C18.1825 9.75 17.7731 9.575 17.4556 9.4375C16.95 9.22125 16.7725 9.16437 16.4094 9.40125C16.2433 9.51043 16.0407 9.54924 15.8461 9.50916C15.6514 9.46908 15.4807 9.35339 15.3713 9.1875ZM20.1281 10.8187C20.2366 10.9854 20.2745 11.1882 20.2335 11.3828C20.1925 11.5773 20.0759 11.7476 19.9094 11.8562C19.455 12.1519 19.04 12.2531 18.6694 12.2531C18.1825 12.2531 17.7731 12.0781 17.4556 11.9406C16.95 11.7244 16.7725 11.6675 16.4094 11.9044C16.2427 12.0129 16.0397 12.0509 15.8451 12.0098C15.6505 11.9687 15.4801 11.852 15.3716 11.6853C15.263 11.5186 15.2251 11.3157 15.2662 11.121C15.3072 10.9264 15.424 10.7561 15.5906 10.6475C16.6419 9.96 17.4856 10.3225 18.0444 10.5606C18.55 10.7769 18.7275 10.8338 19.0906 10.5969C19.2572 10.4884 19.4601 10.4505 19.6547 10.4915C19.8492 10.5325 20.0195 10.6491 20.1281 10.8156V10.8187Z" fill="#68A4FF"/>
</g>
<defs>
<clipPath id="clip0_5707_29324">
<rect width="16" height="16" fill="white" transform="translate(4.5 4)"/>
</clipPath>
</defs>
</svg>
