<svg width="24" height="24" viewBox="0 0 24 24" fill="none" xmlns="http://www.w3.org/2000/svg">
<rect width="24" height="24" rx="12" fill="#E5F0FF"/>
<path fill-rule="evenodd" clip-rule="evenodd" d="M11.7367 5.38669C11.8197 5.35111 11.909 5.33276 11.9993 5.33276C12.0897 5.33276 12.179 5.35111 12.262 5.38669L16.5247 7.21402C16.7646 7.31686 16.969 7.48785 17.1126 7.70578C17.2563 7.92372 17.3328 8.17902 17.3327 8.44002V13.0134C17.3326 13.836 17.1151 14.6439 16.7022 15.3554C16.2892 16.0669 15.6956 16.6566 14.9813 17.0647L12.33 18.5794C12.2293 18.6369 12.1153 18.6671 11.9993 18.6671C11.8834 18.6671 11.7694 18.6369 11.6687 18.5794L9.01735 17.0647C8.30293 16.6564 7.70915 16.0666 7.29621 15.3548C6.88327 14.6431 6.66586 13.8349 6.66602 13.012V8.44002C6.66604 8.17913 6.74261 7.92397 6.88624 7.70617C7.02986 7.48837 7.23422 7.31748 7.47402 7.21469L11.7367 5.38669ZM14.4707 11.138C14.5921 11.0123 14.6593 10.8439 14.6578 10.6691C14.6563 10.4943 14.5862 10.3271 14.4626 10.2035C14.339 10.0799 14.1717 10.0098 13.9969 10.0082C13.8222 10.0067 13.6538 10.0739 13.528 10.1954L11.3327 12.3907L10.4707 11.5287C10.3449 11.4073 10.1765 11.3401 10.0017 11.3416C9.82695 11.3431 9.65974 11.4132 9.53614 11.5368C9.41253 11.6604 9.34242 11.8276 9.3409 12.0024C9.33938 12.1772 9.40658 12.3456 9.52802 12.4714L10.8613 13.8047C10.9864 13.9297 11.1559 13.9999 11.3327 13.9999C11.5095 13.9999 11.679 13.9297 11.804 13.8047L14.4707 11.138Z" fill="#68A4FF"/>
</svg>
