<svg width="24" height="24" viewBox="0 0 24 24" fill="none" xmlns="http://www.w3.org/2000/svg">
<rect width="24" height="24" rx="12" fill="#E5F0FF"/>
<path fill-rule="evenodd" clip-rule="evenodd" d="M16.2335 5.33325C16.7542 5.33325 17.2715 5.64659 17.4502 6.20325L17.5008 6.36725L17.5535 6.55392L17.6068 6.76459L17.6582 6.99525L17.7068 7.24592L17.7295 7.37792L17.7702 7.65592C17.9235 8.84925 17.8748 10.4759 17.0222 12.1259L16.9162 12.3239C16.0215 13.9339 16.0862 15.5546 16.2882 16.6073L16.3375 16.8399L16.3628 16.9479L16.4142 17.1479L16.4655 17.3226C16.6482 17.9159 16.2535 18.6039 15.5808 18.6626L15.4875 18.6666H7.76684C7.24684 18.6666 6.72884 18.3533 6.55017 17.7966L6.50017 17.6326L6.44684 17.4459L6.39351 17.2353L6.34217 17.0046L6.29351 16.7539C6.27751 16.6673 6.26284 16.5777 6.24951 16.4853L6.21284 16.1986L6.18484 15.8959C6.10017 14.7599 6.22817 13.3259 6.97817 11.8739L7.08417 11.6759C7.97884 10.0666 7.91351 8.44525 7.71217 7.39325L7.66351 7.16059L7.63751 7.05259L7.58617 6.85259L7.53484 6.67792C7.35217 6.08459 7.74684 5.39659 8.41951 5.33792L8.51351 5.33325H16.2335ZM12.0002 11.9999H10.0002C9.82336 11.9999 9.65379 12.0702 9.52877 12.1952C9.40375 12.3202 9.33351 12.4898 9.33351 12.6666C9.33351 12.8434 9.40375 13.013 9.52877 13.138C9.65379 13.263 9.82336 13.3333 10.0002 13.3333H12.0002C12.177 13.3333 12.3466 13.263 12.4716 13.138C12.5966 13.013 12.6668 12.8434 12.6668 12.6666C12.6668 12.4898 12.5966 12.3202 12.4716 12.1952C12.3466 12.0702 12.177 11.9999 12.0002 11.9999ZM14.6668 9.33325H10.6668C10.4969 9.33344 10.3335 9.3985 10.2099 9.51515C10.0864 9.6318 10.012 9.79122 10.0021 9.96085C9.9921 10.1305 10.0473 10.2975 10.1564 10.4278C10.2654 10.5581 10.4201 10.6418 10.5888 10.6619L10.6668 10.6666H14.6668C14.8368 10.6664 15.0002 10.6013 15.1238 10.4847C15.2473 10.368 15.3217 10.2086 15.3316 10.039C15.3416 9.86936 15.2864 9.70233 15.1773 9.57203C15.0683 9.44173 14.9136 9.35799 14.7448 9.33792L14.6668 9.33325Z" fill="#68A4FF"/>
</svg>
