<svg width="24" height="24" viewBox="0 0 24 24" fill="none" xmlns="http://www.w3.org/2000/svg">
<rect width="24" height="24" rx="12" fill="#E5F0FF"/>
<path fill-rule="evenodd" clip-rule="evenodd" d="M12.0007 6.66659C11.0678 6.66641 10.1513 6.91091 9.34247 7.37567C8.53366 7.84043 7.8609 8.5092 7.39134 9.31522C6.92177 10.1212 6.67182 11.0363 6.66644 11.9691C6.66105 12.902 6.90042 13.8199 7.36066 14.6313C7.67173 14.227 8.07161 13.8996 8.52938 13.6746C8.98715 13.4495 9.49055 13.3327 10.0007 13.3333H14.0007C14.5108 13.3327 15.0142 13.4495 15.4719 13.6746C15.9297 13.8996 16.3296 14.227 16.6407 14.6313C17.1009 13.8199 17.3403 12.902 17.3349 11.9691C17.3295 11.0363 17.0795 10.1212 16.61 9.31522C16.1404 8.5092 15.4677 7.84043 14.6588 7.37567C13.85 6.91091 12.9335 6.66641 12.0007 6.66659ZM17.296 16.0506C17.3795 15.9417 17.4595 15.8301 17.536 15.7159C18.2751 14.6177 18.6691 13.3237 18.6673 11.9999C18.6673 8.31792 15.6827 5.33325 12.0007 5.33325C8.31866 5.33325 5.33399 8.31792 5.33399 11.9999C5.33189 13.4644 5.81402 14.8885 6.70532 16.0506L6.70199 16.0626L6.93866 16.3379C7.56391 17.0689 8.34025 17.6557 9.21415 18.0577C10.088 18.4597 11.0387 18.6674 12.0007 18.6666C12.1447 18.6666 12.2878 18.6621 12.43 18.6533C13.6329 18.5774 14.7924 18.1752 15.784 17.4899C16.2582 17.1628 16.688 16.7756 17.0627 16.3379L17.2993 16.0626L17.296 16.0506ZM12.0007 7.99992C11.4702 7.99992 10.9615 8.21063 10.5864 8.58571C10.2114 8.96078 10.0007 9.46949 10.0007 9.99992C10.0007 10.5304 10.2114 11.0391 10.5864 11.4141C10.9615 11.7892 11.4702 11.9999 12.0007 11.9999C12.5311 11.9999 13.0398 11.7892 13.4149 11.4141C13.7899 11.0391 14.0007 10.5304 14.0007 9.99992C14.0007 9.46949 13.7899 8.96078 13.4149 8.58571C13.0398 8.21063 12.5311 7.99992 12.0007 7.99992Z" fill="#68A4FF"/>
</svg>
