<svg width="24" height="24" viewBox="0 0 24 24" fill="none" xmlns="http://www.w3.org/2000/svg">
<rect width="24" height="24" rx="12" fill="#E5F0FF"/>
<path d="M8.66667 6C9.37391 6 10.0522 6.28095 10.5523 6.78105C11.0524 7.28115 11.3333 7.95942 11.3333 8.66667C11.3333 9.90667 10.4867 10.9533 9.33333 11.2467V12.7533C9.58 12.8133 9.81333 12.9133 10.0267 13.04L13.04 10.0267C12.8 9.62667 12.6667 9.16667 12.6667 8.66667C12.6667 7.95942 12.9476 7.28115 13.4477 6.78105C13.9478 6.28095 14.6261 6 15.3333 6C16.0406 6 16.7189 6.28095 17.219 6.78105C17.719 7.28115 18 7.95942 18 8.66667C18 9.37391 17.719 10.0522 17.219 10.5523C16.7189 11.0524 16.0406 11.3333 15.3333 11.3333C14.84 11.3333 14.38 11.2 14 10.9667L10.9667 14C11.2 14.38 11.3333 14.84 11.3333 15.3333C11.3333 16.0406 11.0524 16.7189 10.5523 17.219C10.0522 17.719 9.37391 18 8.66667 18C7.95942 18 7.28115 17.719 6.78105 17.219C6.28095 16.7189 6 16.0406 6 15.3333C6 14.0933 6.84667 13.0467 8 12.7533V11.2467C6.84667 10.9533 6 9.90667 6 8.66667C6 7.95942 6.28095 7.28115 6.78105 6.78105C7.28115 6.28095 7.95942 6 8.66667 6ZM15.3333 12.6667C16.0406 12.6667 16.7189 12.9476 17.219 13.4477C17.719 13.9478 18 14.6261 18 15.3333C18 16.0406 17.719 16.7189 17.219 17.219C16.7189 17.719 16.0406 18 15.3333 18C14.6261 18 13.9478 17.719 13.4477 17.219C12.9476 16.7189 12.6667 16.0406 12.6667 15.3333C12.6667 14.6261 12.9476 13.9478 13.4477 13.4477C13.9478 12.9476 14.6261 12.6667 15.3333 12.6667ZM15.3333 14C14.9797 14 14.6406 14.1405 14.3905 14.3905C14.1405 14.6406 14 14.9797 14 15.3333C14 15.687 14.1405 16.0261 14.3905 16.2761C14.6406 16.5262 14.9797 16.6667 15.3333 16.6667C15.687 16.6667 16.0261 16.5262 16.2761 16.2761C16.5262 16.0261 16.6667 15.687 16.6667 15.3333C16.6667 14.9797 16.5262 14.6406 16.2761 14.3905C16.0261 14.1405 15.687 14 15.3333 14Z" fill="#68A4FF"/>
</svg>
