<svg width="332" height="124" viewBox="0 0 332 124" fill="none" xmlns="http://www.w3.org/2000/svg">
<rect width="332" height="124" rx="12" fill="#68A4FF"/>
<path d="M26.0742 52.1504C23.8594 52.1504 22.5195 50.5645 22.5195 48.3223C22.5195 46.0527 23.9004 44.4805 26.0742 44.4805C27.8789 44.4805 29.1367 45.5332 29.2598 47.1328H27.5918C27.4551 46.4219 26.9355 45.875 26.0879 45.875C25.0078 45.875 24.2832 46.791 24.2832 48.2812C24.2832 49.8125 24.9941 50.7285 26.0879 50.7285C26.8672 50.7285 27.4414 50.2773 27.5918 49.4707H29.2598C29.123 51.043 27.9336 52.1504 26.0742 52.1504ZM33.3925 52.1504C31.2323 52.1504 29.8378 50.6191 29.8378 48.3223C29.8378 46.0117 31.2323 44.4805 33.3925 44.4805C35.5663 44.4805 36.9472 46.0117 36.9472 48.3223C36.9472 50.6191 35.5663 52.1504 33.3925 52.1504ZM33.4062 50.7559C34.5956 50.7559 35.1835 49.6758 35.1835 48.3086C35.1835 46.9551 34.5956 45.8613 33.4062 45.8613C32.1894 45.8613 31.6015 46.9551 31.6015 48.3086C31.6015 49.6758 32.1894 50.7559 33.4062 50.7559ZM37.785 52V50.8926L41.6131 46.0801V46.0117H37.908V44.5762H43.7459V45.7656L40.0955 50.4961V50.5645H43.8827V52H37.785ZM46.0193 54.7891C45.6775 54.7891 45.3357 54.7754 45.117 54.748V53.3535C45.3357 53.3672 45.6228 53.3809 45.8552 53.3809C46.2791 53.3809 46.6345 53.3398 46.9353 52.5469L47.0857 52.1504L44.3787 44.5762H46.2244L47.947 50.1816H48.0291L49.7517 44.5762H51.5974L48.617 52.9023C48.1931 54.0918 47.4138 54.7891 46.0193 54.7891ZM52.2712 52V44.5762H53.9391V45.834H54.0348C54.3356 44.9863 55.0876 44.4805 56.072 44.4805C57.0837 44.4805 57.7946 44.9863 58.0817 45.834H58.1637C58.4919 45.0137 59.3122 44.4805 60.3923 44.4805C61.7458 44.4805 62.7028 45.3555 62.7028 47.0098V52H60.9665V47.2832C60.9665 46.3535 60.4059 45.9434 59.695 45.9434C58.8337 45.9434 58.3415 46.5312 58.3415 47.3652V52H56.6462V47.2148C56.6462 46.4492 56.1266 45.9434 55.3884 45.9434C54.6364 45.9434 54.0212 46.5586 54.0212 47.4883V52H52.2712ZM63.609 49.9082C63.609 48.2402 64.9898 47.748 66.3707 47.666C66.8834 47.6318 67.9498 47.5703 68.2711 47.5566V46.9688C68.2711 46.2305 67.7926 45.8066 66.9313 45.8066C66.152 45.8066 65.6734 46.1621 65.5367 46.6953H63.8551C63.9781 45.4375 65.1129 44.4805 66.9723 44.4805C68.3805 44.4805 70.0074 45.0547 70.0074 47.0371V52H68.3395V50.9746H68.2848C67.9566 51.6035 67.2594 52.1504 66.0973 52.1504C64.6754 52.1504 63.609 51.3711 63.609 49.9082ZM65.2906 49.8945C65.2906 50.5371 65.8102 50.8652 66.5484 50.8652C67.6012 50.8652 68.2848 50.168 68.2848 49.334V48.7188L66.6441 48.8281C65.8102 48.8965 65.2906 49.2383 65.2906 49.8945ZM74.9331 44.5762V45.916H73.4702V49.7715C73.4702 50.4824 73.8257 50.6328 74.2632 50.6328C74.4683 50.6328 74.8101 50.6191 75.0288 50.6055V52.0273C74.8237 52.0684 74.482 52.0957 74.0445 52.0957C72.732 52.0957 71.7202 51.4531 71.7339 50.0586V45.916H70.6675V44.5762H71.7339V42.7988H73.4702V44.5762H74.9331ZM79.0659 52.1504C76.8237 52.1504 75.4565 50.6602 75.4565 48.3359C75.4565 46.0391 76.851 44.4805 78.9702 44.4805C80.7885 44.4805 82.3608 45.6152 82.3608 48.2266V48.7734H77.1791C77.1996 50.0381 77.9448 50.7832 79.0795 50.7832C79.8452 50.7832 80.3647 50.4551 80.5834 50.0176H82.2924C81.978 51.3027 80.7885 52.1504 79.0659 52.1504ZM77.1928 47.584H80.6928C80.6791 46.5723 80.0092 45.834 78.9975 45.834C77.9448 45.834 77.2475 46.6338 77.1928 47.584ZM92.5502 40.8574V45.6836H94.3822V46.9551H92.5502V53.1895H91.0326V40.8574H92.5502ZM89.2826 42.1426C89.2826 45.7793 87.7787 48.9648 83.6634 50.9883L82.8021 49.8125C85.8099 48.3154 87.4369 46.21 87.7513 43.4004H83.472V42.1426H89.2826ZM107.46 40.8574V44.0293H108.923V45.3008H107.46V48.2402H105.929V40.8574H107.46ZM107.46 48.7598V53.2305H105.929V49.9766H99.0109V48.7598H107.46ZM100.98 41.8418V43.0586H99.257V46.2305C99.8518 46.21 100.446 46.1484 101.116 45.998L101.253 47.2559C100.2 47.4746 99.3391 47.4746 98.4094 47.4883H97.8078V41.8418H100.98ZM104.931 41.8418V43.0586H103.099V46.2305C103.967 46.21 104.555 46.1416 105.259 45.9844L105.409 47.2422C104.452 47.4473 103.714 47.4746 102.292 47.4883H101.636V41.8418H104.931ZM121.782 40.8574V43.3457H123.505V44.6035H121.782V47.0645H120.265V40.8574H121.782ZM121.782 47.5977V50.8379H115.22V51.8633H122.165V53.0664H113.716V49.7305H120.265V48.7734H113.702V47.5977H121.782ZM115.452 41.2676C117.339 41.2676 118.72 42.4023 118.733 44.043C118.72 45.6562 117.339 46.8047 115.452 46.8047C113.565 46.8047 112.157 45.6562 112.171 44.043C112.157 42.4023 113.565 41.2676 115.452 41.2676ZM115.452 42.498C114.413 42.498 113.647 43.0996 113.661 44.043C113.647 44.9727 114.413 45.6016 115.452 45.6016C116.491 45.6016 117.257 44.9727 117.257 44.043C117.257 43.0996 116.491 42.498 115.452 42.498ZM134.063 40.8574V53.2305H132.546V48.1582H130.29V46.9141H132.546V44.7949H130.331V43.5508H132.546V40.8574H134.063ZM129.634 41.9238V46.5449H125.669V49.1699C127.303 49.1562 128.725 49.0879 130.386 48.8418L130.509 50.0859C128.608 50.3867 127.036 50.4277 125.122 50.4277H124.165V45.3555H128.144V43.1406H124.124V41.9238H129.634ZM146.659 45.8613V47.0645H141.765V48.0078H145.251V51.043H138.224V51.9453H145.593V53.1074H136.733V49.9766H143.761V49.1426H136.72V48.0078H140.261V47.0645H135.393V45.8613H146.659ZM145.647 41.2402V42.416H141.983C142.318 43.3252 143.829 44.1113 146.126 44.2754L145.647 45.4238C143.433 45.2461 141.758 44.501 141.013 43.4004C140.267 44.4941 138.613 45.2461 136.419 45.4238L135.94 44.2754C138.217 44.1045 139.714 43.332 140.056 42.416H136.419V41.2402H145.647ZM157.737 40.8574V53.2168H156.288V40.8574H157.737ZM155.112 41.1582V52.6289H153.677V46.9414H151.475C150.751 48.3633 149.589 49.5938 147.839 50.6055L146.977 49.5254C149.541 48.0146 150.71 46.0801 150.942 43.5918H147.606V42.3613H152.446C152.446 43.5576 152.303 44.6787 151.968 45.7246H153.677V41.1582H155.112ZM161.159 51.0293L160.01 54.8574H158.712L159.423 51.0293H161.159Z" fill="#CADFFF"/>
<path d="M37.5469 63.0234V80.8359H35.0664V70.543H30.2031V68.5117H35.0664V63.0234H37.5469ZM25.9453 64.918V74.5664C28.2109 74.5371 30.5156 74.3418 32.9375 73.8828L33.2109 75.9141C30.3398 76.5195 27.6055 76.6562 24.9492 76.6562H23.4453V64.918H25.9453ZM53.5047 70.9727V72.9453H48.3484V76.7344H55.282V78.7656H39.0125V76.7344H45.868V72.9453H40.9266V64.2734H53.368V66.2656H43.4266V70.9727H53.5047ZM73.7992 63.0234V67.4766H75.8109V69.5469H73.7992V73.6289H71.2992V63.0234H73.7992ZM73.7992 74.3516V80.8164H71.2992V76.3242H61.475V74.3516H73.7992ZM64.3461 64.4297V66.4023H62.1V70.6211C62.9008 70.6016 63.6723 70.5137 64.5219 70.3281L64.7367 72.3984C63.2719 72.6719 62.1 72.6719 60.6352 72.6914H59.7367V64.4297H64.3461ZM70.0102 64.4297V66.4023H67.6273V70.6406C68.7895 70.6016 69.5121 70.5137 70.3812 70.3086L70.6156 72.3398C69.3656 72.6328 68.3891 72.6719 66.2211 72.6914H65.2445V64.4297H70.0102ZM88.6641 64.1758V71.9688H80.1289V64.1758H88.6641ZM82.5898 66.1484V69.9961H86.2031V66.1484H82.5898ZM93.7031 63.0234V66.8906H96.1055V68.9219H93.7031V72.9844H91.2031V63.0234H93.7031ZM93.918 73.8242V75.7969H89.3672C89.7871 77.125 91.5449 78.4434 94.6992 78.8633L93.8203 80.7578C90.9688 80.377 88.957 79.2344 87.9414 77.7109C86.916 79.2344 84.9141 80.3574 82.082 80.7188L81.1836 78.8242C84.3867 78.4336 86.1055 77.1641 86.5156 75.7969H81.9453V73.8242H93.918ZM110.52 67.8672V69.8203H98.0984V63.6484H100.579V67.8672H110.52ZM112.337 71.7344V73.6875H96.0672V71.7344H112.337ZM110.637 78.4141V80.4062H97.9422V75.1328H100.442V78.4141H110.637ZM132.631 71.9102V73.8828H125.737V75.1133H130.737V80.6016H118.452V75.1133H123.256V73.8828H116.362V71.9102H132.631ZM120.893 77.0469V78.6094H128.256V77.0469H120.893ZM130.659 63.3555V68.0625H120.873V69.0781H130.991V71.0312H118.393V66.3047H128.159V65.2305H118.354V63.3555H130.659ZM140.445 64.8594V69.4883H142.222V63.2773H144.566V79.9766H142.222V71.4805H140.445V76.3242H133.374V64.8594H140.445ZM135.698 66.832V74.3711H138.12V66.832H135.698ZM148.277 63.0234V80.7969H145.894V63.0234H148.277ZM167.477 64.0586V65.6602C167.477 67.3203 167.477 69.1367 167.028 71.6172H169.372V73.6289H162.438V80.8164H159.938V73.6289H153.161V71.6172H164.509C164.958 69.3223 164.997 67.584 164.997 66.0508H155.016V64.0586H167.477ZM183.748 62.9844V66.8516H186.15V68.8438H183.748V72.6133H181.248V62.9844H183.748ZM183.748 73.3359V77.8281H174.431V78.8438H184.255V80.6797H171.99V76.1289H181.267V75.1328H171.951V73.3359H183.748ZM180.193 64.3516V66.2461H169.646V64.3516H173.689V62.9062H176.17V64.3516H180.193ZM174.92 66.6758C177.576 66.6758 179.295 67.8086 179.295 69.5859C179.295 71.4023 177.576 72.4961 174.92 72.4961C172.263 72.4961 170.505 71.4023 170.505 69.5859C170.505 67.8086 172.263 66.6758 174.92 66.6758ZM174.92 68.4336C173.689 68.4336 172.927 68.8438 172.947 69.5859C172.927 70.3477 173.689 70.7188 174.92 70.7188C176.15 70.7188 176.931 70.3477 176.931 69.5859C176.931 68.8438 176.15 68.4336 174.92 68.4336ZM199.374 64.4102C199.374 66.5 201.503 68.8242 205.585 69.332L204.609 71.3438C201.503 70.8945 199.228 69.459 198.066 67.5352C196.894 69.459 194.638 70.8945 191.562 71.3438L190.566 69.332C194.609 68.8242 196.757 66.5 196.757 64.4102V63.5508H199.374V64.4102ZM206.152 72.6914V74.7227H199.238V80.7969H196.777V74.7227H189.941V72.6914H206.152ZM216.7 74.4297C216.7 75.8652 217.296 77.3398 218.751 78.3164C220.216 77.2812 220.86 75.748 220.86 74.4297V73.8242H223.321V74.4297C223.302 76.2852 224.298 78.0039 226.661 78.7266L225.45 80.543C223.751 79.9668 222.637 78.8828 222.032 77.5156C221.436 78.8828 220.401 80.0742 218.809 80.6992C217.13 80.0938 216.085 78.9414 215.509 77.5742C214.884 78.9023 213.79 79.9766 212.169 80.543L210.938 78.7266C213.282 77.9258 214.259 76.168 214.278 74.4297V73.8242H216.7V74.4297ZM225.118 63.043V73.082H222.618V63.043H225.118ZM215.372 63.9414C218.145 63.9414 220.235 65.6992 220.235 68.2188C220.235 70.6992 218.145 72.457 215.372 72.457C212.598 72.457 210.509 70.6992 210.509 68.2188C210.509 65.6992 212.598 63.9414 215.372 63.9414ZM215.372 66.0312C213.946 66.0312 212.93 66.8516 212.95 68.2188C212.93 69.5664 213.946 70.3867 215.372 70.3867C216.759 70.3867 217.774 69.5664 217.774 68.2188C217.774 66.8516 216.759 66.0312 215.372 66.0312ZM231.623 64.2734C234.025 64.2734 235.812 66.2559 236.173 69.4492H239.259V63.0234H241.72V80.8359H239.259V71.4414H236.193C235.929 74.8594 234.103 76.9492 231.623 76.9492C228.927 76.9492 226.994 74.5078 227.013 70.6016C226.994 66.7344 228.927 64.2734 231.623 64.2734ZM231.623 66.5195C230.295 66.5195 229.377 67.9648 229.396 70.6016C229.377 73.2578 230.295 74.6836 231.623 74.6836C232.97 74.6836 233.849 73.2578 233.849 70.6016C233.849 67.9648 232.97 66.5195 231.623 66.5195Z" fill="white"/>
<g filter="url(#filter0_d_5207_33659)">
<path d="M269.513 37.3755C272.708 27.5415 286.62 27.5415 289.816 37.3755C291.244 41.7735 295.343 44.751 299.967 44.751C310.307 44.751 314.606 57.9824 306.241 64.06C302.5 66.7781 300.934 71.5958 302.363 75.9938C305.559 85.8276 294.303 94.0052 285.938 87.9275C282.197 85.2095 277.131 85.2095 273.39 87.9275C265.025 94.0052 253.77 85.8276 256.965 75.9938C258.394 71.5958 256.829 66.7781 253.087 64.06C244.722 57.9824 249.021 44.751 259.361 44.751C263.986 44.751 268.084 41.7735 269.513 37.3755Z" fill="#FFE28B"/>
</g>
<path d="M279.664 65.8766C281.302 65.8766 282.629 63.9517 282.629 61.5773C282.629 59.2032 281.302 57.2783 279.664 57.2783C278.027 57.2783 276.699 59.2032 276.699 61.5773C276.699 63.9517 278.027 65.8766 279.664 65.8766Z" fill="#3A3A3A"/>
<path d="M275.588 55.6475C276.448 55.6475 277.145 54.3532 277.145 52.7568C277.145 51.1601 276.448 49.8657 275.588 49.8657C274.728 49.8657 274.032 51.1601 274.032 52.7568C274.032 54.3532 274.728 55.6475 275.588 55.6475Z" fill="#3A3A3A"/>
<path d="M275.291 51.6451C275.495 51.6451 275.661 51.3797 275.661 51.0521C275.661 50.7248 275.495 50.459 275.291 50.459C275.086 50.459 274.92 50.7248 274.92 51.0521C274.92 51.3797 275.086 51.6451 275.291 51.6451Z" fill="white"/>
<path d="M273.883 48.9551C274.451 48.4117 275.914 47.6506 277.218 48.9551" stroke="#3A3A3A" stroke-width="0.889477" stroke-linecap="round"/>
<path d="M283.964 55.6475C284.823 55.6475 285.52 54.3532 285.52 52.7568C285.52 51.1601 284.823 49.8657 283.964 49.8657C283.104 49.8657 282.407 51.1601 282.407 52.7568C282.407 54.3532 283.104 55.6475 283.964 55.6475Z" fill="#3A3A3A"/>
<path d="M283.667 51.6451C283.872 51.6451 284.038 51.3797 284.038 51.0521C284.038 50.7248 283.872 50.459 283.667 50.459C283.462 50.459 283.296 50.7248 283.296 51.0521C283.296 51.3797 283.462 51.6451 283.667 51.6451Z" fill="white"/>
<path d="M282.259 48.9551C282.827 48.4117 284.29 47.6506 285.594 48.9551" stroke="#3A3A3A" stroke-width="0.889477" stroke-linecap="round"/>
<path d="M260.285 51.4823C261.743 57.3111 267.651 60.8535 273.48 59.3947C279.309 57.9357 282.851 52.0281 281.393 46.199C279.934 40.3702 274.026 36.8278 268.197 38.2866C262.368 39.7453 258.826 45.6532 260.285 51.4823Z" stroke="#ACADB4" stroke-width="0.610072"/>
<path d="M260.285 51.4823C261.743 57.3111 267.651 60.8535 273.48 59.3947C279.309 57.9357 282.851 52.0281 281.393 46.199C279.934 40.3702 274.026 36.8278 268.197 38.2866C262.368 39.7453 258.826 45.6532 260.285 51.4823Z" fill="#F1F7FF" fill-opacity="0.36" stroke="url(#paint0_linear_5207_33659)" stroke-width="0.610072"/>
<mask id="mask0_5207_33659" style="mask-type:alpha" maskUnits="userSpaceOnUse" x="260" y="38" width="22" height="22">
<path d="M260.581 51.4087C261.999 57.074 267.741 60.5174 273.406 59.0994C279.072 57.6813 282.515 51.939 281.097 46.2738C279.679 40.6085 273.937 37.1651 268.271 38.5831C262.606 40.0011 259.163 45.7431 260.581 51.4087Z" fill="#F1F7FF"/>
</mask>
<g mask="url(#mask0_5207_33659)">
<path d="M267.69 45.7646C268.683 49.7304 272.702 52.1407 276.668 51.1481C280.634 50.1555 283.044 46.1359 282.052 42.1702C281.059 38.2045 277.04 35.7941 273.074 36.7867C269.108 37.7794 266.698 41.7989 267.69 45.7646Z" fill="white" fill-opacity="0.2"/>
</g>
<path d="M257.867 51.0392C258.303 50.9301 258.745 51.195 258.854 51.6308L259.125 52.7159C259.235 53.1517 258.97 53.5931 258.534 53.7022L249.706 55.9119C248.971 56.0959 248.225 55.6488 248.041 54.9137C247.857 54.1782 248.304 53.4326 249.039 53.2486L257.867 51.0392Z" fill="#5E5E5E"/>
<path d="M259.965 52.9257C260.482 52.7961 260.796 52.2714 260.667 51.7541C260.537 51.2365 260.013 50.922 259.495 51.0516L258.904 51.1997C258.386 51.329 258.071 51.8537 258.201 52.3713C258.331 52.8888 258.855 53.2033 259.373 53.0737L259.965 52.9257Z" fill="#808082"/>
<defs>
<filter id="filter0_d_5207_33659" x="247.481" y="28.814" width="64.3661" height="62.3861" filterUnits="userSpaceOnUse" color-interpolation-filters="sRGB">
<feFlood flood-opacity="0" result="BackgroundImageFix"/>
<feColorMatrix in="SourceAlpha" type="matrix" values="0 0 0 0 0 0 0 0 0 0 0 0 0 0 0 0 0 0 127 0" result="hardAlpha"/>
<feOffset/>
<feGaussianBlur stdDeviation="0.592984"/>
<feComposite in2="hardAlpha" operator="out"/>
<feColorMatrix type="matrix" values="0 0 0 0 1 0 0 0 0 0.943318 0 0 0 0 0.773275 0 0 0 1 0"/>
<feBlend mode="normal" in2="BackgroundImageFix" result="effect1_dropShadow_5207_33659"/>
<feBlend mode="normal" in="SourceGraphic" in2="effect1_dropShadow_5207_33659" result="shape"/>
</filter>
<linearGradient id="paint0_linear_5207_33659" x1="280.516" y1="41.4398" x2="260.25" y2="62.6535" gradientUnits="userSpaceOnUse">
<stop stop-color="#ACADB4"/>
<stop offset="1" stop-color="#727272"/>
</linearGradient>
</defs>
</svg>
