<svg width="332" height="124" viewBox="0 0 332 124" fill="none" xmlns="http://www.w3.org/2000/svg">
<g clip-path="url(#clip0_5207_33630)">
<rect width="332" height="124" rx="12" fill="#BCBCBC"/>
<path d="M26.0742 52.1504C23.8594 52.1504 22.5195 50.5645 22.5195 48.3223C22.5195 46.0527 23.9004 44.4805 26.0742 44.4805C27.8789 44.4805 29.1367 45.5332 29.2598 47.1328H27.5918C27.4551 46.4219 26.9355 45.875 26.0879 45.875C25.0078 45.875 24.2832 46.791 24.2832 48.2812C24.2832 49.8125 24.9941 50.7285 26.0879 50.7285C26.8672 50.7285 27.4414 50.2773 27.5918 49.4707H29.2598C29.123 51.043 27.9336 52.1504 26.0742 52.1504ZM33.3925 52.1504C31.2323 52.1504 29.8378 50.6191 29.8378 48.3223C29.8378 46.0117 31.2323 44.4805 33.3925 44.4805C35.5663 44.4805 36.9472 46.0117 36.9472 48.3223C36.9472 50.6191 35.5663 52.1504 33.3925 52.1504ZM33.4062 50.7559C34.5956 50.7559 35.1835 49.6758 35.1835 48.3086C35.1835 46.9551 34.5956 45.8613 33.4062 45.8613C32.1894 45.8613 31.6015 46.9551 31.6015 48.3086C31.6015 49.6758 32.1894 50.7559 33.4062 50.7559ZM37.785 52V50.8926L41.6131 46.0801V46.0117H37.908V44.5762H43.7459V45.7656L40.0955 50.4961V50.5645H43.8827V52H37.785ZM46.0193 54.7891C45.6775 54.7891 45.3357 54.7754 45.117 54.748V53.3535C45.3357 53.3672 45.6228 53.3809 45.8552 53.3809C46.2791 53.3809 46.6345 53.3398 46.9353 52.5469L47.0857 52.1504L44.3787 44.5762H46.2244L47.947 50.1816H48.0291L49.7517 44.5762H51.5974L48.617 52.9023C48.1931 54.0918 47.4138 54.7891 46.0193 54.7891ZM52.2712 52V44.5762H53.9391V45.834H54.0348C54.3356 44.9863 55.0876 44.4805 56.072 44.4805C57.0837 44.4805 57.7946 44.9863 58.0817 45.834H58.1637C58.4919 45.0137 59.3122 44.4805 60.3923 44.4805C61.7458 44.4805 62.7028 45.3555 62.7028 47.0098V52H60.9665V47.2832C60.9665 46.3535 60.4059 45.9434 59.695 45.9434C58.8337 45.9434 58.3415 46.5312 58.3415 47.3652V52H56.6462V47.2148C56.6462 46.4492 56.1266 45.9434 55.3884 45.9434C54.6364 45.9434 54.0212 46.5586 54.0212 47.4883V52H52.2712ZM63.609 49.9082C63.609 48.2402 64.9898 47.748 66.3707 47.666C66.8834 47.6318 67.9498 47.5703 68.2711 47.5566V46.9688C68.2711 46.2305 67.7926 45.8066 66.9313 45.8066C66.152 45.8066 65.6734 46.1621 65.5367 46.6953H63.8551C63.9781 45.4375 65.1129 44.4805 66.9723 44.4805C68.3805 44.4805 70.0074 45.0547 70.0074 47.0371V52H68.3395V50.9746H68.2848C67.9566 51.6035 67.2594 52.1504 66.0973 52.1504C64.6754 52.1504 63.609 51.3711 63.609 49.9082ZM65.2906 49.8945C65.2906 50.5371 65.8102 50.8652 66.5484 50.8652C67.6012 50.8652 68.2848 50.168 68.2848 49.334V48.7188L66.6441 48.8281C65.8102 48.8965 65.2906 49.2383 65.2906 49.8945ZM74.9331 44.5762V45.916H73.4702V49.7715C73.4702 50.4824 73.8257 50.6328 74.2632 50.6328C74.4683 50.6328 74.8101 50.6191 75.0288 50.6055V52.0273C74.8237 52.0684 74.482 52.0957 74.0445 52.0957C72.732 52.0957 71.7202 51.4531 71.7339 50.0586V45.916H70.6675V44.5762H71.7339V42.7988H73.4702V44.5762H74.9331ZM79.0659 52.1504C76.8237 52.1504 75.4565 50.6602 75.4565 48.3359C75.4565 46.0391 76.851 44.4805 78.9702 44.4805C80.7885 44.4805 82.3608 45.6152 82.3608 48.2266V48.7734H77.1791C77.1996 50.0381 77.9448 50.7832 79.0795 50.7832C79.8452 50.7832 80.3647 50.4551 80.5834 50.0176H82.2924C81.978 51.3027 80.7885 52.1504 79.0659 52.1504ZM77.1928 47.584H80.6928C80.6791 46.5723 80.0092 45.834 78.9975 45.834C77.9448 45.834 77.2475 46.6338 77.1928 47.584ZM90.1888 43.8242C90.1751 46.0254 91.2825 48.2676 93.1966 49.1836L92.2669 50.4004C90.927 49.7236 89.9632 48.418 89.4368 46.8457C88.8968 48.5273 87.885 49.9219 86.47 50.6328L85.5403 49.416C87.5227 48.4727 88.6575 46.1074 88.6712 43.8242V41.8555H90.1888V43.8242ZM95.4524 40.8574V45.6973H97.3528V46.9961H95.4524V53.2168H93.9348V40.8574H95.4524ZM108.718 46.8047V48.0215H97.4523V46.8047H100.077V45.2324C99.1477 44.8428 98.6145 44.2207 98.6145 43.4141C98.6145 41.9375 100.351 41.0625 103.071 41.0625C105.792 41.0625 107.515 41.9375 107.529 43.4141C107.522 44.2275 106.988 44.8496 106.052 45.2324V46.8047H108.718ZM103.071 48.7734C105.738 48.7598 107.337 49.5527 107.351 50.9746C107.337 52.4102 105.738 53.1895 103.071 53.1895C100.378 53.1895 98.7648 52.4102 98.7648 50.9746C98.7648 49.5527 100.378 48.7598 103.071 48.7734ZM103.071 49.9219C101.267 49.9219 100.296 50.2773 100.31 50.9746C100.296 51.6719 101.267 52.041 103.071 52.041C104.835 52.041 105.82 51.6719 105.833 50.9746C105.82 50.2773 104.835 49.9219 103.071 49.9219ZM103.071 42.2383C101.239 42.2383 100.187 42.6484 100.2 43.4141C100.187 44.166 101.239 44.5625 103.071 44.5625C104.89 44.5625 105.956 44.166 105.956 43.4141C105.956 42.6484 104.89 42.2383 103.071 42.2383ZM101.609 46.8047H104.534V45.6289C104.09 45.6904 103.598 45.7246 103.071 45.7246C102.545 45.7246 102.053 45.6904 101.609 45.6289V46.8047ZM111.21 41.5V43.1816H113.972V41.5H115.476V43.7559H117.964V40.8574H119.482V47.6113H117.964V45.0137H115.476V47.2285H109.692V41.5H111.21ZM111.21 45.998H113.972V44.3574H111.21V45.998ZM112.851 48.1582V49.416H117.964V48.1582H119.482V53.0391H111.333V48.1582H112.851ZM112.851 51.8086H117.964V50.5918H112.851V51.8086ZM133.462 40.8574V43.3457H135.185V44.6035H133.462V47.0645H131.944V40.8574H133.462ZM133.462 47.5977V50.8379H126.899V51.8633H133.845V53.0664H125.395V49.7305H131.944V48.7734H125.382V47.5977H133.462ZM127.132 41.2676C129.019 41.2676 130.399 42.4023 130.413 44.043C130.399 45.6562 129.019 46.8047 127.132 46.8047C125.245 46.8047 123.837 45.6562 123.851 44.043C123.837 42.4023 125.245 41.2676 127.132 41.2676ZM127.132 42.498C126.093 42.498 125.327 43.0996 125.341 44.043C125.327 44.9727 126.093 45.6016 127.132 45.6016C128.171 45.6016 128.936 44.9727 128.936 44.043C128.936 43.0996 128.171 42.498 127.132 42.498ZM138.716 41.7598C140.575 41.7598 141.915 43.4551 141.929 46.1211C141.915 48.8145 140.575 50.4961 138.716 50.4961C136.843 50.4961 135.489 48.8145 135.503 46.1211C135.489 43.4551 136.843 41.7598 138.716 41.7598ZM138.716 43.127C137.677 43.127 136.966 44.2344 136.966 46.1211C136.966 48.0215 137.677 49.1289 138.716 49.1289C139.768 49.1289 140.466 48.0215 140.466 46.1211C140.466 44.2344 139.768 43.127 138.716 43.127ZM145.073 40.8574V45.6016H146.974V46.8867H145.073V53.2168H143.556V40.8574H145.073ZM158.366 50.4824V51.7266H147.073V50.4824H151.94V48.0762H148.317V41.6777H149.835V43.7012H155.563V41.6777H157.081V48.0762H153.444V50.4824H158.366ZM149.835 46.8457H155.563V44.918H149.835V46.8457ZM168.842 41.9922V43.1816C168.829 44.7129 168.829 46.4355 168.35 49.0195L166.819 48.8555C167.298 46.4492 167.298 44.6924 167.311 43.209H159.928V41.9922H168.842ZM170.018 50.373V51.6172H158.753V50.373H162.909V46.0801H164.413V50.373H170.018ZM172.839 51.0293L171.69 54.8574H170.391L171.102 51.0293H172.839Z" fill="#DFDFDF"/>
<path d="M38.7773 71.9102V73.8828H31.8828V75.1133H36.8828V80.6016H24.5977V75.1133H29.4023V73.8828H22.5078V71.9102H38.7773ZM27.0391 77.0469V78.6094H34.4023V77.0469H27.0391ZM36.8047 63.3555V68.0625H27.0195V69.0781H37.1367V71.0312H24.5391V66.3047H34.3047V65.2305H24.5V63.3555H36.8047ZM46.5906 64.8594V69.4883H48.368V63.2773H50.7117V79.9766H48.368V71.4805H46.5906V76.3242H39.5203V64.8594H46.5906ZM41.8445 66.832V74.3711H44.2664V66.832H41.8445ZM54.4227 63.0234V80.7969H52.0398V63.0234H54.4227ZM73.6234 64.0586V65.6602C73.6234 67.3203 73.6234 69.1367 73.1742 71.6172H75.518V73.6289H68.5844V80.8164H66.0844V73.6289H59.307V71.6172H70.6547C71.1039 69.3223 71.143 67.584 71.143 66.0508H61.1625V64.0586H73.6234ZM84.3664 65.7383V67.7109H75.7727V65.7383H78.8586V63.5117H81.3195V65.7383H84.3664ZM80.1086 68.5117C82.3742 68.5117 83.9953 70.2695 84.0148 72.7305C83.9953 75.2109 82.3742 76.9688 80.1086 76.9688C77.843 76.9688 76.1828 75.2109 76.1828 72.7305C76.1828 70.2695 77.843 68.5117 80.1086 68.5117ZM80.1086 70.582C79.0734 70.582 78.3703 71.3828 78.3703 72.7305C78.3703 74.0781 79.0734 74.8594 80.1086 74.8594C81.1047 74.8594 81.8078 74.0781 81.8273 72.7305C81.8078 71.3828 81.1047 70.582 80.1086 70.582ZM91.1633 63.0234V80.7969H88.8V72.2422H87.3547V80.0352H85.0305V63.375H87.3547V70.25H88.8V63.0234H91.1633ZM98.9961 67.0469C98.9961 70.3867 100.344 73.6289 103.312 74.918L101.789 76.9102C99.8164 75.9434 98.498 74.1758 97.7656 71.9883C96.9844 74.3125 95.6172 76.2168 93.5859 77.2227L92.0234 75.1914C95.0703 73.8242 96.457 70.3867 96.4766 67.0469V64.3906H98.9961V67.0469ZM107.277 63.0234V80.8359H104.816V70.6211H101.32V68.6094H104.816V63.0234H107.277ZM127.435 63.0234V80.7969H124.935V63.0234H127.435ZM119.525 68.5898C119.525 71.168 120.99 74.0781 123.939 75.2891L122.591 77.2031C120.57 76.373 119.125 74.6738 118.314 72.6328C117.523 74.8008 116.068 76.6172 113.998 77.4766L112.67 75.5625C115.599 74.293 117.045 71.3047 117.045 68.5898V67.9062H113.255V65.9141H117.025V63.4141H119.505V65.9141H123.216V67.9062H119.525V68.5898ZM138.627 64.3125C138.608 69.293 136.401 72.6914 130.287 74.6055L129.35 72.6523C131.948 71.8613 133.627 70.8457 134.662 69.5859L129.702 69.9766L129.35 68.043L135.659 67.8281C135.825 67.3398 135.932 66.832 135.991 66.3047H130.248V64.3125H138.627ZM143.94 63.043V75.9531H141.44V63.043H143.94ZM144.409 78.5312V80.5234H132.026V74.8984H134.545V78.5312H144.409ZM163.453 63.0234V67.0664H165.855V69.1172H163.453V73.3945H160.953V63.0234H163.453ZM152.359 64.0586V66.3242H155.992V64.0586H158.492V72.5156H149.879V64.0586H152.359ZM152.359 70.5625H155.992V68.2578H152.359V70.5625ZM163.551 74.1953V76.168H154.312V78.6094H163.883V80.5625H151.832V74.1953H163.551ZM170.622 64.2734C173.337 64.2734 175.29 66.7344 175.309 70.6016C175.29 74.5078 173.337 76.9492 170.622 76.9492C167.907 76.9492 165.915 74.5078 165.934 70.6016C165.915 66.7344 167.907 64.2734 170.622 64.2734ZM170.622 66.5195C169.255 66.5195 168.337 67.9648 168.337 70.6016C168.337 73.2578 169.255 74.6836 170.622 74.6836C172.009 74.6836 172.907 73.2578 172.927 70.6016C172.907 67.9648 172.009 66.5195 170.622 66.5195ZM179.86 63.0234V69.7227H182.477V71.793H179.86V80.7969H177.36V63.0234H179.86ZM196.345 63.0234V69.8398H198.865V71.8906H196.345V80.7578H193.845V63.0234H196.345ZM191.599 64.8398C191.58 70.1523 189.509 74.7617 183.533 77.6914L182.127 75.7773C186.336 73.668 188.591 70.8359 189.06 66.8711H183.142V64.8398H191.599ZM205.37 67.8672C205.35 70.582 206.795 73.707 209.725 75.0547L208.338 77.0078C206.356 76.0996 204.94 74.2832 204.159 72.1445C203.358 74.498 201.903 76.4902 199.842 77.457L198.397 75.4844C201.366 74.0977 202.85 70.7969 202.87 67.8672V66.7734H199.1V64.7422H208.944V66.7734H205.37V67.8672ZM212.83 63.0234V69.8008H215.448V71.8906H212.83V80.7969H210.33V63.0234H212.83ZM219.335 64.8594L219.081 74.7617H216.581L216.327 64.8594H219.335ZM217.851 79.1758C216.933 79.1758 216.191 78.4336 216.21 77.5352C216.191 76.6367 216.933 75.9141 217.851 75.9141C218.71 75.9141 219.472 76.6367 219.472 77.5352C219.472 78.4336 218.71 79.1758 217.851 79.1758Z" fill="white"/>
<g filter="url(#filter0_d_5207_33630)">
<path fill-rule="evenodd" clip-rule="evenodd" d="M318.251 92.039C314.328 85.8782 303.52 72.6138 291.204 68.1659C280.827 64.4183 284.696 74.7614 289.45 83.1149L285.972 80.313C280.888 76.2171 273.272 78.9121 271.895 85.2937L270.519 91.675C262.48 86.0035 251.646 80.524 254.614 91.5689C256.123 97.1834 259.388 102.648 263.061 107.376C262.658 108.509 262.312 109.675 262.029 110.871C257.66 129.305 269.675 147.936 288.867 152.484C308.058 157.033 327.157 145.777 331.526 127.343C334.738 113.79 329.093 100.13 318.251 92.039Z" fill="#FFE28B"/>
</g>
<ellipse cx="1.63199" cy="3.03084" rx="1.63199" ry="3.03084" transform="matrix(-0.972855 0.231415 0.231415 0.972855 281.148 96.6553)" fill="#3A3A3A"/>
<ellipse cx="0.388569" cy="0.621711" rx="0.388569" ry="0.621711" transform="matrix(-0.972855 0.231415 0.231415 0.972855 280.385 97.4771)" fill="white"/>
<ellipse cx="1.63199" cy="3.03084" rx="1.63199" ry="3.03084" transform="matrix(-0.972855 0.231415 0.231415 0.972855 289.465 94.6772)" fill="#3A3A3A"/>
<ellipse cx="0.388569" cy="0.621711" rx="0.388569" ry="0.621711" transform="matrix(-0.972855 0.231415 0.231415 0.972855 288.702 95.4985)" fill="white"/>
<g filter="url(#filter1_d_5207_33630)">
<rect width="50.1213" height="42.2899" rx="6.57842" transform="matrix(-0.958573 0.284847 0.284847 0.958573 285.526 36.3398)" fill="#CADFFF"/>
<mask id="mask0_5207_33630" style="mask-type:alpha" maskUnits="userSpaceOnUse" x="239" y="37" width="57" height="53">
<rect width="50.1213" height="42.2899" rx="6.57842" transform="matrix(-0.958573 0.284847 0.284847 0.958573 285.526 36.3398)" fill="#CADFFF"/>
</mask>
<g mask="url(#mask0_5207_33630)">
<circle cx="10.0243" cy="10.0243" r="10.0243" transform="matrix(-0.958573 0.284847 0.284847 0.958573 297.073 49.9019)" fill="#E0ECFF" fill-opacity="0.8"/>
<circle cx="10.0243" cy="10.0243" r="10.0243" transform="matrix(-0.958573 0.284847 0.284847 0.958573 265.294 39.7373)" fill="#E0ECFF" fill-opacity="0.8"/>
<circle cx="10.0243" cy="10.0243" r="10.0243" transform="matrix(-0.958573 0.284847 0.284847 0.958573 256.857 76.2314)" fill="#E0ECFF" fill-opacity="0.8"/>
</g>
<path d="M261.396 39.6329C261.386 40.3886 260.813 41.1048 259.429 41.4152C258.084 41.7168 256.171 41.5701 254.017 40.8486C251.863 40.1272 249.963 38.9972 248.638 37.8013C247.273 36.5705 246.724 35.4783 246.734 34.7225C246.744 33.9668 247.317 33.2506 248.701 32.9402C250.046 32.6386 251.959 32.7853 254.113 33.5068C256.267 34.2282 258.167 35.3582 259.492 36.5541C260.857 37.7849 261.406 38.8771 261.396 39.6329Z" stroke="#FFE28B" stroke-width="1.87955"/>
<path d="M259.774 40.1146C260.195 40.7423 261.066 41.0293 262.396 40.5333C263.687 40.0514 265.209 38.8841 266.62 37.1034C268.03 35.3226 269.005 33.3386 269.462 31.6129C269.933 29.837 269.796 28.622 269.375 27.9943C268.954 27.3665 268.083 27.0796 266.754 27.5755C265.462 28.0574 263.94 29.2247 262.53 31.0055C261.119 32.7863 260.145 34.7703 259.687 36.496C259.217 38.2719 259.353 39.4869 259.774 40.1146Z" stroke="#FFE28B" stroke-width="1.87955"/>
<rect width="54.5069" height="14.7231" rx="7.36157" transform="matrix(-0.958573 0.284847 0.284847 0.958573 285.487 28.5078)" fill="#90B5EC"/>
<rect width="1.87955" height="49.8081" transform="matrix(-0.958573 0.284847 0.284847 0.958573 260.263 36.0039)" fill="#FFE28B"/>
<path d="M259.958 35.4409L258.56 36.6966L269.86 49.284C270.207 49.6702 270.801 49.7022 271.188 49.3555C271.574 49.0087 271.606 48.4146 271.259 48.0283L259.958 35.4409Z" fill="#FFE28B"/>
<path d="M258.428 35.895L260.285 36.1831L257.692 52.8992C257.612 53.412 257.132 53.7633 256.619 53.6838C256.106 53.6042 255.755 53.1239 255.835 52.6111L258.428 35.895Z" fill="#FFE28B"/>
</g>
<ellipse cx="286.499" cy="106.088" rx="2.42646" ry="3.51836" transform="rotate(161.449 286.499 106.088)" fill="#3A3A3A"/>
<path d="M291.204 68.166C303.576 72.634 314.425 85.9985 318.304 92.1223L292.194 87.5979C286.709 79.2589 278.832 63.6979 291.204 68.166Z" fill="url(#paint0_linear_5207_33630)"/>
</g>
<defs>
<filter id="filter0_d_5207_33630" x="252.358" y="66.0593" width="81.8205" height="89.628" filterUnits="userSpaceOnUse" color-interpolation-filters="sRGB">
<feFlood flood-opacity="0" result="BackgroundImageFix"/>
<feColorMatrix in="SourceAlpha" type="matrix" values="0 0 0 0 0 0 0 0 0 0 0 0 0 0 0 0 0 0 127 0" result="hardAlpha"/>
<feOffset dy="0.438725"/>
<feGaussianBlur stdDeviation="0.87745"/>
<feComposite in2="hardAlpha" operator="out"/>
<feColorMatrix type="matrix" values="0 0 0 0 0.352018 0 0 0 0 0.352018 0 0 0 0 0.352018 0 0 0 0.25 0"/>
<feBlend mode="normal" in2="BackgroundImageFix" result="effect1_dropShadow_5207_33630"/>
<feBlend mode="normal" in="SourceGraphic" in2="effect1_dropShadow_5207_33630" result="shape"/>
</filter>
<filter id="filter1_d_5207_33630" x="233.273" y="24.9353" width="64.4547" height="66.8135" filterUnits="userSpaceOnUse" color-interpolation-filters="sRGB">
<feFlood flood-opacity="0" result="BackgroundImageFix"/>
<feColorMatrix in="SourceAlpha" type="matrix" values="0 0 0 0 0 0 0 0 0 0 0 0 0 0 0 0 0 0 127 0" result="hardAlpha"/>
<feOffset dy="0.438725"/>
<feGaussianBlur stdDeviation="0.87745"/>
<feComposite in2="hardAlpha" operator="out"/>
<feColorMatrix type="matrix" values="0 0 0 0 0.352018 0 0 0 0 0.352018 0 0 0 0 0.352018 0 0 0 0.25 0"/>
<feBlend mode="normal" in2="BackgroundImageFix" result="effect1_dropShadow_5207_33630"/>
<feBlend mode="normal" in="SourceGraphic" in2="effect1_dropShadow_5207_33630" result="shape"/>
</filter>
<linearGradient id="paint0_linear_5207_33630" x1="288.561" y1="68.21" x2="291.228" y2="75.2672" gradientUnits="userSpaceOnUse">
<stop stop-color="#FFDD79"/>
<stop offset="1" stop-color="#FFE28B"/>
</linearGradient>
<clipPath id="clip0_5207_33630">
<rect width="332" height="124" rx="12" fill="white"/>
</clipPath>
</defs>
</svg>
