<svg width="374" height="176" viewBox="0 0 374 176" fill="none" xmlns="http://www.w3.org/2000/svg">
<g filter="url(#filter0_i_1582_10803)">
<path d="M201.234 175.499C201.234 175.499 -37.4777 90.9485 -12.0598 48.3602C5.52833 18.8909 136.688 94.5015 158.898 67.2688C196.163 21.5769 -39.8213 -95.0004 -39.8213 -95.0004" stroke="white" stroke-opacity="0.2" stroke-dasharray="8 8"/>
</g>
<g filter="url(#filter1_i_1582_10803)">
<path d="M316.405 -22.7735C316.503 -28.809 324.449 -30.9381 327.551 -25.7601L334.773 -13.7068C336.437 -10.9291 340.005 -9.97311 342.835 -11.5465L355.116 -18.3741C360.392 -21.3072 366.209 -15.4904 363.276 -10.2146L356.448 2.0663C354.875 4.8964 355.831 8.46438 358.609 10.1286L370.662 17.3504C375.84 20.4528 373.711 28.3987 367.675 28.4965L353.626 28.724C350.388 28.7765 347.776 31.3884 347.724 34.6261L347.496 48.6754C347.399 54.7109 339.453 56.84 336.35 51.662L329.128 39.6087C327.464 36.8311 323.896 35.875 321.066 37.4484L308.785 44.276C303.509 47.2091 297.693 41.3923 300.626 36.1165L307.453 23.8356C309.027 21.0055 308.071 17.4375 305.293 15.7733L293.24 8.55154C288.062 5.44911 290.191 -2.49679 296.226 -2.59455L310.276 -2.82214C313.513 -2.87458 316.125 -5.48654 316.178 -8.72417L316.405 -22.7735Z" fill="white" fill-opacity="0.3"/>
</g>
<g filter="url(#filter2_i_1582_10803)">
<path d="M170.466 105.528C171.172 104.271 173.076 104.652 173.243 106.085C173.318 106.726 173.797 107.246 174.429 107.373C175.843 107.656 176.069 109.584 174.758 110.186C174.171 110.455 173.825 111.071 173.9 111.712C174.067 113.145 172.303 113.955 171.326 112.894C170.889 112.419 170.196 112.28 169.609 112.549C168.298 113.151 166.983 111.724 167.69 110.467C168.006 109.904 167.924 109.202 167.487 108.728C166.509 107.667 167.46 105.975 168.875 106.259C169.507 106.386 170.15 106.091 170.466 105.528Z" fill="white" fill-opacity="0.2"/>
</g>
<g filter="url(#filter3_i_1582_10803)">
<path d="M294.278 113.71C294.157 111.858 296.407 110.855 297.704 112.183L300.387 114.928C300.795 115.346 301.365 115.564 301.947 115.526L305.778 115.277C307.631 115.156 308.634 117.406 307.306 118.703L304.56 121.386C304.143 121.794 303.924 122.364 303.962 122.947L304.211 126.777C304.332 128.63 302.083 129.633 300.785 128.305L298.102 125.559C297.694 125.142 297.124 124.923 296.542 124.961L292.711 125.211C290.859 125.331 289.856 123.082 291.184 121.784L293.929 119.101C294.347 118.694 294.565 118.124 294.527 117.541L294.278 113.71Z" fill="white" fill-opacity="0.2"/>
</g>
<g filter="url(#filter4_i_1582_10803)">
<path d="M-119.814 48.1401C-114.429 30.7685 -104.342 15.2259 -90.6693 3.23237C-76.9971 -8.76114 -60.2729 -16.7378 -42.3478 -19.8146C-24.4227 -22.8914 -5.99579 -20.9485 10.8934 -14.2009C27.7826 -7.45332 42.4755 3.83584 53.3458 18.4171C64.216 32.9983 70.8398 50.303 72.484 68.4157C74.1281 86.5285 70.7286 104.743 62.6615 121.043C54.5944 137.343 42.1745 151.094 26.7763 160.772C11.3782 170.451 -6.39768 175.68 -24.5838 175.881L-25.6736 77.3258L-119.814 48.1401Z" fill="white" fill-opacity="0.3"/>
</g>
<g filter="url(#filter5_i_1582_10803)">
<path d="M112.505 39.6956C113.167 39.0448 114.281 39.5688 114.202 40.4938L114.191 40.6251C114.166 40.9159 114.27 41.203 114.475 41.4112L114.567 41.5052C115.218 42.1672 114.694 43.2815 113.769 43.2026L113.637 43.1914C113.347 43.1666 113.059 43.27 112.851 43.4746L112.757 43.567C112.095 44.2178 110.981 43.6938 111.06 42.7689L111.071 42.6375C111.096 42.3467 110.992 42.0596 110.788 41.8515L110.695 41.7574C110.045 41.0954 110.569 39.9811 111.494 40.06L111.625 40.0712C111.916 40.0961 112.203 39.9926 112.411 39.788L112.505 39.6956Z" fill="white" fill-opacity="0.4"/>
</g>
<g filter="url(#filter6_i_1582_10803)">
<path d="M234.897 71.7869C235.146 71.2059 236.012 71.3843 236.011 72.0162C236.01 72.4492 236.467 72.7305 236.853 72.535C237.417 72.2496 237.966 72.9433 237.559 73.4264C237.28 73.7576 237.449 74.2667 237.871 74.3652C238.486 74.509 238.461 75.3932 237.838 75.5017C237.411 75.576 237.214 76.0746 237.473 76.4212C237.852 76.9268 237.265 77.5879 236.718 77.2709C236.343 77.0536 235.871 77.3085 235.848 77.7409C235.813 78.3717 234.938 78.5004 234.723 77.9063C234.575 77.499 234.05 77.3909 233.754 77.7068C233.322 78.1677 232.569 77.7037 232.786 77.1104C232.935 76.7038 232.602 76.2832 232.172 76.3349C231.545 76.4102 231.266 75.5706 231.814 75.2558C232.189 75.0401 232.205 74.5039 231.842 74.2671C231.313 73.9215 231.639 73.0992 232.261 73.2102C232.687 73.2863 233.044 72.8854 232.918 72.4709C232.735 71.8662 233.514 71.4459 233.919 71.9308C234.196 72.2631 234.727 72.185 234.897 71.7869Z" fill="white" fill-opacity="0.1"/>
</g>
<g filter="url(#filter7_i_1582_10803)">
<path d="M12.3219 108.392C12.3975 107.734 13.2884 107.587 13.5717 108.186C13.7236 108.507 14.1031 108.65 14.4292 108.509C15.0371 108.245 15.61 108.943 15.2329 109.488C15.0305 109.78 15.0966 110.18 15.3822 110.392C15.9145 110.786 15.5964 111.632 14.936 111.577C14.5817 111.548 14.2683 111.805 14.2278 112.159C14.1522 112.817 13.2612 112.964 12.978 112.365C12.826 112.044 12.4465 111.901 12.1204 112.042C11.5125 112.306 10.9396 111.608 11.3168 111.063C11.5191 110.771 11.453 110.371 11.1675 110.159C10.6352 109.764 10.9532 108.919 11.6136 108.974C11.9679 109.003 12.2813 108.745 12.3219 108.392Z" fill="white" fill-opacity="0.2"/>
</g>
<defs>
<filter id="filter0_i_1582_10803" x="-40.0427" y="-95.4492" width="241.444" height="271.42" filterUnits="userSpaceOnUse" color-interpolation-filters="sRGB">
<feFlood flood-opacity="0" result="BackgroundImageFix"/>
<feBlend mode="normal" in="SourceGraphic" in2="BackgroundImageFix" result="shape"/>
<feColorMatrix in="SourceAlpha" type="matrix" values="0 0 0 0 0 0 0 0 0 0 0 0 0 0 0 0 0 0 127 0" result="hardAlpha"/>
<feOffset/>
<feGaussianBlur stdDeviation="5"/>
<feComposite in2="hardAlpha" operator="arithmetic" k2="-1" k3="1"/>
<feColorMatrix type="matrix" values="0 0 0 0 1 0 0 0 0 1 0 0 0 0 1 0 0 0 0.25 0"/>
<feBlend mode="normal" in2="shape" result="effect1_innerShadow_1582_10803"/>
</filter>
<filter id="filter1_i_1582_10803" x="290.314" y="-28.6855" width="83.2737" height="83.2734" filterUnits="userSpaceOnUse" color-interpolation-filters="sRGB">
<feFlood flood-opacity="0" result="BackgroundImageFix"/>
<feBlend mode="normal" in="SourceGraphic" in2="BackgroundImageFix" result="shape"/>
<feColorMatrix in="SourceAlpha" type="matrix" values="0 0 0 0 0 0 0 0 0 0 0 0 0 0 0 0 0 0 127 0" result="hardAlpha"/>
<feOffset/>
<feGaussianBlur stdDeviation="5"/>
<feComposite in2="hardAlpha" operator="arithmetic" k2="-1" k3="1"/>
<feColorMatrix type="matrix" values="0 0 0 0 1 0 0 0 0 1 0 0 0 0 1 0 0 0 0.25 0"/>
<feBlend mode="normal" in2="shape" result="effect1_innerShadow_1582_10803"/>
</filter>
<filter id="filter2_i_1582_10803" x="167.087" y="104.768" width="8.53857" height="8.61133" filterUnits="userSpaceOnUse" color-interpolation-filters="sRGB">
<feFlood flood-opacity="0" result="BackgroundImageFix"/>
<feBlend mode="normal" in="SourceGraphic" in2="BackgroundImageFix" result="shape"/>
<feColorMatrix in="SourceAlpha" type="matrix" values="0 0 0 0 0 0 0 0 0 0 0 0 0 0 0 0 0 0 127 0" result="hardAlpha"/>
<feOffset/>
<feGaussianBlur stdDeviation="5"/>
<feComposite in2="hardAlpha" operator="arithmetic" k2="-1" k3="1"/>
<feColorMatrix type="matrix" values="0 0 0 0 1 0 0 0 0 1 0 0 0 0 1 0 0 0 0.25 0"/>
<feBlend mode="normal" in2="shape" result="effect1_innerShadow_1582_10803"/>
</filter>
<filter id="filter3_i_1582_10803" x="290.576" y="111.576" width="17.3369" height="17.3359" filterUnits="userSpaceOnUse" color-interpolation-filters="sRGB">
<feFlood flood-opacity="0" result="BackgroundImageFix"/>
<feBlend mode="normal" in="SourceGraphic" in2="BackgroundImageFix" result="shape"/>
<feColorMatrix in="SourceAlpha" type="matrix" values="0 0 0 0 0 0 0 0 0 0 0 0 0 0 0 0 0 0 127 0" result="hardAlpha"/>
<feOffset/>
<feGaussianBlur stdDeviation="5"/>
<feComposite in2="hardAlpha" operator="arithmetic" k2="-1" k3="1"/>
<feColorMatrix type="matrix" values="0 0 0 0 1 0 0 0 0 1 0 0 0 0 1 0 0 0 0.25 0"/>
<feBlend mode="normal" in2="shape" result="effect1_innerShadow_1582_10803"/>
</filter>
<filter id="filter4_i_1582_10803" x="-119.814" y="-21.2344" width="192.702" height="197.115" filterUnits="userSpaceOnUse" color-interpolation-filters="sRGB">
<feFlood flood-opacity="0" result="BackgroundImageFix"/>
<feBlend mode="normal" in="SourceGraphic" in2="BackgroundImageFix" result="shape"/>
<feColorMatrix in="SourceAlpha" type="matrix" values="0 0 0 0 0 0 0 0 0 0 0 0 0 0 0 0 0 0 127 0" result="hardAlpha"/>
<feOffset/>
<feGaussianBlur stdDeviation="5"/>
<feComposite in2="hardAlpha" operator="arithmetic" k2="-1" k3="1"/>
<feColorMatrix type="matrix" values="0 0 0 0 1 0 0 0 0 1 0 0 0 0 1 0 0 0 0.25 0"/>
<feBlend mode="normal" in2="shape" result="effect1_innerShadow_1582_10803"/>
</filter>
<filter id="filter5_i_1582_10803" x="110.406" y="39.4062" width="4.45068" height="4.45117" filterUnits="userSpaceOnUse" color-interpolation-filters="sRGB">
<feFlood flood-opacity="0" result="BackgroundImageFix"/>
<feBlend mode="normal" in="SourceGraphic" in2="BackgroundImageFix" result="shape"/>
<feColorMatrix in="SourceAlpha" type="matrix" values="0 0 0 0 0 0 0 0 0 0 0 0 0 0 0 0 0 0 127 0" result="hardAlpha"/>
<feOffset/>
<feGaussianBlur stdDeviation="5"/>
<feComposite in2="hardAlpha" operator="arithmetic" k2="-1" k3="1"/>
<feColorMatrix type="matrix" values="0 0 0 0 1 0 0 0 0 1 0 0 0 0 1 0 0 0 0.25 0"/>
<feBlend mode="normal" in2="shape" result="effect1_innerShadow_1582_10803"/>
</filter>
<filter id="filter6_i_1582_10803" x="231.521" y="71.4336" width="6.79761" height="6.85547" filterUnits="userSpaceOnUse" color-interpolation-filters="sRGB">
<feFlood flood-opacity="0" result="BackgroundImageFix"/>
<feBlend mode="normal" in="SourceGraphic" in2="BackgroundImageFix" result="shape"/>
<feColorMatrix in="SourceAlpha" type="matrix" values="0 0 0 0 0 0 0 0 0 0 0 0 0 0 0 0 0 0 127 0" result="hardAlpha"/>
<feOffset/>
<feGaussianBlur stdDeviation="5"/>
<feComposite in2="hardAlpha" operator="arithmetic" k2="-1" k3="1"/>
<feColorMatrix type="matrix" values="0 0 0 0 1 0 0 0 0 1 0 0 0 0 1 0 0 0 0.25 0"/>
<feBlend mode="normal" in2="shape" result="effect1_innerShadow_1582_10803"/>
</filter>
<filter id="filter7_i_1582_10803" x="10.8994" y="107.809" width="4.75098" height="4.93359" filterUnits="userSpaceOnUse" color-interpolation-filters="sRGB">
<feFlood flood-opacity="0" result="BackgroundImageFix"/>
<feBlend mode="normal" in="SourceGraphic" in2="BackgroundImageFix" result="shape"/>
<feColorMatrix in="SourceAlpha" type="matrix" values="0 0 0 0 0 0 0 0 0 0 0 0 0 0 0 0 0 0 127 0" result="hardAlpha"/>
<feOffset/>
<feGaussianBlur stdDeviation="5"/>
<feComposite in2="hardAlpha" operator="arithmetic" k2="-1" k3="1"/>
<feColorMatrix type="matrix" values="0 0 0 0 1 0 0 0 0 1 0 0 0 0 1 0 0 0 0.25 0"/>
<feBlend mode="normal" in2="shape" result="effect1_innerShadow_1582_10803"/>
</filter>
</defs>
</svg>
