<svg width="374" height="176" viewBox="0 0 374 176" fill="none" xmlns="http://www.w3.org/2000/svg">
<g filter="url(#filter0_i_494_1518)">
<path d="M201.234 175.5C201.234 175.5 -37.4777 90.9489 -12.0598 48.3607C5.52833 18.8914 136.688 94.502 158.898 67.2693C196.163 21.5774 -39.8213 -94.9999 -39.8213 -94.9999" stroke="white" stroke-opacity="0.2" stroke-dasharray="8 8"/>
</g>
<g filter="url(#filter1_i_494_1518)">
<path d="M316.405 -22.7737C316.503 -28.8093 324.449 -30.9383 327.551 -25.7603L334.773 -13.707C336.437 -10.9294 340.005 -9.97335 342.835 -11.5467L355.116 -18.3743C360.392 -21.3074 366.209 -15.4906 363.276 -10.2148L356.448 2.06606C354.875 4.89615 355.831 8.46414 358.609 10.1284L370.662 17.3501C375.84 20.4526 373.711 28.3985 367.675 28.4962L353.626 28.7238C350.388 28.7763 347.776 31.3882 347.724 34.6258L347.496 48.6752C347.399 54.7107 339.453 56.8398 336.35 51.6617L329.128 39.6085C327.464 36.8308 323.896 35.8748 321.066 37.4482L308.785 44.2757C303.509 47.2088 297.693 41.392 300.626 36.1162L307.453 23.8354C309.027 21.0053 308.071 17.4373 305.293 15.773L293.24 8.55129C288.062 5.44886 290.191 -2.49703 296.226 -2.5948L310.276 -2.82238C313.513 -2.87482 316.125 -5.48678 316.178 -8.72441L316.405 -22.7737Z" fill="white" fill-opacity="0.3"/>
</g>
<g filter="url(#filter2_i_494_1518)">
<path d="M170.466 105.528C171.172 104.271 173.075 104.652 173.243 106.085C173.317 106.726 173.796 107.246 174.429 107.373C175.843 107.656 176.068 109.584 174.757 110.186C174.171 110.455 173.825 111.071 173.9 111.712C174.067 113.145 172.303 113.955 171.326 112.894C170.888 112.419 170.195 112.28 169.609 112.549C168.298 113.151 166.983 111.724 167.69 110.467C168.006 109.904 167.924 109.202 167.487 108.728C166.509 107.667 167.46 105.975 168.875 106.259C169.507 106.386 170.149 106.091 170.466 105.528Z" fill="white" fill-opacity="0.2"/>
</g>
<g filter="url(#filter3_i_494_1518)">
<path d="M294.278 113.711C294.157 111.859 296.407 110.856 297.704 112.184L300.387 114.929C300.795 115.347 301.365 115.565 301.947 115.527L305.778 115.278C307.631 115.157 308.634 117.407 307.306 118.704L304.56 121.387C304.143 121.795 303.924 122.365 303.962 122.948L304.211 126.778C304.332 128.631 302.083 129.634 300.785 128.306L298.102 125.56C297.694 125.143 297.124 124.924 296.542 124.962L292.711 125.212C290.859 125.332 289.856 123.083 291.184 121.785L293.929 119.102C294.347 118.695 294.565 118.125 294.527 117.542L294.278 113.711Z" fill="white" fill-opacity="0.2"/>
</g>
<g filter="url(#filter4_i_494_1518)">
<path d="M-119.814 48.1408C-114.429 30.7693 -104.342 15.2266 -90.6693 3.2331C-76.9971 -8.76041 -60.2729 -16.737 -42.3478 -19.8139C-24.4227 -22.8907 -5.99579 -20.9478 10.8934 -14.2002C27.7826 -7.45259 42.4755 3.83658 53.3458 18.4178C64.216 32.9991 70.8398 50.3037 72.484 68.4165C74.1281 86.5292 70.7286 104.744 62.6615 121.044C54.5944 137.344 42.1745 151.095 26.7763 160.773C11.3782 170.451 -6.39768 175.681 -24.5838 175.882L-25.6736 77.3266L-119.814 48.1408Z" fill="white" fill-opacity="0.3"/>
</g>
<g filter="url(#filter5_i_494_1518)">
<path d="M112.505 39.6956C113.167 39.0448 114.282 39.5688 114.203 40.4938L114.191 40.6251C114.167 40.9159 114.27 41.203 114.475 41.4112L114.567 41.5052C115.218 42.1672 114.694 43.2815 113.769 43.2026L113.638 43.1914C113.347 43.1666 113.06 43.27 112.851 43.4746L112.757 43.567C112.095 44.2178 110.981 43.6938 111.06 42.7689L111.071 42.6375C111.096 42.3467 110.993 42.0596 110.788 41.8515L110.696 41.7574C110.045 41.0954 110.569 39.9811 111.494 40.06L111.625 40.0712C111.916 40.0961 112.203 39.9926 112.411 39.788L112.505 39.6956Z" fill="white" fill-opacity="0.4"/>
</g>
<g filter="url(#filter6_i_494_1518)">
<path d="M234.897 71.7869C235.146 71.2059 236.012 71.3843 236.011 72.0162C236.01 72.4492 236.467 72.7305 236.853 72.535C237.417 72.2496 237.966 72.9433 237.559 73.4264C237.28 73.7576 237.449 74.2667 237.871 74.3652C238.486 74.509 238.461 75.3932 237.838 75.5017C237.411 75.576 237.214 76.0746 237.473 76.4212C237.852 76.9268 237.265 77.5879 236.718 77.2709C236.343 77.0536 235.871 77.3085 235.848 77.7409C235.813 78.3717 234.938 78.5004 234.723 77.9063C234.576 77.499 234.05 77.3909 233.754 77.7068C233.322 78.1677 232.569 77.7037 232.786 77.1104C232.935 76.7038 232.602 76.2832 232.172 76.3349C231.545 76.4102 231.266 75.5706 231.814 75.2558C232.189 75.0401 232.205 74.5039 231.842 74.2671C231.313 73.9215 231.639 73.0992 232.261 73.2102C232.688 73.2863 233.044 72.8854 232.918 72.4709C232.735 71.8662 233.514 71.4459 233.919 71.9308C234.197 72.2631 234.727 72.185 234.897 71.7869Z" fill="white" fill-opacity="0.1"/>
</g>
<g filter="url(#filter7_i_494_1518)">
<path d="M12.3218 108.392C12.3974 107.733 13.2884 107.586 13.5716 108.185C13.7236 108.506 14.1031 108.649 14.4292 108.508C15.0371 108.244 15.61 108.942 15.2328 109.487C15.0305 109.779 15.0965 110.179 15.3821 110.391C15.9144 110.786 15.5964 111.631 14.9359 111.577C14.5817 111.547 14.2682 111.805 14.2277 112.158C14.1521 112.816 13.2611 112.963 12.9779 112.364C12.826 112.043 12.4465 111.9 12.1204 112.042C11.5125 112.305 10.9396 111.607 11.3167 111.062C11.5191 110.77 11.453 110.37 11.1674 110.158C10.6351 109.764 10.9532 108.919 11.6136 108.973C11.9678 109.002 12.2813 108.745 12.3218 108.392Z" fill="white" fill-opacity="0.2"/>
</g>
<defs>
<filter id="filter0_i_494_1518" x="-40.0427" y="-95.4482" width="241.444" height="271.419" filterUnits="userSpaceOnUse" color-interpolation-filters="sRGB">
<feFlood flood-opacity="0" result="BackgroundImageFix"/>
<feBlend mode="normal" in="SourceGraphic" in2="BackgroundImageFix" result="shape"/>
<feColorMatrix in="SourceAlpha" type="matrix" values="0 0 0 0 0 0 0 0 0 0 0 0 0 0 0 0 0 0 127 0" result="hardAlpha"/>
<feOffset/>
<feGaussianBlur stdDeviation="5"/>
<feComposite in2="hardAlpha" operator="arithmetic" k2="-1" k3="1"/>
<feColorMatrix type="matrix" values="0 0 0 0 1 0 0 0 0 1 0 0 0 0 1 0 0 0 0.25 0"/>
<feBlend mode="normal" in2="shape" result="effect1_innerShadow_494_1518"/>
</filter>
<filter id="filter1_i_494_1518" x="290.314" y="-28.686" width="83.2736" height="83.2734" filterUnits="userSpaceOnUse" color-interpolation-filters="sRGB">
<feFlood flood-opacity="0" result="BackgroundImageFix"/>
<feBlend mode="normal" in="SourceGraphic" in2="BackgroundImageFix" result="shape"/>
<feColorMatrix in="SourceAlpha" type="matrix" values="0 0 0 0 0 0 0 0 0 0 0 0 0 0 0 0 0 0 127 0" result="hardAlpha"/>
<feOffset/>
<feGaussianBlur stdDeviation="5"/>
<feComposite in2="hardAlpha" operator="arithmetic" k2="-1" k3="1"/>
<feColorMatrix type="matrix" values="0 0 0 0 1 0 0 0 0 1 0 0 0 0 1 0 0 0 0.25 0"/>
<feBlend mode="normal" in2="shape" result="effect1_innerShadow_494_1518"/>
</filter>
<filter id="filter2_i_494_1518" x="167.087" y="104.768" width="8.53873" height="8.61084" filterUnits="userSpaceOnUse" color-interpolation-filters="sRGB">
<feFlood flood-opacity="0" result="BackgroundImageFix"/>
<feBlend mode="normal" in="SourceGraphic" in2="BackgroundImageFix" result="shape"/>
<feColorMatrix in="SourceAlpha" type="matrix" values="0 0 0 0 0 0 0 0 0 0 0 0 0 0 0 0 0 0 127 0" result="hardAlpha"/>
<feOffset/>
<feGaussianBlur stdDeviation="5"/>
<feComposite in2="hardAlpha" operator="arithmetic" k2="-1" k3="1"/>
<feColorMatrix type="matrix" values="0 0 0 0 1 0 0 0 0 1 0 0 0 0 1 0 0 0 0.25 0"/>
<feBlend mode="normal" in2="shape" result="effect1_innerShadow_494_1518"/>
</filter>
<filter id="filter3_i_494_1518" x="290.576" y="111.576" width="17.3368" height="17.3367" filterUnits="userSpaceOnUse" color-interpolation-filters="sRGB">
<feFlood flood-opacity="0" result="BackgroundImageFix"/>
<feBlend mode="normal" in="SourceGraphic" in2="BackgroundImageFix" result="shape"/>
<feColorMatrix in="SourceAlpha" type="matrix" values="0 0 0 0 0 0 0 0 0 0 0 0 0 0 0 0 0 0 127 0" result="hardAlpha"/>
<feOffset/>
<feGaussianBlur stdDeviation="5"/>
<feComposite in2="hardAlpha" operator="arithmetic" k2="-1" k3="1"/>
<feColorMatrix type="matrix" values="0 0 0 0 1 0 0 0 0 1 0 0 0 0 1 0 0 0 0.25 0"/>
<feBlend mode="normal" in2="shape" result="effect1_innerShadow_494_1518"/>
</filter>
<filter id="filter4_i_494_1518" x="-119.814" y="-21.2346" width="192.702" height="197.116" filterUnits="userSpaceOnUse" color-interpolation-filters="sRGB">
<feFlood flood-opacity="0" result="BackgroundImageFix"/>
<feBlend mode="normal" in="SourceGraphic" in2="BackgroundImageFix" result="shape"/>
<feColorMatrix in="SourceAlpha" type="matrix" values="0 0 0 0 0 0 0 0 0 0 0 0 0 0 0 0 0 0 127 0" result="hardAlpha"/>
<feOffset/>
<feGaussianBlur stdDeviation="5"/>
<feComposite in2="hardAlpha" operator="arithmetic" k2="-1" k3="1"/>
<feColorMatrix type="matrix" values="0 0 0 0 1 0 0 0 0 1 0 0 0 0 1 0 0 0 0.25 0"/>
<feBlend mode="normal" in2="shape" result="effect1_innerShadow_494_1518"/>
</filter>
<filter id="filter5_i_494_1518" x="110.406" y="39.406" width="4.45062" height="4.45068" filterUnits="userSpaceOnUse" color-interpolation-filters="sRGB">
<feFlood flood-opacity="0" result="BackgroundImageFix"/>
<feBlend mode="normal" in="SourceGraphic" in2="BackgroundImageFix" result="shape"/>
<feColorMatrix in="SourceAlpha" type="matrix" values="0 0 0 0 0 0 0 0 0 0 0 0 0 0 0 0 0 0 127 0" result="hardAlpha"/>
<feOffset/>
<feGaussianBlur stdDeviation="5"/>
<feComposite in2="hardAlpha" operator="arithmetic" k2="-1" k3="1"/>
<feColorMatrix type="matrix" values="0 0 0 0 1 0 0 0 0 1 0 0 0 0 1 0 0 0 0.25 0"/>
<feBlend mode="normal" in2="shape" result="effect1_innerShadow_494_1518"/>
</filter>
<filter id="filter6_i_494_1518" x="231.521" y="71.4341" width="6.79774" height="6.85547" filterUnits="userSpaceOnUse" color-interpolation-filters="sRGB">
<feFlood flood-opacity="0" result="BackgroundImageFix"/>
<feBlend mode="normal" in="SourceGraphic" in2="BackgroundImageFix" result="shape"/>
<feColorMatrix in="SourceAlpha" type="matrix" values="0 0 0 0 0 0 0 0 0 0 0 0 0 0 0 0 0 0 127 0" result="hardAlpha"/>
<feOffset/>
<feGaussianBlur stdDeviation="5"/>
<feComposite in2="hardAlpha" operator="arithmetic" k2="-1" k3="1"/>
<feColorMatrix type="matrix" values="0 0 0 0 1 0 0 0 0 1 0 0 0 0 1 0 0 0 0.25 0"/>
<feBlend mode="normal" in2="shape" result="effect1_innerShadow_494_1518"/>
</filter>
<filter id="filter7_i_494_1518" x="10.8992" y="107.808" width="4.75107" height="4.93408" filterUnits="userSpaceOnUse" color-interpolation-filters="sRGB">
<feFlood flood-opacity="0" result="BackgroundImageFix"/>
<feBlend mode="normal" in="SourceGraphic" in2="BackgroundImageFix" result="shape"/>
<feColorMatrix in="SourceAlpha" type="matrix" values="0 0 0 0 0 0 0 0 0 0 0 0 0 0 0 0 0 0 127 0" result="hardAlpha"/>
<feOffset/>
<feGaussianBlur stdDeviation="5"/>
<feComposite in2="hardAlpha" operator="arithmetic" k2="-1" k3="1"/>
<feColorMatrix type="matrix" values="0 0 0 0 1 0 0 0 0 1 0 0 0 0 1 0 0 0 0.25 0"/>
<feBlend mode="normal" in2="shape" result="effect1_innerShadow_494_1518"/>
</filter>
</defs>
</svg>
