<svg width="40" height="40" viewBox="0 0 40 40" fill="none" xmlns="http://www.w3.org/2000/svg">
<path d="M25.2892 16.9995C25.1967 16.9068 25.0868 16.8332 24.9659 16.783C24.8449 16.7329 24.7152 16.707 24.5842 16.707C24.4533 16.707 24.3236 16.7329 24.2026 16.783C24.0816 16.8332 23.9718 16.9068 23.8792 16.9995L19.9992 20.8795L16.1192 16.9995C15.9323 16.8125 15.6787 16.7075 15.4142 16.7075C15.1498 16.7075 14.8962 16.8125 14.7092 16.9995C14.5223 17.1865 14.4172 17.44 14.4172 17.7045C14.4172 17.9689 14.5223 18.2225 14.7092 18.4095L19.2992 22.9995C19.3918 23.0922 19.5016 23.1657 19.6226 23.2159C19.7436 23.2661 19.8733 23.2919 20.0042 23.2919C20.1352 23.2919 20.2649 23.2661 20.3859 23.2159C20.5068 23.1657 20.6167 23.0922 20.7092 22.9995L25.2992 18.4095C25.6792 18.0295 25.6792 17.3895 25.2892 16.9995Z" fill="#51555C"/>
</svg>
