<svg width="40" height="40" viewBox="0 0 40 40" fill="none" xmlns="http://www.w3.org/2000/svg">
<path d="M25.2891 16.9995C25.1966 16.9068 25.0867 16.8332 24.9657 16.783C24.8448 16.7329 24.7151 16.707 24.5841 16.707C24.4532 16.707 24.3235 16.7329 24.2025 16.783C24.0815 16.8332 23.9716 16.9068 23.8791 16.9995L19.9991 20.8795L16.1191 16.9995C15.9321 16.8125 15.6786 16.7075 15.4141 16.7075C15.1497 16.7075 14.8961 16.8125 14.7091 16.9995C14.5221 17.1865 14.4171 17.44 14.4171 17.7045C14.4171 17.9689 14.5221 18.2225 14.7091 18.4095L19.2991 22.9995C19.3916 23.0922 19.5015 23.1657 19.6225 23.2159C19.7435 23.2661 19.8732 23.2919 20.0041 23.2919C20.1351 23.2919 20.2648 23.2661 20.3857 23.2159C20.5067 23.1657 20.6166 23.0922 20.7091 22.9995L25.2991 18.4095C25.6791 18.0295 25.6791 17.3895 25.2891 16.9995Z" fill="#51555C"/>
</svg>
