<svg width="40" height="40" viewBox="0 0 40 40" fill="none" xmlns="http://www.w3.org/2000/svg">
<path d="M28.7241 27.1932L24.6436 23.1127C25.626 21.8049 26.1564 20.213 26.1546 18.5773C26.1546 14.3992 22.7554 11 18.5773 11C14.3992 11 11 14.3992 11 18.5773C11 22.7554 14.3992 26.1546 18.5773 26.1546C20.213 26.1564 21.8049 25.626 23.1127 24.6436L27.1932 28.7241C27.3998 28.9088 27.6692 29.0073 27.9461 28.9996C28.2231 28.9918 28.4865 28.8783 28.6824 28.6824C28.8783 28.4865 28.9918 28.2231 28.9996 27.9461C29.0073 27.6692 28.9088 27.3998 28.7241 27.1932ZM13.1649 18.5773C13.1649 17.5068 13.4824 16.4604 14.0771 15.5703C14.6718 14.6803 15.5171 13.9866 16.5061 13.5769C17.495 13.1673 18.5833 13.0601 19.6332 13.2689C20.6831 13.4778 21.6475 13.9932 22.4044 14.7502C23.1613 15.5071 23.6768 16.4715 23.8856 17.5214C24.0945 18.5713 23.9873 19.6595 23.5776 20.6485C23.168 21.6375 22.4743 22.4828 21.5842 23.0775C20.6942 23.6722 19.6477 23.9896 18.5773 23.9896C17.1424 23.9879 15.7667 23.4171 14.7521 22.4025C13.7374 21.3878 13.1667 20.0122 13.1649 18.5773Z" fill="#5D5D6A"/>
</svg>
