<svg width="8" height="12" viewBox="0 0 8 12" fill="none" xmlns="http://www.w3.org/2000/svg">
<path d="M1.00045 0.293762C0.907748 0.386276 0.834201 0.496165 0.784019 0.617138C0.733838 0.738111 0.708008 0.867794 0.708008 0.998762C0.708008 1.12973 0.733838 1.25941 0.784019 1.38039C0.834201 1.50136 0.907748 1.61125 1.00045 1.70376L4.88045 5.58376L1.00045 9.46376C0.813474 9.65074 0.708431 9.90434 0.708431 10.1688C0.708431 10.4332 0.813474 10.6868 1.00045 10.8738C1.18743 11.0607 1.44103 11.1658 1.70545 11.1658C1.96988 11.1658 2.22347 11.0607 2.41045 10.8738L7.00045 6.28376C7.09316 6.19125 7.1667 6.08136 7.21688 5.96039C7.26707 5.83941 7.2929 5.70973 7.2929 5.57876C7.2929 5.44779 7.26707 5.31811 7.21688 5.19714C7.1667 5.07616 7.09316 4.96628 7.00045 4.87376L2.41045 0.283762C2.03045 -0.0962379 1.39045 -0.0962377 1.00045 0.293762Z" fill="#444955"/>
</svg>
