<svg width="40" height="40" viewBox="0 0 40 40" fill="none" xmlns="http://www.w3.org/2000/svg">
<path d="M15 6.29376C14.9073 6.38628 14.8337 6.49616 14.7835 6.61714C14.7333 6.73811 14.7075 6.86779 14.7075 6.99876C14.7075 7.12973 14.7333 7.25941 14.7835 7.38039C14.8337 7.50136 14.9073 7.61125 15 7.70376L18.88 11.5838L15 15.4638C14.813 15.6507 14.7079 15.9043 14.7079 16.1688C14.7079 16.4332 14.813 16.6868 15 16.8738C15.1869 17.0607 15.4405 17.1658 15.705 17.1658C15.9694 17.1658 16.223 17.0607 16.41 16.8738L21 12.2838C21.0927 12.1912 21.1662 12.0814 21.2164 11.9604C21.2666 11.8394 21.2924 11.7097 21.2924 11.5788C21.2924 11.4478 21.2666 11.3181 21.2164 11.1971C21.1662 11.0762 21.0927 10.9663 21 10.8738L16.41 6.28376C16.03 5.90376 15.39 5.90376 15 6.29376Z" fill="#51555C"/>
</svg>
