<svg width="40" height="40" viewBox="0 0 40 40" fill="none" xmlns="http://www.w3.org/2000/svg">
<path d="M15 14.7117C14.9073 14.8042 14.8337 14.9141 14.7835 15.0351C14.7333 15.1561 14.7075 15.2858 14.7075 15.4167C14.7075 15.5477 14.7333 15.6774 14.7835 15.7984C14.8337 15.9193 14.9073 16.0292 15 16.1217L18.88 20.0017L15 23.8817C14.813 24.0687 14.7079 24.3223 14.7079 24.5867C14.7079 24.8512 14.813 25.1048 15 25.2917C15.1869 25.4787 15.4405 25.5838 15.705 25.5838C15.9694 25.5838 16.223 25.4787 16.41 25.2917L21 20.7017C21.0927 20.6092 21.1662 20.4993 21.2164 20.3784C21.2666 20.2574 21.2924 20.1277 21.2924 19.9967C21.2924 19.8658 21.2666 19.7361 21.2164 19.6151C21.1662 19.4941 21.0927 19.3842 21 19.2917L16.41 14.7017C16.03 14.3217 15.39 14.3217 15 14.7117Z" fill="#51555C"/>
</svg>
