<svg width="8" height="8" viewBox="0 0 8 8" fill="none" xmlns="http://www.w3.org/2000/svg">
<path d="M0.127568 7.87104C0.300114 8.04249 0.586047 8.04249 0.753662 7.87104L3.90879 4.64433L7.06391 7.87104C7.23156 8.04249 7.52239 8.0475 7.69004 7.87104C7.85764 7.69457 7.85764 7.40721 7.69004 7.23581L4.53489 4.00403L7.69004 0.777316C7.85764 0.605897 7.86259 0.313475 7.69004 0.142056C7.51749 -0.0344055 7.23156 -0.0344055 7.06391 0.142056L3.90879 3.36877L0.753662 0.142056C0.586047 -0.0344055 0.295184 -0.0394472 0.127568 0.142056C-0.0400487 0.318517 -0.0400487 0.605897 0.127568 0.777316L3.2827 4.00403L0.127568 7.23581C-0.0400487 7.40721 -0.0449786 7.69963 0.127568 7.87104Z" fill="#ACADB4"/>
</svg>
