<svg width="117" height="113" viewBox="0 0 117 113" fill="none" xmlns="http://www.w3.org/2000/svg">
<g clip-path="url(#clip0_5333_86188)">
<g filter="url(#filter0_d_5333_86188)">
<path d="M40.1353 15.7841C45.8852 -1.91111 70.9189 -1.91111 76.6685 15.7841C79.2398 23.6978 86.6142 29.0557 94.935 29.0557C113.541 29.0557 121.276 52.864 106.224 63.8C99.4924 68.6912 96.6754 77.36 99.247 85.2738C104.996 102.969 84.7436 117.684 69.6911 106.747C62.9595 101.856 53.8447 101.856 47.113 106.747C32.0606 117.684 11.8077 102.969 17.5571 85.2738C20.1285 77.36 17.3116 68.6912 10.58 63.8C-4.47239 52.864 3.26351 29.0557 21.8692 29.0557C30.19 29.0557 37.5645 23.6978 40.1353 15.7841Z" fill="#FFE28B"/>
</g>
<path d="M58.4019 67.0683C61.3484 67.0683 63.7374 63.6047 63.7374 59.3321C63.7374 55.0603 61.3484 51.5967 58.4019 51.5967C55.4555 51.5967 53.0669 55.0603 53.0669 59.3321C53.0669 63.6047 55.4555 67.0683 58.4019 67.0683Z" fill="#3A3A3A"/>
<path d="M51.0668 48.6619C52.6137 48.6619 53.8675 46.3332 53.8675 43.4604C53.8675 40.5873 52.6137 38.2583 51.0668 38.2583C49.5199 38.2583 48.2661 40.5873 48.2661 43.4604C48.2661 46.3332 49.5199 48.6619 51.0668 48.6619Z" fill="#3A3A3A"/>
<path d="M50.5328 41.4605C50.9009 41.4605 51.1999 40.9828 51.1999 40.3934C51.1999 39.8044 50.9009 39.3262 50.5328 39.3262C50.1643 39.3262 49.8657 39.8044 49.8657 40.3934C49.8657 40.9828 50.1643 41.4605 50.5328 41.4605Z" fill="white"/>
<path d="M47.9985 36.6207C49.0212 35.6428 51.6531 34.2734 54.0011 36.6207" stroke="#3A3A3A" stroke-width="1.60052" stroke-linecap="round"/>
<path d="M66.138 48.6619C67.6849 48.6619 68.9387 46.3332 68.9387 43.4604C68.9387 40.5873 67.6849 38.2583 66.138 38.2583C64.5907 38.2583 63.3369 40.5873 63.3369 43.4604C63.3369 46.3332 64.5907 48.6619 66.138 48.6619Z" fill="#3A3A3A"/>
<path d="M65.6046 41.4605C65.9727 41.4605 66.2717 40.9828 66.2717 40.3934C66.2717 39.8044 65.9727 39.3262 65.6046 39.3262C65.2361 39.3262 64.9375 39.8044 64.9375 40.3934C64.9375 40.9828 65.2361 41.4605 65.6046 41.4605Z" fill="white"/>
<path d="M63.0703 36.6207C64.0925 35.6428 66.7249 34.2734 69.072 36.6207" stroke="#3A3A3A" stroke-width="1.60052" stroke-linecap="round"/>
<path d="M23.5298 41.1682C26.1547 51.6565 36.7853 58.0306 47.2736 55.4057C57.7624 52.7805 64.1368 42.1502 61.512 31.6615C58.8863 21.1732 48.2556 14.799 37.7675 17.4239C27.2791 20.0488 20.9049 30.6794 23.5298 41.1682Z" stroke="#ACADB4" stroke-width="1.09776"/>
<path d="M23.5298 41.1682C26.1547 51.6565 36.7853 58.0306 47.2736 55.4057C57.7624 52.7805 64.1368 42.1502 61.512 31.6615C58.8863 21.1732 48.2556 14.799 37.7675 17.4239C27.2791 20.0488 20.9049 30.6794 23.5298 41.1682Z" fill="#F1F7FF" fill-opacity="0.36" stroke="url(#paint0_linear_5333_86188)" stroke-width="1.09776"/>
<mask id="mask0_5333_86188" style="mask-type:alpha" maskUnits="userSpaceOnUse" x="23" y="17" width="39" height="39">
<path d="M24.0625 41.0356C26.6141 51.2296 36.9468 57.4256 47.1407 54.8741C57.3355 52.3225 63.5311 41.99 60.9796 31.7958C58.4285 21.6017 48.0955 15.4056 37.901 17.9572C27.7069 20.5088 21.5114 30.8409 24.0625 41.0356Z" fill="#F1F7FF"/>
</mask>
<g mask="url(#mask0_5333_86188)">
<path d="M36.8558 30.8793C38.642 38.0152 45.8748 42.3522 53.0106 40.5663C60.1471 38.7802 64.4839 31.5474 62.6978 24.4115C60.9122 17.2756 53.6793 12.9383 46.5428 14.7245C39.4069 16.5106 35.0697 23.7434 36.8558 30.8793Z" fill="white" fill-opacity="0.2"/>
</g>
<path d="M19.1811 40.3708C19.9653 40.1745 20.7602 40.6511 20.9565 41.4353L21.4449 43.3879C21.6412 44.1718 21.1646 44.9662 20.3804 45.1626L4.49552 49.1388C3.17223 49.47 1.83101 48.6656 1.49978 47.3427C1.1686 46.019 1.97281 44.6777 3.29612 44.3464L19.1811 40.3708Z" fill="#5E5E5E"/>
<path d="M22.9542 43.7645C23.8849 43.5312 24.4509 42.5873 24.2182 41.6564C23.985 40.725 23.0414 40.1591 22.11 40.3923L21.045 40.6587C20.1137 40.8914 19.5478 41.8356 19.781 42.767C20.0142 43.6983 20.9578 44.2641 21.8891 44.0308L22.9542 43.7645Z" fill="#808082"/>
</g>
<defs>
<filter id="filter0_d_5333_86188" x="0.491948" y="0.378667" width="115.82" height="112.258" filterUnits="userSpaceOnUse" color-interpolation-filters="sRGB">
<feFlood flood-opacity="0" result="BackgroundImageFix"/>
<feColorMatrix in="SourceAlpha" type="matrix" values="0 0 0 0 0 0 0 0 0 0 0 0 0 0 0 0 0 0 127 0" result="hardAlpha"/>
<feOffset/>
<feGaussianBlur stdDeviation="1.06701"/>
<feComposite in2="hardAlpha" operator="out"/>
<feColorMatrix type="matrix" values="0 0 0 0 1 0 0 0 0 0.943318 0 0 0 0 0.773275 0 0 0 1 0"/>
<feBlend mode="normal" in2="BackgroundImageFix" result="effect1_dropShadow_5333_86188"/>
<feBlend mode="normal" in="SourceGraphic" in2="effect1_dropShadow_5333_86188" result="shape"/>
</filter>
<linearGradient id="paint0_linear_5333_86188" x1="59.9341" y1="23.0979" x2="23.4683" y2="61.2697" gradientUnits="userSpaceOnUse">
<stop stop-color="#ACADB4"/>
<stop offset="1" stop-color="#727272"/>
</linearGradient>
<clipPath id="clip0_5333_86188">
<rect width="116.416" height="112.647" fill="white" transform="translate(0.291992)"/>
</clipPath>
</defs>
</svg>
