<svg width="12" height="8" viewBox="0 0 12 8" fill="none" xmlns="http://www.w3.org/2000/svg">
<path d="M11.2892 0.999475C11.1967 0.906772 11.0868 0.833224 10.9659 0.783043C10.8449 0.732861 10.7152 0.707031 10.5842 0.707031C10.4533 0.707031 10.3236 0.732861 10.2026 0.783043C10.0816 0.833224 9.97176 0.906772 9.87925 0.999475L5.99925 4.87947L2.11925 0.999475C1.93227 0.812497 1.67867 0.707454 1.41425 0.707454C1.14982 0.707454 0.896222 0.812497 0.709245 0.999475C0.522267 1.18645 0.417226 1.44005 0.417226 1.70447C0.417226 1.9689 0.522267 2.2225 0.709245 2.40947L5.29925 6.99948C5.39176 7.09218 5.50165 7.16573 5.62262 7.21591C5.74359 7.26609 5.87328 7.29192 6.00425 7.29192C6.13521 7.29192 6.2649 7.26609 6.38587 7.21591C6.50684 7.16573 6.61673 7.09218 6.70925 6.99948L11.2992 2.40948C11.6792 2.02948 11.6792 1.38948 11.2892 0.999475Z" fill="#51555C"/>
</svg>
