<svg width="14" height="14" viewBox="0 0 14 14" fill="none" xmlns="http://www.w3.org/2000/svg">
<path d="M0.223244 13.7724C0.5252 14.0724 1.02558 14.0724 1.31891 13.7724L6.84039 8.12563L12.3618 13.7724C12.6552 14.0724 13.1642 14.0812 13.4576 13.7724C13.7509 13.4635 13.7509 12.9607 13.4576 12.6607L7.93606 7.00511L13.4576 1.35835C13.7509 1.05837 13.7595 0.546628 13.4576 0.246644C13.1556 -0.0621627 12.6552 -0.0621627 12.3618 0.246644L6.84039 5.8934L1.31891 0.246644C1.02558 -0.0621627 0.516572 -0.0709857 0.223244 0.246644C-0.0700852 0.555451 -0.0700852 1.05837 0.223244 1.35835L5.74472 7.00511L0.223244 12.6607C-0.0700852 12.9607 -0.0787126 13.4724 0.223244 13.7724Z" fill="#6C6C77"/>
</svg>
