<svg width="24" height="24" viewBox="0 0 24 24" fill="none" xmlns="http://www.w3.org/2000/svg">
<rect width="24" height="24" rx="12" fill="#FFCACA"/>
<path d="M18.0004 14.6667V10.7334L12.6337 13.65C12.4337 13.7611 12.2226 13.8167 12.0004 13.8167C11.7782 13.8167 11.5671 13.7611 11.3671 13.65L5.73373 10.5834C5.61151 10.5167 5.52529 10.4334 5.47506 10.3334C5.42484 10.2334 5.39995 10.1222 5.4004 10C5.40084 9.8778 5.42595 9.76669 5.47573 9.66669C5.52551 9.56669 5.61151 9.48336 5.73373 9.41669L11.3671 6.35003C11.4671 6.29447 11.57 6.25269 11.6757 6.22469C11.7815 6.19669 11.8897 6.18292 12.0004 6.18336C12.1111 6.1838 12.2195 6.1978 12.3257 6.22536C12.432 6.25292 12.5346 6.29447 12.6337 6.35003L18.9837 9.81669C19.0948 9.87225 19.1811 9.95292 19.2424 10.0587C19.3037 10.1645 19.3342 10.2782 19.3337 10.4V14.6667C19.3337 14.8556 19.2697 15.014 19.1417 15.142C19.0137 15.27 18.8555 15.3338 18.6671 15.3334C18.4786 15.3329 18.3204 15.2689 18.1924 15.1414C18.0644 15.0138 18.0004 14.8556 18.0004 14.6667ZM11.3671 17.65L8.03373 15.85C7.81151 15.7278 7.63929 15.5611 7.51706 15.35C7.39484 15.1389 7.33373 14.9111 7.33373 14.6667V12.1334L11.3671 14.3167C11.5671 14.4278 11.7782 14.4834 12.0004 14.4834C12.2226 14.4834 12.4337 14.4278 12.6337 14.3167L16.6671 12.1334V14.6667C16.6671 14.9111 16.606 15.1389 16.4837 15.35C16.3615 15.5611 16.1893 15.7278 15.9671 15.85L12.6337 17.65C12.5337 17.7056 12.4311 17.7474 12.3257 17.7754C12.2204 17.8034 12.112 17.8171 12.0004 17.8167C11.8888 17.8162 11.7804 17.8025 11.6751 17.7754C11.5697 17.7482 11.4671 17.7065 11.3671 17.65Z" fill="#FF6868"/>
</svg>
