<svg width="24" height="24" viewBox="0 0 24 24" fill="none" xmlns="http://www.w3.org/2000/svg">
<rect width="24" height="24" rx="12" fill="#FFCACA"/>
<path opacity="0.5" d="M18.6673 10.6666H5.33398V16.6666C5.33398 17.197 5.5447 17.7057 5.91977 18.0808C6.29484 18.4559 6.80355 18.6666 7.33398 18.6666H16.6673C17.1977 18.6666 17.7065 18.4559 18.0815 18.0808C18.4566 17.7057 18.6673 17.197 18.6673 16.6666V10.6666ZM8.66732 9.33325C8.49051 9.33325 8.32094 9.26301 8.19591 9.13799C8.07089 9.01297 8.00065 8.8434 8.00065 8.66659V5.99992C8.00065 5.82311 8.07089 5.65354 8.19591 5.52851C8.32094 5.40349 8.49051 5.33325 8.66732 5.33325C8.84413 5.33325 9.0137 5.40349 9.13872 5.52851C9.26375 5.65354 9.33398 5.82311 9.33398 5.99992V8.66659C9.33398 8.8434 9.26375 9.01297 9.13872 9.13799C9.0137 9.26301 8.84413 9.33325 8.66732 9.33325ZM15.334 9.33325C15.1572 9.33325 14.9876 9.26301 14.8626 9.13799C14.7376 9.01297 14.6673 8.8434 14.6673 8.66659V5.99992C14.6673 5.82311 14.7376 5.65354 14.8626 5.52851C14.9876 5.40349 15.1572 5.33325 15.334 5.33325C15.5108 5.33325 15.6804 5.40349 15.8054 5.52851C15.9304 5.65354 16.0007 5.82311 16.0007 5.99992V8.66659C16.0007 8.8434 15.9304 9.01297 15.8054 9.13799C15.6804 9.26301 15.5108 9.33325 15.334 9.33325Z" fill="#FF6868"/>
<path d="M16.6673 6.66675H16.0007V8.66675C16.0007 8.84356 15.9304 9.01313 15.8054 9.13815C15.6804 9.26318 15.5108 9.33341 15.334 9.33341C15.1572 9.33341 14.9876 9.26318 14.8626 9.13815C14.7376 9.01313 14.6673 8.84356 14.6673 8.66675V6.66675H9.33398V8.66675C9.33398 8.84356 9.26375 9.01313 9.13872 9.13815C9.0137 9.26318 8.84413 9.33341 8.66732 9.33341C8.49051 9.33341 8.32094 9.26318 8.19591 9.13815C8.07089 9.01313 8.00065 8.84356 8.00065 8.66675V6.66675H7.33398C6.80355 6.66675 6.29484 6.87746 5.91977 7.25253C5.5447 7.62761 5.33398 8.13632 5.33398 8.66675V10.6667H18.6673V8.66675C18.6673 8.13632 18.4566 7.62761 18.0815 7.25253C17.7065 6.87746 17.1977 6.66675 16.6673 6.66675Z" fill="#FF6868"/>
</svg>
