<svg width="24" height="24" viewBox="0 0 24 24" fill="none" xmlns="http://www.w3.org/2000/svg">
<rect width="24" height="24" rx="12" fill="#FFCACA"/>
<path fill-rule="evenodd" clip-rule="evenodd" d="M9.33333 6C9.15654 6.00004 8.987 6.0703 8.862 6.19533L6.19533 8.862C6.07754 8.97939 6.00787 9.13656 6 9.30267M6 9.33867V16C6 16.5304 6.21071 17.0391 6.58579 17.4142C6.96086 17.7893 7.46957 18 8 18H16C16.5304 18 17.0391 17.7893 17.4142 17.4142C17.7893 17.0391 18 16.5304 18 16V9.33867L17.9993 9.30267C17.9916 9.13665 17.9222 8.97949 17.8047 8.862L15.138 6.19533C15.013 6.0703 14.8435 6.00004 14.6667 6H9.33333M15.724 8.66667L14.3907 7.33333H9.60933L8.276 8.66667H15.724ZM8.66667 12C8.66667 11.8232 8.7369 11.6536 8.86193 11.5286C8.98695 11.4036 9.15652 11.3333 9.33333 11.3333H12C12.1768 11.3333 12.3464 11.4036 12.4714 11.5286C12.5964 11.6536 12.6667 11.8232 12.6667 12C12.6667 12.1768 12.5964 12.3464 12.4714 12.4714C12.3464 12.5964 12.1768 12.6667 12 12.6667H9.33333C9.15652 12.6667 8.98695 12.5964 8.86193 12.4714C8.7369 12.3464 8.66667 12.1768 8.66667 12Z" fill="#FF6868"/>
</svg>
