<svg width="24" height="24" viewBox="0 0 24 24" fill="none" xmlns="http://www.w3.org/2000/svg">
<rect width="24" height="24" rx="12" fill="#FFCACA"/>
<path d="M19.3327 17.3334V18.6667H14.666V17.3334H16.306L11.9993 7.07341C11.8727 6.76008 11.666 6.50675 11.3727 6.30675C11.0793 6.10675 10.7593 6.00008 10.406 6.00008C9.93268 6.00008 9.51935 6.18008 9.17268 6.52675C8.82602 6.87341 8.66602 7.28008 8.66602 7.76008V10.0001H9.33268C10.806 10.0001 11.9993 11.1934 11.9993 12.6667V18.6667H9.33268C9.73935 18.1067 9.99935 17.4201 9.99935 16.6667C9.99935 14.8267 8.50602 13.3334 6.66602 13.3334C6.19268 13.3334 5.73935 13.4334 5.33268 13.6134V10.0001H7.33268V7.76008C7.33268 7.20008 7.48602 6.66675 7.75268 6.21341C8.02602 5.74675 8.39268 5.37341 8.86602 5.08675C9.33268 4.80675 9.84602 4.66675 10.406 4.66675C11.0327 4.66675 11.5993 4.84008 12.106 5.18008C12.6127 5.52008 12.9993 5.98008 13.246 6.54008L17.7727 17.3334H19.3327ZM8.66602 16.6667C8.66602 17.7734 7.77268 18.6667 6.66602 18.6667C5.55935 18.6667 4.66602 17.7734 4.66602 16.6667C4.66602 15.5601 5.55935 14.6667 6.66602 14.6667C7.77268 14.6667 8.66602 15.5601 8.66602 16.6667ZM7.33268 16.6667C7.33268 16.3001 7.03268 16.0001 6.66602 16.0001C6.29935 16.0001 5.99935 16.3001 5.99935 16.6667C5.99935 17.0334 6.29935 17.3334 6.66602 17.3334C7.03268 17.3334 7.33268 17.0334 7.33268 16.6667Z" fill="#FF6868"/>
</svg>
