<svg width="24" height="24" viewBox="0 0 24 24" fill="none" xmlns="http://www.w3.org/2000/svg">
<rect width="24" height="24" rx="12" fill="#FFCACA"/>
<g clip-path="url(#clip0_5707_29833)">
<path fill-rule="evenodd" clip-rule="evenodd" d="M7.66669 4.65599C7.7427 4.45501 7.89142 4.28991 8.0834 4.19339C8.27538 4.09687 8.49661 4.07598 8.70326 4.13485L12.8187 5.30742C13.0256 5.36643 13.2027 5.50108 13.3149 5.68464C13.4271 5.8682 13.4662 6.08724 13.4244 6.29828L12.229 12.36C12.0675 13.1782 11.6207 13.9124 10.9683 14.4319C10.3159 14.9514 9.50025 15.2224 8.66669 15.1966L7.89869 17.8903L8.7444 18.1314C8.96309 18.1937 9.14808 18.3403 9.25868 18.539C9.36927 18.7377 9.39641 18.9722 9.33412 19.1909C9.27183 19.4095 9.12522 19.5945 8.92654 19.7051C8.72786 19.8157 8.49338 19.8429 8.27469 19.7806L6.64383 19.3143L6.56383 19.2914L4.93069 18.8263C4.712 18.7638 4.52707 18.6171 4.41658 18.4183C4.3061 18.2195 4.27911 17.985 4.34155 17.7663C4.40399 17.5476 4.55074 17.3627 4.74953 17.2522C4.94832 17.1417 5.18286 17.1147 5.40155 17.1771L6.24955 17.4194L7.01755 14.7257C6.29574 14.3082 5.74561 13.648 5.46515 12.8627C5.18469 12.0774 5.19212 11.218 5.48612 10.4377L7.66669 4.65599ZM8.2164 8.05485L11.1581 8.93028L11.5901 6.73942L8.9924 5.99885L8.2164 8.05485ZM15.4313 15.2789C14.5166 15.2791 13.6378 14.9233 12.981 14.2869C13.2952 13.7806 13.5148 13.2214 13.629 12.6366L14.4267 8.59199L16.117 8.18857L15.3958 6.07542L14.8678 6.20799C14.8876 5.61175 14.6735 5.03139 14.2713 4.59085L15.7433 4.22171C15.9519 4.16915 16.1727 4.19698 16.3617 4.29966C16.5508 4.40235 16.6943 4.57238 16.7638 4.77599L18.7593 10.624C19.0283 11.413 19.0086 12.2718 18.7037 13.0477C18.3987 13.8235 17.8284 14.4659 17.0941 14.8606L17.7753 17.5771L18.6267 17.3634C18.8472 17.3081 19.0806 17.3427 19.2757 17.4595C19.4707 17.5763 19.6114 17.7658 19.6667 17.9863C19.722 18.2068 19.6875 18.4402 19.5707 18.6353C19.4538 18.8303 19.2643 18.971 19.0438 19.0263L17.3947 19.44L17.3273 19.4571L15.6713 19.8731C15.4508 19.9285 15.2173 19.8939 15.0223 19.7771C14.8272 19.6603 14.6866 19.4708 14.6313 19.2503C14.5759 19.0298 14.6105 18.7963 14.7273 18.6013C14.8441 18.4062 15.0336 18.2656 15.2541 18.2103L16.1124 17.9943L15.4313 15.2789Z" fill="#FF6868"/>
</g>
<defs>
<clipPath id="clip0_5707_29833">
<rect width="16" height="16" fill="white" transform="translate(4 4)"/>
</clipPath>
</defs>
</svg>
