<svg width="24" height="24" viewBox="0 0 24 24" fill="none" xmlns="http://www.w3.org/2000/svg">
<rect width="24" height="24" rx="12" fill="#FFCACA"/>
<path d="M8.4848 5.54445L9.59166 5.21074C9.95696 5.10078 10.3498 5.12746 10.6969 5.2858C11.0439 5.44415 11.3216 5.72334 11.4779 6.07131L12.2539 7.79702C12.3886 8.09641 12.4262 8.43046 12.3613 8.75227C12.2964 9.07408 12.1324 9.36749 11.8922 9.59131L10.7111 10.6919C10.5528 10.8422 10.6728 11.4279 11.2511 12.4302C11.8299 13.433 12.2774 13.8296 12.4837 13.7679L14.0311 13.2947C14.3448 13.1988 14.6806 13.2034 14.9915 13.3079C15.3024 13.4125 15.5728 13.6117 15.7648 13.8776L16.8677 15.4062C17.0904 15.7148 17.1936 16.0939 17.1579 16.4728C17.1223 16.8518 16.9503 17.205 16.6739 17.4667L15.8214 18.2742C15.5461 18.5348 15.2067 18.7178 14.8377 18.8044C14.4687 18.891 14.0833 18.8782 13.7208 18.7673C11.9345 18.2205 10.2802 16.5976 8.73566 13.9216C7.18766 11.2416 6.60309 8.98103 7.01052 7.13417C7.09269 6.76203 7.27263 6.41853 7.53177 6.1391C7.79092 5.85966 8.1199 5.65439 8.4848 5.54445Z" fill="#FF6868"/>
</svg>
