<svg width="24" height="24" viewBox="0 0 24 24" fill="none" xmlns="http://www.w3.org/2000/svg">
<rect width="24" height="24" rx="12" fill="#FFCACA"/>
<path d="M17.4396 12.4868C17.883 12.044 18.2211 11.5073 18.4291 10.9162C18.637 10.3252 18.7094 9.69493 18.6409 9.07212C18.5724 8.44931 18.3648 7.84986 18.0334 7.31812C17.702 6.78637 17.2553 6.33593 16.7263 6.00012C15.3863 5.11345 13.593 5.10678 12.2396 5.98012C11.0663 6.73345 10.4196 7.90678 10.3063 9.12012C10.2196 10.0001 9.8863 10.8201 9.27296 11.4334L9.25296 11.4534C8.47963 12.2268 8.47963 13.4068 9.2063 14.1268L9.8663 14.7868C10.2156 15.1358 10.6892 15.3319 11.183 15.3319C11.6768 15.3319 12.1503 15.1358 12.4996 14.7868C13.1463 14.1401 13.9996 13.7868 14.9263 13.6868C15.8396 13.5868 16.733 13.1868 17.4396 12.4868ZM8.17296 17.2401C8.35296 17.6134 8.29296 18.0668 7.97963 18.3734C7.84393 18.5112 7.67097 18.6063 7.48197 18.6472C7.29297 18.6881 7.09615 18.6729 6.91566 18.6036C6.73516 18.5342 6.57883 18.4136 6.46585 18.2567C6.35287 18.0998 6.28815 17.9133 6.27963 17.7201C6.08645 17.7116 5.89996 17.6469 5.74303 17.5339C5.5861 17.4209 5.46556 17.2646 5.39619 17.0841C5.32683 16.9036 5.31165 16.7068 5.35252 16.5178C5.3934 16.3288 5.48855 16.1558 5.6263 16.0201C5.93296 15.7134 6.39296 15.6468 6.75963 15.8268L8.41296 14.2068C8.5063 14.3334 8.61296 14.4801 8.73296 14.6001L9.39296 15.2601C9.53296 15.3934 9.6663 15.5068 9.83963 15.6068L8.17296 17.2401Z" fill="#FF6868"/>
</svg>
