<svg width="24" height="24" viewBox="0 0 24 24" fill="none" xmlns="http://www.w3.org/2000/svg">
<rect width="24" height="24" rx="12" fill="#FFCACA"/>
<path fill-rule="evenodd" clip-rule="evenodd" d="M6.66732 6.66675C6.3137 6.66675 5.97456 6.80722 5.72451 7.05727C5.47446 7.30732 5.33398 7.64646 5.33398 8.00008V16.0001C5.33398 16.3537 5.47446 16.6928 5.72451 16.9429C5.97456 17.1929 6.3137 17.3334 6.66732 17.3334H17.334C17.6876 17.3334 18.0267 17.1929 18.2768 16.9429C18.5268 16.6928 18.6673 16.3537 18.6673 16.0001V8.00008C18.6673 7.64646 18.5268 7.30732 18.2768 7.05727C18.0267 6.80722 17.6876 6.66675 17.334 6.66675H6.66732ZM13.334 10.0001C13.334 9.82327 13.4042 9.6537 13.5292 9.52868C13.6543 9.40365 13.8238 9.33341 14.0007 9.33341H16.0007C16.1775 9.33341 16.347 9.40365 16.4721 9.52868C16.5971 9.6537 16.6673 9.82327 16.6673 10.0001C16.6673 10.1769 16.5971 10.3465 16.4721 10.4715C16.347 10.5965 16.1775 10.6667 16.0007 10.6667H14.0007C13.8238 10.6667 13.6543 10.5965 13.5292 10.4715C13.4042 10.3465 13.334 10.1769 13.334 10.0001ZM13.334 12.0001C13.334 11.8233 13.4042 11.6537 13.5292 11.5287C13.6543 11.4037 13.8238 11.3334 14.0007 11.3334H16.0007C16.1775 11.3334 16.347 11.4037 16.4721 11.5287C16.5971 11.6537 16.6673 11.8233 16.6673 12.0001C16.6673 12.1769 16.5971 12.3465 16.4721 12.4715C16.347 12.5965 16.1775 12.6667 16.0007 12.6667H14.0007C13.8238 12.6667 13.6543 12.5965 13.5292 12.4715C13.4042 12.3465 13.334 12.1769 13.334 12.0001ZM13.334 14.0001C13.334 13.8233 13.4042 13.6537 13.5292 13.5287C13.6543 13.4037 13.8238 13.3334 14.0007 13.3334H16.0007C16.1775 13.3334 16.347 13.4037 16.4721 13.5287C16.5971 13.6537 16.6673 13.8233 16.6673 14.0001C16.6673 14.1769 16.5971 14.3465 16.4721 14.4715C16.347 14.5965 16.1775 14.6667 16.0007 14.6667H14.0007C13.8238 14.6667 13.6543 14.5965 13.5292 14.4715C13.4042 14.3465 13.334 14.1769 13.334 14.0001ZM8.00065 10.6667C8.00065 10.1363 8.21136 9.62761 8.58644 9.25253C8.96151 8.87746 9.47022 8.66675 10.0007 8.66675C10.5311 8.66675 11.0398 8.87746 11.4149 9.25253C11.7899 9.62761 12.0007 10.1363 12.0007 10.6667C12.0007 11.1972 11.7899 11.7059 11.4149 12.081C11.0398 12.456 10.5311 12.6667 10.0007 12.6667C9.47022 12.6667 8.96151 12.456 8.58644 12.081C8.21136 11.7059 8.00065 11.1972 8.00065 10.6667ZM9.29532 13.3334C8.87547 13.3333 8.46622 13.4652 8.12557 13.7107C7.78491 13.9561 7.53013 14.3025 7.39732 14.7007L7.36798 14.7894L7.36532 14.7974C7.33732 14.8814 7.32865 14.9087 7.33732 14.9274C7.34132 14.9361 7.35065 14.9427 7.36265 14.9534C7.38398 14.9701 7.41598 14.9961 7.45998 15.0567C7.52175 15.1424 7.60298 15.2121 7.69698 15.2602C7.79098 15.3083 7.89506 15.3334 8.00065 15.3334H12.0007C12.1062 15.3334 12.2103 15.3083 12.3043 15.2602C12.3983 15.2121 12.4795 15.1424 12.5413 15.0567C12.5683 15.0175 12.6011 14.9827 12.6387 14.9534C12.6513 14.9427 12.6593 14.9361 12.664 14.9267C12.6733 14.9087 12.664 14.8814 12.636 14.7974L12.6333 14.7894L12.604 14.7007C12.4712 14.3026 12.2165 13.9563 11.876 13.7109C11.5355 13.4655 11.1264 13.3334 10.7067 13.3334H9.29532Z" fill="#FF6868"/>
</svg>
