<svg width="24" height="24" viewBox="0 0 24 24" fill="none" xmlns="http://www.w3.org/2000/svg">
<rect width="24" height="24" rx="12" fill="#FFCACA"/>
<path fill-rule="evenodd" clip-rule="evenodd" d="M17.2275 8.22743C17.333 8.12209 17.4759 8.06292 17.625 8.06292C17.7741 8.06292 17.917 8.12209 18.0225 8.22743L18.024 8.22893L18.0262 8.23043L18.0315 8.23568L18.0465 8.25068L18.093 8.30243C18.1305 8.34518 18.183 8.40593 18.2438 8.48318C18.9367 9.3839 19.3125 10.4885 19.3125 11.6249C19.3125 12.7614 18.9367 13.8659 18.2438 14.7667C18.1809 14.8468 18.1149 14.9244 18.0458 14.9992L18.0308 15.0142L18.0262 15.0194L18.024 15.0209L18.0233 15.0217L17.6407 14.6407L18.0233 15.0232C17.9177 15.1287 17.7746 15.188 17.6254 15.188C17.4761 15.188 17.333 15.1287 17.2275 15.0232C17.122 14.9177 17.0627 14.7745 17.0627 14.6253C17.0627 14.4761 17.122 14.333 17.2275 14.2274L17.2267 14.2282L17.2252 14.2289L17.229 14.2252L17.2537 14.1982C17.2777 14.1722 17.3125 14.1304 17.358 14.0729C17.8325 13.4535 18.1168 12.7096 18.1765 11.9317C18.2361 11.1537 18.0685 10.3752 17.694 9.69068C17.5962 9.51053 17.4839 9.33871 17.358 9.17693C17.3173 9.12429 17.2742 9.07349 17.229 9.02468L17.2252 9.02093C17.1207 8.91522 17.0622 8.77241 17.0626 8.62371C17.063 8.47502 17.1223 8.33254 17.2275 8.22743ZM12.7777 5.54693C13.65 4.97168 14.8125 5.59793 14.8125 6.64268V17.3572C14.8125 18.4027 13.65 19.0282 12.7777 18.4529L8.27775 15.4867C8.24731 15.4664 8.21159 15.4554 8.175 15.4552H6C5.45299 15.4552 4.92839 15.2379 4.54159 14.8511C4.1548 14.4643 3.9375 13.9397 3.9375 13.3927V10.6072C3.9375 10.0602 4.1548 9.53556 4.54159 9.14877C4.92839 8.76198 5.45299 8.54468 6 8.54468H8.175C8.21177 8.5448 8.24776 8.5341 8.2785 8.51393L12.7777 5.54693Z" fill="#FF6868"/>
</svg>
