<svg width="24" height="24" viewBox="0 0 24 24" fill="none" xmlns="http://www.w3.org/2000/svg">
<rect width="24" height="24" rx="12" fill="#FFCACA"/>
<path fill-rule="evenodd" clip-rule="evenodd" d="M13.1811 5.35356C13.0456 5.32965 12.9061 5.34312 12.7776 5.39253C12.6492 5.44193 12.5366 5.52541 12.452 5.63398C12.3674 5.74256 12.314 5.87213 12.2975 6.00877C12.281 6.14542 12.3021 6.28398 12.3584 6.40956C12.7321 7.24198 12.8439 8.16833 12.679 9.06576C12.5141 9.96319 12.0803 10.7893 11.4351 11.4345C10.7899 12.0797 9.96376 12.5135 9.06633 12.6784C8.1689 12.8433 7.24255 12.7315 6.41013 12.3578C6.28452 12.3013 6.14587 12.2801 6.0091 12.2965C5.87234 12.3129 5.74263 12.3663 5.63394 12.4509C5.52526 12.5355 5.4417 12.6482 5.39226 12.7767C5.34283 12.9053 5.32938 13.0449 5.35338 13.1806C5.64694 14.8437 6.55331 16.3365 7.89361 17.3641C9.23391 18.3917 10.9107 18.8795 12.5931 18.7313C14.2755 18.583 15.8412 17.8095 16.9811 16.5633C18.1211 15.3172 18.7524 13.689 18.7506 12.0001C18.7508 10.4145 18.1927 8.87948 17.1743 7.66417C16.156 6.44887 14.7423 5.63086 13.1811 5.35356Z" fill="#FF6868"/>
</svg>
