<svg width="24" height="24" viewBox="0 0 24 24" fill="none" xmlns="http://www.w3.org/2000/svg">
<rect width="24" height="24" rx="12" fill="#FFCACA"/>
<path fill-rule="evenodd" clip-rule="evenodd" d="M17.4197 6.10657C17.0447 5.73163 16.536 5.521 16.0057 5.521C15.4754 5.521 14.9668 5.73163 14.5917 6.10657L14.1204 6.57857L17.4204 9.87857L17.891 9.40724C18.0768 9.22151 18.2241 9.00102 18.3247 8.75835C18.4252 8.51567 18.4769 8.25557 18.4769 7.9929C18.4769 7.73023 18.4252 7.47013 18.3247 7.22746C18.2241 6.98478 18.0768 6.76429 17.891 6.57857L17.4197 6.10657ZM16.477 10.8212L13.177 7.52124L7.11704 13.5819C6.98443 13.7145 6.89179 13.8818 6.84971 14.0646L6.16371 17.0346C6.13815 17.1448 6.14108 17.2598 6.17223 17.3686C6.20337 17.4774 6.26171 17.5765 6.34175 17.6565C6.42178 17.7366 6.52087 17.7949 6.62968 17.826C6.7385 17.8572 6.85345 17.8601 6.96371 17.8346L9.93437 17.1492C10.1169 17.107 10.2839 17.0144 10.4164 16.8819L16.477 10.8212Z" fill="#FF6868"/>
</svg>
