<svg width="24" height="24" viewBox="0 0 24 24" fill="none" xmlns="http://www.w3.org/2000/svg">
<rect width="24" height="24" rx="12" fill="#FFCACA"/>
<g clip-path="url(#clip0_5707_29752)">
<path d="M12 7.6875C11.8177 7.6875 11.6428 7.61507 11.5139 7.48614C11.3849 7.3572 11.3125 7.18234 11.3125 7V5.5C11.3125 5.31766 11.3849 5.1428 11.5139 5.01386C11.6428 4.88493 11.8177 4.8125 12 4.8125C12.1823 4.8125 12.3572 4.88493 12.4861 5.01386C12.6151 5.1428 12.6875 5.31766 12.6875 5.5V7C12.6875 7.18234 12.6151 7.3572 12.4861 7.48614C12.3572 7.61507 12.1823 7.6875 12 7.6875ZM12 19.1875C11.8177 19.1875 11.6428 19.1151 11.5139 18.9861C11.3849 18.8572 11.3125 18.6823 11.3125 18.5V17C11.3125 16.8177 11.3849 16.6428 11.5139 16.5139C11.6428 16.3849 11.8177 16.3125 12 16.3125C12.1823 16.3125 12.3572 16.3849 12.4861 16.5139C12.6151 16.6428 12.6875 16.8177 12.6875 17V18.5C12.6875 18.6823 12.6151 18.8572 12.4861 18.9861C12.3572 19.1151 12.1823 19.1875 12 19.1875ZM15.5356 9.15188C15.3997 9.15186 15.2668 9.11154 15.1538 9.03601C15.0407 8.96049 14.9526 8.85315 14.9006 8.72756C14.8485 8.60197 14.8349 8.46377 14.8614 8.33044C14.8879 8.1971 14.9533 8.0746 15.0494 7.97844L16.11 6.91781C16.2395 6.79168 16.4135 6.72163 16.5942 6.72282C16.775 6.72401 16.948 6.79635 17.0758 6.92417C17.2036 7.052 17.276 7.22502 17.2772 7.40578C17.2784 7.58655 17.2083 7.76051 17.0822 7.89L16.0216 8.95062C15.9578 9.01452 15.8821 9.06519 15.7987 9.09972C15.7153 9.13426 15.6259 9.15198 15.5356 9.15188ZM7.40375 17.2837C7.26777 17.2837 7.13485 17.2434 7.02179 17.1678C6.90874 17.0923 6.82064 16.9849 6.76862 16.8592C6.7166 16.7336 6.70302 16.5953 6.72957 16.462C6.75613 16.3286 6.82164 16.2061 6.91781 16.11L7.97844 15.0494C8.04196 14.9842 8.11781 14.9322 8.20158 14.8965C8.28534 14.8609 8.37536 14.8422 8.46641 14.8416C8.55745 14.841 8.64771 14.8585 8.73194 14.893C8.81617 14.9276 8.89269 14.9786 8.95707 15.0429C9.02145 15.1073 9.0724 15.1838 9.10696 15.2681C9.14153 15.3523 9.15902 15.4425 9.15842 15.5336C9.15782 15.6246 9.13914 15.7147 9.10347 15.7984C9.0678 15.8822 9.01585 15.958 8.95062 16.0216L7.89 17.0822C7.82622 17.1462 7.75044 17.1969 7.66699 17.2315C7.58354 17.2661 7.49408 17.2838 7.40375 17.2837ZM18.5 12.6875H17C16.8177 12.6875 16.6428 12.6151 16.5139 12.4861C16.3849 12.3572 16.3125 12.1823 16.3125 12C16.3125 11.8177 16.3849 11.6428 16.5139 11.5139C16.6428 11.3849 16.8177 11.3125 17 11.3125H18.5C18.6823 11.3125 18.8572 11.3849 18.9861 11.5139C19.1151 11.6428 19.1875 11.8177 19.1875 12C19.1875 12.1823 19.1151 12.3572 18.9861 12.4861C18.8572 12.6151 18.6823 12.6875 18.5 12.6875ZM7 12.6875H5.5C5.31766 12.6875 5.1428 12.6151 5.01386 12.4861C4.88493 12.3572 4.8125 12.1823 4.8125 12C4.8125 11.8177 4.88493 11.6428 5.01386 11.5139C5.1428 11.3849 5.31766 11.3125 5.5 11.3125H7C7.18234 11.3125 7.3572 11.3849 7.48614 11.5139C7.61507 11.6428 7.6875 11.8177 7.6875 12C7.6875 12.1823 7.61507 12.3572 7.48614 12.4861C7.3572 12.6151 7.18234 12.6875 7 12.6875ZM16.5962 17.2837C16.5059 17.2838 16.4165 17.2661 16.333 17.2315C16.2496 17.1969 16.1738 17.1462 16.11 17.0822L15.0494 16.0216C14.9232 15.8921 14.8532 15.7181 14.8544 15.5373C14.8556 15.3566 14.9279 15.1836 15.0557 15.0557C15.1836 14.9279 15.3566 14.8556 15.5373 14.8544C15.7181 14.8532 15.8921 14.9232 16.0216 15.0494L17.0822 16.11C17.1784 16.2061 17.2439 16.3286 17.2704 16.462C17.297 16.5953 17.2834 16.7336 17.2314 16.8592C17.1794 16.9849 17.0913 17.0923 16.9782 17.1678C16.8652 17.2434 16.7322 17.2837 16.5962 17.2837ZM8.46438 9.15188C8.37411 9.15203 8.2847 9.13434 8.2013 9.0998C8.1179 9.06526 8.04216 9.01456 7.97844 8.95062L6.91781 7.89C6.79168 7.76051 6.72163 7.58655 6.72282 7.40578C6.72401 7.22502 6.79635 7.052 6.92417 6.92417C7.052 6.79635 7.22502 6.72401 7.40578 6.72282C7.58655 6.72163 7.76051 6.79168 7.89 6.91781L8.95062 7.97844C9.04671 8.0746 9.11213 8.1971 9.13862 8.33044C9.1651 8.46377 9.15146 8.60197 9.09942 8.72756C9.04738 8.85315 8.95927 8.96049 8.84624 9.03601C8.73321 9.11154 8.60032 9.15186 8.46438 9.15188ZM12 15.1875C11.3696 15.1875 10.7533 15.0006 10.2291 14.6503C9.70494 14.3001 9.29639 13.8022 9.05513 13.2198C8.81388 12.6374 8.75076 11.9965 8.87375 11.3781C8.99674 10.7598 9.30032 10.1919 9.7461 9.7461C10.1919 9.30032 10.7598 8.99674 11.3781 8.87375C11.9965 8.75076 12.6374 8.81388 13.2198 9.05513C13.8022 9.29639 14.3001 9.70494 14.6503 10.2291C15.0006 10.7533 15.1875 11.3696 15.1875 12C15.1865 12.8451 14.8504 13.6552 14.2528 14.2528C13.6552 14.8504 12.8451 15.1865 12 15.1875Z" fill="#FF6868"/>
</g>
<defs>
<clipPath id="clip0_5707_29752">
<rect width="16" height="16" fill="white" transform="translate(4 4)"/>
</clipPath>
</defs>
</svg>
