<svg width="37" height="40" viewBox="0 0 37 40" fill="none" xmlns="http://www.w3.org/2000/svg">
<path d="M18.3105 3.89779C18.4202 3.2611 18.3105 1.79013 16.9932 0.999756" stroke="#757575" stroke-width="1.05383" stroke-linecap="round"/>
<circle cx="18.0469" cy="21.9448" r="18.0469" fill="#BABABA"/>
<path d="M8.75977 10.4847V10.4847C10.6592 9.01162 13.315 9.01162 15.2145 10.4847V10.4847" stroke="#757575" stroke-width="0.790374" stroke-linecap="round"/>
<circle cx="11.9869" cy="16.6758" r="5.26916" fill="white"/>
<path d="M15.9389 16.6761C15.9389 17.6617 15.5706 18.6116 14.9064 19.3397C14.2421 20.0677 13.3298 20.5213 12.3484 20.6114C11.3669 20.7015 10.3873 20.4217 9.60153 19.8268C8.8158 19.2319 8.2807 18.3648 8.10123 17.3958C7.92176 16.4267 8.11086 15.4255 8.63144 14.5887C9.15202 13.7519 9.9665 13.1397 10.9151 12.8724C11.8637 12.6051 12.878 12.7018 13.7589 13.1437C14.6398 13.5856 15.3239 14.3407 15.6768 15.2609L11.987 16.6761H15.9389Z" fill="#757575"/>
<path d="M20.8789 10.4848V10.4848C22.7784 9.01174 25.4342 9.01174 27.3336 10.4848V10.4848" stroke="#757575" stroke-width="0.790374" stroke-linecap="round"/>
<circle cx="24.1061" cy="16.6757" r="5.26916" fill="white"/>
<path d="M28.058 16.676C28.058 17.6615 27.6898 18.6115 27.0255 19.3396C26.3613 20.0676 25.4489 20.5212 24.4675 20.6113C23.4861 20.7014 22.5064 20.4216 21.7207 19.8267C20.9349 19.2317 20.3998 18.3647 20.2204 17.3956C20.0409 16.4266 20.23 15.4254 20.7506 14.5886C21.2712 13.7517 22.0856 13.1396 23.0342 12.8723C23.9828 12.605 24.9971 12.7017 25.878 13.1436C26.759 13.5855 27.443 14.3406 27.7959 15.2608L24.1062 16.676H28.058Z" fill="#757575"/>
</svg>
