<svg width="37" height="42" viewBox="0 0 37 42" fill="none" xmlns="http://www.w3.org/2000/svg">
<path d="M15.9395 4.09936V4.09936C16.8852 5.04514 18.4186 5.04514 19.3644 4.09936L21.4721 1.9917" stroke="#757575" stroke-width="2.44473" stroke-linecap="round"/>
<circle cx="18.0469" cy="23.0684" r="18.0469" fill="#BABABA"/>
<circle cx="13.1725" cy="16.7455" r="5.26916" fill="white"/>
<path d="M17.3877 16.7456C17.3877 17.2992 17.2787 17.8473 17.0668 18.3587C16.855 18.8702 16.5445 19.3349 16.153 19.7263C15.7616 20.1177 15.2969 20.4282 14.7855 20.6401C14.2741 20.8519 13.7259 20.9609 13.1724 20.9609C12.6188 20.9609 12.0707 20.8519 11.5592 20.6401C11.0478 20.4282 10.5831 20.1177 10.1917 19.7263C9.80024 19.3349 9.48974 18.8702 9.2779 18.3587C9.06606 17.8473 8.95703 17.2992 8.95703 16.7456L13.1724 16.7456H17.3877Z" fill="#757575"/>
<rect x="9.61621" y="11.2126" width="7.11337" height="1.31729" rx="0.658645" fill="#757575"/>
<circle cx="23.7106" cy="16.7455" r="5.26916" fill="white"/>
<path d="M27.9258 16.7456C27.9258 17.2992 27.8167 17.8473 27.6049 18.3587C27.3931 18.8702 27.0826 19.3349 26.6911 19.7263C26.2997 20.1177 25.835 20.4282 25.3236 20.6401C24.8122 20.8519 24.264 20.9609 23.7104 20.9609C23.1569 20.9609 22.6087 20.8519 22.0973 20.6401C21.5859 20.4282 21.1212 20.1177 20.7298 19.7263C20.3383 19.3349 20.0278 18.8702 19.816 18.3587C19.6041 17.8473 19.4951 17.2992 19.4951 16.7456L23.7104 16.7456H27.9258Z" fill="#757575"/>
<rect x="20.1533" y="11.2126" width="7.11337" height="1.31729" rx="0.658645" fill="#757575"/>
</svg>
