<svg width="37" height="42" viewBox="0 0 37 42" fill="none" xmlns="http://www.w3.org/2000/svg">
<path d="M15.9395 4.2229V4.2229C16.8852 5.16867 18.4186 5.16867 19.3644 4.2229L21.4721 2.11523" stroke="#757575" stroke-width="2.44473" stroke-linecap="round"/>
<circle cx="18.0469" cy="23.1919" r="18.0469" fill="#BABABA"/>
<circle cx="13.1725" cy="16.869" r="5.26916" fill="white"/>
<path d="M17.3877 16.8691C17.3877 17.4227 17.2787 17.9708 17.0668 18.4823C16.855 18.9937 16.5445 19.4584 16.153 19.8498C15.7616 20.2413 15.2969 20.5518 14.7855 20.7636C14.2741 20.9754 13.7259 21.0845 13.1724 21.0845C12.6188 21.0845 12.0707 20.9754 11.5592 20.7636C11.0478 20.5518 10.5831 20.2413 10.1917 19.8498C9.80024 19.4584 9.48974 18.9937 9.2779 18.4823C9.06606 17.9708 8.95703 17.4227 8.95703 16.8691L13.1724 16.8691H17.3877Z" fill="#757575"/>
<rect x="9.61621" y="11.3362" width="7.11337" height="1.31729" rx="0.658645" fill="#757575"/>
<circle cx="23.7106" cy="16.869" r="5.26916" fill="white"/>
<path d="M27.9258 16.8691C27.9258 17.4227 27.8167 17.9708 27.6049 18.4823C27.3931 18.9937 27.0826 19.4584 26.6911 19.8498C26.2997 20.2413 25.835 20.5518 25.3236 20.7636C24.8122 20.9754 24.264 21.0845 23.7104 21.0845C23.1569 21.0845 22.6087 20.9754 22.0973 20.7636C21.5859 20.5518 21.1212 20.2413 20.7298 19.8498C20.3383 19.4584 20.0278 18.9937 19.816 18.4823C19.6041 17.9708 19.4951 17.4227 19.4951 16.8691L23.7104 16.8691H27.9258Z" fill="#757575"/>
<rect x="20.1533" y="11.3362" width="7.11337" height="1.31729" rx="0.658645" fill="#757575"/>
</svg>
