<svg width="37" height="41" viewBox="0 0 37 41" fill="none" xmlns="http://www.w3.org/2000/svg">
<path d="M18.3105 4.13681C18.4202 3.50012 18.3105 2.02914 16.9932 1.23877" stroke="#757575" stroke-width="1.05383" stroke-linecap="round"/>
<circle cx="18.0469" cy="22.1836" r="18.0469" fill="#BABABA"/>
<path d="M8.75977 10.7238V10.7238C10.6592 9.25076 13.315 9.25076 15.2145 10.7238V10.7238" stroke="#757575" stroke-width="0.790374" stroke-linecap="round"/>
<circle cx="11.9869" cy="16.9147" r="5.26916" fill="white"/>
<path d="M15.9389 16.915C15.9389 17.9006 15.5706 18.8505 14.9064 19.5786C14.2421 20.3066 13.3298 20.7602 12.3484 20.8503C11.3669 20.9404 10.3873 20.6606 9.60153 20.0657C8.8158 19.4708 8.2807 18.6037 8.10123 17.6347C7.92176 16.6656 8.11086 15.6644 8.63144 14.8276C9.15202 13.9907 9.9665 13.3786 10.9151 13.1113C11.8637 12.844 12.878 12.9407 13.7589 13.3826C14.6398 13.8245 15.3239 14.5796 15.6768 15.4998L11.987 16.915H15.9389Z" fill="#757575"/>
<path d="M20.8789 10.724V10.724C22.7784 9.251 25.4342 9.251 27.3336 10.724V10.724" stroke="#757575" stroke-width="0.790374" stroke-linecap="round"/>
<circle cx="24.1061" cy="16.9147" r="5.26916" fill="white"/>
<path d="M28.058 16.915C28.058 17.9006 27.6898 18.8505 27.0255 19.5786C26.3613 20.3066 25.4489 20.7602 24.4675 20.8503C23.4861 20.9404 22.5064 20.6606 21.7207 20.0657C20.9349 19.4708 20.3998 18.6037 20.2204 17.6347C20.0409 16.6656 20.23 15.6644 20.7506 14.8276C21.2712 13.9907 22.0856 13.3786 23.0342 13.1113C23.9828 12.844 24.9971 12.9407 25.878 13.3826C26.759 13.8245 27.443 14.5796 27.7959 15.4998L24.1062 16.915H28.058Z" fill="#757575"/>
</svg>
