<svg width="20" height="20" viewBox="0 0 20 20" fill="none" xmlns="http://www.w3.org/2000/svg">
<rect width="20" height="20" rx="10" fill="#F3F6FA"/>
<path d="M13.5534 10.4938C13.7896 10.4938 13.9979 10.275 13.9979 9.99219C14.0118 9.85156 13.9562 9.72656 13.8451 9.61719L13.1117 8.89062V7C13.1117 6.72344 12.9131 6.5 12.6672 6.5H12.2228C11.9769 6.5 11.7783 6.72344 11.7783 7V7.57344L10.299 6.10938C10.2156 6.03125 10.1045 6 10.0073 6C9.91005 6 9.79893 6.01562 9.7017 6.125L6.1389 9.61719C6.04167 9.72656 6 9.85156 6 9.99219C6 10.2734 6.19446 10.4938 6.44448 10.4938H6.88896V11.5828C6.88758 11.5969 6.88758 11.6109 6.88758 11.6266V13.375C6.88758 13.7203 7.13621 14 7.44318 14H7.66542C7.68209 14 7.69876 13.9984 7.71542 13.9969C7.73626 13.9984 7.75709 14 7.77793 14H8.55577C8.86274 14 9.11138 13.7203 9.11138 13.375V12C9.11138 11.7234 9.31 11.5 9.55586 11.5H10.4448C10.6907 11.5 10.8893 11.7234 10.8893 12V13.375C10.8893 13.7203 11.1379 14 11.4449 14H12.2297C12.2491 14 12.2686 14 12.288 13.9984C12.3033 14 12.3186 14 12.3339 14H12.5561C12.8631 14 13.1117 13.7203 13.1117 13.375V13.1219C13.1159 13.0812 13.1187 13.0391 13.1187 12.9953L13.1089 10.4922H13.5534V10.4938Z" fill="#6C6C77"/>
</svg>
