<svg width="20" height="20" viewBox="0 0 20 20" fill="none" xmlns="http://www.w3.org/2000/svg">
<rect width="20" height="20" rx="10" fill="#F3F6FA"/>
<path fill-rule="evenodd" clip-rule="evenodd" d="M10 6.8C9.4403 6.7999 8.89037 6.94659 8.40509 7.22545C7.91981 7.50431 7.51615 7.90557 7.23441 8.38918C6.95267 8.87279 6.8027 9.42184 6.79947 9.98153C6.79624 10.5412 6.93986 11.092 7.216 11.5788C7.40265 11.3362 7.64258 11.1398 7.91724 11.0048C8.1919 10.8697 8.49394 10.7997 8.8 10.8H11.2C11.5061 10.7997 11.8081 10.8697 12.0828 11.0048C12.3574 11.1398 12.5974 11.3362 12.784 11.5788C13.0601 11.092 13.2038 10.5412 13.2005 9.98153C13.1973 9.42184 13.0473 8.87279 12.7656 8.38918C12.4839 7.90557 12.0802 7.50431 11.5949 7.22545C11.1096 6.94659 10.5597 6.7999 10 6.8ZM13.1772 12.4304C13.712 11.7332 14.0013 10.8787 14 10C14 7.7908 12.2092 6 10 6C7.7908 6 6 7.7908 6 10C5.99868 10.8787 6.28797 11.7332 6.8228 12.4304L6.8208 12.4376L6.9628 12.6028C7.33796 13.0414 7.80376 13.3934 8.32809 13.6346C8.85243 13.8759 9.42284 14.0005 10 14C10.8109 14.0015 11.603 13.7552 12.27 13.294C12.5544 13.0975 12.8122 12.8652 13.0372 12.6028L13.1792 12.4376L13.1772 12.4304ZM10 7.6C9.68174 7.6 9.37652 7.72643 9.15147 7.95147C8.92643 8.17651 8.8 8.48174 8.8 8.8C8.8 9.11826 8.92643 9.42348 9.15147 9.64853C9.37652 9.87357 9.68174 10 10 10C10.3183 10 10.6235 9.87357 10.8485 9.64853C11.0736 9.42348 11.2 9.11826 11.2 8.8C11.2 8.48174 11.0736 8.17651 10.8485 7.95147C10.6235 7.72643 10.3183 7.6 10 7.6Z" fill="#6C6C77"/>
</svg>
