<svg width="40" height="40" viewBox="0 0 40 40" fill="none" xmlns="http://www.w3.org/2000/svg">
<rect x="8" y="8" width="24" height="24" rx="12" fill="#E6E6E6"/>
<path d="M20.5287 13.5287C20.6538 13.4037 20.8233 13.3335 21.0001 13.3335C21.1769 13.3335 21.3464 13.4037 21.4714 13.5287L23.4714 15.5287C23.5964 15.6537 23.6666 15.8232 23.6666 16C23.6666 16.1768 23.5964 16.3463 23.4714 16.4714L21.4714 18.4714C21.3457 18.5928 21.1773 18.66 21.0025 18.6585C20.8277 18.657 20.6605 18.5868 20.5369 18.4632C20.4133 18.3396 20.3432 18.1724 20.3416 17.9976C20.3401 17.8228 20.4073 17.6544 20.5287 17.5287L21.3907 16.6667H20.3334C17.9681 16.6667 16.0001 18.6347 16.0001 21C16.0001 23.3654 17.9681 25.3334 20.3334 25.3334C22.6987 25.3334 24.6667 23.3654 24.6667 21C24.6667 20.8232 24.737 20.6536 24.862 20.5286C24.987 20.4036 25.1566 20.3334 25.3334 20.3334C25.5102 20.3334 25.6798 20.4036 25.8048 20.5286C25.9298 20.6536 26.0001 20.8232 26.0001 21C26.0001 24.1014 23.4347 26.6667 20.3334 26.6667C17.2321 26.6667 14.6667 24.1014 14.6667 21C14.6667 17.8987 17.2321 15.3334 20.3334 15.3334H21.3907L20.5287 14.4714C20.4038 14.3463 20.3336 14.1768 20.3336 14C20.3336 13.8232 20.4038 13.6537 20.5287 13.5287Z" fill="#6C6C77"/>
</svg>
