<svg width="24" height="24" viewBox="0 0 24 24" fill="none" xmlns="http://www.w3.org/2000/svg">
<rect width="24" height="24" rx="12" fill="#F3F6FA"/>
<path d="M8.44401 6.10059C7.92001 6.61725 7.71734 7.39925 7.31134 8.96325L7.25534 9.17925C6.70334 11.3053 6.42734 12.3679 6.92867 13.1146C6.97845 13.1893 7.03334 13.2601 7.09334 13.3273C7.69001 13.9999 8.78801 13.9999 10.984 13.9999H11.5033V18.1666H10.0033C9.87073 18.1666 9.74356 18.2193 9.64979 18.313C9.55602 18.4068 9.50334 18.534 9.50334 18.6666C9.50334 18.7992 9.55602 18.9264 9.64979 19.0201C9.74356 19.1139 9.87073 19.1666 10.0033 19.1666H14.0033C14.1359 19.1666 14.2631 19.1139 14.3569 19.0201C14.4507 18.9264 14.5033 18.7992 14.5033 18.6666C14.5033 18.534 14.4507 18.4068 14.3569 18.313C14.2631 18.2193 14.1359 18.1666 14.0033 18.1666H12.5033V13.9999H13.0233C13.9033 13.9999 14.606 13.9999 15.172 13.9566L15.17 13.9999V15.3333C15.17 15.4659 15.2227 15.593 15.3165 15.6868C15.4102 15.7806 15.5374 15.8333 15.67 15.8333C15.8026 15.8333 15.9298 15.7806 16.0236 15.6868C16.1173 15.593 16.17 15.4659 16.17 15.3333V13.7879C16.482 13.6879 16.7233 13.5419 16.914 13.3273C16.974 13.2606 17.0289 13.1895 17.0787 13.1139C17.58 12.3673 17.304 11.3053 16.752 9.17925L16.696 8.96325C16.29 7.39925 16.0873 6.61725 15.5627 6.10059C15.4109 5.95091 15.2417 5.81997 15.0587 5.71059C14.426 5.33325 13.6187 5.33325 12.004 5.33325C10.388 5.33325 9.58067 5.33325 8.94867 5.71059C8.76545 5.81993 8.59602 5.95086 8.44401 6.10059Z" fill="#808997"/>
</svg>
