<svg width="24" height="24" viewBox="0 0 24 24" fill="none" xmlns="http://www.w3.org/2000/svg">
<rect width="24" height="24" rx="12" fill="#F3F6FA"/>
<path fill-rule="evenodd" clip-rule="evenodd" d="M12 6.66667C12 6.84348 12.0702 7.01305 12.1953 7.13807C12.3203 7.2631 12.4899 7.33333 12.6667 7.33333H15.724L12.1953 10.862C12.1021 10.9552 12.0387 11.074 12.0129 11.2033C11.9872 11.3326 12.0004 11.4666 12.0509 11.5884C12.1013 11.7102 12.1868 11.8143 12.2964 11.8876C12.406 11.9609 12.5348 12 12.6667 12H17.3333C17.5101 12 17.6797 11.9298 17.8047 11.8047C17.9298 11.6797 18 11.5101 18 11.3333C18 11.1565 17.9298 10.987 17.8047 10.8619C17.6797 10.7369 17.5101 10.6667 17.3333 10.6667H14.276L17.8047 7.138C17.8979 7.04477 17.9613 6.92599 17.9871 6.79669C18.0128 6.66739 17.9996 6.53336 17.9491 6.41156C17.8987 6.28976 17.8132 6.18566 17.7036 6.1124C17.594 6.03914 17.4652 6.00003 17.3333 6H12.6667C12.4899 6 12.3203 6.07024 12.1953 6.19526C12.0702 6.32029 12 6.48986 12 6.66667ZM6.66667 10.6667C6.48986 10.6667 6.32029 10.5964 6.19526 10.4714C6.07024 10.3464 6 10.1768 6 10C6 9.82319 6.07024 9.65362 6.19526 9.5286C6.32029 9.40357 6.48986 9.33333 6.66667 9.33333H10C10.1318 9.33336 10.2607 9.37248 10.3703 9.44573C10.4799 9.51899 10.5653 9.6231 10.6158 9.7449C10.6662 9.8667 10.6794 10.0007 10.6537 10.13C10.628 10.2593 10.5645 10.3781 10.4713 10.4713L8.276 12.6667H10C10.1768 12.6667 10.3464 12.7369 10.4714 12.8619C10.5964 12.987 10.6667 13.1565 10.6667 13.3333C10.6667 13.5101 10.5964 13.6797 10.4714 13.8047C10.3464 13.9298 10.1768 14 10 14H6.66667C6.53483 14 6.40597 13.9609 6.29636 13.8876C6.18675 13.8143 6.10133 13.7102 6.05088 13.5884C6.00043 13.4666 5.98723 13.3326 6.01294 13.2033C6.03866 13.074 6.10213 12.9552 6.19533 12.862L8.39067 10.6667H6.66667ZM12 15.3333C11.8232 15.3333 11.6536 15.2631 11.5286 15.1381C11.4036 15.013 11.3333 14.8435 11.3333 14.6667C11.3333 14.4899 11.4036 14.3203 11.5286 14.1953C11.6536 14.0702 11.8232 14 12 14H14.6667C14.7985 14 14.9274 14.0391 15.037 14.1124C15.1466 14.1857 15.232 14.2898 15.2825 14.4116C15.3329 14.5334 15.3461 14.6674 15.3204 14.7967C15.2947 14.926 15.2312 15.0448 15.138 15.138L13.6093 16.6667H14.6667C14.8435 16.6667 15.013 16.7369 15.1381 16.8619C15.2631 16.987 15.3333 17.1565 15.3333 17.3333C15.3333 17.5101 15.2631 17.6797 15.1381 17.8047C15.013 17.9298 14.8435 18 14.6667 18H12C11.8682 18 11.7393 17.9609 11.6297 17.8876C11.5201 17.8143 11.4347 17.7102 11.3842 17.5884C11.3338 17.4666 11.3206 17.3326 11.3463 17.2033C11.372 17.074 11.4355 16.9552 11.5287 16.862L13.0573 15.3333H12Z" fill="#808997"/>
</svg>
