<svg width="24" height="24" viewBox="0 0 24 24" fill="none" xmlns="http://www.w3.org/2000/svg">
<rect width="24" height="24" rx="12" fill="#F3F6FA"/>
<path d="M15.3341 6.66675C16.0714 6.66675 16.6374 7.22875 17.0567 7.83341L17.1987 8.04741L17.3287 8.26075C17.3701 8.33053 17.4096 8.39897 17.4474 8.46608C17.9721 9.40408 18.4287 10.6287 18.7307 11.8387C19.0307 13.0394 19.1967 14.2934 19.0907 15.2794C18.9841 16.2694 18.4741 17.3334 17.3341 17.3334C16.3114 17.3334 15.5054 16.7867 14.8507 16.2527L14.1107 15.6321C13.4954 15.1281 12.8221 14.6667 12.0007 14.6667C11.1794 14.6667 10.5054 15.1281 9.8914 15.6321L9.1514 16.2521C8.4954 16.7867 7.6894 17.3334 6.6674 17.3334C5.52673 17.3334 5.01673 16.2694 4.91073 15.2794C4.8054 14.2927 4.97073 13.0394 5.27073 11.8387C5.57273 10.6287 6.0294 9.40408 6.55407 8.46608L6.67273 8.26008L6.80273 8.04741L6.94473 7.83341C7.36407 7.22875 7.93007 6.66675 8.6674 6.66675C9.0074 6.66675 9.3454 6.74941 9.6774 6.84675L10.0727 6.96808C10.1381 6.98808 10.203 7.00719 10.2674 7.02541C10.8441 7.19075 11.4341 7.33341 12.0007 7.33341C12.5674 7.33341 13.1574 7.19075 13.7341 7.02541L14.3241 6.84741C14.6561 6.74941 14.9941 6.66675 15.3341 6.66675ZM9.6674 9.33341C9.22537 9.33341 8.80145 9.50901 8.48889 9.82157C8.17633 10.1341 8.00073 10.5581 8.00073 11.0001C8.00073 11.4421 8.17633 11.866 8.48889 12.1786C8.80145 12.4912 9.22537 12.6667 9.6674 12.6667C10.1094 12.6667 10.5334 12.4912 10.8459 12.1786C11.1585 11.866 11.3341 11.4421 11.3341 11.0001C11.3341 10.5581 11.1585 10.1341 10.8459 9.82157C10.5334 9.50901 10.1094 9.33341 9.6674 9.33341ZM14.3341 9.33341C14.1573 9.33341 13.9877 9.40365 13.8627 9.52868C13.7376 9.6537 13.6674 9.82327 13.6674 10.0001V10.3334H13.3341C13.1573 10.3334 12.9877 10.4037 12.8627 10.5287C12.7376 10.6537 12.6674 10.8233 12.6674 11.0001C12.6674 11.1769 12.7376 11.3465 12.8627 11.4715C12.9877 11.5965 13.1573 11.6667 13.3341 11.6667H13.6674V12.0001C13.6674 12.1769 13.7376 12.3465 13.8627 12.4715C13.9877 12.5965 14.1573 12.6667 14.3341 12.6667C14.5109 12.6667 14.6804 12.5965 14.8055 12.4715C14.9305 12.3465 15.0007 12.1769 15.0007 12.0001V11.6667H15.3341C15.5109 11.6667 15.6804 11.5965 15.8055 11.4715C15.9305 11.3465 16.0007 11.1769 16.0007 11.0001C16.0007 10.8233 15.9305 10.6537 15.8055 10.5287C15.6804 10.4037 15.5109 10.3334 15.3341 10.3334H15.0007V10.0001C15.0007 9.82327 14.9305 9.6537 14.8055 9.52868C14.6804 9.40365 14.5109 9.33341 14.3341 9.33341ZM9.6674 10.6667C9.75581 10.6667 9.84059 10.7019 9.9031 10.7644C9.96562 10.8269 10.0007 10.9117 10.0007 11.0001C10.0007 11.0885 9.96562 11.1733 9.9031 11.2358C9.84059 11.2983 9.75581 11.3334 9.6674 11.3334C9.579 11.3334 9.49421 11.2983 9.4317 11.2358C9.36919 11.1733 9.33407 11.0885 9.33407 11.0001C9.33407 10.9117 9.36919 10.8269 9.4317 10.7644C9.49421 10.7019 9.579 10.6667 9.6674 10.6667Z" fill="#808997"/>
</svg>
