<svg width="25" height="24" viewBox="0 0 25 24" fill="none" xmlns="http://www.w3.org/2000/svg">
<rect x="0.5" width="24" height="24" rx="12" fill="#F3F6FA"/>
<g clip-path="url(#clip0_5707_29571)">
<path d="M14.5 7.5C14.5 6.63805 14.1576 5.8114 13.5481 5.2019C12.9386 4.59241 12.112 4.25 11.25 4.25C10.388 4.25 9.5614 4.59241 8.9519 5.2019C8.34241 5.8114 8 6.63805 8 7.5V13.4181C7.57114 14.0159 7.31542 14.7203 7.26097 15.4539C7.20652 16.1876 7.35546 16.922 7.69139 17.5765C8.02733 18.231 8.53725 18.7802 9.16508 19.1636C9.79291 19.5471 10.5143 19.75 11.25 19.75C11.9857 19.75 12.7071 19.5471 13.3349 19.1636C13.9628 18.7802 14.4727 18.231 14.8086 17.5765C15.1445 16.922 15.2935 16.1876 15.239 15.4539C15.1846 14.7203 14.9289 14.0159 14.5 13.4181V7.5ZM11.25 18.25C10.7763 18.25 10.3124 18.1155 9.91223 17.862C9.51207 17.6086 9.19215 17.2466 8.98972 16.8184C8.78729 16.3902 8.71068 15.9132 8.76883 15.4431C8.82697 14.973 9.01746 14.5291 9.31813 14.1631C9.4354 14.027 9.49994 13.8534 9.5 13.6737V7.5C9.5 7.03587 9.68438 6.59075 10.0126 6.26256C10.3408 5.93437 10.7859 5.75 11.25 5.75C11.7141 5.75 12.1592 5.93437 12.4874 6.26256C12.8156 6.59075 13 7.03587 13 7.5V13.6731C12.9998 13.8484 13.0611 14.0183 13.1731 14.1531C13.4764 14.5184 13.6693 14.9625 13.7295 15.4334C13.7896 15.9043 13.7144 16.3826 13.5127 16.8123C13.3109 17.2421 12.991 17.6055 12.5903 17.8601C12.1896 18.1147 11.7247 18.2499 11.25 18.25ZM19.8838 9.095L18.9638 9.39437L19.5325 10.1769C19.6494 10.3378 19.6977 10.5386 19.6665 10.7351C19.6354 10.9317 19.5275 11.1077 19.3666 11.2247C19.2056 11.3416 19.0048 11.3898 18.8083 11.3587C18.6118 11.3276 18.4357 11.2197 18.3188 11.0588L17.75 10.2762L17.1813 11.0588C17.0643 11.2197 16.8882 11.3276 16.6917 11.3587C16.4952 11.3898 16.2944 11.3416 16.1334 11.2247C15.9725 11.1077 15.8646 10.9317 15.8335 10.7351C15.8023 10.5386 15.8506 10.3378 15.9675 10.1769L16.5363 9.39437L15.6163 9.095C15.5204 9.06643 15.4312 9.01897 15.354 8.95542C15.2767 8.89187 15.213 8.81351 15.1665 8.72495C15.12 8.6364 15.0917 8.53944 15.0832 8.43977C15.0747 8.34011 15.0863 8.23975 15.1172 8.14462C15.1481 8.04949 15.1977 7.96149 15.2631 7.88582C15.3285 7.81014 15.4084 7.74831 15.498 7.70397C15.5877 7.65963 15.6853 7.63367 15.7851 7.62762C15.885 7.62158 15.985 7.63556 16.0794 7.66875L17 7.9675V7C17 6.80109 17.079 6.61032 17.2197 6.46967C17.3603 6.32902 17.5511 6.25 17.75 6.25C17.9489 6.25 18.1397 6.32902 18.2803 6.46967C18.421 6.61032 18.5 6.80109 18.5 7V7.9675L19.4206 7.66875C19.515 7.63556 19.615 7.62158 19.7149 7.62762C19.8147 7.63367 19.9123 7.65963 20.002 7.70397C20.0916 7.74831 20.1715 7.81014 20.2369 7.88582C20.3023 7.96149 20.352 8.04949 20.3828 8.14462C20.4137 8.23975 20.4253 8.34011 20.4168 8.43977C20.4083 8.53944 20.38 8.6364 20.3335 8.72495C20.287 8.81351 20.2233 8.89187 20.146 8.95542C20.0688 9.01897 19.9796 9.06643 19.8838 9.095ZM12.75 15.75C12.7501 16.0133 12.6808 16.272 12.5492 16.5001C12.4175 16.7281 12.2282 16.9175 12.0002 17.0492C11.7722 17.1809 11.5135 17.2503 11.2502 17.2503C10.9869 17.2503 10.7282 17.181 10.5001 17.0494C10.2721 16.9178 10.0827 16.7284 9.95102 16.5004C9.81934 16.2724 9.75001 16.0137 9.75 15.7504C9.74999 15.487 9.81929 15.2284 9.95095 15.0003C10.0826 14.7723 10.272 14.5829 10.5 14.4513V12.25C10.5 12.0511 10.579 11.8603 10.7197 11.7197C10.8603 11.579 11.0511 11.5 11.25 11.5C11.4489 11.5 11.6397 11.579 11.7803 11.7197C11.921 11.8603 12 12.0511 12 12.25V14.4513C12.228 14.5829 12.4173 14.7722 12.549 15.0002C12.6806 15.2281 12.75 15.4867 12.75 15.75Z" fill="#808997"/>
</g>
<defs>
<clipPath id="clip0_5707_29571">
<rect width="16" height="16" fill="white" transform="translate(4.5 4)"/>
</clipPath>
</defs>
</svg>
