<svg width="24" height="24" viewBox="0 0 24 24" fill="none" xmlns="http://www.w3.org/2000/svg">
<rect width="24" height="24" rx="12" fill="#F3F6FA"/>
<path d="M18 12H6C5.73478 12 5.48043 12.1053 5.29289 12.2929C5.10536 12.4804 5 12.7348 5 13V15C5 15.2652 5.10536 15.5195 5.29289 15.7071C5.48043 15.8946 5.73478 16 6 16H18C18.2652 16 18.5196 15.8946 18.7071 15.7071C18.8946 15.5195 19 15.2652 19 15V13C19 12.7348 18.8946 12.4804 18.7071 12.2929C18.5196 12.1053 18.2652 12 18 12ZM18 15H10V13H18V15ZM16.5625 7.75497C17.0625 6.8656 17.0263 6.3981 16.96 6.1981C16.931 6.1027 16.8734 6.0185 16.795 5.95685C16.7347 5.93038 16.6802 5.89225 16.6347 5.84466C16.5892 5.79707 16.5535 5.74096 16.5297 5.67954C16.5059 5.61813 16.4945 5.55262 16.4961 5.48678C16.4977 5.42095 16.5124 5.35607 16.5391 5.2959C16.5659 5.23572 16.6042 5.18142 16.652 5.13612C16.6998 5.09081 16.7561 5.0554 16.8176 5.03191C16.8792 5.00842 16.9447 4.99732 17.0106 4.99924C17.0764 5.00116 17.1412 5.01606 17.2013 5.0431C17.3694 5.12869 17.5186 5.24714 17.6401 5.39142C17.7616 5.5357 17.853 5.70289 17.9087 5.8831C18.1187 6.51685 17.9594 7.31122 17.4338 8.24497C16.9338 9.13435 16.97 9.60247 17.0363 9.80247C17.0654 9.89764 17.123 9.98162 17.2013 10.0431C17.2616 10.0696 17.316 10.1077 17.3616 10.1553C17.4071 10.2029 17.4428 10.259 17.4665 10.3204C17.4903 10.3818 17.5017 10.4473 17.5001 10.5132C17.4985 10.579 17.4839 10.6439 17.4571 10.7041C17.4304 10.7642 17.392 10.8185 17.3442 10.8638C17.2964 10.9091 17.2401 10.9445 17.1786 10.968C17.1171 10.9915 17.0515 11.0026 16.9857 11.0007C16.9199 10.9988 16.8551 10.9839 16.795 10.9568C16.6268 10.8714 16.4775 10.753 16.356 10.6087C16.2344 10.4644 16.1431 10.2971 16.0875 10.1168C15.8794 9.4831 16.0387 8.68747 16.5625 7.75497ZM14.0625 7.75497C14.5625 6.8656 14.5263 6.3981 14.46 6.1981C14.431 6.1027 14.3734 6.0185 14.295 5.95685C14.2347 5.93038 14.1802 5.89225 14.1347 5.84466C14.0892 5.79707 14.0535 5.74096 14.0297 5.67954C14.0059 5.61813 13.9945 5.55262 13.9961 5.48678C13.9977 5.42095 14.0124 5.35607 14.0391 5.2959C14.0659 5.23572 14.1042 5.18142 14.152 5.13612C14.1998 5.09081 14.2561 5.0554 14.3176 5.03191C14.3792 5.00842 14.4447 4.99732 14.5106 4.99924C14.5764 5.00116 14.6412 5.01606 14.7013 5.0431C14.8694 5.12869 15.0186 5.24714 15.1401 5.39142C15.2616 5.5357 15.353 5.70289 15.4087 5.8831C15.6187 6.51685 15.4594 7.31122 14.9338 8.24497C14.4338 9.13435 14.47 9.60247 14.5363 9.80247C14.5654 9.89764 14.623 9.98162 14.7013 10.0431C14.7616 10.0696 14.816 10.1077 14.8616 10.1553C14.9071 10.2029 14.9428 10.259 14.9665 10.3204C14.9903 10.3818 15.0017 10.4473 15.0001 10.5132C14.9985 10.579 14.9839 10.6439 14.9571 10.7041C14.9304 10.7642 14.892 10.8185 14.8442 10.8638C14.7964 10.9091 14.7401 10.9445 14.6786 10.968C14.6171 10.9915 14.5515 11.0026 14.4857 11.0007C14.4199 10.9988 14.3551 10.9839 14.295 10.9568C14.1268 10.8714 13.9775 10.753 13.856 10.6087C13.7344 10.4644 13.6431 10.2971 13.5875 10.1168C13.3794 9.4831 13.5387 8.68747 14.0625 7.75497Z" fill="#808997"/>
</svg>
