<svg width="24" height="24" viewBox="0 0 24 24" fill="none" xmlns="http://www.w3.org/2000/svg">
<rect width="24" height="24" rx="12" fill="#F3F6FA"/>
<mask id="mask0_5707_29551" style="mask-type:luminance" maskUnits="userSpaceOnUse" x="5" y="5" width="14" height="14">
<path d="M17.3333 8H6.66667C6.29848 8 6 8.29848 6 8.66667V17.3333C6 17.7015 6.29848 18 6.66667 18H17.3333C17.7015 18 18 17.7015 18 17.3333V8.66667C18 8.29848 17.7015 8 17.3333 8Z" fill="white" stroke="white" stroke-linejoin="round"/>
<path d="M9.98242 12.0027H13.9824" stroke="black" stroke-linecap="round" stroke-linejoin="round"/>
<path d="M6 8.33341L8.03452 6.00824C8.22441 5.79123 8.49874 5.66675 8.7871 5.66675H15.2129C15.5013 5.66675 15.7756 5.79123 15.9655 6.00824L18 8.33341" stroke="white" stroke-linecap="round" stroke-linejoin="round"/>
</mask>
<g mask="url(#mask0_5707_29551)">
<path d="M4 5C4 4.44772 4.44772 4 5 4H19C19.5523 4 20 4.44772 20 5V19C20 19.5523 19.5523 20 19 20H5C4.44772 20 4 19.5523 4 19V5Z" fill="#808997"/>
</g>
</svg>
