<svg width="24" height="24" viewBox="0 0 24 24" fill="none" xmlns="http://www.w3.org/2000/svg">
<rect width="24" height="24" rx="12" fill="#F3F6FA"/>
<path d="M6.66667 18.6666H17.3333C17.5101 18.6666 17.6797 18.5963 17.8047 18.4713C17.9298 18.3463 18 18.1767 18 17.9999V7.33325C18 6.23059 17.1027 5.33325 16 5.33325H8C6.89733 5.33325 6 6.23059 6 7.33325V17.9999C6 18.1767 6.07024 18.3463 6.19526 18.4713C6.32029 18.5963 6.48986 18.6666 6.66667 18.6666ZM16 6.61592C16.0875 6.61592 16.1742 6.63316 16.2551 6.66667C16.336 6.70017 16.4095 6.74927 16.4714 6.81118C16.5333 6.87309 16.5824 6.94658 16.6159 7.02746C16.6494 7.10835 16.6667 7.19504 16.6667 7.28259C16.6667 7.37013 16.6494 7.45682 16.6159 7.53771C16.5824 7.61859 16.5333 7.69208 16.4714 7.75399C16.4095 7.8159 16.336 7.865 16.2551 7.8985C16.1742 7.93201 16.0875 7.94925 16 7.94925C15.8232 7.94925 15.6536 7.87901 15.5286 7.75399C15.4036 7.62897 15.3333 7.4594 15.3333 7.28259C15.3333 7.10577 15.4036 6.9362 15.5286 6.81118C15.6536 6.68616 15.8232 6.61592 16 6.61592ZM14 6.61592C14.1768 6.61592 14.3464 6.68616 14.4714 6.81118C14.5964 6.9362 14.6667 7.10577 14.6667 7.28259C14.6667 7.4594 14.5964 7.62897 14.4714 7.75399C14.3464 7.87901 14.1768 7.94925 14 7.94925C13.8232 7.94925 13.6536 7.87901 13.5286 7.75399C13.4036 7.62897 13.3333 7.4594 13.3333 7.28259C13.3333 7.10577 13.4036 6.9362 13.5286 6.81118C13.6536 6.68616 13.8232 6.61592 14 6.61592ZM12 8.66659C14.206 8.66659 16 10.4606 16 12.6666C16 14.8726 14.206 16.6666 12 16.6666C9.794 16.6666 8 14.8726 8 12.6666C8 10.4606 9.794 8.66659 12 8.66659Z" fill="#808997"/>
<path d="M12.511 15.286C13.4436 15.112 14.225 14.4093 14.5263 13.5093C14.7447 12.8776 14.7081 12.1857 14.4243 11.5806C14.3934 11.5139 14.3405 11.4598 14.2745 11.4275C14.2084 11.3953 14.1333 11.3867 14.0616 11.4033C13.659 11.5026 13.3823 11.702 13.0616 11.9373C12.5376 12.322 11.885 12.8 10.667 12.8C10.125 12.8 9.7003 12.7026 9.3443 12.564L9.33563 12.57C9.32153 12.9712 9.39811 13.3706 9.55965 13.7382C9.7212 14.1058 9.96356 14.4322 10.2687 14.6932C10.5739 14.9542 10.9339 15.1431 11.3221 15.2457C11.7103 15.3483 12.1167 15.3621 12.511 15.286Z" fill="#808997"/>
</svg>
