<svg width="626" height="754" viewBox="0 0 626 754" fill="none" xmlns="http://www.w3.org/2000/svg">
<ellipse cx="376.773" cy="563.942" rx="222.773" ry="28.0413" fill="url(#paint0_radial_424_4474)" fill-opacity="0.4"/>
<g filter="url(#filter0_d_424_4474)">
<path d="M308.523 210.749C330.077 144.414 423.923 144.414 445.477 210.749C455.116 240.415 482.761 260.501 513.953 260.501C583.702 260.501 612.702 349.754 556.274 390.751C531.039 409.085 520.479 441.584 530.118 471.25C551.672 537.585 475.749 592.746 419.321 551.749C394.086 533.415 359.914 533.415 334.679 551.749C278.251 592.746 202.328 537.585 223.882 471.25C233.521 441.584 222.961 409.085 197.726 390.751C141.298 349.754 170.298 260.501 240.047 260.501C271.239 260.501 298.884 240.415 308.523 210.749Z" fill="#FFE28B"/>
</g>
<path d="M321.733 271.595V271.595C334.613 261.606 352.623 261.606 365.503 271.595V271.595" stroke="#3F3F3F" stroke-width="5.35958" stroke-linecap="round"/>
<ellipse cx="343.618" cy="319.954" rx="19.7382" ry="34.5419" fill="#474747"/>
<path d="M387.215 271.595V271.595C400.095 261.606 418.104 261.606 430.985 271.595V271.595" stroke="#3F3F3F" stroke-width="5.35958" stroke-linecap="round"/>
<ellipse cx="409.1" cy="319.954" rx="19.7382" ry="34.5419" fill="#474747"/>
<defs>
<filter id="filter0_d_424_4474" x="157.908" y="150.998" width="438.184" height="424.828" filterUnits="userSpaceOnUse" color-interpolation-filters="sRGB">
<feFlood flood-opacity="0" result="BackgroundImageFix"/>
<feColorMatrix in="SourceAlpha" type="matrix" values="0 0 0 0 0 0 0 0 0 0 0 0 0 0 0 0 0 0 127 0" result="hardAlpha"/>
<feOffset/>
<feGaussianBlur stdDeviation="5"/>
<feComposite in2="hardAlpha" operator="out"/>
<feColorMatrix type="matrix" values="0 0 0 0 1 0 0 0 0 0.886722 0 0 0 0 0.546891 0 0 0 1 0"/>
<feBlend mode="normal" in2="BackgroundImageFix" result="effect1_dropShadow_424_4474"/>
<feBlend mode="normal" in="SourceGraphic" in2="effect1_dropShadow_424_4474" result="shape"/>
</filter>
<radialGradient id="paint0_radial_424_4474" cx="0" cy="0" r="1" gradientUnits="userSpaceOnUse" gradientTransform="translate(376.773 563.942) scale(241.769 30.4324)">
<stop stop-color="#B2B2B2"/>
<stop offset="1" stop-color="#F2F2F2"/>
</radialGradient>
</defs>
</svg>
