<svg width="353" height="354" viewBox="0 0 353 354" fill="none" xmlns="http://www.w3.org/2000/svg">
<g filter="url(#filter0_d_470_7121)">
<rect x="20" y="17" width="313" height="313" rx="60" fill="#B5D3FF"/>
<g filter="url(#filter1_i_470_7121)">
<path d="M277.832 56.1821C278.392 55.4417 279.571 55.7974 279.628 56.7239L279.795 59.4482C279.813 59.7396 279.958 60.0085 280.19 60.1845L282.368 61.8308C283.108 62.3907 282.752 63.5696 281.826 63.6265L279.101 63.794C278.81 63.8119 278.541 63.9561 278.365 64.1889L276.719 66.366C276.159 67.1064 274.98 66.7507 274.923 65.8242L274.756 63.0999C274.738 62.8086 274.594 62.5396 274.361 62.3636L272.184 60.7173C271.443 60.1574 271.799 58.9785 272.725 58.9216L275.45 58.7542C275.741 58.7363 276.01 58.592 276.186 58.3592L277.832 56.1821Z" fill="white" fill-opacity="0.1"/>
</g>
<g filter="url(#filter2_i_470_7121)">
<path d="M174.054 302.795C174.146 301.871 175.337 301.56 175.869 302.321L177.31 304.383C177.477 304.622 177.741 304.776 178.031 304.805L180.535 305.054C181.459 305.145 181.77 306.337 181.009 306.869L178.946 308.31C178.707 308.477 178.553 308.74 178.524 309.031L178.276 311.534C178.184 312.458 176.993 312.769 176.461 312.009L175.02 309.946C174.852 309.707 174.589 309.553 174.299 309.524L171.795 309.275C170.871 309.184 170.56 307.992 171.321 307.46L173.383 306.019C173.623 305.852 173.777 305.589 173.806 305.298L174.054 302.795Z" fill="white" fill-opacity="0.1"/>
</g>
<g filter="url(#filter3_i_470_7121)">
<path d="M258.25 301.164C258.608 300.607 259.473 300.868 259.463 301.53C259.457 301.886 259.735 302.181 260.09 302.198C260.752 302.229 260.958 303.109 260.38 303.431C260.069 303.604 259.952 303.993 260.115 304.308C260.419 304.897 259.76 305.516 259.192 305.176C258.887 304.993 258.492 305.086 258.3 305.385C257.941 305.943 257.077 305.682 257.087 305.019C257.092 304.664 256.815 304.368 256.46 304.351C255.798 304.32 255.591 303.441 256.17 303.118C256.481 302.945 256.598 302.557 256.435 302.241C256.131 301.652 256.789 301.034 257.358 301.374C257.663 301.556 258.058 301.463 258.25 301.164Z" fill="white" fill-opacity="0.1"/>
</g>
<g filter="url(#filter4_i_470_7121)">
<path d="M180.238 36.848C181.032 37.403 180.652 38.6498 179.683 38.6675L178.952 38.6809C178.519 38.6888 178.141 38.9747 178.014 39.3891L177.801 40.0881C177.519 41.0147 176.216 41.0386 175.899 40.1229L175.661 39.4322C175.52 39.0227 175.131 38.7508 174.697 38.7587L173.967 38.7721C172.998 38.7898 172.573 37.5578 173.346 36.9741L173.929 36.5339C174.275 36.2729 174.413 35.8189 174.272 35.4094L174.033 34.7187C173.717 33.8031 174.758 33.0178 175.552 33.5727L176.151 33.9913C176.506 34.2395 176.98 34.2309 177.326 33.9698L177.909 33.5296C178.682 32.946 179.751 33.6927 179.468 34.6193L179.255 35.3182C179.129 35.7326 179.284 36.1812 179.639 36.4294L180.238 36.848Z" fill="white" fill-opacity="0.1"/>
</g>
<g filter="url(#filter5_i_470_7121)">
<path d="M298.243 205.792C298.717 204.948 299.995 205.204 300.108 206.166L300.142 206.459C300.192 206.89 300.514 207.239 300.939 207.324L301.228 207.382C302.178 207.572 302.329 208.867 301.448 209.271L301.18 209.394C300.787 209.575 300.554 209.989 300.604 210.419L300.639 210.712C300.751 211.674 299.566 212.218 298.91 211.506L298.71 211.289C298.416 210.97 297.951 210.877 297.557 211.058L297.289 211.181C296.409 211.585 295.526 210.626 296 209.782L296.145 209.525C296.357 209.147 296.302 208.676 296.008 208.357L295.809 208.14C295.152 207.428 295.791 206.292 296.741 206.482L297.03 206.54C297.455 206.625 297.886 206.427 298.098 206.05L298.243 205.792Z" fill="white" fill-opacity="0.1"/>
</g>
<g filter="url(#filter6_i_470_7121)">
<path d="M42.5192 229.497C42.3266 228.477 43.6243 227.875 44.2784 228.682L44.6887 229.187C45.0813 229.671 45.8162 229.682 46.2229 229.21L46.6479 228.717C47.3256 227.93 48.6049 228.57 48.3823 229.584L48.2427 230.22C48.1091 230.829 48.5588 231.41 49.1816 231.434L49.8323 231.458C50.8699 231.498 51.1675 232.897 50.2358 233.355L49.6515 233.642C49.0922 233.917 48.9181 234.631 49.2879 235.133L49.6744 235.657C50.2905 236.493 49.3823 237.598 48.4431 237.155L47.8541 236.877C47.2904 236.612 46.6235 236.921 46.4619 237.523L46.2931 238.152C46.0239 239.154 44.5937 239.133 44.3542 238.123L44.2041 237.489C44.0603 236.883 43.4029 236.554 42.8316 236.803L42.2346 237.063C41.2827 237.478 40.4076 236.347 41.0482 235.53L41.4499 235.017C41.8344 234.527 41.6815 233.808 41.1306 233.516L40.5551 233.212C39.6373 232.726 39.9761 231.336 41.0144 231.328L41.6656 231.322C42.2888 231.317 42.7555 230.749 42.6399 230.137L42.5192 229.497Z" fill="white" fill-opacity="0.1"/>
</g>
<g filter="url(#filter7_i_470_7121)">
<path d="M64.4301 84.7179C64.7311 83.935 65.8783 84.0728 65.9854 84.9047C66.0497 85.4041 66.5501 85.7237 67.0301 85.5719C67.8299 85.3191 68.4375 86.3019 67.8538 86.9043C67.5035 87.2659 67.5656 87.8564 67.9836 88.1371C68.6799 88.6048 68.2903 89.6926 67.4554 89.6118C66.9542 89.5634 66.5313 89.9801 66.5725 90.4819C66.641 91.3179 65.5476 91.6916 65.0901 90.9885C64.8156 90.5664 64.2261 90.4956 63.8594 90.8406C63.2485 91.4154 62.2747 90.7935 62.5392 89.9975C62.6979 89.5198 62.3857 89.0147 61.8874 88.9431C61.0571 88.8239 60.9361 87.6748 61.7234 87.3853C62.1959 87.2115 62.3961 86.6525 62.1414 86.2183C61.7169 85.4948 62.5399 84.6838 63.2571 85.1188C63.6876 85.3799 64.2494 85.1879 64.4301 84.7179Z" fill="white" fill-opacity="0.1"/>
</g>
<ellipse cx="175.887" cy="265.727" rx="110.5" ry="13.9091" fill="url(#paint0_radial_470_7121)" fill-opacity="0.4"/>
<g filter="url(#filter8_d_470_7121)">
<path d="M142.034 90.5362C152.725 57.6327 199.275 57.6327 209.966 90.5362C214.747 105.251 228.46 115.214 243.932 115.214C278.529 115.214 292.913 159.485 264.924 179.821C252.407 188.915 247.169 205.035 251.95 219.75C262.641 252.654 224.981 280.015 196.992 259.679C184.475 250.585 167.525 250.585 155.008 259.679C127.019 280.015 89.359 252.654 100.05 219.75C104.831 205.035 99.5935 188.915 87.0762 179.821C59.0868 159.485 73.4715 115.214 108.068 115.214C123.54 115.214 137.253 105.251 142.034 90.5362Z" fill="#FFE28B"/>
</g>
<path d="M148.586 120.717V120.717C154.975 115.763 163.908 115.763 170.297 120.717V120.717" stroke="#3F3F3F" stroke-width="2.65846" stroke-linecap="round"/>
<ellipse cx="159.441" cy="144.704" rx="9.79058" ry="17.1335" fill="#474747"/>
<path d="M181.066 120.717V120.717C187.455 115.763 196.388 115.763 202.777 120.717V120.717" stroke="#3F3F3F" stroke-width="2.65846" stroke-linecap="round"/>
<ellipse cx="191.921" cy="144.704" rx="9.79058" ry="17.1335" fill="#474747"/>
<mask id="mask0_470_7121" style="mask-type:alpha" maskUnits="userSpaceOnUse" x="20" y="16" width="313" height="313">
<rect x="20" y="16" width="313" height="313" rx="60" fill="#B5D3FF"/>
</mask>
<g mask="url(#mask0_470_7121)">
<g filter="url(#filter9_f_470_7121)">
<ellipse cx="65.5" cy="28" rx="70.5" ry="69" fill="white" fill-opacity="0.1"/>
</g>
<g filter="url(#filter10_f_470_7121)">
<ellipse cx="298.5" cy="163" rx="70.5" ry="69" fill="white" fill-opacity="0.1"/>
</g>
<g filter="url(#filter11_f_470_7121)">
<ellipse cx="72.5" cy="320" rx="34.5" ry="34" fill="white" fill-opacity="0.1"/>
</g>
</g>
</g>
<defs>
<filter id="filter0_d_470_7121" x="0" y="0" width="353" height="354" filterUnits="userSpaceOnUse" color-interpolation-filters="sRGB">
<feFlood flood-opacity="0" result="BackgroundImageFix"/>
<feColorMatrix in="SourceAlpha" type="matrix" values="0 0 0 0 0 0 0 0 0 0 0 0 0 0 0 0 0 0 127 0" result="hardAlpha"/>
<feOffset dy="4"/>
<feGaussianBlur stdDeviation="10"/>
<feComposite in2="hardAlpha" operator="out"/>
<feColorMatrix type="matrix" values="0 0 0 0 0.453027 0 0 0 0 0.453027 0 0 0 0 0.453027 0 0 0 0.25 0"/>
<feBlend mode="normal" in2="BackgroundImageFix" result="effect1_dropShadow_470_7121"/>
<feBlend mode="normal" in="SourceGraphic" in2="effect1_dropShadow_470_7121" result="shape"/>
</filter>
<filter id="filter1_i_470_7121" x="271.785" y="55.7832" width="10.9805" height="10.9805" filterUnits="userSpaceOnUse" color-interpolation-filters="sRGB">
<feFlood flood-opacity="0" result="BackgroundImageFix"/>
<feBlend mode="normal" in="SourceGraphic" in2="BackgroundImageFix" result="shape"/>
<feColorMatrix in="SourceAlpha" type="matrix" values="0 0 0 0 0 0 0 0 0 0 0 0 0 0 0 0 0 0 127 0" result="hardAlpha"/>
<feOffset/>
<feGaussianBlur stdDeviation="5"/>
<feComposite in2="hardAlpha" operator="arithmetic" k2="-1" k3="1"/>
<feColorMatrix type="matrix" values="0 0 0 0 1 0 0 0 0 1 0 0 0 0 1 0 0 0 0.25 0"/>
<feBlend mode="normal" in2="shape" result="effect1_innerShadow_470_7121"/>
</filter>
<filter id="filter2_i_470_7121" x="170.893" y="301.893" width="10.5449" height="10.5449" filterUnits="userSpaceOnUse" color-interpolation-filters="sRGB">
<feFlood flood-opacity="0" result="BackgroundImageFix"/>
<feBlend mode="normal" in="SourceGraphic" in2="BackgroundImageFix" result="shape"/>
<feColorMatrix in="SourceAlpha" type="matrix" values="0 0 0 0 0 0 0 0 0 0 0 0 0 0 0 0 0 0 127 0" result="hardAlpha"/>
<feOffset/>
<feGaussianBlur stdDeviation="5"/>
<feComposite in2="hardAlpha" operator="arithmetic" k2="-1" k3="1"/>
<feColorMatrix type="matrix" values="0 0 0 0 1 0 0 0 0 1 0 0 0 0 1 0 0 0 0.25 0"/>
<feBlend mode="normal" in2="shape" result="effect1_innerShadow_470_7121"/>
</filter>
<filter id="filter3_i_470_7121" x="255.832" y="300.861" width="4.88672" height="4.82812" filterUnits="userSpaceOnUse" color-interpolation-filters="sRGB">
<feFlood flood-opacity="0" result="BackgroundImageFix"/>
<feBlend mode="normal" in="SourceGraphic" in2="BackgroundImageFix" result="shape"/>
<feColorMatrix in="SourceAlpha" type="matrix" values="0 0 0 0 0 0 0 0 0 0 0 0 0 0 0 0 0 0 127 0" result="hardAlpha"/>
<feOffset/>
<feGaussianBlur stdDeviation="5"/>
<feComposite in2="hardAlpha" operator="arithmetic" k2="-1" k3="1"/>
<feColorMatrix type="matrix" values="0 0 0 0 1 0 0 0 0 1 0 0 0 0 1 0 0 0 0.25 0"/>
<feBlend mode="normal" in2="shape" result="effect1_innerShadow_470_7121"/>
</filter>
<filter id="filter4_i_470_7121" x="172.947" y="33.3242" width="7.71875" height="7.47266" filterUnits="userSpaceOnUse" color-interpolation-filters="sRGB">
<feFlood flood-opacity="0" result="BackgroundImageFix"/>
<feBlend mode="normal" in="SourceGraphic" in2="BackgroundImageFix" result="shape"/>
<feColorMatrix in="SourceAlpha" type="matrix" values="0 0 0 0 0 0 0 0 0 0 0 0 0 0 0 0 0 0 127 0" result="hardAlpha"/>
<feOffset/>
<feGaussianBlur stdDeviation="5"/>
<feComposite in2="hardAlpha" operator="arithmetic" k2="-1" k3="1"/>
<feColorMatrix type="matrix" values="0 0 0 0 1 0 0 0 0 1 0 0 0 0 1 0 0 0 0.25 0"/>
<feBlend mode="normal" in2="shape" result="effect1_innerShadow_470_7121"/>
</filter>
<filter id="filter5_i_470_7121" x="295.541" y="205.281" width="6.49023" height="6.55078" filterUnits="userSpaceOnUse" color-interpolation-filters="sRGB">
<feFlood flood-opacity="0" result="BackgroundImageFix"/>
<feBlend mode="normal" in="SourceGraphic" in2="BackgroundImageFix" result="shape"/>
<feColorMatrix in="SourceAlpha" type="matrix" values="0 0 0 0 0 0 0 0 0 0 0 0 0 0 0 0 0 0 127 0" result="hardAlpha"/>
<feOffset/>
<feGaussianBlur stdDeviation="5"/>
<feComposite in2="hardAlpha" operator="arithmetic" k2="-1" k3="1"/>
<feColorMatrix type="matrix" values="0 0 0 0 1 0 0 0 0 1 0 0 0 0 1 0 0 0 0.25 0"/>
<feBlend mode="normal" in2="shape" result="effect1_innerShadow_470_7121"/>
</filter>
<filter id="filter6_i_470_7121" x="40.0215" y="228.309" width="10.7734" height="10.584" filterUnits="userSpaceOnUse" color-interpolation-filters="sRGB">
<feFlood flood-opacity="0" result="BackgroundImageFix"/>
<feBlend mode="normal" in="SourceGraphic" in2="BackgroundImageFix" result="shape"/>
<feColorMatrix in="SourceAlpha" type="matrix" values="0 0 0 0 0 0 0 0 0 0 0 0 0 0 0 0 0 0 127 0" result="hardAlpha"/>
<feOffset/>
<feGaussianBlur stdDeviation="5"/>
<feComposite in2="hardAlpha" operator="arithmetic" k2="-1" k3="1"/>
<feColorMatrix type="matrix" values="0 0 0 0 1 0 0 0 0 1 0 0 0 0 1 0 0 0 0.25 0"/>
<feBlend mode="normal" in2="shape" result="effect1_innerShadow_470_7121"/>
</filter>
<filter id="filter7_i_470_7121" x="61.1934" y="84.1992" width="7.15039" height="7.1582" filterUnits="userSpaceOnUse" color-interpolation-filters="sRGB">
<feFlood flood-opacity="0" result="BackgroundImageFix"/>
<feBlend mode="normal" in="SourceGraphic" in2="BackgroundImageFix" result="shape"/>
<feColorMatrix in="SourceAlpha" type="matrix" values="0 0 0 0 0 0 0 0 0 0 0 0 0 0 0 0 0 0 127 0" result="hardAlpha"/>
<feOffset/>
<feGaussianBlur stdDeviation="5"/>
<feComposite in2="hardAlpha" operator="arithmetic" k2="-1" k3="1"/>
<feColorMatrix type="matrix" values="0 0 0 0 1 0 0 0 0 1 0 0 0 0 1 0 0 0 0.25 0"/>
<feBlend mode="normal" in2="shape" result="effect1_innerShadow_470_7121"/>
</filter>
<filter id="filter8_d_470_7121" x="64.2852" y="57.8594" width="223.43" height="216.803" filterUnits="userSpaceOnUse" color-interpolation-filters="sRGB">
<feFlood flood-opacity="0" result="BackgroundImageFix"/>
<feColorMatrix in="SourceAlpha" type="matrix" values="0 0 0 0 0 0 0 0 0 0 0 0 0 0 0 0 0 0 127 0" result="hardAlpha"/>
<feOffset/>
<feGaussianBlur stdDeviation="4"/>
<feComposite in2="hardAlpha" operator="out"/>
<feColorMatrix type="matrix" values="0 0 0 0 1 0 0 0 0 0.943318 0 0 0 0 0.773275 0 0 0 1 0"/>
<feBlend mode="normal" in2="BackgroundImageFix" result="effect1_dropShadow_470_7121"/>
<feBlend mode="normal" in="SourceGraphic" in2="effect1_dropShadow_470_7121" result="shape"/>
</filter>
<filter id="filter9_f_470_7121" x="-15" y="-51" width="161" height="158" filterUnits="userSpaceOnUse" color-interpolation-filters="sRGB">
<feFlood flood-opacity="0" result="BackgroundImageFix"/>
<feBlend mode="normal" in="SourceGraphic" in2="BackgroundImageFix" result="shape"/>
<feGaussianBlur stdDeviation="5" result="effect1_foregroundBlur_470_7121"/>
</filter>
<filter id="filter10_f_470_7121" x="218" y="84" width="161" height="158" filterUnits="userSpaceOnUse" color-interpolation-filters="sRGB">
<feFlood flood-opacity="0" result="BackgroundImageFix"/>
<feBlend mode="normal" in="SourceGraphic" in2="BackgroundImageFix" result="shape"/>
<feGaussianBlur stdDeviation="5" result="effect1_foregroundBlur_470_7121"/>
</filter>
<filter id="filter11_f_470_7121" x="28" y="276" width="89" height="88" filterUnits="userSpaceOnUse" color-interpolation-filters="sRGB">
<feFlood flood-opacity="0" result="BackgroundImageFix"/>
<feBlend mode="normal" in="SourceGraphic" in2="BackgroundImageFix" result="shape"/>
<feGaussianBlur stdDeviation="5" result="effect1_foregroundBlur_470_7121"/>
</filter>
<radialGradient id="paint0_radial_470_7121" cx="0" cy="0" r="1" gradientUnits="userSpaceOnUse" gradientTransform="translate(175.887 265.727) scale(119.922 15.0951)">
<stop stop-color="#E0E0E0"/>
<stop offset="1" stop-color="#F2F2F2"/>
</radialGradient>
</defs>
</svg>
