<svg width="40" height="40" viewBox="0 0 40 40" fill="none" xmlns="http://www.w3.org/2000/svg">
<path d="M28.2994 16.5125C27.8477 15.4368 27.1906 14.459 26.3647 13.6337C25.5413 12.807 24.5632 12.1497 23.4859 11.6991C22.3823 11.2353 21.1965 10.9976 19.9991 11H19.9588C18.7408 11.006 17.5631 11.2471 16.4539 11.7212C15.3858 12.1764 14.4169 12.8349 13.6012 13.6598C12.7833 14.4833 12.1337 15.4576 11.6887 16.5286C11.2267 17.6423 10.9926 18.8369 11.0002 20.0422C11.0062 21.4364 11.3404 22.8205 11.9645 24.058V27.1116C11.9645 27.6219 12.3792 28.0357 12.8885 28.0357H15.9445C17.1904 28.6631 18.5653 28.9932 19.9608 29H20.0031C21.207 29 22.3726 28.767 23.4718 28.3109C24.5436 27.8658 25.5181 27.2161 26.3406 26.3984C27.17 25.5768 27.8222 24.6165 28.2792 23.5458C28.7523 22.4368 28.9939 21.2576 29 20.0402C29.004 18.8168 28.7664 17.6295 28.2994 16.5125ZM15.9808 20.9643C15.4493 20.9643 15.0165 20.5324 15.0165 20C15.0165 19.4676 15.4493 19.0357 15.9808 19.0357C16.5122 19.0357 16.9451 19.4676 16.9451 20C16.9451 20.5324 16.5143 20.9643 15.9808 20.9643ZM19.9991 20.9643C19.4676 20.9643 19.0347 20.5324 19.0347 20C19.0347 19.4676 19.4676 19.0357 19.9991 19.0357C20.5305 19.0357 20.9634 19.4676 20.9634 20C20.9634 20.5324 20.5305 20.9643 19.9991 20.9643ZM24.0173 20.9643C23.4859 20.9643 23.053 20.5324 23.053 20C23.053 19.4676 23.4859 19.0357 24.0173 19.0357C24.5488 19.0357 24.9817 19.4676 24.9817 20C24.9817 20.5324 24.5488 20.9643 24.0173 20.9643Z" fill="#5D5D6A"/>
</svg>
