<svg width="48" height="48" viewBox="0 0 48 48" fill="none" xmlns="http://www.w3.org/2000/svg">
<circle cx="24" cy="24" r="22" fill="white"/>
<g clip-path="url(#clip0_1590_17316)">
<path d="M47.145 23.9883C47.145 37.0878 36.4681 47.9766 23.5725 47.9766C10.7 47.9766 0 37.0878 0 23.9883C0 10.8653 10.6769 0 23.5494 0C36.4449 0 47.145 10.8653 47.145 23.9883ZM21.5619 14.5811V21.9422H14.3284C13.1266 21.9422 12.2947 22.7889 12.2947 24.0118C12.2947 25.2113 13.1266 26.0109 14.3284 26.0109H21.5619V33.3955C21.5619 34.5948 22.3707 35.4651 23.5494 35.4651C24.7511 35.4651 25.5829 34.6184 25.5829 33.3955V26.0109H32.8398C34.0183 26.0109 34.8733 25.2113 34.8733 24.0118C34.8733 22.7889 34.0183 21.9422 32.8398 21.9422H25.5829V14.5811C25.5829 13.3582 24.7511 12.488 23.5494 12.488C22.3707 12.488 21.5619 13.3582 21.5619 14.5811Z" fill="#5B9CFF"/>
</g>
<defs>
<clipPath id="clip0_1590_17316">
<rect width="48" height="48" fill="white"/>
</clipPath>
</defs>
</svg>
