<svg width="40" height="40" viewBox="0 0 40 40" fill="none" xmlns="http://www.w3.org/2000/svg">
<path d="M10.3585 24.834C9.88982 25.3026 9.86751 26.1395 10.3696 26.6304C10.8606 27.1213 11.6975 27.1102 12.1661 26.6416L18.9951 19.802L25.8353 26.6416C26.3151 27.1213 27.1408 27.1213 27.6318 26.6304C28.1116 26.1283 28.1227 25.3138 27.6318 24.834L20.8028 17.9944L27.6318 11.166C28.1227 10.6862 28.1227 9.86054 27.6318 9.36961C27.1296 8.88983 26.3151 8.87867 25.8353 9.35845L18.9951 16.1981L12.1661 9.35845C11.6975 8.88983 10.8494 8.86752 10.3696 9.36961C9.87866 9.86054 9.88982 10.6974 10.3585 11.166L17.1986 17.9944L10.3585 24.834Z" fill="#1C1C1E"/>
</svg>
