<svg width="375" height="199" viewBox="0 0 375 199" fill="none" xmlns="http://www.w3.org/2000/svg">
<g filter="url(#filter0_i_5277_23940)">
<path d="M-141.912 4.30861C-100.437 51.3657 -49.3368 88.9638 7.92979 114.558C65.1964 140.153 127.293 153.147 190.017 152.661C252.741 152.175 314.629 138.219 371.492 111.74C428.355 85.2605 478.866 46.8746 519.606 -0.819874L218.393 -258.115C214.506 -253.565 209.687 -249.902 204.261 -247.376C198.836 -244.849 192.931 -243.518 186.946 -243.471C180.961 -243.425 175.036 -244.665 169.572 -247.107C164.108 -249.549 159.233 -253.136 155.275 -257.626L-141.912 4.30861Z" fill="#BCD7FF"/>
</g>
<g filter="url(#filter1_i_5277_23940)">
<ellipse cx="188.096" cy="-318" rx="470" ry="463.904" transform="rotate(90 188.096 -318)" fill="#CADFFF" fill-opacity="0.26"/>
</g>
<g filter="url(#filter2_i_5277_23940)">
<path d="M73.4656 119.528C74.1725 118.271 76.0755 118.652 76.2428 120.085C76.3176 120.726 76.7965 121.246 77.4291 121.373C78.8434 121.656 79.0685 123.584 77.7576 124.186C77.1713 124.455 76.825 125.071 76.8998 125.712C77.0671 127.145 75.3032 127.955 74.3257 126.894C73.8885 126.419 73.1956 126.28 72.6093 126.549C71.2983 127.151 69.9831 125.724 70.6899 124.467C71.006 123.904 70.924 123.202 70.4869 122.728C69.5093 121.667 70.4604 119.975 71.8747 120.259C72.5073 120.386 73.1495 120.091 73.4656 119.528Z" fill="white" fill-opacity="0.2"/>
</g>
<g filter="url(#filter3_i_5277_23940)">
<path d="M287.281 98.8673C287.042 97.91 288.168 97.2064 288.924 97.8405C289.262 98.1241 289.744 98.1578 290.119 97.9239C290.955 97.401 291.972 98.2543 291.603 99.1691C291.438 99.5783 291.555 100.047 291.893 100.331C292.649 100.965 292.151 102.196 291.167 102.127C290.727 102.097 290.317 102.353 290.152 102.762C289.782 103.677 288.458 103.584 288.219 102.627C288.112 102.199 287.742 101.888 287.302 101.857C286.317 101.789 285.996 100.501 286.833 99.9776C287.207 99.7437 287.388 99.2955 287.281 98.8673Z" fill="white" fill-opacity="0.2"/>
</g>
<g filter="url(#filter4_i_5277_23940)">
<path d="M22.9557 60.5077C23.4558 61.0195 24.3229 60.633 24.2764 59.9188C24.2618 59.6943 24.346 59.4746 24.5069 59.3173C25.0188 58.8171 24.6322 57.9501 23.9181 57.9966C23.6935 58.0112 23.4738 57.927 23.3166 57.7661C22.8164 57.2542 21.9494 57.6408 21.9958 58.3549C22.0105 58.5795 21.9263 58.7992 21.7653 58.9564C21.2534 59.4566 21.64 60.3236 22.3542 60.2771C22.5787 60.2625 22.7984 60.3467 22.9557 60.5077Z" fill="white" fill-opacity="0.2"/>
</g>
<g filter="url(#filter5_i_5277_23940)">
<path d="M309.897 50.7869C310.145 50.2059 311.012 50.3843 311.011 51.0162C311.01 51.4492 311.466 51.7305 311.853 51.535C312.416 51.2496 312.965 51.9433 312.558 52.4264C312.279 52.7576 312.448 53.2667 312.87 53.3652C313.485 53.509 313.46 54.3932 312.838 54.5017C312.411 54.576 312.213 55.0746 312.473 55.4212C312.852 55.9268 312.264 56.5879 311.718 56.2709C311.343 56.0536 310.871 56.3085 310.847 56.7409C310.812 57.3717 309.937 57.5004 309.722 56.9063C309.575 56.499 309.05 56.3909 308.753 56.7068C308.321 57.1677 307.568 56.7037 307.785 56.1104C307.934 55.7038 307.601 55.2832 307.171 55.3349C306.544 55.4102 306.265 54.5706 306.813 54.2558C307.189 54.0401 307.204 53.5039 306.841 53.2671C306.313 52.9215 306.639 52.0992 307.261 52.2102C307.687 52.2863 308.043 51.8854 307.918 51.4709C307.735 50.8662 308.513 50.4459 308.918 50.9308C309.196 51.2631 309.727 51.185 309.897 50.7869Z" fill="white" fill-opacity="0.1"/>
</g>
<g filter="url(#filter6_i_5277_23940)">
<path d="M340.628 109.96C340.741 109.683 341.155 109.768 341.149 110.068C341.145 110.282 341.38 110.416 341.562 110.303C341.817 110.144 342.102 110.457 341.921 110.696C341.791 110.867 341.903 111.113 342.117 111.128C342.416 111.15 342.463 111.57 342.176 111.657C341.97 111.719 341.916 111.984 342.08 112.122C342.309 112.316 342.1 112.683 341.817 112.585C341.614 112.514 341.414 112.697 341.466 112.905C341.538 113.196 341.153 113.37 340.981 113.124C340.859 112.948 340.59 112.978 340.509 113.177C340.396 113.455 339.982 113.369 339.988 113.07C339.992 112.855 339.757 112.721 339.575 112.835C339.321 112.993 339.036 112.681 339.217 112.442C339.346 112.271 339.235 112.024 339.021 112.009C338.722 111.987 338.675 111.567 338.962 111.48C339.167 111.418 339.222 111.153 339.058 111.015C338.828 110.822 339.037 110.454 339.321 110.553C339.523 110.623 339.723 110.441 339.672 110.233C339.6 109.941 339.985 109.767 340.156 110.013C340.279 110.189 340.548 110.159 340.628 109.96Z" fill="white" fill-opacity="0.1"/>
</g>
<g filter="url(#filter7_i_5277_23940)">
<path d="M261.628 128.96C261.741 128.683 262.155 128.768 262.149 129.068C262.145 129.282 262.38 129.416 262.562 129.303C262.817 129.144 263.102 129.457 262.921 129.696C262.791 129.867 262.903 130.113 263.117 130.128C263.416 130.15 263.463 130.57 263.176 130.657C262.97 130.719 262.916 130.984 263.08 131.122C263.309 131.316 263.1 131.683 262.817 131.585C262.614 131.514 262.414 131.697 262.466 131.905C262.538 132.196 262.153 132.37 261.981 132.124C261.859 131.948 261.59 131.978 261.509 132.177C261.396 132.455 260.982 132.369 260.988 132.07C260.992 131.855 260.757 131.721 260.575 131.835C260.321 131.993 260.036 131.681 260.217 131.442C260.346 131.271 260.235 131.024 260.021 131.009C259.722 130.987 259.675 130.567 259.962 130.48C260.167 130.418 260.222 130.153 260.058 130.015C259.828 129.822 260.037 129.454 260.321 129.553C260.523 129.623 260.723 129.441 260.672 129.233C260.6 128.941 260.985 128.767 261.156 129.013C261.279 129.189 261.548 129.159 261.628 128.96Z" fill="white" fill-opacity="0.1"/>
</g>
<g filter="url(#filter8_i_5277_23940)">
<path d="M35.6285 93.9605C35.7414 93.6827 36.1552 93.7679 36.1493 94.0677C36.145 94.2821 36.3802 94.4159 36.5623 94.3027C36.817 94.1444 37.1017 94.4565 36.9207 94.6956C36.7912 94.8666 36.9028 95.113 37.1167 95.1285C37.4158 95.1501 37.4626 95.5699 37.1757 95.6569C36.9704 95.7192 36.9159 95.9842 37.0798 96.1224C37.3091 96.3157 37.1002 96.6829 36.8169 96.5846C36.6143 96.5143 36.4144 96.6966 36.4658 96.9049C36.5376 97.196 36.1528 97.3702 35.9814 97.1242C35.8588 96.9482 35.5899 96.9782 35.5091 97.1769C35.3961 97.4547 34.9823 97.3695 34.9883 97.0697C34.9925 96.8552 34.7573 96.7215 34.5752 96.8347C34.3205 96.993 34.0359 96.6808 34.2169 96.4418C34.3463 96.2708 34.2347 96.0244 34.0208 96.0089C33.7217 95.9873 33.6749 95.5674 33.9618 95.4804C34.1671 95.4182 34.2217 95.1532 34.0577 95.0149C33.8285 94.8217 34.0373 94.4545 34.3206 94.5528C34.5232 94.6231 34.7231 94.4408 34.6718 94.2325C34.5999 93.9414 34.9847 93.7671 35.1561 94.0131C35.2787 94.1891 35.5476 94.1591 35.6285 93.9605Z" fill="white" fill-opacity="0.1"/>
</g>
<g filter="url(#filter9_i_5277_23940)">
<path d="M123.115 97.3147C123.48 96.7289 124.377 96.9135 124.481 97.596C124.514 97.8105 124.639 98.0001 124.823 98.1149C125.409 98.4801 125.224 99.3769 124.541 99.481C124.327 99.5137 124.137 99.6385 124.023 99.8227C123.657 100.409 122.761 100.224 122.656 99.5414C122.624 99.3269 122.499 99.1373 122.315 99.0225C121.729 98.6573 121.914 97.7604 122.596 97.6564C122.811 97.6236 123 97.4988 123.115 97.3147Z" fill="white" fill-opacity="0.1"/>
</g>
<g filter="url(#filter10_i_5277_23940)">
<path d="M82.6285 49.9605C82.7414 49.6827 83.1552 49.7679 83.1493 50.0677C83.145 50.2821 83.3802 50.4159 83.5623 50.3027C83.817 50.1444 84.1017 50.4565 83.9207 50.6956C83.7912 50.8666 83.9028 51.113 84.1167 51.1285C84.4158 51.1501 84.4626 51.5699 84.1757 51.6569C83.9704 51.7192 83.9159 51.9842 84.0798 52.1224C84.3091 52.3157 84.1002 52.6829 83.8169 52.5846C83.6143 52.5143 83.4144 52.6966 83.4658 52.9049C83.5376 53.196 83.1528 53.3702 82.9814 53.1242C82.8588 52.9482 82.5899 52.9782 82.5091 53.1769C82.3961 53.4547 81.9823 53.3695 81.9883 53.0697C81.9925 52.8552 81.7573 52.7215 81.5752 52.8347C81.3205 52.993 81.0359 52.6808 81.2169 52.4418C81.3463 52.2708 81.2347 52.0244 81.0208 52.0089C80.7217 51.9873 80.6749 51.5674 80.9618 51.4804C81.1671 51.4182 81.2217 51.1532 81.0577 51.0149C80.8285 50.8217 81.0373 50.4545 81.3206 50.5528C81.5232 50.6231 81.7231 50.4408 81.6718 50.2325C81.5999 49.9414 81.9847 49.7671 82.1561 50.0131C82.2787 50.1891 82.5476 50.1591 82.6285 49.9605Z" fill="white" fill-opacity="0.1"/>
</g>
<g filter="url(#filter11_i_5277_23940)">
<path d="M190.767 51.1155C190.947 50.6742 191.604 50.8095 191.595 51.286C191.588 51.6267 191.962 51.8393 192.251 51.6594C192.656 51.4079 193.108 51.9039 192.821 52.2838C192.615 52.5555 192.792 52.9472 193.132 52.9718C193.607 53.0061 193.682 53.6733 193.226 53.8116C192.9 53.9105 192.813 54.3316 193.073 54.5513C193.438 54.8585 193.106 55.442 192.656 55.2858C192.334 55.1741 192.016 55.4638 192.098 55.7947C192.212 56.2574 191.6 56.5343 191.328 56.1434C191.133 55.8637 190.706 55.9114 190.577 56.2271C190.398 56.6685 189.74 56.5331 189.75 56.0567C189.756 55.7159 189.383 55.5033 189.093 55.6832C188.688 55.9348 188.236 55.4387 188.524 55.0589C188.729 54.7871 188.552 54.3955 188.212 54.3709C187.737 54.3365 187.662 53.6693 188.118 53.531C188.445 53.4321 188.531 53.011 188.271 52.7913C187.906 52.4841 188.238 51.9006 188.689 52.0568C189.011 52.1685 189.328 51.8788 189.247 51.5479C189.132 51.0853 189.744 50.8083 190.016 51.1993C190.211 51.4789 190.639 51.4313 190.767 51.1155Z" fill="white" fill-opacity="0.1"/>
</g>
<g filter="url(#filter12_i_5277_23940)">
<path d="M308.234 198.499C308.234 198.499 69.5223 113.948 94.9402 71.3602C112.528 41.8909 243.688 117.501 265.898 90.2688C303.163 44.5769 67.1787 -72.0004 67.1787 -72.0004" stroke="white" stroke-opacity="0.2" stroke-dasharray="8 8"/>
</g>
<defs>
<filter id="filter0_i_5277_23940" x="-141.912" y="-258.117" width="661.518" height="410.793" filterUnits="userSpaceOnUse" color-interpolation-filters="sRGB">
<feFlood flood-opacity="0" result="BackgroundImageFix"/>
<feBlend mode="normal" in="SourceGraphic" in2="BackgroundImageFix" result="shape"/>
<feColorMatrix in="SourceAlpha" type="matrix" values="0 0 0 0 0 0 0 0 0 0 0 0 0 0 0 0 0 0 127 0" result="hardAlpha"/>
<feOffset/>
<feGaussianBlur stdDeviation="5"/>
<feComposite in2="hardAlpha" operator="arithmetic" k2="-1" k3="1"/>
<feColorMatrix type="matrix" values="0 0 0 0 1 0 0 0 0 1 0 0 0 0 1 0 0 0 0.25 0"/>
<feBlend mode="normal" in2="shape" result="effect1_innerShadow_5277_23940"/>
</filter>
<filter id="filter1_i_5277_23940" x="-275.809" y="-788" width="927.809" height="940" filterUnits="userSpaceOnUse" color-interpolation-filters="sRGB">
<feFlood flood-opacity="0" result="BackgroundImageFix"/>
<feBlend mode="normal" in="SourceGraphic" in2="BackgroundImageFix" result="shape"/>
<feColorMatrix in="SourceAlpha" type="matrix" values="0 0 0 0 0 0 0 0 0 0 0 0 0 0 0 0 0 0 127 0" result="hardAlpha"/>
<feOffset/>
<feGaussianBlur stdDeviation="5"/>
<feComposite in2="hardAlpha" operator="arithmetic" k2="-1" k3="1"/>
<feColorMatrix type="matrix" values="0 0 0 0 1 0 0 0 0 1 0 0 0 0 1 0 0 0 0.25 0"/>
<feBlend mode="normal" in2="shape" result="effect1_innerShadow_5277_23940"/>
</filter>
<filter id="filter2_i_5277_23940" x="70.0879" y="118.766" width="8.53711" height="8.61328" filterUnits="userSpaceOnUse" color-interpolation-filters="sRGB">
<feFlood flood-opacity="0" result="BackgroundImageFix"/>
<feBlend mode="normal" in="SourceGraphic" in2="BackgroundImageFix" result="shape"/>
<feColorMatrix in="SourceAlpha" type="matrix" values="0 0 0 0 0 0 0 0 0 0 0 0 0 0 0 0 0 0 127 0" result="hardAlpha"/>
<feOffset/>
<feGaussianBlur stdDeviation="5"/>
<feComposite in2="hardAlpha" operator="arithmetic" k2="-1" k3="1"/>
<feColorMatrix type="matrix" values="0 0 0 0 1 0 0 0 0 1 0 0 0 0 1 0 0 0 0.25 0"/>
<feBlend mode="normal" in2="shape" result="effect1_innerShadow_5277_23940"/>
</filter>
<filter id="filter3_i_5277_23940" x="286.354" y="97.5977" width="5.90625" height="5.80078" filterUnits="userSpaceOnUse" color-interpolation-filters="sRGB">
<feFlood flood-opacity="0" result="BackgroundImageFix"/>
<feBlend mode="normal" in="SourceGraphic" in2="BackgroundImageFix" result="shape"/>
<feColorMatrix in="SourceAlpha" type="matrix" values="0 0 0 0 0 0 0 0 0 0 0 0 0 0 0 0 0 0 127 0" result="hardAlpha"/>
<feOffset/>
<feGaussianBlur stdDeviation="5"/>
<feComposite in2="hardAlpha" operator="arithmetic" k2="-1" k3="1"/>
<feColorMatrix type="matrix" values="0 0 0 0 1 0 0 0 0 1 0 0 0 0 1 0 0 0 0.25 0"/>
<feBlend mode="normal" in2="shape" result="effect1_innerShadow_5277_23940"/>
</filter>
<filter id="filter4_i_5277_23940" x="21.5312" y="57.5312" width="3.20898" height="3.21094" filterUnits="userSpaceOnUse" color-interpolation-filters="sRGB">
<feFlood flood-opacity="0" result="BackgroundImageFix"/>
<feBlend mode="normal" in="SourceGraphic" in2="BackgroundImageFix" result="shape"/>
<feColorMatrix in="SourceAlpha" type="matrix" values="0 0 0 0 0 0 0 0 0 0 0 0 0 0 0 0 0 0 127 0" result="hardAlpha"/>
<feOffset/>
<feGaussianBlur stdDeviation="5"/>
<feComposite in2="hardAlpha" operator="arithmetic" k2="-1" k3="1"/>
<feColorMatrix type="matrix" values="0 0 0 0 1 0 0 0 0 1 0 0 0 0 1 0 0 0 0.25 0"/>
<feBlend mode="normal" in2="shape" result="effect1_innerShadow_5277_23940"/>
</filter>
<filter id="filter5_i_5277_23940" x="306.52" y="50.4336" width="6.79883" height="6.85547" filterUnits="userSpaceOnUse" color-interpolation-filters="sRGB">
<feFlood flood-opacity="0" result="BackgroundImageFix"/>
<feBlend mode="normal" in="SourceGraphic" in2="BackgroundImageFix" result="shape"/>
<feColorMatrix in="SourceAlpha" type="matrix" values="0 0 0 0 0 0 0 0 0 0 0 0 0 0 0 0 0 0 127 0" result="hardAlpha"/>
<feOffset/>
<feGaussianBlur stdDeviation="5"/>
<feComposite in2="hardAlpha" operator="arithmetic" k2="-1" k3="1"/>
<feColorMatrix type="matrix" values="0 0 0 0 1 0 0 0 0 1 0 0 0 0 1 0 0 0 0.25 0"/>
<feBlend mode="normal" in2="shape" result="effect1_innerShadow_5277_23940"/>
</filter>
<filter id="filter6_i_5277_23940" x="338.77" y="109.793" width="3.59766" height="3.55469" filterUnits="userSpaceOnUse" color-interpolation-filters="sRGB">
<feFlood flood-opacity="0" result="BackgroundImageFix"/>
<feBlend mode="normal" in="SourceGraphic" in2="BackgroundImageFix" result="shape"/>
<feColorMatrix in="SourceAlpha" type="matrix" values="0 0 0 0 0 0 0 0 0 0 0 0 0 0 0 0 0 0 127 0" result="hardAlpha"/>
<feOffset/>
<feGaussianBlur stdDeviation="5"/>
<feComposite in2="hardAlpha" operator="arithmetic" k2="-1" k3="1"/>
<feColorMatrix type="matrix" values="0 0 0 0 1 0 0 0 0 1 0 0 0 0 1 0 0 0 0.25 0"/>
<feBlend mode="normal" in2="shape" result="effect1_innerShadow_5277_23940"/>
</filter>
<filter id="filter7_i_5277_23940" x="259.77" y="128.793" width="3.59766" height="3.55469" filterUnits="userSpaceOnUse" color-interpolation-filters="sRGB">
<feFlood flood-opacity="0" result="BackgroundImageFix"/>
<feBlend mode="normal" in="SourceGraphic" in2="BackgroundImageFix" result="shape"/>
<feColorMatrix in="SourceAlpha" type="matrix" values="0 0 0 0 0 0 0 0 0 0 0 0 0 0 0 0 0 0 127 0" result="hardAlpha"/>
<feOffset/>
<feGaussianBlur stdDeviation="5"/>
<feComposite in2="hardAlpha" operator="arithmetic" k2="-1" k3="1"/>
<feColorMatrix type="matrix" values="0 0 0 0 1 0 0 0 0 1 0 0 0 0 1 0 0 0 0.25 0"/>
<feBlend mode="normal" in2="shape" result="effect1_innerShadow_5277_23940"/>
</filter>
<filter id="filter8_i_5277_23940" x="33.7695" y="93.793" width="3.59766" height="3.55469" filterUnits="userSpaceOnUse" color-interpolation-filters="sRGB">
<feFlood flood-opacity="0" result="BackgroundImageFix"/>
<feBlend mode="normal" in="SourceGraphic" in2="BackgroundImageFix" result="shape"/>
<feColorMatrix in="SourceAlpha" type="matrix" values="0 0 0 0 0 0 0 0 0 0 0 0 0 0 0 0 0 0 127 0" result="hardAlpha"/>
<feOffset/>
<feGaussianBlur stdDeviation="5"/>
<feComposite in2="hardAlpha" operator="arithmetic" k2="-1" k3="1"/>
<feColorMatrix type="matrix" values="0 0 0 0 1 0 0 0 0 1 0 0 0 0 1 0 0 0 0.25 0"/>
<feBlend mode="normal" in2="shape" result="effect1_innerShadow_5277_23940"/>
</filter>
<filter id="filter9_i_5277_23940" x="121.965" y="96.9648" width="3.20898" height="3.20703" filterUnits="userSpaceOnUse" color-interpolation-filters="sRGB">
<feFlood flood-opacity="0" result="BackgroundImageFix"/>
<feBlend mode="normal" in="SourceGraphic" in2="BackgroundImageFix" result="shape"/>
<feColorMatrix in="SourceAlpha" type="matrix" values="0 0 0 0 0 0 0 0 0 0 0 0 0 0 0 0 0 0 127 0" result="hardAlpha"/>
<feOffset/>
<feGaussianBlur stdDeviation="5"/>
<feComposite in2="hardAlpha" operator="arithmetic" k2="-1" k3="1"/>
<feColorMatrix type="matrix" values="0 0 0 0 1 0 0 0 0 1 0 0 0 0 1 0 0 0 0.25 0"/>
<feBlend mode="normal" in2="shape" result="effect1_innerShadow_5277_23940"/>
</filter>
<filter id="filter10_i_5277_23940" x="80.7695" y="49.793" width="3.59766" height="3.55469" filterUnits="userSpaceOnUse" color-interpolation-filters="sRGB">
<feFlood flood-opacity="0" result="BackgroundImageFix"/>
<feBlend mode="normal" in="SourceGraphic" in2="BackgroundImageFix" result="shape"/>
<feColorMatrix in="SourceAlpha" type="matrix" values="0 0 0 0 0 0 0 0 0 0 0 0 0 0 0 0 0 0 127 0" result="hardAlpha"/>
<feOffset/>
<feGaussianBlur stdDeviation="5"/>
<feComposite in2="hardAlpha" operator="arithmetic" k2="-1" k3="1"/>
<feColorMatrix type="matrix" values="0 0 0 0 1 0 0 0 0 1 0 0 0 0 1 0 0 0 0.25 0"/>
<feBlend mode="normal" in2="shape" result="effect1_innerShadow_5277_23940"/>
</filter>
<filter id="filter11_i_5277_23940" x="187.812" y="50.8477" width="5.71875" height="5.64844" filterUnits="userSpaceOnUse" color-interpolation-filters="sRGB">
<feFlood flood-opacity="0" result="BackgroundImageFix"/>
<feBlend mode="normal" in="SourceGraphic" in2="BackgroundImageFix" result="shape"/>
<feColorMatrix in="SourceAlpha" type="matrix" values="0 0 0 0 0 0 0 0 0 0 0 0 0 0 0 0 0 0 127 0" result="hardAlpha"/>
<feOffset/>
<feGaussianBlur stdDeviation="5"/>
<feComposite in2="hardAlpha" operator="arithmetic" k2="-1" k3="1"/>
<feColorMatrix type="matrix" values="0 0 0 0 1 0 0 0 0 1 0 0 0 0 1 0 0 0 0.25 0"/>
<feBlend mode="normal" in2="shape" result="effect1_innerShadow_5277_23940"/>
</filter>
<filter id="filter12_i_5277_23940" x="66.957" y="-72.4492" width="241.443" height="271.422" filterUnits="userSpaceOnUse" color-interpolation-filters="sRGB">
<feFlood flood-opacity="0" result="BackgroundImageFix"/>
<feBlend mode="normal" in="SourceGraphic" in2="BackgroundImageFix" result="shape"/>
<feColorMatrix in="SourceAlpha" type="matrix" values="0 0 0 0 0 0 0 0 0 0 0 0 0 0 0 0 0 0 127 0" result="hardAlpha"/>
<feOffset/>
<feGaussianBlur stdDeviation="5"/>
<feComposite in2="hardAlpha" operator="arithmetic" k2="-1" k3="1"/>
<feColorMatrix type="matrix" values="0 0 0 0 1 0 0 0 0 1 0 0 0 0 1 0 0 0 0.25 0"/>
<feBlend mode="normal" in2="shape" result="effect1_innerShadow_5277_23940"/>
</filter>
</defs>
</svg>
