<svg width="12" height="12" viewBox="0 0 12 12" fill="none" xmlns="http://www.w3.org/2000/svg">
<g clip-path="url(#clip0_5592_32946)">
<path d="M7.54965 0.652646C7.34777 0.446052 7.10663 0.281892 6.84041 0.169814C6.57419 0.0577355 6.28825 0 5.9994 0C5.71054 0 5.4246 0.0577355 5.15838 0.169814C4.89216 0.281892 4.65102 0.446052 4.44915 0.652646L3.98265 1.13115L3.31515 1.1229C3.02621 1.11948 2.7395 1.17386 2.47189 1.28286C2.20428 1.39186 1.96116 1.55327 1.75684 1.75759C1.55252 1.96191 1.39111 2.20503 1.28211 2.47264C1.17311 2.74025 1.11873 3.02696 1.12215 3.3159L1.12965 3.9834L0.652646 4.4499C0.446052 4.65177 0.281892 4.89291 0.169814 5.15913C0.0577355 5.42535 0 5.71129 0 6.00015C0 6.289 0.0577355 6.57494 0.169814 6.84116C0.281892 7.10738 0.446052 7.34852 0.652646 7.5504L1.1304 8.0169L1.12215 8.6844C1.11873 8.97333 1.17311 9.26004 1.28211 9.52765C1.39111 9.79526 1.55252 10.0384 1.75684 10.2427C1.96116 10.447 2.20428 10.6084 2.47189 10.7174C2.7395 10.8264 3.02621 10.8808 3.31515 10.8774L3.98265 10.8699L4.44915 11.3469C4.65102 11.5535 4.89216 11.7177 5.15838 11.8297C5.4246 11.9418 5.71054 11.9995 5.9994 11.9995C6.28825 11.9995 6.57419 11.9418 6.84041 11.8297C7.10663 11.7177 7.34777 11.5535 7.54965 11.3469L8.01615 10.8691L8.68365 10.8774C8.97258 10.8808 9.25929 10.8264 9.5269 10.7174C9.79451 10.6084 10.0376 10.447 10.242 10.2427C10.4463 10.0384 10.6077 9.79526 10.7167 9.52765C10.8257 9.26004 10.8801 8.97333 10.8766 8.6844L10.8691 8.0169L11.3461 7.5504C11.5527 7.34852 11.7169 7.10738 11.829 6.84116C11.9411 6.57494 11.9988 6.289 11.9988 6.00015C11.9988 5.71129 11.9411 5.42535 11.829 5.15913C11.7169 4.89291 11.5527 4.65177 11.3461 4.4499L10.8684 3.9834L10.8766 3.3159C10.8801 3.02696 10.8257 2.74025 10.7167 2.47264C10.6077 2.20503 10.4463 1.96191 10.242 1.75759C10.0376 1.55327 9.79451 1.39186 9.5269 1.28286C9.25929 1.17386 8.97258 1.11948 8.68365 1.1229L8.01615 1.1304L7.54965 0.652646ZM7.7649 5.14065L5.5149 7.39065C5.48006 7.42557 5.43868 7.45328 5.39312 7.47218C5.34756 7.49109 5.29872 7.50082 5.2494 7.50082C5.20007 7.50082 5.15123 7.49109 5.10567 7.47218C5.06011 7.45328 5.01873 7.42557 4.9839 7.39065L3.8589 6.26565C3.82403 6.23078 3.79637 6.18939 3.7775 6.14383C3.75863 6.09828 3.74892 6.04945 3.74892 6.00015C3.74892 5.95084 3.75863 5.90201 3.7775 5.85646C3.79637 5.8109 3.82403 5.76951 3.8589 5.73465C3.89376 5.69978 3.93515 5.67212 3.98071 5.65325C4.02626 5.63438 4.07509 5.62467 4.1244 5.62467C4.1737 5.62467 4.22253 5.63438 4.26808 5.65325C4.31364 5.67212 4.35503 5.69978 4.3899 5.73465L5.2494 6.5949L7.2339 4.60965C7.30431 4.53923 7.39981 4.49967 7.4994 4.49967C7.59898 4.49967 7.69448 4.53923 7.7649 4.60965C7.83531 4.68006 7.87487 4.77556 7.87487 4.87515C7.87487 4.97473 7.83531 5.07023 7.7649 5.14065Z" fill="#68A4FF"/>
</g>
<defs>
<clipPath id="clip0_5592_32946">
<rect width="12" height="12" fill="white"/>
</clipPath>
</defs>
</svg>
