<svg width="12" height="12" viewBox="0 0 12 12" fill="none" xmlns="http://www.w3.org/2000/svg">
<g clip-path="url(#clip0_5592_32933)">
<path d="M11.3292 6.74063C11.6833 6.74063 11.9958 6.4125 11.9958 5.98828C12.0167 5.77734 11.9333 5.58984 11.7667 5.42578L10.6667 4.33594V1.5C10.6667 1.08516 10.3688 0.75 10 0.75H9.33333C8.96458 0.75 8.66667 1.08516 8.66667 1.5V2.36016L6.44792 0.164062C6.32292 0.046875 6.15625 0 6.01042 0C5.86458 0 5.69792 0.0234375 5.55208 0.1875L0.208333 5.42578C0.0625 5.58984 0 5.77734 0 5.98828C0 6.41016 0.291667 6.74063 0.666667 6.74063H1.33333V8.37422C1.33125 8.39531 1.33125 8.41641 1.33125 8.43984V11.0625C1.33125 11.5805 1.70417 12 2.16458 12H2.49792C2.52292 12 2.54792 11.9977 2.57292 11.9953C2.60417 11.9977 2.63542 12 2.66667 12H3.83333C4.29375 12 4.66667 11.5805 4.66667 11.0625V9C4.66667 8.58516 4.96458 8.25 5.33333 8.25H6.66667C7.03542 8.25 7.33333 8.58516 7.33333 9V11.0625C7.33333 11.5805 7.70625 12 8.16667 12H9.34375C9.37292 12 9.40208 12 9.43125 11.9977C9.45417 12 9.47708 12 9.5 12H9.83333C10.2938 12 10.6667 11.5805 10.6667 11.0625V10.6828C10.6729 10.6219 10.6771 10.5586 10.6771 10.493L10.6625 6.73828H11.3292V6.74063Z" fill="#68A4FF"/>
</g>
<defs>
<clipPath id="clip0_5592_32933">
<rect width="12" height="12" fill="white"/>
</clipPath>
</defs>
</svg>
