<svg width="14" height="15" viewBox="0 0 14 15" fill="none" xmlns="http://www.w3.org/2000/svg">
<path d="M7.33329 0.833008C11.0153 0.833008 14 3.81767 14 7.49967C14 11.1817 11.0153 14.1663 7.33329 14.1663C3.65129 14.1663 0.666626 11.1817 0.666626 7.49967C0.666626 3.81767 3.65129 0.833008 7.33329 0.833008ZM9.73329 4.29967C9.66325 4.24715 9.58356 4.20893 9.49875 4.1872C9.41394 4.16547 9.32568 4.16066 9.23901 4.17304C9.15234 4.18542 9.06896 4.21475 8.99363 4.25936C8.9183 4.30396 8.85249 4.36297 8.79996 4.43301L7.33329 6.38834L5.86663 4.43301C5.8141 4.36297 5.74829 4.30396 5.67296 4.25936C5.59762 4.21475 5.51424 4.18542 5.42757 4.17304C5.34091 4.16066 5.25265 4.16547 5.16784 4.1872C5.08303 4.20893 5.00333 4.24715 4.93329 4.29967C4.86325 4.3522 4.80425 4.41801 4.75964 4.49335C4.71504 4.56868 4.68571 4.65206 4.67333 4.73873C4.66095 4.82539 4.66576 4.91365 4.68748 4.99846C4.70921 5.08327 4.74743 5.16297 4.79996 5.23301L6.49996 7.49967L4.79996 9.76634C4.69387 9.90779 4.64832 10.0856 4.67333 10.2606C4.69833 10.4357 4.79184 10.5936 4.93329 10.6997C5.07474 10.8058 5.25254 10.8513 5.42757 10.8263C5.60261 10.8013 5.76054 10.7078 5.86663 10.5663L7.33329 8.61101L8.79996 10.5663C8.90604 10.7078 9.06398 10.8013 9.23901 10.8263C9.41405 10.8513 9.59184 10.8058 9.73329 10.6997C9.87474 10.5936 9.96825 10.4357 9.99326 10.2606C10.0183 10.0856 9.97271 9.90779 9.86663 9.76634L8.16663 7.49967L9.86663 5.23301C9.91915 5.16297 9.95737 5.08327 9.9791 4.99846C10.0008 4.91365 10.0056 4.82539 9.99326 4.73873C9.98088 4.65206 9.95155 4.56868 9.90694 4.49335C9.86234 4.41801 9.80333 4.3522 9.73329 4.29967Z" fill="#ACADB4"/>
</svg>
