<svg width="89" height="97" viewBox="0 0 89 97" fill="none" xmlns="http://www.w3.org/2000/svg">
<path d="M39.3862 7.15346V7.15346C41.6808 9.44807 45.4011 9.44807 47.6957 7.15347L52.8093 2.03992" stroke="#757575" stroke-width="2.55677" stroke-linecap="round"/>
<circle cx="44.5" cy="53.1753" r="43.7847" fill="#BABABA"/>
<circle cx="32.675" cy="37.8347" r="12.7839" fill="white"/>
<path d="M42.9019 37.8347C42.9019 39.1777 42.6374 40.5076 42.1234 41.7484C41.6095 42.9892 40.8561 44.1167 39.9065 45.0663C38.9568 46.016 37.8294 46.7693 36.5886 47.2833C35.3478 47.7972 34.0179 48.0618 32.6748 48.0618C31.3318 48.0618 30.0019 47.7972 28.7611 47.2833C27.5203 46.7693 26.3929 46.016 25.4432 45.0663C24.4935 44.1167 23.7402 42.9892 23.2262 41.7484C22.7123 40.5076 22.4478 39.1777 22.4478 37.8347L32.6748 37.8347H42.9019Z" fill="#757575"/>
<rect x="24.0459" y="24.4116" width="17.2582" height="3.19596" rx="1.59798" fill="#757575"/>
<circle cx="58.2428" cy="37.8346" r="12.7839" fill="white"/>
<path d="M68.4698 37.8347C68.4698 39.1777 68.2053 40.5076 67.6913 41.7484C67.1773 42.9892 66.424 44.1166 65.4743 45.0663C64.5247 46.016 63.3972 46.7693 62.1564 47.2833C60.9156 47.7972 59.5857 48.0617 58.2427 48.0617C56.8997 48.0617 55.5698 47.7972 54.329 47.2833C53.0882 46.7693 51.9607 46.016 51.0111 45.0663C50.0614 44.1166 49.3081 42.9892 48.7941 41.7484C48.2802 40.5076 48.0156 39.1777 48.0156 37.8347L58.2427 37.8347H68.4698Z" fill="#757575"/>
<rect x="49.6138" y="24.4116" width="17.2582" height="3.19596" rx="1.59798" fill="#757575"/>
</svg>
