<svg width="89" height="97" viewBox="0 0 89 97" fill="none" xmlns="http://www.w3.org/2000/svg">
<path d="M45.1393 9.23086C45.4057 7.68614 45.1393 4.11732 41.9434 2.19974" stroke="#757575" stroke-width="2.55677" stroke-linecap="round"/>
<circle cx="44.5" cy="53.0156" r="43.7847" fill="#BABABA"/>
<path d="M21.9683 25.2107V25.2107C26.5766 21.6368 33.0201 21.6368 37.6285 25.2107V25.2107" stroke="#757575" stroke-width="1.91758" stroke-linecap="round"/>
<circle cx="29.7985" cy="40.2317" r="12.7839" fill="white"/>
<path d="M39.3862 40.2317C39.3862 42.6228 38.4928 44.9276 36.8812 46.694C35.2696 48.4603 33.0561 49.5608 30.675 49.7794C28.2939 49.998 25.9171 49.3191 24.0107 47.8757C22.1044 46.4324 20.8062 44.3288 20.3708 41.9777C19.9353 39.6265 20.3941 37.1976 21.6571 35.1672C22.9201 33.1369 24.8962 31.6518 27.1977 31.0032C29.4991 30.3547 31.9599 30.5894 34.0972 31.6615C36.2345 32.7336 37.894 34.5656 38.7503 36.7981L29.7983 40.2317H39.3862Z" fill="#757575"/>
<path d="M51.3711 25.2106V25.2106C55.9795 21.6368 62.4229 21.6368 67.0313 25.2106V25.2106" stroke="#757575" stroke-width="1.91758" stroke-linecap="round"/>
<circle cx="59.2013" cy="40.2317" r="12.7839" fill="white"/>
<path d="M68.7891 40.2317C68.7891 42.6228 67.8956 44.9276 66.284 46.6939C64.6724 48.4603 62.4589 49.5608 60.0778 49.7794C57.6967 49.998 55.3199 49.319 53.4136 47.8757C51.5072 46.4323 50.209 44.3288 49.7736 41.9776C49.3382 39.6265 49.797 37.1975 51.06 35.1672C52.323 33.1369 54.299 31.6518 56.6005 31.0032C58.902 30.3546 61.3627 30.5894 63.5 31.6615C65.6373 32.7336 67.2969 34.5656 68.1532 36.7981L59.2012 40.2317H68.7891Z" fill="#757575"/>
</svg>
