<svg width="300" height="300" viewBox="0 0 300 300" fill="none" xmlns="http://www.w3.org/2000/svg">
<mask id="mask0_4609_23642" style="mask-type:alpha" maskUnits="userSpaceOnUse" x="0" y="0" width="300" height="300">
<circle cx="150" cy="150" r="150" fill="#FFE28B"/>
</mask>
<g mask="url(#mask0_4609_23642)">
<g filter="url(#filter0_d_4609_23642)">
<path d="M82.4219 -14.0583C103.691 -79.518 196.299 -79.518 217.568 -14.0583V-14.0583C227.08 15.2163 254.361 35.0366 285.142 35.0366V35.0366C353.97 35.0366 382.588 123.112 326.904 163.569V163.569C302.002 181.661 291.582 213.731 301.094 243.006V243.006C322.363 308.465 247.441 362.899 191.758 322.443V322.443C166.855 304.35 133.135 304.35 108.233 322.443V322.443C52.5492 362.899 -22.3724 308.465 -1.10321 243.006V243.006C8.40865 213.731 -2.01153 181.661 -26.9139 163.569V163.569C-82.5973 123.112 -53.9798 35.0366 14.8487 35.0366V35.0366C45.6297 35.0366 72.9101 15.2162 82.4219 -14.0583V-14.0583Z" fill="url(#paint0_linear_4609_23642)"/>
</g>
<path d="M113.484 75.9023L133.022 75.9023" stroke="#3A3A3A" stroke-width="5.92084" stroke-linecap="round"/>
<path d="M123.352 56.3438L132.906 65.5358" stroke="#3A3A3A" stroke-width="5.92084" stroke-linecap="round"/>
<path d="M186.109 75.9023L166.572 75.9023" stroke="#3A3A3A" stroke-width="5.92084" stroke-linecap="round"/>
<path d="M176.234 56.3438L166.68 65.5358" stroke="#3A3A3A" stroke-width="5.92084" stroke-linecap="round"/>
<path fill-rule="evenodd" clip-rule="evenodd" d="M150.247 98.2624C149.858 98.6324 149.453 98.9772 149.043 99.2974C147.526 100.484 145.734 101.506 143.944 102.365C140.365 104.082 136.46 105.304 133.921 105.917C132.332 106.3 130.733 105.323 130.349 103.734C129.965 102.144 130.943 100.545 132.532 100.161C134.763 99.6226 138.259 98.5255 141.383 97.027C142.943 96.2783 144.328 95.4686 145.396 94.6336C146.495 93.7738 147.053 93.0464 147.27 92.5257C147.777 91.3092 149.001 90.6096 150.247 90.7132C151.494 90.6096 152.718 91.3092 153.225 92.5257C153.442 93.0464 154 93.7738 155.099 94.6336C156.167 95.4686 157.551 96.2783 159.112 97.027C162.235 98.5255 165.731 99.6226 167.963 100.161C169.552 100.545 170.529 102.144 170.146 103.734C169.762 105.323 168.163 106.3 166.573 105.917C164.035 105.304 160.13 104.082 156.551 102.365C154.761 101.506 152.969 100.484 151.451 99.2974C151.042 98.9772 150.636 98.6324 150.247 98.2624Z" fill="#3A3A3A"/>
</g>
<defs>
<filter id="filter0_d_4609_23642" x="-64.2304" y="-71.0468" width="428.453" height="415.277" filterUnits="userSpaceOnUse" color-interpolation-filters="sRGB">
<feFlood flood-opacity="0" result="BackgroundImageFix"/>
<feColorMatrix in="SourceAlpha" type="matrix" values="0 0 0 0 0 0 0 0 0 0 0 0 0 0 0 0 0 0 127 0" result="hardAlpha"/>
<feOffset/>
<feGaussianBlur stdDeviation="3.94723"/>
<feComposite in2="hardAlpha" operator="out"/>
<feColorMatrix type="matrix" values="0 0 0 0 1 0 0 0 0 0.943318 0 0 0 0 0.773275 0 0 0 1 0"/>
<feBlend mode="normal" in2="BackgroundImageFix" result="effect1_dropShadow_4609_23642"/>
<feBlend mode="normal" in="SourceGraphic" in2="effect1_dropShadow_4609_23642" result="shape"/>
</filter>
<linearGradient id="paint0_linear_4609_23642" x1="149.995" y1="149.999" x2="149.995" y2="-222.027" gradientUnits="userSpaceOnUse">
<stop stop-color="#FFE28B"/>
<stop offset="1" stop-color="#AAAAAA"/>
</linearGradient>
</defs>
</svg>
