<svg width="71" height="70" viewBox="0 0 71 70" fill="none" xmlns="http://www.w3.org/2000/svg">
<mask id="mask0_2956_7103" style="mask-type:alpha" maskUnits="userSpaceOnUse" x="0" y="0" width="71" height="70">
<circle cx="35.5" cy="35" r="35" fill="#FFE28B"/>
</mask>
<g mask="url(#mask0_2956_7103)">
<g filter="url(#filter0_d_2956_7103)">
<path d="M19.1162 -0.5047C24.079 -15.7786 45.6875 -15.7786 50.6503 -0.5047C52.8698 6.32602 59.2352 10.9508 66.4174 10.9508C82.4774 10.9508 89.1548 31.5017 76.162 40.9416C70.3515 45.1632 67.9201 52.6462 70.1395 59.4769C75.1024 74.7508 57.6207 87.452 44.6279 78.0122C38.8173 73.7906 30.9492 73.7906 25.1387 78.0122C12.1459 87.452 -5.33584 74.7508 -0.373039 59.4769C1.8464 52.6462 -0.584976 45.1632 -6.39553 40.9416C-19.3883 31.5017 -12.7109 10.9508 3.34907 10.9508C10.5313 10.9508 16.8967 6.32602 19.1162 -0.5047Z" fill="#FFE28B"/>
</g>
<path d="M30.4786 19.04C31.2194 19.7641 33.1087 20.6393 34.334 21.1607C34.6361 21.2893 34.5825 21.7337 34.2563 21.7705C31.9726 22.0283 27.0699 22.3985 25.3859 21.0821C23.1612 19.3429 25.0425 17.8369 26.9695 17.6743C28.0029 17.5375 29.448 18.0326 30.4786 19.04Z" fill="#B5D3FF"/>
<path d="M24.5225 14.6476C25.9611 15.7571 29.4475 17.4796 31.8846 15.4938" stroke="#3A3A3A" stroke-width="1.38153" stroke-linecap="round"/>
<path d="M46.1611 14.6476C44.7225 15.7571 41.2361 17.4796 38.799 15.4938" stroke="#3A3A3A" stroke-width="1.38153" stroke-linecap="round"/>
<ellipse cx="35.5747" cy="24.8939" rx="4.83536" ry="1.95717" fill="#3A3A3A"/>
</g>
<defs>
<filter id="filter0_d_2956_7103" x="-15.1032" y="-13.8022" width="99.973" height="96.8978" filterUnits="userSpaceOnUse" color-interpolation-filters="sRGB">
<feFlood flood-opacity="0" result="BackgroundImageFix"/>
<feColorMatrix in="SourceAlpha" type="matrix" values="0 0 0 0 0 0 0 0 0 0 0 0 0 0 0 0 0 0 127 0" result="hardAlpha"/>
<feOffset/>
<feGaussianBlur stdDeviation="0.92102"/>
<feComposite in2="hardAlpha" operator="out"/>
<feColorMatrix type="matrix" values="0 0 0 0 1 0 0 0 0 0.943318 0 0 0 0 0.773275 0 0 0 1 0"/>
<feBlend mode="normal" in2="BackgroundImageFix" result="effect1_dropShadow_2956_7103"/>
<feBlend mode="normal" in="SourceGraphic" in2="effect1_dropShadow_2956_7103" result="shape"/>
</filter>
</defs>
</svg>
