<svg width="300" height="300" viewBox="0 0 300 300" fill="none" xmlns="http://www.w3.org/2000/svg">
<mask id="mask0_4609_23643" style="mask-type:alpha" maskUnits="userSpaceOnUse" x="0" y="0" width="300" height="300">
<circle cx="150" cy="150" r="150" fill="#FFE28B"/>
</mask>
<g mask="url(#mask0_4609_23643)">
<g filter="url(#filter0_d_4609_23643)">
<path d="M79.7891 -2.16372C101.058 -67.6235 193.666 -67.6235 214.936 -2.16372V-2.16372C224.447 27.1108 251.728 46.9311 282.509 46.9311V46.9311C351.337 46.9311 379.955 135.007 324.271 175.463V175.463C299.369 193.556 288.949 225.626 298.461 254.9V254.9C319.73 320.36 244.808 374.794 189.125 334.337V334.337C164.223 316.245 130.502 316.245 105.6 334.337V334.337C49.9164 374.794 -25.0052 320.36 -3.73602 254.9V254.9C5.77584 225.626 -4.64434 193.556 -29.5467 175.463V175.463C-85.2301 135.007 -56.6126 46.9311 12.2159 46.9311V46.9311C42.9969 46.9311 70.2772 27.1108 79.7891 -2.16372V-2.16372Z" fill="#FFE28B"/>
</g>
<path d="M128.478 81.6032C131.653 84.7063 139.75 88.4571 145.001 90.6919C146.295 91.2428 146.066 93.1476 144.668 93.3054C134.88 94.41 113.869 95.9967 106.652 90.3547C97.1172 82.9012 105.18 76.4469 113.439 75.7501C117.867 75.1639 124.061 77.2858 128.478 81.6032Z" fill="#B5D3FF"/>
<path d="M102.953 62.7773C109.118 67.5323 124.06 74.9145 134.505 66.404" stroke="#3A3A3A" stroke-width="5.92084" stroke-linecap="round"/>
<path d="M195.695 62.7773C189.53 67.5323 174.588 74.9145 164.144 66.404" stroke="#3A3A3A" stroke-width="5.92084" stroke-linecap="round"/>
<ellipse cx="150.325" cy="106.689" rx="20.723" ry="8.38786" fill="#3A3A3A"/>
</g>
<defs>
<filter id="filter0_d_4609_23643" x="-66.8632" y="-59.1523" width="428.453" height="415.277" filterUnits="userSpaceOnUse" color-interpolation-filters="sRGB">
<feFlood flood-opacity="0" result="BackgroundImageFix"/>
<feColorMatrix in="SourceAlpha" type="matrix" values="0 0 0 0 0 0 0 0 0 0 0 0 0 0 0 0 0 0 127 0" result="hardAlpha"/>
<feOffset/>
<feGaussianBlur stdDeviation="3.94723"/>
<feComposite in2="hardAlpha" operator="out"/>
<feColorMatrix type="matrix" values="0 0 0 0 1 0 0 0 0 0.943318 0 0 0 0 0.773275 0 0 0 1 0"/>
<feBlend mode="normal" in2="BackgroundImageFix" result="effect1_dropShadow_4609_23643"/>
<feBlend mode="normal" in="SourceGraphic" in2="effect1_dropShadow_4609_23643" result="shape"/>
</filter>
</defs>
</svg>
