<svg width="300" height="300" viewBox="0 0 300 300" fill="none" xmlns="http://www.w3.org/2000/svg">
<mask id="mask0_4609_23644" style="mask-type:alpha" maskUnits="userSpaceOnUse" x="0" y="0" width="300" height="300">
<circle cx="150" cy="150" r="150" fill="#FFE28B"/>
</mask>
<g mask="url(#mask0_4609_23644)">
<g filter="url(#filter0_d_4609_23644)">
<path d="M82.4219 -14.0583C103.691 -79.518 196.299 -79.518 217.568 -14.0583V-14.0583C227.08 15.2163 254.361 35.0366 285.142 35.0366V35.0366C353.97 35.0366 382.588 123.112 326.904 163.569V163.569C302.002 181.661 291.582 213.731 301.094 243.006V243.006C322.363 308.465 247.441 362.899 191.758 322.443V322.443C166.855 304.35 133.135 304.35 108.233 322.443V322.443C52.5492 362.899 -22.3724 308.465 -1.10321 243.006V243.006C8.40865 213.731 -2.01153 181.661 -26.9139 163.569V163.569C-82.5973 123.112 -53.9798 35.0366 14.8487 35.0366V35.0366C45.6297 35.0366 72.9101 15.2162 82.4219 -14.0583V-14.0583Z" fill="#FFE28B"/>
</g>
<ellipse cx="122.854" cy="73.9498" rx="10.3615" ry="19.2427" fill="#3A3A3A"/>
<ellipse cx="120.881" cy="62.5996" rx="2.46702" ry="3.94723" fill="white"/>
<path d="M113.484 56.6836L133.022 56.6836" stroke="#3A3A3A" stroke-width="5.92084" stroke-linecap="round"/>
<ellipse cx="177.127" cy="73.9498" rx="10.3615" ry="19.2427" fill="#3A3A3A"/>
<ellipse cx="175.155" cy="62.5996" rx="2.46702" ry="3.94723" fill="white"/>
<path d="M167.758 56.6836L187.296 56.6836" stroke="#3A3A3A" stroke-width="5.92084" stroke-linecap="round"/>
<path fill-rule="evenodd" clip-rule="evenodd" d="M153.656 92.3901C148.073 91.7349 143.656 95.1056 143.141 99.7536C142.888 102.035 143.65 104.367 145.414 106.197C145.534 106.321 145.657 106.442 145.785 106.56C144.319 107.871 143.364 109.645 143.141 111.658C142.888 113.94 143.65 116.272 145.414 118.102C147.157 119.909 149.721 121.082 152.917 121.517C154.537 121.737 156.029 120.603 156.25 118.983C156.47 117.362 155.336 115.87 153.716 115.65C151.474 115.345 150.268 114.606 149.677 113.992C149.107 113.401 148.971 112.804 149.026 112.31C149.126 111.407 150.144 109.844 152.966 110.175C154.59 110.366 156.06 109.204 156.251 107.58C156.275 107.378 156.277 107.179 156.261 106.984C156.426 105.401 155.304 103.962 153.716 103.745C151.474 103.44 150.268 102.701 149.677 102.088C149.107 101.497 148.971 100.899 149.026 100.405C149.126 99.5027 150.144 97.9394 152.966 98.2706C154.59 98.4612 156.06 97.2993 156.251 95.6755C156.442 94.0516 155.28 92.5807 153.656 92.3901Z" fill="#3A3A3A"/>
</g>
<defs>
<filter id="filter0_d_4609_23644" x="-64.2304" y="-71.0468" width="428.453" height="415.277" filterUnits="userSpaceOnUse" color-interpolation-filters="sRGB">
<feFlood flood-opacity="0" result="BackgroundImageFix"/>
<feColorMatrix in="SourceAlpha" type="matrix" values="0 0 0 0 0 0 0 0 0 0 0 0 0 0 0 0 0 0 127 0" result="hardAlpha"/>
<feOffset/>
<feGaussianBlur stdDeviation="3.94723"/>
<feComposite in2="hardAlpha" operator="out"/>
<feColorMatrix type="matrix" values="0 0 0 0 1 0 0 0 0 0.943318 0 0 0 0 0.773275 0 0 0 1 0"/>
<feBlend mode="normal" in2="BackgroundImageFix" result="effect1_dropShadow_4609_23644"/>
<feBlend mode="normal" in="SourceGraphic" in2="effect1_dropShadow_4609_23644" result="shape"/>
</filter>
</defs>
</svg>
