<svg width="71" height="70" viewBox="0 0 71 70" fill="none" xmlns="http://www.w3.org/2000/svg">
<mask id="mask0_2956_7112" style="mask-type:alpha" maskUnits="userSpaceOnUse" x="0" y="0" width="71" height="70">
<circle cx="35.5" cy="35" r="35" fill="#FFE28B"/>
</mask>
<g mask="url(#mask0_2956_7112)">
<g filter="url(#filter0_d_2956_7112)">
<path d="M19.7329 -3.28003C24.6957 -18.554 46.3043 -18.554 51.2671 -3.28003C53.4865 3.55069 59.852 8.17543 67.0342 8.17543C83.0942 8.17543 89.7716 28.7264 76.7788 38.1662C70.9682 42.3878 68.5369 49.8708 70.7563 56.7016C75.7191 71.9755 58.2374 84.6767 45.2446 75.2369C39.4341 71.0153 31.566 71.0153 25.7554 75.2369C12.7626 84.6767 -4.71908 71.9755 0.243721 56.7016C2.46316 49.8708 0.0317841 42.3878 -5.77877 38.1662C-18.7716 28.7264 -12.0941 8.17543 3.96583 8.17543C11.1481 8.17543 17.5135 3.55069 19.7329 -3.28003Z" fill="#FFE28B"/>
</g>
<ellipse cx="29.1689" cy="17.2558" rx="2.41768" ry="4.48997" fill="#3A3A3A"/>
<ellipse cx="28.7084" cy="14.6079" rx="0.575638" ry="0.92102" fill="white"/>
<path d="M26.9812 13.2266L31.54 13.2266" stroke="#3A3A3A" stroke-width="1.38153" stroke-linecap="round"/>
<ellipse cx="41.8313" cy="17.2558" rx="2.41768" ry="4.48997" fill="#3A3A3A"/>
<ellipse cx="41.3708" cy="14.6079" rx="0.575638" ry="0.92102" fill="white"/>
<path d="M39.6444 13.2266L44.2032 13.2266" stroke="#3A3A3A" stroke-width="1.38153" stroke-linecap="round"/>
<path fill-rule="evenodd" clip-rule="evenodd" d="M36.3528 21.5586C35.05 21.4057 34.0194 22.1922 33.8993 23.2767C33.8404 23.8091 34.0181 24.3532 34.4298 24.7802C34.4576 24.8091 34.4864 24.8373 34.516 24.8648C34.1742 25.1706 33.9514 25.5844 33.8993 26.0542C33.8404 26.5865 34.0181 27.1307 34.4298 27.5577C34.8363 27.9793 35.4346 28.253 36.1804 28.3545C36.5585 28.4059 36.9066 28.1412 36.9581 27.7632C37.0095 27.3852 36.7448 27.037 36.3668 26.9856C35.8438 26.9144 35.5624 26.742 35.4243 26.5988C35.2914 26.4609 35.2597 26.3215 35.2725 26.2063C35.2958 25.9956 35.5333 25.6309 36.1918 25.7081C36.5707 25.7526 36.9139 25.4815 36.9583 25.1026C36.9639 25.0556 36.9645 25.0091 36.9607 24.9637C36.9992 24.5943 36.7374 24.2586 36.3668 24.2081C35.8438 24.1369 35.5624 23.9645 35.4243 23.8213C35.2914 23.6835 35.2597 23.544 35.2725 23.4288C35.2958 23.2182 35.5333 22.8534 36.1918 22.9307C36.5707 22.9752 36.9139 22.7041 36.9583 22.3252C37.0028 21.9463 36.7317 21.603 36.3528 21.5586Z" fill="#3A3A3A"/>
</g>
<defs>
<filter id="filter0_d_2956_7112" x="-14.4865" y="-16.5775" width="99.973" height="96.8978" filterUnits="userSpaceOnUse" color-interpolation-filters="sRGB">
<feFlood flood-opacity="0" result="BackgroundImageFix"/>
<feColorMatrix in="SourceAlpha" type="matrix" values="0 0 0 0 0 0 0 0 0 0 0 0 0 0 0 0 0 0 127 0" result="hardAlpha"/>
<feOffset/>
<feGaussianBlur stdDeviation="0.92102"/>
<feComposite in2="hardAlpha" operator="out"/>
<feColorMatrix type="matrix" values="0 0 0 0 1 0 0 0 0 0.943318 0 0 0 0 0.773275 0 0 0 1 0"/>
<feBlend mode="normal" in2="BackgroundImageFix" result="effect1_dropShadow_2956_7112"/>
<feBlend mode="normal" in="SourceGraphic" in2="effect1_dropShadow_2956_7112" result="shape"/>
</filter>
</defs>
</svg>
