<svg width="300" height="300" viewBox="0 0 300 300" fill="none" xmlns="http://www.w3.org/2000/svg">
<mask id="mask0_4609_23645" style="mask-type:alpha" maskUnits="userSpaceOnUse" x="0" y="0" width="300" height="300">
<circle cx="150" cy="150" r="150" fill="#FFE28B"/>
</mask>
<g mask="url(#mask0_4609_23645)">
<g filter="url(#filter0_d_4609_23645)">
<path d="M82.4219 -4.1481C103.691 -69.6079 196.299 -69.6079 217.568 -4.14809V-4.14809C227.08 25.1264 254.361 44.9467 285.142 44.9467V44.9467C353.97 44.9467 382.588 133.022 326.904 173.479V173.479C302.002 191.571 291.582 223.641 301.094 252.916V252.916C322.363 318.376 247.441 372.809 191.758 332.353V332.353C166.855 314.26 133.135 314.26 108.233 332.353V332.353C52.5492 372.809 -22.3724 318.376 -1.10321 252.916V252.916C8.40865 223.641 -2.01153 191.571 -26.9139 173.479V173.479C-82.5973 133.022 -53.9798 44.9467 14.8487 44.9467V44.9467C45.6297 44.9467 72.9101 25.1264 82.4219 -4.1481V-4.1481Z" fill="url(#paint0_linear_4609_23645)"/>
</g>
<path d="M117.43 56.8242L132.764 72.159C132.982 72.3763 132.988 72.7266 132.779 72.9515L117.43 89.4374" stroke="#3A3A3A" stroke-width="5.92084" stroke-linecap="round"/>
<path d="M182.438 56.8242L167.103 72.159C166.885 72.3763 166.879 72.7266 167.089 72.9515L182.438 89.4374" stroke="#3A3A3A" stroke-width="5.92084" stroke-linecap="round"/>
<path d="M139.141 99.6542C142.923 96.0359 152.66 90.9703 161.344 99.6542" stroke="#3A3A3A" stroke-width="5.92084" stroke-linecap="round"/>
<path d="M203.282 60.7166C203.282 63.0372 204.763 64.2182 206.243 64.2182C207.722 64.2182 209.203 63.0372 209.203 60.7166C209.203 58.3959 207.722 53.3633 206.243 53.3633C204.763 53.3633 203.282 58.3959 203.282 60.7166Z" fill="#B2D6FF"/>
<path d="M214.091 55.0363C214.091 60.3105 217.547 62.9944 220.999 62.9944C224.45 62.9944 227.906 60.3105 227.906 55.0363C227.906 49.7621 224.45 38.3242 220.999 38.3242C217.547 38.3242 214.091 49.7621 214.091 55.0363Z" fill="#B2D6FF"/>
</g>
<defs>
<filter id="filter0_d_4609_23645" x="-64.2304" y="-61.1366" width="428.453" height="415.277" filterUnits="userSpaceOnUse" color-interpolation-filters="sRGB">
<feFlood flood-opacity="0" result="BackgroundImageFix"/>
<feColorMatrix in="SourceAlpha" type="matrix" values="0 0 0 0 0 0 0 0 0 0 0 0 0 0 0 0 0 0 127 0" result="hardAlpha"/>
<feOffset/>
<feGaussianBlur stdDeviation="3.94723"/>
<feComposite in2="hardAlpha" operator="out"/>
<feColorMatrix type="matrix" values="0 0 0 0 1 0 0 0 0 0.943318 0 0 0 0 0.773275 0 0 0 1 0"/>
<feBlend mode="normal" in2="BackgroundImageFix" result="effect1_dropShadow_4609_23645"/>
<feBlend mode="normal" in="SourceGraphic" in2="effect1_dropShadow_4609_23645" result="shape"/>
</filter>
<linearGradient id="paint0_linear_4609_23645" x1="149.995" y1="201.849" x2="149.995" y2="-212.117" gradientUnits="userSpaceOnUse">
<stop stop-color="#FFE28B"/>
<stop offset="1" stop-color="#B3D7FF"/>
</linearGradient>
</defs>
</svg>
