<svg width="71" height="70" viewBox="0 0 71 70" fill="none" xmlns="http://www.w3.org/2000/svg">
<mask id="mask0_2956_7130" style="mask-type:alpha" maskUnits="userSpaceOnUse" x="0" y="0" width="71" height="70">
<circle cx="35.5" cy="35" r="35" fill="#FFE28B"/>
</mask>
<g mask="url(#mask0_2956_7130)">
<g filter="url(#filter0_d_2956_7130)">
<path d="M19.7329 -0.967285C24.6957 -16.2412 46.3043 -16.2412 51.2671 -0.967285C53.4865 5.86343 59.852 10.4882 67.0342 10.4882C83.0942 10.4882 89.7716 31.0392 76.7788 40.479C70.9682 44.7006 68.5369 52.1836 70.7563 59.0143C75.7191 74.2882 58.2374 86.9894 45.2446 77.5496C39.4341 73.328 31.566 73.328 25.7554 77.5496C12.7626 86.9894 -4.71908 74.2882 0.243721 59.0143C2.46316 52.1836 0.0317841 44.7006 -5.77877 40.479C-18.7716 31.0392 -12.0941 10.4882 3.96583 10.4882C11.1481 10.4882 17.5135 5.86343 19.7329 -0.967285Z" fill="url(#paint0_linear_2956_7130)"/>
</g>
<path d="M27.9016 13.2599L31.4797 16.838C31.5304 16.8887 31.5319 16.9704 31.483 17.0229L27.9016 20.8696" stroke="#3A3A3A" stroke-width="1.38153" stroke-linecap="round"/>
<path d="M43.0696 13.2599L39.4915 16.838C39.4408 16.8887 39.4394 16.9704 39.4882 17.0229L43.0696 20.8696" stroke="#3A3A3A" stroke-width="1.38153" stroke-linecap="round"/>
<path d="M32.9668 23.2534C33.8494 22.4091 36.1213 21.2271 38.1475 23.2534" stroke="#3A3A3A" stroke-width="1.38153" stroke-linecap="round"/>
<path d="M47.9337 14.1674C47.9337 14.7089 48.2793 14.9845 48.6245 14.9845C48.9696 14.9845 49.3152 14.7089 49.3152 14.1674C49.3152 13.6259 48.9696 12.4517 48.6245 12.4517C48.2793 12.4517 47.9337 13.6259 47.9337 14.1674Z" fill="#B2D6FF"/>
<path d="M50.4558 12.8422C50.4558 14.0728 51.2622 14.6991 52.0676 14.6991C52.873 14.6991 53.6794 14.0728 53.6794 12.8422C53.6794 11.6115 52.873 8.94269 52.0676 8.94269C51.2622 8.94269 50.4558 11.6115 50.4558 12.8422Z" fill="#B2D6FF"/>
</g>
<defs>
<filter id="filter0_d_2956_7130" x="-14.4865" y="-14.2648" width="99.973" height="96.8978" filterUnits="userSpaceOnUse" color-interpolation-filters="sRGB">
<feFlood flood-opacity="0" result="BackgroundImageFix"/>
<feColorMatrix in="SourceAlpha" type="matrix" values="0 0 0 0 0 0 0 0 0 0 0 0 0 0 0 0 0 0 127 0" result="hardAlpha"/>
<feOffset/>
<feGaussianBlur stdDeviation="0.92102"/>
<feComposite in2="hardAlpha" operator="out"/>
<feColorMatrix type="matrix" values="0 0 0 0 1 0 0 0 0 0.943318 0 0 0 0 0.773275 0 0 0 1 0"/>
<feBlend mode="normal" in2="BackgroundImageFix" result="effect1_dropShadow_2956_7130"/>
<feBlend mode="normal" in="SourceGraphic" in2="effect1_dropShadow_2956_7130" result="shape"/>
</filter>
<linearGradient id="paint0_linear_2956_7130" x1="35.5" y1="47.0986" x2="35.5" y2="-49.4934" gradientUnits="userSpaceOnUse">
<stop stop-color="#FFE28B"/>
<stop offset="1" stop-color="#B3D7FF"/>
</linearGradient>
</defs>
</svg>
