<svg width="300" height="300" viewBox="0 0 300 300" fill="none" xmlns="http://www.w3.org/2000/svg">
<mask id="mask0_4609_23648" style="mask-type:alpha" maskUnits="userSpaceOnUse" x="0" y="0" width="300" height="300">
<circle cx="150" cy="150" r="150" fill="#FFE28B"/>
</mask>
<g mask="url(#mask0_4609_23648)">
<g filter="url(#filter0_d_4609_23648)">
<path d="M82.4219 -14.0583C103.691 -79.518 196.299 -79.518 217.568 -14.0583V-14.0583C227.08 15.2163 254.361 35.0366 285.142 35.0366V35.0366C353.97 35.0366 382.588 123.112 326.904 163.569V163.569C302.002 181.661 291.582 213.731 301.094 243.006V243.006C322.363 308.465 247.441 362.899 191.758 322.443V322.443C166.855 304.35 133.135 304.35 108.233 322.443V322.443C52.5492 362.899 -22.3724 308.465 -1.10321 243.006V243.006C8.40865 213.731 -2.01153 181.661 -26.9139 163.569V163.569C-82.5973 123.112 -53.9798 35.0366 14.8487 35.0366V35.0366C45.6297 35.0366 72.9101 15.2162 82.4219 -14.0583V-14.0583Z" fill="#FFE28B"/>
</g>
<rect x="96.7109" y="87.0703" width="6.90765" height="26.6438" rx="3.45383" fill="white"/>
<rect x="196.375" y="87.0703" width="6.90765" height="76.971" rx="3.45383" fill="white"/>
<rect x="96.7109" y="64.3789" width="36.5119" height="27.6306" rx="3.94723" fill="#3A3A3A"/>
<rect x="96.7109" y="53.5234" width="36.5119" height="5.92084" rx="2.96042" fill="#3A3A3A"/>
<rect x="166.766" y="64.3789" width="36.5119" height="27.6306" rx="3.94723" fill="#3A3A3A"/>
<rect x="166.766" y="53.5234" width="36.5119" height="5.92084" rx="2.96042" fill="#3A3A3A"/>
<path d="M133.219 118.16L144.208 107.171C147.676 103.702 153.3 103.702 156.768 107.171L167.757 118.16" stroke="#3A3A3A" stroke-width="5.92084" stroke-linecap="round"/>
</g>
<defs>
<filter id="filter0_d_4609_23648" x="-64.2304" y="-71.0468" width="428.453" height="415.277" filterUnits="userSpaceOnUse" color-interpolation-filters="sRGB">
<feFlood flood-opacity="0" result="BackgroundImageFix"/>
<feColorMatrix in="SourceAlpha" type="matrix" values="0 0 0 0 0 0 0 0 0 0 0 0 0 0 0 0 0 0 127 0" result="hardAlpha"/>
<feOffset/>
<feGaussianBlur stdDeviation="3.94723"/>
<feComposite in2="hardAlpha" operator="out"/>
<feColorMatrix type="matrix" values="0 0 0 0 1 0 0 0 0 0.943318 0 0 0 0 0.773275 0 0 0 1 0"/>
<feBlend mode="normal" in2="BackgroundImageFix" result="effect1_dropShadow_4609_23648"/>
<feBlend mode="normal" in="SourceGraphic" in2="effect1_dropShadow_4609_23648" result="shape"/>
</filter>
</defs>
</svg>
