<svg width="71" height="70" viewBox="0 0 71 70" fill="none" xmlns="http://www.w3.org/2000/svg">
<mask id="mask0_2956_6957" style="mask-type:alpha" maskUnits="userSpaceOnUse" x="0" y="0" width="71" height="70">
<circle cx="35.5" cy="35" r="35" fill="#D9D9D9"/>
</mask>
<g mask="url(#mask0_2956_6957)">
<circle cx="34.5751" cy="12.6472" r="48.3095" fill="#F1F7FF"/>
<g filter="url(#filter0_d_2956_6957)">
<path d="M21.6924 -12.6203C25.7472 -25.0999 43.4026 -25.0999 47.4574 -12.6203L51.0229 -1.64679C52.8363 3.93426 58.0372 7.71291 63.9055 7.71291H75.4437C88.5656 7.71291 94.0214 24.5041 83.4056 32.2169L74.0709 38.999C69.3234 42.4482 67.3369 48.5622 69.1502 54.1433L72.7158 65.1168C76.7706 77.5964 62.4872 87.974 51.8714 80.2611L42.5367 73.4791C37.7892 70.0298 31.3606 70.0298 26.6131 73.4791L17.2784 80.2611C6.66263 87.974 -7.62082 77.5964 -3.56596 65.1168L-0.000434875 54.1433C1.81296 48.5622 -0.173599 42.4482 -4.92112 38.999L-14.2558 32.2169C-24.8716 24.5041 -19.4158 7.71291 -6.29393 7.71291H5.24434C11.1126 7.71291 16.3135 3.93425 18.1269 -1.64679L21.6924 -12.6203Z" fill="#FFE28B"/>
</g>
<path d="M42.6935 13.8705L39.4624 16.372C39.2831 16.5108 39.2664 16.7753 39.4266 16.9356L42.6935 20.2025" stroke="#3A3A3A" stroke-width="1.12878" stroke-linecap="round"/>
<ellipse cx="28.8774" cy="16.979" rx="2.41768" ry="4.48997" fill="#3A3A3A"/>
<ellipse cx="28.417" cy="14.3307" rx="0.575638" ry="0.92102" fill="white"/>
<path d="M31.1202 28.7213C33.9216 29.2586 41.1132 29.0667 47.4683 24.0011" stroke="#3A3A3A" stroke-width="1.12878" stroke-linecap="round"/>
</g>
<defs>
<filter id="filter0_d_2956_6957" x="-21.3704" y="-23.4851" width="111.891" height="107.9" filterUnits="userSpaceOnUse" color-interpolation-filters="sRGB">
<feFlood flood-opacity="0" result="BackgroundImageFix"/>
<feColorMatrix in="SourceAlpha" type="matrix" values="0 0 0 0 0 0 0 0 0 0 0 0 0 0 0 0 0 0 127 0" result="hardAlpha"/>
<feOffset/>
<feGaussianBlur stdDeviation="0.752521"/>
<feComposite in2="hardAlpha" operator="out"/>
<feColorMatrix type="matrix" values="0 0 0 0 1 0 0 0 0 0.943318 0 0 0 0 0.773275 0 0 0 1 0"/>
<feBlend mode="normal" in2="BackgroundImageFix" result="effect1_dropShadow_2956_6957"/>
<feBlend mode="normal" in="SourceGraphic" in2="effect1_dropShadow_2956_6957" result="shape"/>
</filter>
</defs>
</svg>
