<svg width="300" height="300" viewBox="0 0 300 300" fill="none" xmlns="http://www.w3.org/2000/svg">
<mask id="mask0_4609_23633" style="mask-type:alpha" maskUnits="userSpaceOnUse" x="0" y="0" width="300" height="300">
<circle cx="150" cy="150" r="150" fill="#D9D9D9"/>
</mask>
<g mask="url(#mask0_4609_23633)">
<circle cx="146.033" cy="54.1971" r="207.041" fill="#F1F7FF"/>
<g filter="url(#filter0_d_4609_23633)">
<path d="M90.8234 -54.0903C108.201 -107.574 183.867 -107.574 201.245 -54.0903L216.526 -7.06079C224.298 16.858 246.587 33.0522 271.737 33.0522H321.186C377.423 33.0522 400.805 105.015 355.309 138.069L315.303 167.135C294.956 181.918 286.443 208.121 294.214 232.04L309.495 279.069C326.873 332.553 265.658 377.028 220.162 343.973L180.156 314.907C159.81 300.125 132.259 300.125 111.912 314.907L71.9064 343.973C26.4102 377.028 -34.8046 332.553 -17.4266 279.069L-2.14578 232.039C5.6259 208.121 -2.88791 181.918 -23.2344 167.135L-63.2401 138.069C-108.736 105.015 -85.3543 33.0522 -29.1179 33.0522H20.3318C45.4815 33.0522 67.7709 16.858 75.5426 -7.0608L90.8234 -54.0903Z" fill="#FFE28B"/>
</g>
<path d="M180.827 59.4453L166.979 70.1662C166.211 70.7609 166.139 71.8947 166.826 72.5816L180.827 86.5825" stroke="#3A3A3A" stroke-width="4.83764" stroke-linecap="round"/>
<ellipse cx="121.611" cy="72.7662" rx="10.3615" ry="19.2427" fill="#3A3A3A"/>
<ellipse cx="119.639" cy="61.416" rx="2.46702" ry="3.94723" fill="white"/>
<path d="M131.227 123.089C143.233 125.391 174.054 124.569 201.29 102.859" stroke="#3A3A3A" stroke-width="4.83764" stroke-linecap="round"/>
</g>
<defs>
<filter id="filter0_d_4609_23633" x="-93.7314" y="-100.653" width="479.533" height="462.428" filterUnits="userSpaceOnUse" color-interpolation-filters="sRGB">
<feFlood flood-opacity="0" result="BackgroundImageFix"/>
<feColorMatrix in="SourceAlpha" type="matrix" values="0 0 0 0 0 0 0 0 0 0 0 0 0 0 0 0 0 0 127 0" result="hardAlpha"/>
<feOffset/>
<feGaussianBlur stdDeviation="3.22509"/>
<feComposite in2="hardAlpha" operator="out"/>
<feColorMatrix type="matrix" values="0 0 0 0 1 0 0 0 0 0.943318 0 0 0 0 0.773275 0 0 0 1 0"/>
<feBlend mode="normal" in2="BackgroundImageFix" result="effect1_dropShadow_4609_23633"/>
<feBlend mode="normal" in="SourceGraphic" in2="effect1_dropShadow_4609_23633" result="shape"/>
</filter>
</defs>
</svg>
