<svg width="300" height="300" viewBox="0 0 300 300" fill="none" xmlns="http://www.w3.org/2000/svg">
<circle cx="150" cy="150" r="150" fill="#F1F7FF"/>
<mask id="mask0_4609_23635" style="mask-type:alpha" maskUnits="userSpaceOnUse" x="0" y="0" width="300" height="300">
<circle cx="150" cy="150" r="150" fill="#F1F7FF"/>
</mask>
<g mask="url(#mask0_4609_23635)">
<g filter="url(#filter0_d_4609_23635)">
<path d="M92.0546 -54.5748C109.045 -106.866 183.023 -106.866 200.014 -54.5748L216.817 -2.86158C224.415 20.5238 246.207 36.3569 270.796 36.3569H325.171C380.153 36.3569 403.014 106.714 358.532 139.032L314.542 170.993C294.649 185.446 286.325 211.064 293.924 234.45L310.726 286.163C327.717 338.454 267.867 381.938 223.385 349.62L179.395 317.659C159.503 303.206 132.566 303.206 112.673 317.659L68.6832 349.62C24.2015 381.938 -35.6482 338.454 -18.6578 286.163L-1.85513 234.45C5.74324 211.064 -2.58072 185.446 -22.4735 170.993L-66.4634 139.032C-110.945 106.714 -88.0845 36.3569 -33.1021 36.3569H21.2723C45.8612 36.3569 67.6536 20.5238 75.252 -2.8616L92.0546 -54.5748Z" fill="#FFE28B"/>
</g>
<g filter="url(#filter1_f_4609_23635)">
<ellipse cx="102.505" cy="87.6117" rx="28.4505" ry="12.5375" fill="#F8ABA6" fill-opacity="0.5"/>
</g>
<g filter="url(#filter2_f_4609_23635)">
<ellipse cx="190.263" cy="87.6117" rx="28.4505" ry="12.5375" fill="#F8ABA6" fill-opacity="0.5"/>
</g>
<ellipse cx="118.225" cy="75.0958" rx="10.194" ry="18.9317" fill="#3A3A3A"/>
<ellipse cx="116.279" cy="63.9303" rx="2.42714" ry="3.88343" fill="white"/>
<path d="M107.062 60.8814C110.784 57.3216 120.363 52.3379 128.907 60.8814" stroke="#3A3A3A" stroke-width="4.65331" stroke-linecap="round"/>
<ellipse cx="173.077" cy="75.0958" rx="10.194" ry="18.9317" fill="#3A3A3A"/>
<ellipse cx="171.13" cy="63.9303" rx="2.42714" ry="3.88343" fill="white"/>
<path d="M161.914 60.8814C165.636 57.3216 175.215 52.3379 183.758 60.8814" stroke="#3A3A3A" stroke-width="4.65331" stroke-linecap="round"/>
<path d="M163.381 93.5552C165.523 93.5552 167.294 95.3047 166.916 97.4127C166.639 98.9527 166.198 100.462 165.596 101.915C164.498 104.565 162.889 106.973 160.861 109.001C158.832 111.03 156.424 112.639 153.774 113.737C151.124 114.834 148.283 115.4 145.415 115.4C142.546 115.4 139.705 114.834 137.055 113.737C134.405 112.639 131.997 111.03 129.968 109.001C127.94 106.973 126.331 104.565 125.233 101.915C124.631 100.462 124.19 98.9527 123.914 97.4127C123.535 95.3047 125.306 93.5552 127.448 93.5552L145.415 93.5552H163.381Z" fill="#3A3A3A"/>
</g>
<defs>
<filter id="filter0_d_4609_23635" x="-96.2751" y="-100.099" width="484.621" height="467.121" filterUnits="userSpaceOnUse" color-interpolation-filters="sRGB">
<feFlood flood-opacity="0" result="BackgroundImageFix"/>
<feColorMatrix in="SourceAlpha" type="matrix" values="0 0 0 0 0 0 0 0 0 0 0 0 0 0 0 0 0 0 127 0" result="hardAlpha"/>
<feOffset/>
<feGaussianBlur stdDeviation="3.15317"/>
<feComposite in2="hardAlpha" operator="out"/>
<feColorMatrix type="matrix" values="0 0 0 0 1 0 0 0 0 0.943318 0 0 0 0 0.773275 0 0 0 1 0"/>
<feBlend mode="normal" in2="BackgroundImageFix" result="effect1_dropShadow_4609_23635"/>
<feBlend mode="normal" in="SourceGraphic" in2="effect1_dropShadow_4609_23635" result="shape"/>
</filter>
<filter id="filter1_f_4609_23635" x="61.0347" y="62.0543" width="82.9384" height="51.1141" filterUnits="userSpaceOnUse" color-interpolation-filters="sRGB">
<feFlood flood-opacity="0" result="BackgroundImageFix"/>
<feBlend mode="normal" in="SourceGraphic" in2="BackgroundImageFix" result="shape"/>
<feGaussianBlur stdDeviation="6.50998" result="effect1_foregroundBlur_4609_23635"/>
</filter>
<filter id="filter2_f_4609_23635" x="148.793" y="62.0543" width="82.9384" height="51.1141" filterUnits="userSpaceOnUse" color-interpolation-filters="sRGB">
<feFlood flood-opacity="0" result="BackgroundImageFix"/>
<feBlend mode="normal" in="SourceGraphic" in2="BackgroundImageFix" result="shape"/>
<feGaussianBlur stdDeviation="6.50998" result="effect1_foregroundBlur_4609_23635"/>
</filter>
</defs>
</svg>
