<svg width="300" height="300" viewBox="0 0 300 300" fill="none" xmlns="http://www.w3.org/2000/svg">
<circle cx="150" cy="150" r="150" fill="#F1F7FF"/>
<mask id="mask0_4609_23637" style="mask-type:alpha" maskUnits="userSpaceOnUse" x="0" y="0" width="300" height="300">
<circle cx="150" cy="150" r="150" fill="#F1F7FF"/>
</mask>
<g mask="url(#mask0_4609_23637)">
<g filter="url(#filter0_d_4609_23637)">
<path d="M90.8234 -54.0903C108.201 -107.574 183.867 -107.574 201.245 -54.0903L216.526 -7.06079C224.298 16.858 246.587 33.0522 271.737 33.0522H321.186C377.423 33.0522 400.805 105.015 355.309 138.069L315.303 167.135C294.956 181.918 286.443 208.121 294.214 232.04L309.495 279.069C326.873 332.553 265.658 377.028 220.162 343.973L180.156 314.907C159.81 300.125 132.259 300.125 111.912 314.907L71.9064 343.973C26.4102 377.028 -34.8046 332.553 -17.4266 279.069L-2.14578 232.039C5.6259 208.121 -2.88791 181.918 -23.2344 167.135L-63.2401 138.069C-108.736 105.015 -85.3543 33.0522 -29.1179 33.0522H20.3318C45.4815 33.0522 67.7709 16.858 75.5426 -7.0608L90.8234 -54.0903Z" fill="url(#paint0_linear_4609_23637)"/>
</g>
<path d="M103.852 55.5557C104.951 52.5859 109.151 52.5859 110.25 55.5557L113.836 65.2468C114.182 66.1805 114.918 66.9167 115.852 67.2622L125.543 70.8482C128.513 71.9471 128.513 76.1476 125.543 77.2465L115.852 80.8325C114.918 81.178 114.182 81.9142 113.836 82.8479L110.25 92.539C109.151 95.5088 104.951 95.5088 103.852 92.539L100.266 82.8479C99.9206 81.9142 99.1844 81.178 98.2507 80.8325L88.5596 77.2465C85.5898 76.1476 85.5898 71.9471 88.5596 70.8482L98.2507 67.2622C99.1844 66.9167 99.9206 66.1805 100.266 65.2468L103.852 55.5557Z" fill="#FFBA07"/>
<path d="M181.813 55.5557C182.912 52.5859 187.112 52.5859 188.211 55.5557L191.797 65.2468C192.143 66.1805 192.879 66.9167 193.813 67.2622L203.504 70.8482C206.474 71.9471 206.474 76.1476 203.504 77.2465L193.813 80.8325C192.879 81.178 192.143 81.9142 191.797 82.8479L188.211 92.539C187.112 95.5088 182.912 95.5088 181.813 92.539L178.227 82.8479C177.882 81.9142 177.145 81.178 176.212 80.8325L166.521 77.2465C163.551 76.1476 163.551 71.9471 166.521 70.8482L176.212 67.2622C177.145 66.9167 177.882 66.1805 178.227 65.2468L181.813 55.5557Z" fill="#FFBA07"/>
<path d="M164.695 111.547C166.922 111.547 168.764 113.366 168.362 115.556C168.08 117.091 167.637 118.595 167.037 120.044C165.921 122.738 164.285 125.185 162.223 127.247C160.162 129.309 157.714 130.944 155.02 132.06C152.326 133.176 149.439 133.75 146.523 133.75C143.608 133.75 140.721 133.176 138.027 132.06C135.333 130.944 132.885 129.309 130.823 127.247C128.762 125.185 127.126 122.738 126.01 120.044C125.41 118.595 124.967 117.091 124.685 115.556C124.283 113.366 126.125 111.547 128.352 111.547L146.523 111.547H164.695Z" fill="#3A3A3A"/>
</g>
<defs>
<filter id="filter0_d_4609_23637" x="-93.7314" y="-100.653" width="479.533" height="462.428" filterUnits="userSpaceOnUse" color-interpolation-filters="sRGB">
<feFlood flood-opacity="0" result="BackgroundImageFix"/>
<feColorMatrix in="SourceAlpha" type="matrix" values="0 0 0 0 0 0 0 0 0 0 0 0 0 0 0 0 0 0 127 0" result="hardAlpha"/>
<feOffset/>
<feGaussianBlur stdDeviation="3.22509"/>
<feComposite in2="hardAlpha" operator="out"/>
<feColorMatrix type="matrix" values="0 0 0 0 1 0 0 0 0 0.943318 0 0 0 0 0.773275 0 0 0 1 0"/>
<feBlend mode="normal" in2="BackgroundImageFix" result="effect1_dropShadow_4609_23637"/>
<feBlend mode="normal" in="SourceGraphic" in2="effect1_dropShadow_4609_23637" result="shape"/>
</filter>
<linearGradient id="paint0_linear_4609_23637" x1="146.034" y1="-224.012" x2="146.034" y2="257.55" gradientUnits="userSpaceOnUse">
<stop stop-color="#FFBE18"/>
<stop offset="1" stop-color="#FFE28B"/>
</linearGradient>
</defs>
</svg>
