<svg width="300" height="300" viewBox="0 0 300 300" fill="none" xmlns="http://www.w3.org/2000/svg">
<circle cx="150" cy="150" r="150" fill="#F1F7FF"/>
<mask id="mask0_4609_23638" style="mask-type:alpha" maskUnits="userSpaceOnUse" x="0" y="0" width="300" height="300">
<circle cx="150" cy="150" r="150" fill="#F1F7FF"/>
</mask>
<g mask="url(#mask0_4609_23638)">
<g filter="url(#filter0_d_4609_23638)">
<path d="M82.4219 -14.0583C103.691 -79.518 196.299 -79.518 217.568 -14.0583V-14.0583C227.08 15.2163 254.361 35.0366 285.142 35.0366V35.0366C353.97 35.0366 382.588 123.112 326.904 163.569V163.569C302.002 181.661 291.582 213.731 301.094 243.006V243.006C322.363 308.465 247.441 362.899 191.758 322.443V322.443C166.855 304.35 133.135 304.35 108.233 322.443V322.443C52.5492 362.899 -22.3724 308.465 -1.10321 243.006V243.006C8.40865 213.731 -2.01152 181.661 -26.9139 163.569V163.569C-82.5973 123.112 -53.9798 35.0366 14.8487 35.0366V35.0366C45.6297 35.0366 72.9101 15.2163 82.4219 -14.0583V-14.0583Z" fill="#FFE28B"/>
</g>
<path d="M119.414 56.8281L133.229 70.6434" stroke="#3A3A3A" stroke-width="5.92085" stroke-linecap="round"/>
<ellipse cx="122.877" cy="93.8326" rx="10.3615" ry="19.2427" fill="#3A3A3A"/>
<ellipse cx="120.905" cy="82.4824" rx="2.46702" ry="3.94723" fill="white"/>
<path d="M180.594 56.8281L166.778 70.6434" stroke="#3A3A3A" stroke-width="5.92085" stroke-linecap="round"/>
<ellipse cx="177.135" cy="93.8326" rx="10.3615" ry="19.2427" fill="#3A3A3A"/>
<ellipse cx="175.162" cy="82.4824" rx="2.46702" ry="3.94723" fill="white"/>
<rect x="125.32" y="124.918" width="50.3272" height="6.90765" rx="3.45383" fill="#3A3A3A"/>
</g>
<defs>
<filter id="filter0_d_4609_23638" x="-64.2304" y="-71.0468" width="428.453" height="415.277" filterUnits="userSpaceOnUse" color-interpolation-filters="sRGB">
<feFlood flood-opacity="0" result="BackgroundImageFix"/>
<feColorMatrix in="SourceAlpha" type="matrix" values="0 0 0 0 0 0 0 0 0 0 0 0 0 0 0 0 0 0 127 0" result="hardAlpha"/>
<feOffset/>
<feGaussianBlur stdDeviation="3.94723"/>
<feComposite in2="hardAlpha" operator="out"/>
<feColorMatrix type="matrix" values="0 0 0 0 1 0 0 0 0 0.943318 0 0 0 0 0.773275 0 0 0 1 0"/>
<feBlend mode="normal" in2="BackgroundImageFix" result="effect1_dropShadow_4609_23638"/>
<feBlend mode="normal" in="SourceGraphic" in2="effect1_dropShadow_4609_23638" result="shape"/>
</filter>
</defs>
</svg>
