<svg width="71" height="70" viewBox="0 0 71 70" fill="none" xmlns="http://www.w3.org/2000/svg">
<circle cx="35.5" cy="35" r="35" fill="#F1F7FF"/>
<mask id="mask0_2956_6989" style="mask-type:alpha" maskUnits="userSpaceOnUse" x="0" y="0" width="71" height="70">
<circle cx="35.5" cy="35" r="35" fill="#F1F7FF"/>
</mask>
<g mask="url(#mask0_2956_6989)">
<g filter="url(#filter0_d_2956_6989)">
<path d="M21.9236 -12.6204C25.9785 -25.1 43.6338 -25.1 47.6887 -12.6204L51.2542 -1.64685C53.0676 3.9342 58.2685 7.71285 64.1367 7.71285H75.675C88.7968 7.71285 94.2526 24.5041 83.6368 32.2169L74.3022 38.9989C69.5547 42.4482 67.5681 48.5622 69.3815 54.1432L72.947 65.1168C77.0019 77.5964 62.7185 87.9739 52.1027 80.2611L42.768 73.479C38.0205 70.0298 31.5919 70.0298 26.8443 73.479L17.5097 80.2611C6.89389 87.9739 -7.38956 77.5964 -3.33469 65.1168L0.230827 54.1432C2.04422 48.5622 0.057663 42.4482 -4.68986 38.9989L-14.0245 32.2169C-24.6403 24.5041 -19.1845 7.71285 -6.06267 7.71285H5.4756C11.3439 7.71285 16.5447 3.93419 18.3581 -1.64685L21.9236 -12.6204Z" fill="url(#paint0_linear_2956_6989)"/>
</g>
<path d="M25.5856 12.9644C25.842 12.2715 26.8221 12.2715 27.0785 12.9644L27.9153 15.2257C27.9959 15.4436 28.1676 15.6153 28.3855 15.696L30.6468 16.5327C31.3397 16.7891 31.3397 17.7692 30.6468 18.0256L28.3855 18.8624C28.1676 18.943 27.9959 19.1148 27.9153 19.3326L27.0785 21.5939C26.8221 22.2868 25.842 22.2868 25.5856 21.5939L24.7488 19.3326C24.6682 19.1148 24.4964 18.943 24.2786 18.8624L22.0173 18.0256C21.3244 17.7692 21.3244 16.7891 22.0173 16.5327L24.2786 15.696C24.4964 15.6153 24.6682 15.4436 24.7488 15.2257L25.5856 12.9644Z" fill="#FFBA07"/>
<path d="M43.7758 12.9644C44.0322 12.2715 45.0123 12.2715 45.2687 12.9644L46.1055 15.2257C46.1861 15.4436 46.3579 15.6153 46.5757 15.696L48.837 16.5327C49.5299 16.7891 49.5299 17.7692 48.837 18.0256L46.5757 18.8624C46.3579 18.943 46.1861 19.1148 46.1055 19.3326L45.2687 21.5939C45.0123 22.2868 44.0322 22.2868 43.7758 21.5939L42.9391 19.3326C42.8584 19.1148 42.6867 18.943 42.4688 18.8624L40.2075 18.0256C39.5146 17.7692 39.5146 16.7891 40.2076 16.5327L42.4688 15.696C42.6867 15.6153 42.8584 15.4436 42.9391 15.2257L43.7758 12.9644Z" fill="#FFBA07"/>
<path d="M39.4209 26.0293C39.9404 26.0293 40.3702 26.4538 40.2763 26.9647C40.2106 27.3228 40.1071 27.6739 39.9671 28.0118C39.7068 28.6404 39.3252 29.2115 38.8441 29.6926C38.363 30.1737 37.7919 30.5553 37.1634 30.8156C36.5348 31.076 35.8611 31.21 35.1808 31.21C34.5004 31.21 33.8267 31.076 33.1982 30.8156C32.5696 30.5553 31.9985 30.1737 31.5174 29.6926C31.0364 29.2115 30.6547 28.6404 30.3944 28.0118C30.2544 27.6739 30.1509 27.3228 30.0852 26.9647C29.9914 26.4538 30.4212 26.0292 30.9407 26.0292L35.1808 26.0293H39.4209Z" fill="#3A3A3A"/>
</g>
<defs>
<filter id="filter0_d_2956_6989" x="-21.1392" y="-23.4851" width="111.891" height="107.9" filterUnits="userSpaceOnUse" color-interpolation-filters="sRGB">
<feFlood flood-opacity="0" result="BackgroundImageFix"/>
<feColorMatrix in="SourceAlpha" type="matrix" values="0 0 0 0 0 0 0 0 0 0 0 0 0 0 0 0 0 0 127 0" result="hardAlpha"/>
<feOffset/>
<feGaussianBlur stdDeviation="0.752521"/>
<feComposite in2="hardAlpha" operator="out"/>
<feColorMatrix type="matrix" values="0 0 0 0 1 0 0 0 0 0.943318 0 0 0 0 0.773275 0 0 0 1 0"/>
<feBlend mode="normal" in2="BackgroundImageFix" result="effect1_dropShadow_2956_6989"/>
<feBlend mode="normal" in="SourceGraphic" in2="effect1_dropShadow_2956_6989" result="shape"/>
</filter>
<linearGradient id="paint0_linear_2956_6989" x1="34.8062" y1="-52.2687" x2="34.8062" y2="60.0957" gradientUnits="userSpaceOnUse">
<stop stop-color="#FFBE18"/>
<stop offset="1" stop-color="#FFE28B"/>
</linearGradient>
</defs>
</svg>
