<svg width="71" height="70" viewBox="0 0 71 70" fill="none" xmlns="http://www.w3.org/2000/svg">
<circle cx="35.5" cy="35" r="35" fill="#F1F7FF"/>
<mask id="mask0_2956_7016" style="mask-type:alpha" maskUnits="userSpaceOnUse" x="0" y="0" width="71" height="70">
<circle cx="35.5" cy="35" r="35" fill="#F1F7FF"/>
</mask>
<g mask="url(#mask0_2956_7016)">
<g filter="url(#filter0_d_2956_7016)">
<path d="M19.7329 -3.28003C24.6957 -18.554 46.3043 -18.554 51.2671 -3.28003C53.4865 3.55069 59.852 8.17543 67.0342 8.17543C83.0942 8.17543 89.7716 28.7264 76.7788 38.1662C70.9682 42.3878 68.5369 49.8708 70.7563 56.7016C75.7191 71.9755 58.2374 84.6767 45.2446 75.2369C39.4341 71.0153 31.566 71.0153 25.7554 75.2369C12.7626 84.6767 -4.71909 71.9755 0.243721 56.7016C2.46316 49.8708 0.0317841 42.3878 -5.77877 38.1662C-18.7716 28.7264 -12.0942 8.17543 3.96583 8.17543C11.1481 8.17543 17.5135 3.55069 19.7329 -3.28003Z" fill="#FFE28B"/>
</g>
<path d="M28.3635 13.2599L31.587 16.4835" stroke="#3A3A3A" stroke-width="1.38153" stroke-linecap="round"/>
<ellipse cx="29.1701" cy="21.8948" rx="2.41768" ry="4.48997" fill="#3A3A3A"/>
<ellipse cx="28.7095" cy="19.2466" rx="0.575638" ry="0.92102" fill="white"/>
<path d="M42.6398 13.2599L39.4162 16.4835" stroke="#3A3A3A" stroke-width="1.38153" stroke-linecap="round"/>
<ellipse cx="41.8328" cy="21.8948" rx="2.41768" ry="4.48997" fill="#3A3A3A"/>
<ellipse cx="41.3722" cy="19.2466" rx="0.575638" ry="0.92102" fill="white"/>
<rect x="29.7434" y="29.1476" width="11.743" height="1.61179" rx="0.805893" fill="#3A3A3A"/>
</g>
<defs>
<filter id="filter0_d_2956_7016" x="-14.4865" y="-16.5775" width="99.973" height="96.8978" filterUnits="userSpaceOnUse" color-interpolation-filters="sRGB">
<feFlood flood-opacity="0" result="BackgroundImageFix"/>
<feColorMatrix in="SourceAlpha" type="matrix" values="0 0 0 0 0 0 0 0 0 0 0 0 0 0 0 0 0 0 127 0" result="hardAlpha"/>
<feOffset/>
<feGaussianBlur stdDeviation="0.92102"/>
<feComposite in2="hardAlpha" operator="out"/>
<feColorMatrix type="matrix" values="0 0 0 0 1 0 0 0 0 0.943318 0 0 0 0 0.773275 0 0 0 1 0"/>
<feBlend mode="normal" in2="BackgroundImageFix" result="effect1_dropShadow_2956_7016"/>
<feBlend mode="normal" in="SourceGraphic" in2="effect1_dropShadow_2956_7016" result="shape"/>
</filter>
</defs>
</svg>
