<svg width="71" height="70" viewBox="0 0 71 70" fill="none" xmlns="http://www.w3.org/2000/svg">
<path d="M29.641 24.1299C29.127 24.2327 27.9141 24.022 27.174 22.3568" stroke="#3A3A3A" stroke-width="0.92511" stroke-linecap="round"/>
<ellipse cx="28.022" cy="28.1387" rx="1.61894" ry="3.00661" fill="#3A3A3A"/>
<ellipse cx="27.7136" cy="26.3656" rx="0.385463" ry="0.61674" fill="white"/>
<path d="M34.8832 24.1299C35.3972 24.2327 36.6101 24.022 37.3502 22.3568" stroke="#3A3A3A" stroke-width="0.92511" stroke-linecap="round"/>
<ellipse cx="36.5022" cy="28.1387" rx="1.61894" ry="3.00661" fill="#3A3A3A"/>
<ellipse cx="36.1938" cy="26.3656" rx="0.385463" ry="0.61674" fill="white"/>
<path d="M29.641 34.9229C31.5169 35.2826 36.3326 35.1542 40.5881 31.7621" stroke="#3A3A3A" stroke-width="0.92511" stroke-linecap="round"/>
<circle cx="35.5" cy="35" r="35" fill="#FFE28B"/>
<path d="M30.9686 15.9078C30.2011 16.0613 28.3898 15.7466 27.2845 13.2599" stroke="#3A3A3A" stroke-width="1.38153" stroke-linecap="round"/>
<ellipse cx="28.5509" cy="21.8947" rx="2.41768" ry="4.48997" fill="#3A3A3A"/>
<ellipse cx="28.0904" cy="19.2468" rx="0.575638" ry="0.92102" fill="white"/>
<path d="M38.7977 15.9078C39.5652 16.0613 41.3765 15.7466 42.4818 13.2599" stroke="#3A3A3A" stroke-width="1.38153" stroke-linecap="round"/>
<ellipse cx="41.2157" cy="21.8947" rx="2.41768" ry="4.48997" fill="#3A3A3A"/>
<ellipse cx="40.7552" cy="19.2468" rx="0.575638" ry="0.92102" fill="white"/>
<path d="M30.9684 32.0254C33.7699 32.5627 40.9615 32.3708 47.3165 27.3052" stroke="#3A3A3A" stroke-width="1.38153" stroke-linecap="round"/>
</svg>
