<svg width="300" height="300" viewBox="0 0 300 300" fill="none" xmlns="http://www.w3.org/2000/svg">
<path d="M124.885 103.412C122.683 103.852 117.484 102.949 114.312 95.8125" stroke="#3A3A3A" stroke-width="3.96476" stroke-linecap="round"/>
<ellipse cx="117.946" cy="120.592" rx="6.93833" ry="12.8855" fill="#3A3A3A"/>
<ellipse cx="116.621" cy="112.995" rx="1.65198" ry="2.64317" fill="white"/>
<path d="M147.357 103.412C149.56 103.852 154.758 102.949 157.93 95.8125" stroke="#3A3A3A" stroke-width="3.96476" stroke-linecap="round"/>
<ellipse cx="154.29" cy="120.592" rx="6.93833" ry="12.8855" fill="#3A3A3A"/>
<ellipse cx="152.964" cy="112.995" rx="1.65198" ry="2.64317" fill="white"/>
<path d="M124.891 149.671C132.93 151.213 153.569 150.662 171.807 136.125" stroke="#3A3A3A" stroke-width="3.96476" stroke-linecap="round"/>
<circle cx="150" cy="150" r="150" fill="#FFE28B"/>
<path d="M130.578 68.1764C127.289 68.8343 119.526 67.4856 114.789 56.8281" stroke="#3A3A3A" stroke-width="5.92084" stroke-linecap="round"/>
<ellipse cx="120.213" cy="93.8326" rx="10.3615" ry="19.2427" fill="#3A3A3A"/>
<ellipse cx="118.24" cy="82.4824" rx="2.46702" ry="3.94723" fill="white"/>
<path d="M164.133 68.1764C167.422 68.8343 175.185 67.4856 179.922 56.8281" stroke="#3A3A3A" stroke-width="5.92084" stroke-linecap="round"/>
<ellipse cx="174.502" cy="93.8326" rx="10.3615" ry="19.2427" fill="#3A3A3A"/>
<ellipse cx="172.53" cy="82.4824" rx="2.46702" ry="3.94723" fill="white"/>
<path d="M130.578 137.253C142.584 139.556 173.406 138.733 200.641 117.023" stroke="#3A3A3A" stroke-width="5.92084" stroke-linecap="round"/>
</svg>
