<svg width="300" height="300" viewBox="0 0 300 300" fill="none" xmlns="http://www.w3.org/2000/svg">
<mask id="mask0_4609_23641" style="mask-type:alpha" maskUnits="userSpaceOnUse" x="0" y="0" width="300" height="300">
<circle cx="150" cy="150" r="150" fill="#FFE28B"/>
</mask>
<g mask="url(#mask0_4609_23641)">
<g filter="url(#filter0_d_4609_23641)">
<path d="M82.4219 -14.0583C103.691 -79.518 196.299 -79.518 217.568 -14.0583V-14.0583C227.08 15.2163 254.361 35.0366 285.142 35.0366V35.0366C353.97 35.0366 382.588 123.112 326.904 163.569V163.569C302.002 181.661 291.582 213.731 301.094 243.006V243.006C322.363 308.465 247.441 362.899 191.758 322.443V322.443C166.855 304.35 133.135 304.35 108.233 322.443V322.443C52.5492 362.899 -22.3724 308.465 -1.10321 243.006V243.006C8.40865 213.731 -2.01153 181.661 -26.9139 163.569V163.569C-82.5973 123.112 -53.9798 35.0366 14.8487 35.0366V35.0366C45.6297 35.0366 72.9101 15.2162 82.4219 -14.0583V-14.0583Z" fill="url(#paint0_linear_4609_23641)"/>
</g>
<ellipse cx="177.127" cy="72.7662" rx="10.3615" ry="19.2427" fill="#3A3A3A"/>
<ellipse cx="177.128" cy="72.7657" rx="7.40106" ry="14.3087" fill="white"/>
<ellipse cx="122.854" cy="72.7662" rx="10.3615" ry="19.2427" fill="#3A3A3A"/>
<ellipse cx="122.854" cy="72.7657" rx="7.40106" ry="14.3087" fill="white"/>
<ellipse cx="149.994" cy="126.547" rx="19.7362" ry="28.6174" fill="#3A3A3A"/>
</g>
<defs>
<filter id="filter0_d_4609_23641" x="-64.2304" y="-71.0468" width="428.453" height="415.277" filterUnits="userSpaceOnUse" color-interpolation-filters="sRGB">
<feFlood flood-opacity="0" result="BackgroundImageFix"/>
<feColorMatrix in="SourceAlpha" type="matrix" values="0 0 0 0 0 0 0 0 0 0 0 0 0 0 0 0 0 0 127 0" result="hardAlpha"/>
<feOffset/>
<feGaussianBlur stdDeviation="3.94723"/>
<feComposite in2="hardAlpha" operator="out"/>
<feColorMatrix type="matrix" values="0 0 0 0 1 0 0 0 0 0.943318 0 0 0 0 0.773275 0 0 0 1 0"/>
<feBlend mode="normal" in2="BackgroundImageFix" result="effect1_dropShadow_4609_23641"/>
<feBlend mode="normal" in="SourceGraphic" in2="effect1_dropShadow_4609_23641" result="shape"/>
</filter>
<linearGradient id="paint0_linear_4609_23641" x1="149.995" y1="-222.027" x2="149.995" y2="522.026" gradientUnits="userSpaceOnUse">
<stop stop-color="#AAAAAA"/>
<stop offset="1" stop-color="#FFE28B"/>
</linearGradient>
</defs>
</svg>
