<svg width="14" height="15" viewBox="0 0 14 15" fill="none" xmlns="http://www.w3.org/2000/svg">
<path fill-rule="evenodd" clip-rule="evenodd" d="M7 12.5C10.866 12.5 14 10.5 14 6.5C14 2.5 10.866 0.5 7 0.5C3.134 0.5 0 2.5 0 6.5C0 8.66 0.914 10.237 2.364 11.23L2.454 13.391C2.46286 13.6023 2.52945 13.8071 2.64655 13.9832C2.76366 14.1593 2.92678 14.2999 3.11821 14.3898C3.30963 14.4797 3.52203 14.5154 3.73232 14.4931C3.94262 14.4707 4.14276 14.3911 4.311 14.263L6.633 12.493C6.755 12.4977 6.87733 12.5 7 12.5Z" fill="#E6E6E6"/>
</svg>
