<svg width="40" height="40" viewBox="0 0 40 40" fill="none" xmlns="http://www.w3.org/2000/svg">
<g clip-path="url(#clip0_1725_36379)">
<path fill-rule="evenodd" clip-rule="evenodd" d="M20.0001 31.6673C20.4421 31.6673 20.866 31.8429 21.1786 32.1555C21.4912 32.468 21.6668 32.892 21.6668 33.334V35.0007C21.6668 35.4427 21.4912 35.8666 21.1786 36.1792C20.866 36.4917 20.4421 36.6673 20.0001 36.6673C19.5581 36.6673 19.1341 36.4917 18.8216 36.1792C18.509 35.8666 18.3334 35.4427 18.3334 35.0007V33.334C18.3334 32.892 18.509 32.468 18.8216 32.1555C19.1341 31.8429 19.5581 31.6673 20.0001 31.6673ZM28.2501 28.2507C28.5371 27.9637 28.9189 27.7913 29.324 27.7658C29.729 27.7404 30.1294 27.8636 30.4501 28.1123L30.6068 28.2507L31.7851 29.429C32.084 29.7289 32.2576 30.1314 32.2705 30.5546C32.2834 30.9779 32.1347 31.3902 31.8547 31.7078C31.5746 32.0254 31.1842 32.2245 30.7626 32.2646C30.3411 32.3048 29.9201 32.183 29.5851 31.924L29.4284 31.7856L28.2501 30.6073C27.9376 30.2948 27.7621 29.8709 27.7621 29.429C27.7621 28.987 27.9376 28.5632 28.2501 28.2507ZM11.7501 28.2507C12.0625 28.5632 12.2381 28.987 12.2381 29.429C12.2381 29.8709 12.0625 30.2948 11.7501 30.6073L10.5718 31.7856C10.2574 32.0892 9.83642 32.2572 9.39942 32.2534C8.96243 32.2496 8.54441 32.0744 8.23539 31.7653C7.92638 31.4563 7.7511 31.0383 7.7473 30.6013C7.7435 30.1643 7.91149 29.7433 8.21509 29.429L9.39343 28.2507C9.70597 27.9382 10.1298 27.7627 10.5718 27.7627C11.0137 27.7627 11.4375 27.9382 11.7501 28.2507ZM20.0001 3.33398C20.4083 3.33404 20.8023 3.48391 21.1074 3.75518C21.4124 4.02644 21.6073 4.40023 21.6551 4.80565L21.6668 5.00065V6.83398L35.2918 20.4607C36.3068 21.474 35.6634 23.1773 34.2918 23.324L34.1018 23.334H28.1668C27.7874 25.1848 26.7906 26.852 25.3397 28.0621C23.8889 29.2723 22.0699 29.9538 20.1811 29.9948C18.2922 30.0359 16.4453 29.4341 14.9432 28.2881C13.4411 27.1422 12.3728 25.5199 11.9134 23.6873L11.8334 23.334H5.90009C4.46509 23.334 3.71676 21.6757 4.58176 20.6023L4.71009 20.4607L18.3334 6.83398V5.00065C18.3334 4.55862 18.509 4.1347 18.8216 3.82214C19.1341 3.50958 19.5581 3.33398 20.0001 3.33398ZM24.7168 23.334H15.2834C15.6194 24.2845 16.2348 25.1112 17.0489 25.7059C17.8629 26.3005 18.8377 26.6353 19.8453 26.6663C20.853 26.6972 21.8465 26.423 22.6955 25.8795C23.5446 25.3361 24.2096 24.5487 24.6034 23.6207L24.7168 23.334Z" fill="#ACADB4"/>
</g>
<defs>
<clipPath id="clip0_1725_36379">
<rect width="40" height="40" fill="white"/>
</clipPath>
</defs>
</svg>
