<svg width="48" height="48" viewBox="0 0 48 48" fill="none" xmlns="http://www.w3.org/2000/svg">
<circle cx="24" cy="24" r="24" fill="#CADFFF"/>
<path d="M14.4664 26.9127L13.1953 31.9971L18.2797 30.726L33.0067 15.999C33.4833 15.5223 33.7511 14.8758 33.7511 14.2017C33.7511 13.5276 33.4833 12.8811 33.0067 12.4044L32.7881 12.1857C32.3114 11.7091 31.6649 11.4414 30.9908 11.4414C30.3167 11.4414 29.6702 11.7091 29.1934 12.1857L14.4664 26.9127Z" stroke="#68A4FF" stroke-width="1.86667" stroke-linecap="round" stroke-linejoin="round"/>
<path d="M14.4664 26.9122L13.1953 31.9966L18.2797 30.7255L30.9908 18.0145L27.1774 14.2012L14.4664 26.9122Z" fill="#68A4FF"/>
<path d="M27.1777 14.2012L30.991 18.0145M24.6355 31.9966H34.8043" stroke="#68A4FF" stroke-width="1.86667" stroke-linecap="round" stroke-linejoin="round"/>
</svg>
