<svg width="375" height="398" viewBox="0 0 375 398" fill="none" xmlns="http://www.w3.org/2000/svg">
<path d="M176 308.5C176 308.5 -62.7116 223.949 -37.2937 181.361C-19.7056 151.891 111.454 227.502 133.664 200.269C170.929 154.577 -65.0552 38 -65.0552 38" stroke="white" stroke-opacity="0.2" stroke-dasharray="8 8"/>
<path d="M-63.0474 305.584C-59.181 293.113 -51.9394 281.955 -42.1239 273.345C-32.3085 264.735 -20.302 259.008 -7.43343 256.799C5.43513 254.59 18.6639 255.985 30.7888 260.829C42.9137 265.673 53.4618 273.778 61.2657 284.246C69.0696 294.714 73.8248 307.137 75.0052 320.14C76.1855 333.144 73.7449 346.22 67.9535 357.922C62.1621 369.624 53.2458 379.496 42.1913 386.444C31.1368 393.392 18.3754 397.146 5.31946 397.291L4.53712 326.537L-63.0474 305.584Z" fill="white" fill-opacity="0.33"/>
<path d="M296 348C341.287 348 378 311.287 378 266C378 220.713 341.287 184 296 184C250.713 184 214 220.713 214 266C214 311.287 250.713 348 296 348Z" fill="#F0F6FF" fill-opacity="0.08"/>
<path d="M85 13C85 57.1828 49.1828 93 5 93C-39.1828 93 -75 57.1828 -75 13C-75 -31.1828 -39.1828 -67 5 -67C49.1828 -67 85 -31.1828 85 13ZM-24.4246 13C-24.4246 29.2508 -11.2508 42.4246 5 42.4246C21.2508 42.4246 34.4246 29.2508 34.4246 13C34.4246 -3.25075 21.2508 -16.4246 5 -16.4246C-11.2508 -16.4246 -24.4246 -3.25075 -24.4246 13Z" fill="white" fill-opacity="0.3"/>
<path d="M284.035 12.0462C284.644 0.437486 299.752 -3.61069 306.083 6.13858L336.511 52.9939C339.343 57.3539 344.659 59.3949 349.681 58.0494L403.646 43.5895C414.875 40.5808 423.393 53.6984 416.078 62.7325L380.918 106.151C377.647 110.191 377.349 115.878 380.18 120.238L410.608 167.094C416.94 176.843 407.096 188.998 396.244 184.832L344.086 164.811C339.233 162.948 333.731 164.422 330.46 168.462L295.301 211.88C287.985 220.914 273.383 215.309 273.991 203.7L276.915 147.908C277.187 142.716 274.085 137.94 269.232 136.077L217.074 116.055C206.222 111.889 207.04 96.2699 218.269 93.2612L272.234 78.8013C277.255 77.4558 280.839 73.0299 281.111 67.8383L284.035 12.0462Z" fill="white" fill-opacity="0.18"/>
</svg>
