<svg width="430" height="456" viewBox="0 0 430 456" fill="none" xmlns="http://www.w3.org/2000/svg">
<path d="M201.813 353.746C201.813 353.746 -71.9094 256.795 -42.7635 207.96C-22.5958 174.168 127.801 260.869 153.268 229.642C195.999 177.248 -74.5967 43.5732 -74.5967 43.5732" stroke="white" stroke-opacity="0.2" stroke-width="1.14667" stroke-dasharray="9.17 9.17"/>
<path d="M-72.2939 350.403C-67.8605 336.103 -59.5568 323.308 -48.3017 313.436C-37.0467 303.563 -23.2792 296.996 -8.52331 294.463C6.23265 291.93 21.4017 293.529 35.3049 299.084C49.2081 304.638 61.3033 313.932 70.2517 325.935C79.2002 337.939 84.6528 352.184 86.0064 367.094C87.3598 382.005 84.5612 396.999 77.9204 410.417C71.2796 423.835 61.0556 435.155 48.3798 443.122C35.7039 451.089 21.0709 455.394 6.10001 455.56L5.20292 374.429L-72.2939 350.403Z" fill="white" fill-opacity="0.33"/>
<path d="M97.4667 14.9067C97.4667 65.5696 56.3963 106.64 5.73333 106.64C-44.9296 106.64 -86 65.5696 -86 14.9067C-86 -35.7563 -44.9296 -76.8267 5.73333 -76.8267C56.3963 -76.8267 97.4667 -35.7563 97.4667 14.9067ZM-28.0069 14.9067C-28.0069 33.5409 -12.9009 48.6469 5.73333 48.6469C24.3676 48.6469 39.4735 33.5409 39.4735 14.9067C39.4735 -3.72752 24.3676 -18.8335 5.73333 -18.8335C-12.9009 -18.8335 -28.0069 -3.72752 -28.0069 14.9067Z" fill="white" fill-opacity="0.3"/>
<path d="M325.692 13.813C326.391 0.501657 343.715 -4.14025 350.974 7.03891L385.865 60.7664C389.112 65.7658 395.208 68.1062 400.966 66.5633L462.846 49.9826C475.722 46.5327 485.49 61.5742 477.102 71.9333L436.785 121.72C433.034 126.352 432.692 132.873 435.939 137.873L470.829 191.601C478.09 202.78 466.802 216.718 454.359 211.941L394.551 188.983C388.986 186.847 382.677 188.537 378.926 193.17L338.611 242.956C330.222 253.315 313.478 246.888 314.175 233.576L317.528 169.601C317.84 163.648 314.283 158.171 308.718 156.035L248.91 133.076C236.467 128.299 237.405 110.389 250.281 106.94L312.161 90.3588C317.918 88.816 322.028 83.741 322.34 77.7879L325.692 13.813Z" fill="white" fill-opacity="0.18"/>
</svg>
