<svg width="16" height="17" viewBox="0 0 16 17" fill="none" xmlns="http://www.w3.org/2000/svg">
<path d="M12.2366 4.86004H10.9433V3.62671C10.9439 3.27326 10.8401 2.92751 10.6449 2.63288C10.4496 2.33825 10.1717 2.10788 9.84595 1.97071C9.6297 1.88026 9.39768 1.83359 9.16328 1.83337H3.79661C3.56199 1.83425 3.32983 1.88133 3.11339 1.97192C2.89696 2.06252 2.70049 2.19486 2.5352 2.36139C2.36991 2.52791 2.23904 2.72537 2.15006 2.94247C2.06108 3.15957 2.01574 3.39208 2.01661 3.62671V10.3534C2.01574 10.588 2.06108 10.8205 2.15006 11.0376C2.23904 11.2547 2.36991 11.4522 2.5352 11.6187C2.70049 11.7852 2.89696 11.9176 3.11339 12.0082C3.32983 12.0988 3.56199 12.1458 3.79661 12.1467H5.08995V13.38C5.08994 13.8527 5.27727 14.3062 5.61089 14.6411C5.94451 14.9759 6.39725 15.1649 6.86995 15.1667H12.2033C12.676 15.1649 13.1287 14.9759 13.4623 14.6411C13.796 14.3062 13.9833 13.8527 13.9833 13.38V6.65337C13.9834 6.18573 13.8009 5.73652 13.4746 5.40151C13.1483 5.06651 12.7041 4.87221 12.2366 4.86004ZM5.08995 6.65337V11.1467H3.79661C3.69331 11.1458 3.59118 11.1246 3.49607 11.0843C3.40096 11.0439 3.31473 10.9853 3.2423 10.9116C3.16987 10.8379 3.11266 10.7507 3.07394 10.6549C3.03521 10.5591 3.01573 10.4567 3.01661 10.3534V3.62671C3.01573 3.5234 3.03521 3.42093 3.07394 3.32515C3.11266 3.22937 3.16987 3.14216 3.2423 3.06849C3.31473 2.99482 3.40096 2.93614 3.49607 2.8958C3.59118 2.85546 3.69331 2.83425 3.79661 2.83337H9.16328C9.26659 2.83425 9.36871 2.85546 9.46382 2.8958C9.55893 2.93614 9.64516 2.99482 9.71759 3.06849C9.79002 3.14216 9.84723 3.22937 9.88596 3.32515C9.92468 3.42093 9.94416 3.5234 9.94328 3.62671V4.86004H6.86995C6.39664 4.86356 5.94392 5.05405 5.61048 5.38999C5.27704 5.72592 5.08993 6.18005 5.08995 6.65337Z" fill="#808997"/>
</svg>
