<svg width="40" height="45" viewBox="0 0 40 45" fill="none" xmlns="http://www.w3.org/2000/svg">
<g clip-path="url(#clip0_542_6206)" filter="url(#filter0_d_542_6206)">
<path fill-rule="evenodd" clip-rule="evenodd" d="M20 31.6667C20.442 31.6667 20.8659 31.8423 21.1785 32.1549C21.491 32.4674 21.6666 32.8913 21.6666 33.3334V35C21.6666 35.4421 21.491 35.866 21.1785 36.1786C20.8659 36.4911 20.442 36.6667 20 36.6667C19.5579 36.6667 19.134 36.4911 18.8215 36.1786C18.5089 35.866 18.3333 35.4421 18.3333 35V33.3334C18.3333 32.8913 18.5089 32.4674 18.8215 32.1549C19.134 31.8423 19.5579 31.6667 20 31.6667ZM28.25 28.25C28.537 27.9631 28.9188 27.7907 29.3238 27.7652C29.7289 27.7398 30.1293 27.863 30.45 28.1117L30.6066 28.25L31.785 29.4284C32.0839 29.7283 32.2574 30.1308 32.2704 30.554C32.2833 30.9773 32.1346 31.3896 31.8546 31.7072C31.5745 32.0248 31.1841 32.2239 30.7625 32.264C30.341 32.3042 29.92 32.1824 29.585 31.9234L29.4283 31.785L28.25 30.6067C27.9375 30.2942 27.762 29.8703 27.762 29.4284C27.762 28.9864 27.9375 28.5626 28.25 28.25ZM11.75 28.25C12.0624 28.5626 12.2379 28.9864 12.2379 29.4284C12.2379 29.8703 12.0624 30.2942 11.75 30.6067L10.5716 31.785C10.2573 32.0886 9.8363 32.2566 9.3993 32.2528C8.96231 32.249 8.54429 32.0738 8.23527 31.7647C7.92626 31.4557 7.75098 31.0377 7.74718 30.6007C7.74338 30.1637 7.91137 29.7427 8.21497 29.4284L9.3933 28.25C9.70585 27.9376 10.1297 27.7621 10.5716 27.7621C11.0136 27.7621 11.4374 27.9376 11.75 28.25ZM20 3.33337C20.4082 3.33343 20.8022 3.4833 21.1073 3.75457C21.4123 4.02583 21.6072 4.39962 21.655 4.80504L21.6666 5.00004V6.83337L35.2916 20.46C36.3066 21.4734 35.6633 23.1767 34.2916 23.3234L34.1016 23.3334H28.1666C27.7873 25.1842 26.7905 26.8513 25.3396 28.0615C23.8887 29.2717 22.0698 29.9531 20.1809 29.9942C18.292 30.0353 16.4452 29.4335 14.9431 28.2875C13.441 27.1416 12.3727 25.5193 11.9133 23.6867L11.8333 23.3334H5.89997C4.46497 23.3334 3.71664 21.675 4.58164 20.6017L4.70997 20.46L18.3333 6.83337V5.00004C18.3333 4.55801 18.5089 4.13409 18.8215 3.82153C19.134 3.50897 19.5579 3.33337 20 3.33337ZM24.7166 23.3334H15.2833C15.6193 24.2838 16.2347 25.1106 17.0488 25.7052C17.8628 26.2999 18.8376 26.6346 19.8452 26.6656C20.8529 26.6966 21.8463 26.4224 22.6954 25.8789C23.5445 25.3354 24.2095 24.5481 24.6033 23.62L24.7166 23.3334Z" fill="#68A4FF"/>
</g>
<defs>
<filter id="filter0_d_542_6206" x="-4" y="0" width="48" height="48" filterUnits="userSpaceOnUse" color-interpolation-filters="sRGB">
<feFlood flood-opacity="0" result="BackgroundImageFix"/>
<feColorMatrix in="SourceAlpha" type="matrix" values="0 0 0 0 0 0 0 0 0 0 0 0 0 0 0 0 0 0 127 0" result="hardAlpha"/>
<feOffset dy="4"/>
<feGaussianBlur stdDeviation="2"/>
<feComposite in2="hardAlpha" operator="out"/>
<feColorMatrix type="matrix" values="0 0 0 0 0 0 0 0 0 0 0 0 0 0 0 0 0 0 0.25 0"/>
<feBlend mode="normal" in2="BackgroundImageFix" result="effect1_dropShadow_542_6206"/>
<feBlend mode="normal" in="SourceGraphic" in2="effect1_dropShadow_542_6206" result="shape"/>
</filter>
<clipPath id="clip0_542_6206">
<rect width="40" height="40" fill="white"/>
</clipPath>
</defs>
</svg>
