<svg width="352" height="202" viewBox="0 0 352 202" fill="none" xmlns="http://www.w3.org/2000/svg">
<g filter="url(#filter0_d_1582_10803)">
<path d="M0.941666 33.0909C4.80748 15.9767 29.1925 15.9767 33.0583 33.0909C35.5638 44.1825 48.2921 49.4548 57.9067 43.3834C72.7417 34.0154 89.9846 51.2582 80.6166 66.0933C74.5452 75.7079 79.8175 88.4362 90.9091 90.9417C108.023 94.8075 108.023 119.193 90.9091 123.058C79.8175 125.564 74.5452 138.292 80.6166 147.907C89.9846 162.742 72.7417 179.985 57.9067 170.617C48.2921 164.545 35.5638 169.817 33.0583 180.909C29.1925 198.023 4.80748 198.023 0.941666 180.909C-1.56377 169.817 -14.2921 164.545 -23.9067 170.617C-38.7418 179.985 -55.9846 162.742 -46.6166 147.907C-40.5452 138.292 -45.8175 125.564 -56.9091 123.058C-74.0233 119.193 -74.0233 94.8075 -56.9091 90.9417C-45.8175 88.4362 -40.5452 75.7079 -46.6166 66.0933C-55.9846 51.2583 -38.7417 34.0154 -23.9067 43.3834C-14.2921 49.4548 -1.56377 44.1825 0.941666 33.0909Z" fill="white" fill-opacity="0.25" shape-rendering="crispEdges"/>
</g>
<g filter="url(#filter1_i_1582_10803)">
<path d="M342.153 7.66395C342.038 6.70218 343.22 6.15407 343.879 6.86408L345.532 8.64523C345.827 8.96276 346.293 9.05439 346.686 8.87221L348.891 7.85028C349.77 7.44291 350.656 8.39822 350.185 9.24439L349.002 11.3671C348.791 11.7456 348.847 12.2168 349.142 12.5343L350.795 14.3154C351.454 15.0254 350.82 16.164 349.869 15.9769L347.485 15.5077C347.06 15.4241 346.629 15.6236 346.418 16.0021L345.235 18.1248C344.764 18.971 343.485 18.7193 343.369 17.7575L343.078 15.3448C343.027 14.9147 342.704 14.5668 342.279 14.4832L339.894 14.014C338.944 13.8269 338.788 12.5329 339.667 12.1255L341.872 11.1036C342.265 10.9214 342.496 10.5068 342.444 10.0767L342.153 7.66395Z" fill="white" fill-opacity="0.1"/>
</g>
<g filter="url(#filter2_i_1582_10803)">
<path d="M286.519 75.4971C286.327 74.4768 287.624 73.8754 288.278 74.6817L288.689 75.1875C289.081 75.6715 289.816 75.6823 290.223 75.2101L290.648 74.7168C291.326 73.9301 292.605 74.5696 292.382 75.5838L292.243 76.2199C292.109 76.8286 292.559 77.4099 293.182 77.4335L293.832 77.4582C294.87 77.4975 295.167 78.8965 294.236 79.3548L293.651 79.6422C293.092 79.9173 292.918 80.6313 293.288 81.133L293.674 81.6571C294.291 82.4928 293.382 83.5978 292.443 83.1551L291.854 82.8774C291.29 82.6117 290.624 82.9208 290.462 83.5227L290.293 84.1516C290.024 85.1544 288.594 85.1333 288.354 84.1229L288.204 83.4893C288.06 82.8829 287.403 82.5542 286.832 82.8032L286.235 83.0633C285.283 83.478 284.408 82.3467 285.048 81.5296L285.45 81.0171C285.834 80.5266 285.681 79.8077 285.131 79.5163L284.555 79.2117C283.637 78.7261 283.976 77.3365 285.014 77.3279L285.666 77.3224C286.289 77.3172 286.755 76.7495 286.64 76.137L286.519 75.4971Z" fill="white" fill-opacity="0.1"/>
</g>
<g filter="url(#filter3_i_1582_10803)">
<path d="M93.5192 7.49715C93.3266 6.47683 94.6243 5.87537 95.2784 6.68174L95.6887 7.18745C96.0813 7.67146 96.8162 7.68232 97.2229 7.21013L97.6479 6.71677C98.3256 5.93008 99.6049 6.56964 99.3823 7.58382L99.2427 8.21986C99.1091 8.82859 99.5588 9.40993 100.182 9.43354L100.832 9.4582C101.87 9.49754 102.167 10.8965 101.236 11.3548L100.651 11.6422C100.092 11.9173 99.9181 12.6313 100.288 13.133L100.674 13.6571C101.291 14.4928 100.382 15.5978 99.4431 15.1551L98.8541 14.8774C98.2904 14.6117 97.6235 14.9208 97.4619 15.5227L97.2931 16.1516C97.0239 17.1544 95.5937 17.1333 95.3542 16.1229L95.2041 15.4893C95.0603 14.8829 94.4029 14.5542 93.8316 14.8032L93.2346 15.0633C92.2827 15.478 91.4076 14.3467 92.0482 13.5296L92.4499 13.0171C92.8344 12.5266 92.6815 11.8077 92.1306 11.5163L91.5551 11.2117C90.6373 10.7261 90.9761 9.3365 92.0144 9.32785L92.6656 9.32243C93.2888 9.31724 93.7555 8.74945 93.6399 8.13704L93.5192 7.49715Z" fill="white" fill-opacity="0.1"/>
</g>
<g filter="url(#filter4_i_1582_10803)">
<path d="M276.867 1.37817C277.427 0.637729 278.606 0.993428 278.663 1.91999L278.671 2.05157C278.689 2.34288 278.833 2.61183 279.066 2.78787L279.171 2.86738C279.912 3.42729 279.556 4.60619 278.63 4.66312L278.498 4.67121C278.207 4.68911 277.938 4.83338 277.762 5.06618L277.682 5.17133C277.122 5.91177 275.943 5.55607 275.886 4.62951L275.878 4.49793C275.86 4.20662 275.716 3.93767 275.483 3.76164L275.378 3.68212C274.638 3.12221 274.994 1.94332 275.92 1.88638L276.052 1.87829C276.343 1.86039 276.612 1.71612 276.788 1.48333L276.867 1.37817Z" fill="white" fill-opacity="0.1"/>
</g>
<g filter="url(#filter5_i_1582_10803)">
<path d="M337.867 134.378C338.427 133.638 339.606 133.993 339.663 134.92L339.671 135.052C339.689 135.343 339.833 135.612 340.066 135.788L340.171 135.867C340.912 136.427 340.556 137.606 339.63 137.663L339.498 137.671C339.207 137.689 338.938 137.833 338.762 138.066L338.682 138.171C338.122 138.912 336.943 138.556 336.886 137.63L336.878 137.498C336.86 137.207 336.716 136.938 336.483 136.762L336.378 136.682C335.638 136.122 335.994 134.943 336.92 134.886L337.052 134.878C337.343 134.86 337.612 134.716 337.788 134.483L337.867 134.378Z" fill="white" fill-opacity="0.1"/>
</g>
<defs>
<filter id="filter0_d_1582_10803" x="-77.7451" y="12.2549" width="189.49" height="189.49" filterUnits="userSpaceOnUse" color-interpolation-filters="sRGB">
<feFlood flood-opacity="0" result="BackgroundImageFix"/>
<feColorMatrix in="SourceAlpha" type="matrix" values="0 0 0 0 0 0 0 0 0 0 0 0 0 0 0 0 0 0 127 0" result="hardAlpha"/>
<feOffset/>
<feGaussianBlur stdDeviation="4"/>
<feComposite in2="hardAlpha" operator="out"/>
<feColorMatrix type="matrix" values="0 0 0 0 1 0 0 0 0 1 0 0 0 0 1 0 0 0 0.25 0"/>
<feBlend mode="normal" in2="BackgroundImageFix" result="effect1_dropShadow_1582_10803"/>
<feBlend mode="normal" in="SourceGraphic" in2="effect1_dropShadow_1582_10803" result="shape"/>
</filter>
<filter id="filter1_i_1582_10803" x="339.087" y="6.54102" width="11.9795" height="12.0977" filterUnits="userSpaceOnUse" color-interpolation-filters="sRGB">
<feFlood flood-opacity="0" result="BackgroundImageFix"/>
<feBlend mode="normal" in="SourceGraphic" in2="BackgroundImageFix" result="shape"/>
<feColorMatrix in="SourceAlpha" type="matrix" values="0 0 0 0 0 0 0 0 0 0 0 0 0 0 0 0 0 0 127 0" result="hardAlpha"/>
<feOffset/>
<feGaussianBlur stdDeviation="5"/>
<feComposite in2="hardAlpha" operator="arithmetic" k2="-1" k3="1"/>
<feColorMatrix type="matrix" values="0 0 0 0 1 0 0 0 0 1 0 0 0 0 1 0 0 0 0.25 0"/>
<feBlend mode="normal" in2="shape" result="effect1_innerShadow_1582_10803"/>
</filter>
<filter id="filter2_i_1582_10803" x="284.021" y="74.3076" width="10.7744" height="10.585" filterUnits="userSpaceOnUse" color-interpolation-filters="sRGB">
<feFlood flood-opacity="0" result="BackgroundImageFix"/>
<feBlend mode="normal" in="SourceGraphic" in2="BackgroundImageFix" result="shape"/>
<feColorMatrix in="SourceAlpha" type="matrix" values="0 0 0 0 0 0 0 0 0 0 0 0 0 0 0 0 0 0 127 0" result="hardAlpha"/>
<feOffset/>
<feGaussianBlur stdDeviation="5"/>
<feComposite in2="hardAlpha" operator="arithmetic" k2="-1" k3="1"/>
<feColorMatrix type="matrix" values="0 0 0 0 1 0 0 0 0 1 0 0 0 0 1 0 0 0 0.25 0"/>
<feBlend mode="normal" in2="shape" result="effect1_innerShadow_1582_10803"/>
</filter>
<filter id="filter3_i_1582_10803" x="91.0215" y="6.30762" width="10.7744" height="10.585" filterUnits="userSpaceOnUse" color-interpolation-filters="sRGB">
<feFlood flood-opacity="0" result="BackgroundImageFix"/>
<feBlend mode="normal" in="SourceGraphic" in2="BackgroundImageFix" result="shape"/>
<feColorMatrix in="SourceAlpha" type="matrix" values="0 0 0 0 0 0 0 0 0 0 0 0 0 0 0 0 0 0 127 0" result="hardAlpha"/>
<feOffset/>
<feGaussianBlur stdDeviation="5"/>
<feComposite in2="hardAlpha" operator="arithmetic" k2="-1" k3="1"/>
<feColorMatrix type="matrix" values="0 0 0 0 1 0 0 0 0 1 0 0 0 0 1 0 0 0 0.25 0"/>
<feBlend mode="normal" in2="shape" result="effect1_innerShadow_1582_10803"/>
</filter>
<filter id="filter4_i_1582_10803" x="274.979" y="0.979492" width="4.58984" height="4.58984" filterUnits="userSpaceOnUse" color-interpolation-filters="sRGB">
<feFlood flood-opacity="0" result="BackgroundImageFix"/>
<feBlend mode="normal" in="SourceGraphic" in2="BackgroundImageFix" result="shape"/>
<feColorMatrix in="SourceAlpha" type="matrix" values="0 0 0 0 0 0 0 0 0 0 0 0 0 0 0 0 0 0 127 0" result="hardAlpha"/>
<feOffset/>
<feGaussianBlur stdDeviation="5"/>
<feComposite in2="hardAlpha" operator="arithmetic" k2="-1" k3="1"/>
<feColorMatrix type="matrix" values="0 0 0 0 1 0 0 0 0 1 0 0 0 0 1 0 0 0 0.25 0"/>
<feBlend mode="normal" in2="shape" result="effect1_innerShadow_1582_10803"/>
</filter>
<filter id="filter5_i_1582_10803" x="335.979" y="133.979" width="4.58984" height="4.58984" filterUnits="userSpaceOnUse" color-interpolation-filters="sRGB">
<feFlood flood-opacity="0" result="BackgroundImageFix"/>
<feBlend mode="normal" in="SourceGraphic" in2="BackgroundImageFix" result="shape"/>
<feColorMatrix in="SourceAlpha" type="matrix" values="0 0 0 0 0 0 0 0 0 0 0 0 0 0 0 0 0 0 127 0" result="hardAlpha"/>
<feOffset/>
<feGaussianBlur stdDeviation="5"/>
<feComposite in2="hardAlpha" operator="arithmetic" k2="-1" k3="1"/>
<feColorMatrix type="matrix" values="0 0 0 0 1 0 0 0 0 1 0 0 0 0 1 0 0 0 0.25 0"/>
<feBlend mode="normal" in2="shape" result="effect1_innerShadow_1582_10803"/>
</filter>
</defs>
</svg>
