<svg width="40" height="40" viewBox="0 0 40 40" fill="none" xmlns="http://www.w3.org/2000/svg">
<circle cx="20" cy="20" r="20" fill="#F1F7FF"/>
<mask id="mask0_3361_19040" style="mask-type:alpha" maskUnits="userSpaceOnUse" x="0" y="0" width="40" height="40">
<circle cx="20" cy="20" r="20" fill="#F1F7FF"/>
</mask>
<g mask="url(#mask0_3361_19040)">
<g filter="url(#filter0_d_3361_19040)">
<path d="M10.9902 -1.8743C13.8261 -10.6023 26.1739 -10.6023 29.0098 -1.8743C30.278 2.02896 33.9154 4.67168 38.0195 4.67168C47.1967 4.67168 51.0123 16.4151 43.5879 21.8093C40.2676 24.2216 38.8782 28.4976 40.1465 32.4009C42.9824 41.1289 32.9928 48.3867 25.5683 42.9925C22.248 40.5802 17.752 40.5802 14.4317 42.9925C7.00721 48.3867 -2.98233 41.1289 -0.146444 32.4009C1.1218 28.4976 -0.267551 24.2216 -3.58787 21.8093C-11.0123 16.4151 -7.19666 4.67168 1.98047 4.67168C6.08461 4.67168 9.72199 2.02896 10.9902 -1.8743Z" fill="#FFE28B"/>
</g>
<path d="M15.9219 7.57617L17.7639 9.41821" stroke="#3A3A3A" stroke-width="0.789446" stroke-linecap="round"/>
<ellipse cx="16.3825" cy="12.511" rx="1.38153" ry="2.5657" fill="#3A3A3A"/>
<ellipse cx="16.1195" cy="10.997" rx="0.328936" ry="0.526297" fill="white"/>
<path d="M24.0796 7.57617L22.2375 9.41821" stroke="#3A3A3A" stroke-width="0.789446" stroke-linecap="round"/>
<ellipse cx="23.6183" cy="12.511" rx="1.38153" ry="2.5657" fill="#3A3A3A"/>
<ellipse cx="23.3553" cy="10.997" rx="0.328936" ry="0.526297" fill="white"/>
<rect x="16.7104" y="16.6562" width="6.71029" height="0.92102" rx="0.46051" fill="#3A3A3A"/>
</g>
<defs>
<filter id="filter0_d_3361_19040" x="-8.56383" y="-9.47252" width="57.1277" height="55.3689" filterUnits="userSpaceOnUse" color-interpolation-filters="sRGB">
<feFlood flood-opacity="0" result="BackgroundImageFix"/>
<feColorMatrix in="SourceAlpha" type="matrix" values="0 0 0 0 0 0 0 0 0 0 0 0 0 0 0 0 0 0 127 0" result="hardAlpha"/>
<feOffset/>
<feGaussianBlur stdDeviation="0.526297"/>
<feComposite in2="hardAlpha" operator="out"/>
<feColorMatrix type="matrix" values="0 0 0 0 1 0 0 0 0 0.943318 0 0 0 0 0.773275 0 0 0 1 0"/>
<feBlend mode="normal" in2="BackgroundImageFix" result="effect1_dropShadow_3361_19040"/>
<feBlend mode="normal" in="SourceGraphic" in2="effect1_dropShadow_3361_19040" result="shape"/>
</filter>
</defs>
</svg>
