<svg width="40" height="40" viewBox="0 0 40 40" fill="none" xmlns="http://www.w3.org/2000/svg">
<path fill-rule="evenodd" clip-rule="evenodd" d="M26.494 11.801C28.589 13.022 30.063 15.501 29.998 18.393C29.917 22.003 27.108 25.187 22.319 28.031C21.609 28.453 20.861 29 20 29C19.155 29 18.375 28.443 17.68 28.03C12.893 25.187 10.083 22.002 10.002 18.393C9.937 15.501 11.411 13.023 13.506 11.801C15.466 10.66 17.928 10.653 20 12.338C22.072 10.653 24.534 10.659 26.494 11.801ZM25.487 13.53C24.093 12.718 22.351 12.747 20.843 14.273C20.7326 14.3842 20.6012 14.4725 20.4566 14.5327C20.3119 14.593 20.1567 14.624 20 14.624C19.8433 14.624 19.6881 14.593 19.5434 14.5327C19.3988 14.4725 19.2674 14.3842 19.157 14.273C17.649 12.747 15.907 12.718 14.513 13.53C13.069 14.372 11.953 16.158 12.002 18.35C12.058 20.861 14.042 23.544 18.702 26.312C19.11 26.555 19.536 26.866 20 26.995C20.464 26.866 20.89 26.555 21.298 26.312C25.958 23.544 27.942 20.862 27.998 18.349C28.048 16.159 26.931 14.372 25.487 13.53Z" fill="#5D5D6A"/>
</svg>
