<svg width="25" height="24" viewBox="0 0 25 24" fill="none" xmlns="http://www.w3.org/2000/svg">
<path d="M6.116 20H9.175V15.344H4.5V18.384C4.5 18.8287 4.65833 19.2093 4.975 19.526C5.29167 19.8427 5.67167 20.0007 6.115 20M10.175 20H14.825V15.344H10.175V20ZM15.825 20H18.885C19.329 20 19.709 19.8417 20.025 19.525C20.341 19.2083 20.4993 18.8283 20.5 18.385V15.345H15.825V20ZM4.5 14.344H9.175V9.656H4.5V14.344ZM10.175 14.344H14.825V9.656H10.175V14.344ZM15.825 14.344H20.5V9.656H15.825V14.344ZM4.5 8.656H9.175V4H6.115C5.671 4 5.291 4.15833 4.975 4.475C4.659 4.79167 4.50067 5.17167 4.5 5.615V8.656ZM10.175 8.656H14.825V4H10.175V8.656ZM15.825 8.656H20.5V5.616C20.5 5.17133 20.3417 4.791 20.025 4.475C19.7083 4.159 19.3287 4.00067 18.886 4H15.826L15.825 8.656Z" fill="#ACADB4"/>
</svg>
